%TF.GenerationSoftware,KiCad,Pcbnew,6.0.11-2627ca5db0~126~ubuntu22.04.1*%
%TF.CreationDate,2023-02-06T22:18:29+01:00*%
%TF.ProjectId,Stepper_Driver_TMC2225-SA-T,53746570-7065-4725-9f44-72697665725f,rev?*%
%TF.SameCoordinates,Original*%
%TF.FileFunction,Copper,L2,Bot*%
%TF.FilePolarity,Positive*%
%FSLAX46Y46*%
G04 Gerber Fmt 4.6, Leading zero omitted, Abs format (unit mm)*
G04 Created by KiCad (PCBNEW 6.0.11-2627ca5db0~126~ubuntu22.04.1) date 2023-02-06 22:18:29*
%MOMM*%
%LPD*%
G01*
G04 APERTURE LIST*
G04 Aperture macros list*
%AMRoundRect*
0 Rectangle with rounded corners*
0 $1 Rounding radius*
0 $2 $3 $4 $5 $6 $7 $8 $9 X,Y pos of 4 corners*
0 Add a 4 corners polygon primitive as box body*
4,1,4,$2,$3,$4,$5,$6,$7,$8,$9,$2,$3,0*
0 Add four circle primitives for the rounded corners*
1,1,$1+$1,$2,$3*
1,1,$1+$1,$4,$5*
1,1,$1+$1,$6,$7*
1,1,$1+$1,$8,$9*
0 Add four rect primitives between the rounded corners*
20,1,$1+$1,$2,$3,$4,$5,0*
20,1,$1+$1,$4,$5,$6,$7,0*
20,1,$1+$1,$6,$7,$8,$9,0*
20,1,$1+$1,$8,$9,$2,$3,0*%
G04 Aperture macros list end*
%TA.AperFunction,ComponentPad*%
%ADD10C,0.800000*%
%TD*%
%TA.AperFunction,ComponentPad*%
%ADD11C,6.400000*%
%TD*%
%TA.AperFunction,ComponentPad*%
%ADD12R,1.700000X1.700000*%
%TD*%
%TA.AperFunction,ComponentPad*%
%ADD13O,1.700000X1.700000*%
%TD*%
%TA.AperFunction,ComponentPad*%
%ADD14RoundRect,0.250000X-0.725000X0.600000X-0.725000X-0.600000X0.725000X-0.600000X0.725000X0.600000X0*%
%TD*%
%TA.AperFunction,ComponentPad*%
%ADD15O,1.950000X1.700000*%
%TD*%
%TA.AperFunction,ComponentPad*%
%ADD16RoundRect,0.250000X0.725000X-0.600000X0.725000X0.600000X-0.725000X0.600000X-0.725000X-0.600000X0*%
%TD*%
%TA.AperFunction,ComponentPad*%
%ADD17C,0.600000*%
%TD*%
%TA.AperFunction,SMDPad,CuDef*%
%ADD18R,2.850000X5.400000*%
%TD*%
%TA.AperFunction,ComponentPad*%
%ADD19RoundRect,0.250000X-0.600000X-0.725000X0.600000X-0.725000X0.600000X0.725000X-0.600000X0.725000X0*%
%TD*%
%TA.AperFunction,ComponentPad*%
%ADD20O,1.700000X1.950000*%
%TD*%
%TA.AperFunction,ViaPad*%
%ADD21C,0.800000*%
%TD*%
%TA.AperFunction,ViaPad*%
%ADD22C,1.000000*%
%TD*%
%TA.AperFunction,Conductor*%
%ADD23C,0.400000*%
%TD*%
%TA.AperFunction,Conductor*%
%ADD24C,1.000000*%
%TD*%
G04 APERTURE END LIST*
D10*
%TO.P,H3,1,1*%
%TO.N,GND*%
X80000000Y-77600000D03*
X78302944Y-78302944D03*
X81697056Y-78302944D03*
X81697056Y-81697056D03*
X80000000Y-82400000D03*
D11*
X80000000Y-80000000D03*
D10*
X77600000Y-80000000D03*
X78302944Y-81697056D03*
X82400000Y-80000000D03*
%TD*%
D12*
%TO.P,J3,1,Pin_1*%
%TO.N,+3.3V*%
X35000000Y-47380000D03*
D13*
%TO.P,J3,2,Pin_2*%
%TO.N,DIR*%
X35000000Y-49920000D03*
%TO.P,J3,3,Pin_3*%
%TO.N,STEP*%
X35000000Y-52460000D03*
%TO.P,J3,4,Pin_4*%
%TO.N,CLK*%
X35000000Y-55000000D03*
%TO.P,J3,5,Pin_5*%
%TO.N,UART_TX*%
X35000000Y-57540000D03*
%TO.P,J3,6,Pin_6*%
%TO.N,UART_RX*%
X35000000Y-60080000D03*
%TO.P,J3,7,Pin_7*%
%TO.N,GND*%
X35000000Y-62620000D03*
%TD*%
D12*
%TO.P,J6,1,Pin_1*%
%TO.N,GND*%
X50800000Y-75000000D03*
D13*
%TO.P,J6,2,Pin_2*%
X53340000Y-75000000D03*
%TO.P,J6,3,Pin_3*%
X55880000Y-75000000D03*
%TO.P,J6,4,Pin_4*%
X58420000Y-75000000D03*
%TO.P,J6,5,Pin_5*%
X60960000Y-75000000D03*
%TD*%
D10*
%TO.P,H2,1,1*%
%TO.N,GND*%
X77600000Y-30000000D03*
X82400000Y-30000000D03*
X78302944Y-31697056D03*
X81697056Y-28302944D03*
X78302944Y-28302944D03*
X81697056Y-31697056D03*
X80000000Y-27600000D03*
D11*
X80000000Y-30000000D03*
D10*
X80000000Y-32400000D03*
%TD*%
D12*
%TO.P,J4,1,Pin_1*%
%TO.N,VREF*%
X50800000Y-80000000D03*
D13*
%TO.P,J4,2,Pin_2*%
%TO.N,SPREAD*%
X53340000Y-80000000D03*
%TO.P,J4,3,Pin_3*%
%TO.N,INDEX*%
X55880000Y-80000000D03*
%TO.P,J4,4,Pin_4*%
%TO.N,DIAG*%
X58420000Y-80000000D03*
%TO.P,J4,5,Pin_5*%
%TO.N,GND*%
X60960000Y-80000000D03*
%TD*%
D12*
%TO.P,J5,1,Pin_1*%
%TO.N,+3.3V*%
X50800000Y-70000000D03*
D13*
%TO.P,J5,2,Pin_2*%
X53340000Y-70000000D03*
%TO.P,J5,3,Pin_3*%
X55880000Y-70000000D03*
%TO.P,J5,4,Pin_4*%
X58420000Y-70000000D03*
%TO.P,J5,5,Pin_5*%
X60960000Y-70000000D03*
%TD*%
D10*
%TO.P,H4,1,1*%
%TO.N,GND*%
X28302944Y-81697056D03*
X27600000Y-80000000D03*
X30000000Y-77600000D03*
D11*
X30000000Y-80000000D03*
D10*
X31697056Y-78302944D03*
X30000000Y-82400000D03*
X28302944Y-78302944D03*
X32400000Y-80000000D03*
X31697056Y-81697056D03*
%TD*%
D14*
%TO.P,J2,1,Pin_1*%
%TO.N,+3.3V*%
X30000000Y-47500000D03*
D15*
%TO.P,J2,2,Pin_2*%
%TO.N,DIR*%
X30000000Y-50000000D03*
%TO.P,J2,3,Pin_3*%
%TO.N,STEP*%
X30000000Y-52500000D03*
%TO.P,J2,4,Pin_4*%
%TO.N,CLK*%
X30000000Y-55000000D03*
%TO.P,J2,5,Pin_5*%
%TO.N,UART_TX*%
X30000000Y-57500000D03*
%TO.P,J2,6,Pin_6*%
%TO.N,UART_RX*%
X30000000Y-60000000D03*
%TO.P,J2,7,Pin_7*%
%TO.N,GND*%
X30000000Y-62500000D03*
%TD*%
D16*
%TO.P,J8,1,Pin_1*%
%TO.N,OA1*%
X72500000Y-60000000D03*
D15*
%TO.P,J8,2,Pin_2*%
%TO.N,unconnected-(J8-Pad2)*%
X72500000Y-57500000D03*
%TO.P,J8,3,Pin_3*%
%TO.N,OA2*%
X72500000Y-55000000D03*
%TO.P,J8,4,Pin_4*%
%TO.N,OB1*%
X72500000Y-52500000D03*
%TO.P,J8,5,Pin_5*%
%TO.N,OB2*%
X72500000Y-50000000D03*
%TD*%
D17*
%TO.P,U1,29,PAD*%
%TO.N,GND*%
X53875000Y-57400000D03*
X56125000Y-57400000D03*
X56125000Y-52600000D03*
X53875000Y-54200000D03*
X53875000Y-55800000D03*
X56125000Y-55800000D03*
X56125000Y-54200000D03*
X53875000Y-52600000D03*
D18*
X55000000Y-55000000D03*
%TD*%
D16*
%TO.P,J7,1,Pin_1*%
%TO.N,OA1*%
X80000000Y-58750000D03*
D15*
%TO.P,J7,2,Pin_2*%
%TO.N,OA2*%
X80000000Y-56250000D03*
%TO.P,J7,3,Pin_3*%
%TO.N,OB1*%
X80000000Y-53750000D03*
%TO.P,J7,4,Pin_4*%
%TO.N,OB2*%
X80000000Y-51250000D03*
%TD*%
D19*
%TO.P,J1,1,Pin_1*%
%TO.N,+3.3V*%
X52500000Y-30000000D03*
D20*
%TO.P,J1,2,Pin_2*%
%TO.N,VCC*%
X55000000Y-30000000D03*
%TO.P,J1,3,Pin_3*%
%TO.N,GND*%
X57500000Y-30000000D03*
%TD*%
D10*
%TO.P,H1,1,1*%
%TO.N,GND*%
X28302944Y-28302944D03*
X28302944Y-31697056D03*
X31697056Y-28302944D03*
X30000000Y-27600000D03*
X32400000Y-30000000D03*
X31697056Y-31697056D03*
D11*
X30000000Y-30000000D03*
D10*
X30000000Y-32400000D03*
X27600000Y-30000000D03*
%TD*%
D21*
%TO.N,+3.3V*%
X42000000Y-58500000D03*
X42425500Y-53175500D03*
X46200500Y-70000000D03*
D22*
%TO.N,GND*%
X62800000Y-47000000D03*
X55200000Y-42000000D03*
X65250000Y-54500000D03*
X50300000Y-46100000D03*
X68250000Y-54500000D03*
X66750000Y-54500000D03*
X62250000Y-54500000D03*
X63750000Y-54500000D03*
D21*
X42849500Y-61500000D03*
X37500000Y-56250000D03*
D22*
X65400000Y-43900000D03*
D21*
X40000000Y-53000000D03*
%TO.N,UART_RX*%
X41363188Y-53825500D03*
X39262284Y-56824500D03*
%TO.N,VREF*%
X51500000Y-61750000D03*
X59500000Y-49500000D03*
X46850500Y-66000000D03*
X56500000Y-61250000D03*
%TO.N,SPREAD*%
X47500500Y-64950000D03*
X50172904Y-53825500D03*
%TO.N,DIAG*%
X48500000Y-53750000D03*
X49199500Y-63500000D03*
D22*
%TO.N,OA1*%
X63000000Y-56488500D03*
%TO.N,OA2*%
X64250000Y-57988000D03*
%TO.N,OB1*%
X61340636Y-53590636D03*
%TO.N,OB2*%
X61382032Y-51606000D03*
%TD*%
D23*
%TO.N,+3.3V*%
X42500000Y-53250000D02*
X42500000Y-58000000D01*
X42500000Y-58000000D02*
X42000000Y-58500000D01*
X50800000Y-70000000D02*
X46200500Y-70000000D01*
X60960000Y-70000000D02*
X50800000Y-70000000D01*
X42425500Y-53175500D02*
X42500000Y-53250000D01*
%TO.N,UART_RX*%
X41363188Y-53825500D02*
X41363188Y-54723596D01*
X41363188Y-54723596D02*
X39262284Y-56824500D01*
%TO.N,VREF*%
X51500000Y-63419239D02*
X48919239Y-66000000D01*
X59500000Y-49500000D02*
X59500000Y-49750000D01*
X59500000Y-49750000D02*
X57500000Y-51750000D01*
X57500000Y-51750000D02*
X57500000Y-60250000D01*
X48919239Y-66000000D02*
X46850500Y-66000000D01*
X51500000Y-61750000D02*
X51500000Y-63419239D01*
X57500000Y-60250000D02*
X56500000Y-61250000D01*
%TO.N,SPREAD*%
X49050000Y-64950000D02*
X50172904Y-63827096D01*
X50172904Y-63827096D02*
X50172904Y-61422904D01*
X50172904Y-53825500D02*
X50172904Y-61422904D01*
X47500500Y-64950000D02*
X49050000Y-64950000D01*
%TO.N,DIAG*%
X49522904Y-54772904D02*
X48500000Y-53750000D01*
X49199500Y-63500000D02*
X49522904Y-63176596D01*
X49522904Y-63176596D02*
X49522904Y-54772904D01*
D24*
%TO.N,OA1*%
X75600000Y-57000000D02*
X78250000Y-57000000D01*
X72250000Y-60250000D02*
X72500000Y-60000000D01*
X64744234Y-60250000D02*
X72250000Y-60250000D01*
X63000000Y-56488500D02*
X63000000Y-58505766D01*
X72500000Y-60000000D02*
X72600000Y-60000000D01*
X78250000Y-57000000D02*
X80000000Y-58750000D01*
X72600000Y-60000000D02*
X75600000Y-57000000D01*
X63000000Y-58505766D02*
X64744234Y-60250000D01*
%TO.N,OA2*%
X72250000Y-55000000D02*
X72500000Y-55000000D01*
X72500000Y-55000000D02*
X72900000Y-55400000D01*
X64250000Y-57988000D02*
X65262000Y-59000000D01*
X72900000Y-55400000D02*
X79150000Y-55400000D01*
X79150000Y-55400000D02*
X80000000Y-56250000D01*
X65262000Y-59000000D02*
X68250000Y-59000000D01*
X68250000Y-59000000D02*
X72250000Y-55000000D01*
%TO.N,OB1*%
X61340636Y-53590636D02*
X61340636Y-53415162D01*
X61340636Y-53415162D02*
X62505798Y-52250000D01*
X73750000Y-53750000D02*
X80000000Y-53750000D01*
X62505798Y-52250000D02*
X72250000Y-52250000D01*
X72250000Y-52250000D02*
X72500000Y-52500000D01*
X72500000Y-52500000D02*
X73750000Y-53750000D01*
%TO.N,OB2*%
X71258705Y-51000000D02*
X72258705Y-50000000D01*
X74500000Y-52000000D02*
X79250000Y-52000000D01*
X72500000Y-50000000D02*
X74500000Y-52000000D01*
X61988032Y-51000000D02*
X71258705Y-51000000D01*
X61382032Y-51606000D02*
X61988032Y-51000000D01*
X72258705Y-50000000D02*
X72500000Y-50000000D01*
X79250000Y-52000000D02*
X80000000Y-51250000D01*
%TD*%
%TA.AperFunction,Conductor*%
%TO.N,GND*%
G36*
X79970018Y-24510000D02*
G01*
X79984851Y-24512310D01*
X79984855Y-24512310D01*
X79993724Y-24513691D01*
X80014664Y-24510953D01*
X80036202Y-24509997D01*
X80224026Y-24517766D01*
X80448278Y-24527041D01*
X80458656Y-24527901D01*
X80734674Y-24562307D01*
X80898702Y-24582753D01*
X80908967Y-24584465D01*
X81072054Y-24618661D01*
X81342976Y-24675467D01*
X81353072Y-24678023D01*
X81778101Y-24804561D01*
X81787938Y-24807938D01*
X82201081Y-24969147D01*
X82210581Y-24973314D01*
X82608983Y-25168081D01*
X82618141Y-25173037D01*
X82999085Y-25400030D01*
X83007804Y-25405726D01*
X83368705Y-25663405D01*
X83376923Y-25669801D01*
X83715326Y-25956413D01*
X83722987Y-25963467D01*
X84036533Y-26277013D01*
X84043587Y-26284674D01*
X84330199Y-26623077D01*
X84336595Y-26631295D01*
X84594274Y-26992196D01*
X84599970Y-27000915D01*
X84826963Y-27381859D01*
X84831918Y-27391015D01*
X84921391Y-27574034D01*
X85026682Y-27789411D01*
X85030853Y-27798919D01*
X85192062Y-28212062D01*
X85195439Y-28221899D01*
X85321977Y-28646928D01*
X85324533Y-28657024D01*
X85386438Y-28952262D01*
X85415534Y-29091030D01*
X85417247Y-29101298D01*
X85429286Y-29197880D01*
X85472099Y-29541344D01*
X85472959Y-29551722D01*
X85476428Y-29635592D01*
X85483936Y-29817110D01*
X85489694Y-29956335D01*
X85488302Y-29980920D01*
X85486309Y-29993724D01*
X85487473Y-30002626D01*
X85487473Y-30002628D01*
X85490436Y-30025283D01*
X85491500Y-30041621D01*
X85491500Y-79950633D01*
X85490000Y-79970018D01*
X85487690Y-79984851D01*
X85487690Y-79984855D01*
X85486309Y-79993724D01*
X85489047Y-80014659D01*
X85490003Y-80036205D01*
X85472959Y-80448278D01*
X85472099Y-80458656D01*
X85452659Y-80614616D01*
X85418730Y-80886812D01*
X85417248Y-80898698D01*
X85415535Y-80908967D01*
X85402807Y-80969667D01*
X85324533Y-81342976D01*
X85321977Y-81353072D01*
X85195439Y-81778101D01*
X85192062Y-81787938D01*
X85030853Y-82201081D01*
X85026686Y-82210581D01*
X84918323Y-82432241D01*
X84831919Y-82608983D01*
X84826963Y-82618141D01*
X84599970Y-82999085D01*
X84594274Y-83007804D01*
X84336595Y-83368705D01*
X84330199Y-83376923D01*
X84043587Y-83715326D01*
X84036533Y-83722987D01*
X83722987Y-84036533D01*
X83715326Y-84043587D01*
X83376923Y-84330199D01*
X83368705Y-84336595D01*
X83007804Y-84594274D01*
X82999085Y-84599970D01*
X82618141Y-84826963D01*
X82608985Y-84831918D01*
X82210581Y-85026686D01*
X82201081Y-85030853D01*
X81787938Y-85192062D01*
X81778101Y-85195439D01*
X81353072Y-85321977D01*
X81342975Y-85324533D01*
X80908967Y-85415535D01*
X80898702Y-85417247D01*
X80734674Y-85437693D01*
X80458656Y-85472099D01*
X80448278Y-85472959D01*
X80270676Y-85480305D01*
X80043661Y-85489694D01*
X80019080Y-85488302D01*
X80006276Y-85486309D01*
X79997374Y-85487473D01*
X79997372Y-85487473D01*
X79982323Y-85489441D01*
X79974714Y-85490436D01*
X79958379Y-85491500D01*
X30049367Y-85491500D01*
X30029982Y-85490000D01*
X30015149Y-85487690D01*
X30015145Y-85487690D01*
X30006276Y-85486309D01*
X29985336Y-85489047D01*
X29963798Y-85490003D01*
X29775974Y-85482234D01*
X29551722Y-85472959D01*
X29541344Y-85472099D01*
X29265326Y-85437693D01*
X29101298Y-85417247D01*
X29091033Y-85415535D01*
X28657025Y-85324533D01*
X28646928Y-85321977D01*
X28221899Y-85195439D01*
X28212062Y-85192062D01*
X27798919Y-85030853D01*
X27789419Y-85026686D01*
X27391015Y-84831918D01*
X27381859Y-84826963D01*
X27000915Y-84599970D01*
X26992196Y-84594274D01*
X26631295Y-84336595D01*
X26623077Y-84330199D01*
X26284674Y-84043587D01*
X26277013Y-84036533D01*
X25963467Y-83722987D01*
X25956413Y-83715326D01*
X25669801Y-83376923D01*
X25663405Y-83368705D01*
X25405726Y-83007804D01*
X25400030Y-82999085D01*
X25279844Y-82797386D01*
X27567759Y-82797386D01*
X27575216Y-82807753D01*
X27814935Y-83001874D01*
X27820272Y-83005751D01*
X28140685Y-83213830D01*
X28146394Y-83217127D01*
X28486811Y-83390578D01*
X28492836Y-83393260D01*
X28849502Y-83530171D01*
X28855784Y-83532212D01*
X29224816Y-83631094D01*
X29231266Y-83632465D01*
X29608629Y-83692234D01*
X29615167Y-83692920D01*
X29996699Y-83712916D01*
X30003301Y-83712916D01*
X30384833Y-83692920D01*
X30391371Y-83692234D01*
X30768734Y-83632465D01*
X30775184Y-83631094D01*
X31144216Y-83532212D01*
X31150498Y-83530171D01*
X31507164Y-83393260D01*
X31513189Y-83390578D01*
X31853606Y-83217127D01*
X31859315Y-83213830D01*
X32179728Y-83005751D01*
X32185065Y-83001874D01*
X32423835Y-82808522D01*
X32431527Y-82797386D01*
X77567759Y-82797386D01*
X77575216Y-82807753D01*
X77814935Y-83001874D01*
X77820272Y-83005751D01*
X78140685Y-83213830D01*
X78146394Y-83217127D01*
X78486811Y-83390578D01*
X78492836Y-83393260D01*
X78849502Y-83530171D01*
X78855784Y-83532212D01*
X79224816Y-83631094D01*
X79231266Y-83632465D01*
X79608629Y-83692234D01*
X79615167Y-83692920D01*
X79996699Y-83712916D01*
X80003301Y-83712916D01*
X80384833Y-83692920D01*
X80391371Y-83692234D01*
X80768734Y-83632465D01*
X80775184Y-83631094D01*
X81144216Y-83532212D01*
X81150498Y-83530171D01*
X81507164Y-83393260D01*
X81513189Y-83390578D01*
X81853606Y-83217127D01*
X81859315Y-83213830D01*
X82179728Y-83005751D01*
X82185065Y-83001874D01*
X82423835Y-82808522D01*
X82432300Y-82796267D01*
X82425966Y-82785176D01*
X80012812Y-80372022D01*
X79998868Y-80364408D01*
X79997035Y-80364539D01*
X79990420Y-80368790D01*
X77574900Y-82784310D01*
X77567759Y-82797386D01*
X32431527Y-82797386D01*
X32432300Y-82796267D01*
X32425966Y-82785176D01*
X30012812Y-80372022D01*
X29998868Y-80364408D01*
X29997035Y-80364539D01*
X29990420Y-80368790D01*
X27574900Y-82784310D01*
X27567759Y-82797386D01*
X25279844Y-82797386D01*
X25173037Y-82618141D01*
X25168081Y-82608983D01*
X25081677Y-82432241D01*
X24973314Y-82210581D01*
X24969147Y-82201081D01*
X24807938Y-81787938D01*
X24804561Y-81778101D01*
X24678023Y-81353072D01*
X24675467Y-81342976D01*
X24597193Y-80969667D01*
X24584465Y-80908967D01*
X24582752Y-80898698D01*
X24581271Y-80886812D01*
X24547341Y-80614616D01*
X24527901Y-80458656D01*
X24527041Y-80448278D01*
X24510462Y-80047439D01*
X24512100Y-80021329D01*
X24512769Y-80017351D01*
X24512770Y-80017345D01*
X24513576Y-80012552D01*
X24513689Y-80003301D01*
X26287084Y-80003301D01*
X26307080Y-80384833D01*
X26307766Y-80391371D01*
X26367535Y-80768734D01*
X26368906Y-80775184D01*
X26467788Y-81144216D01*
X26469829Y-81150498D01*
X26606740Y-81507164D01*
X26609422Y-81513189D01*
X26782872Y-81853603D01*
X26786169Y-81859313D01*
X26994253Y-82179735D01*
X26998123Y-82185061D01*
X27191478Y-82423835D01*
X27203733Y-82432300D01*
X27214824Y-82425966D01*
X29627978Y-80012812D01*
X29634356Y-80001132D01*
X30364408Y-80001132D01*
X30364539Y-80002965D01*
X30368790Y-80009580D01*
X32784310Y-82425100D01*
X32797386Y-82432241D01*
X32807753Y-82424784D01*
X33001877Y-82185061D01*
X33005747Y-82179735D01*
X33213831Y-81859313D01*
X33217128Y-81853603D01*
X33390578Y-81513189D01*
X33393260Y-81507164D01*
X33530171Y-81150498D01*
X33532212Y-81144216D01*
X33598150Y-80898134D01*
X49441500Y-80898134D01*
X49448255Y-80960316D01*
X49499385Y-81096705D01*
X49586739Y-81213261D01*
X49703295Y-81300615D01*
X49839684Y-81351745D01*
X49901866Y-81358500D01*
X51698134Y-81358500D01*
X51760316Y-81351745D01*
X51896705Y-81300615D01*
X52013261Y-81213261D01*
X52100615Y-81096705D01*
X52122799Y-81037529D01*
X52144598Y-80979382D01*
X52187240Y-80922618D01*
X52253802Y-80897918D01*
X52323150Y-80913126D01*
X52357817Y-80941114D01*
X52386250Y-80973938D01*
X52558126Y-81116632D01*
X52751000Y-81229338D01*
X52959692Y-81309030D01*
X52964760Y-81310061D01*
X52964763Y-81310062D01*
X53059862Y-81329410D01*
X53178597Y-81353567D01*
X53183772Y-81353757D01*
X53183774Y-81353757D01*
X53396673Y-81361564D01*
X53396677Y-81361564D01*
X53401837Y-81361753D01*
X53406957Y-81361097D01*
X53406959Y-81361097D01*
X53618288Y-81334025D01*
X53618289Y-81334025D01*
X53623416Y-81333368D01*
X53628366Y-81331883D01*
X53832429Y-81270661D01*
X53832434Y-81270659D01*
X53837384Y-81269174D01*
X54037994Y-81170896D01*
X54219860Y-81041173D01*
X54378096Y-80883489D01*
X54508453Y-80702077D01*
X54509776Y-80703028D01*
X54556645Y-80659857D01*
X54626580Y-80647625D01*
X54692026Y-80675144D01*
X54719875Y-80706994D01*
X54779987Y-80805088D01*
X54926250Y-80973938D01*
X55098126Y-81116632D01*
X55291000Y-81229338D01*
X55499692Y-81309030D01*
X55504760Y-81310061D01*
X55504763Y-81310062D01*
X55599862Y-81329410D01*
X55718597Y-81353567D01*
X55723772Y-81353757D01*
X55723774Y-81353757D01*
X55936673Y-81361564D01*
X55936677Y-81361564D01*
X55941837Y-81361753D01*
X55946957Y-81361097D01*
X55946959Y-81361097D01*
X56158288Y-81334025D01*
X56158289Y-81334025D01*
X56163416Y-81333368D01*
X56168366Y-81331883D01*
X56372429Y-81270661D01*
X56372434Y-81270659D01*
X56377384Y-81269174D01*
X56577994Y-81170896D01*
X56759860Y-81041173D01*
X56918096Y-80883489D01*
X57048453Y-80702077D01*
X57049776Y-80703028D01*
X57096645Y-80659857D01*
X57166580Y-80647625D01*
X57232026Y-80675144D01*
X57259875Y-80706994D01*
X57319987Y-80805088D01*
X57466250Y-80973938D01*
X57638126Y-81116632D01*
X57831000Y-81229338D01*
X58039692Y-81309030D01*
X58044760Y-81310061D01*
X58044763Y-81310062D01*
X58139862Y-81329410D01*
X58258597Y-81353567D01*
X58263772Y-81353757D01*
X58263774Y-81353757D01*
X58476673Y-81361564D01*
X58476677Y-81361564D01*
X58481837Y-81361753D01*
X58486957Y-81361097D01*
X58486959Y-81361097D01*
X58698288Y-81334025D01*
X58698289Y-81334025D01*
X58703416Y-81333368D01*
X58708366Y-81331883D01*
X58912429Y-81270661D01*
X58912434Y-81270659D01*
X58917384Y-81269174D01*
X59117994Y-81170896D01*
X59299860Y-81041173D01*
X59458096Y-80883489D01*
X59588453Y-80702077D01*
X59589640Y-80702930D01*
X59636960Y-80659362D01*
X59706897Y-80647145D01*
X59772338Y-80674678D01*
X59800166Y-80706511D01*
X59857694Y-80800388D01*
X59863777Y-80808699D01*
X60003213Y-80969667D01*
X60010580Y-80976883D01*
X60174434Y-81112916D01*
X60182881Y-81118831D01*
X60366756Y-81226279D01*
X60376042Y-81230729D01*
X60575001Y-81306703D01*
X60584899Y-81309579D01*
X60688250Y-81330606D01*
X60702299Y-81329410D01*
X60706000Y-81319065D01*
X60706000Y-81318517D01*
X61214000Y-81318517D01*
X61218064Y-81332359D01*
X61231478Y-81334393D01*
X61238184Y-81333534D01*
X61248262Y-81331392D01*
X61452255Y-81270191D01*
X61461842Y-81266433D01*
X61653095Y-81172739D01*
X61661945Y-81167464D01*
X61835328Y-81043792D01*
X61843200Y-81037139D01*
X61994052Y-80886812D01*
X62000730Y-80878965D01*
X62125003Y-80706020D01*
X62130313Y-80697183D01*
X62224670Y-80506267D01*
X62228469Y-80496672D01*
X62290377Y-80292910D01*
X62292555Y-80282837D01*
X62293986Y-80271962D01*
X62291775Y-80257778D01*
X62278617Y-80254000D01*
X61232115Y-80254000D01*
X61216876Y-80258475D01*
X61215671Y-80259865D01*
X61214000Y-80267548D01*
X61214000Y-81318517D01*
X60706000Y-81318517D01*
X60706000Y-80003301D01*
X76287084Y-80003301D01*
X76307080Y-80384833D01*
X76307766Y-80391371D01*
X76367535Y-80768734D01*
X76368906Y-80775184D01*
X76467788Y-81144216D01*
X76469829Y-81150498D01*
X76606740Y-81507164D01*
X76609422Y-81513189D01*
X76782872Y-81853603D01*
X76786169Y-81859313D01*
X76994253Y-82179735D01*
X76998123Y-82185061D01*
X77191478Y-82423835D01*
X77203733Y-82432300D01*
X77214824Y-82425966D01*
X79627978Y-80012812D01*
X79634356Y-80001132D01*
X80364408Y-80001132D01*
X80364539Y-80002965D01*
X80368790Y-80009580D01*
X82784310Y-82425100D01*
X82797386Y-82432241D01*
X82807753Y-82424784D01*
X83001877Y-82185061D01*
X83005747Y-82179735D01*
X83213831Y-81859313D01*
X83217128Y-81853603D01*
X83390578Y-81513189D01*
X83393260Y-81507164D01*
X83530171Y-81150498D01*
X83532212Y-81144216D01*
X83631094Y-80775184D01*
X83632465Y-80768734D01*
X83692234Y-80391371D01*
X83692920Y-80384833D01*
X83712916Y-80003301D01*
X83712916Y-79996699D01*
X83692920Y-79615167D01*
X83692234Y-79608629D01*
X83632465Y-79231266D01*
X83631094Y-79224816D01*
X83532212Y-78855784D01*
X83530171Y-78849502D01*
X83393260Y-78492836D01*
X83390578Y-78486811D01*
X83217128Y-78146397D01*
X83213831Y-78140687D01*
X83005747Y-77820265D01*
X83001877Y-77814939D01*
X82808522Y-77576165D01*
X82796267Y-77567700D01*
X82785176Y-77574034D01*
X80372022Y-79987188D01*
X80364408Y-80001132D01*
X79634356Y-80001132D01*
X79635592Y-79998868D01*
X79635461Y-79997035D01*
X79631210Y-79990420D01*
X77215690Y-77574900D01*
X77202614Y-77567759D01*
X77192247Y-77575216D01*
X76998123Y-77814939D01*
X76994253Y-77820265D01*
X76786169Y-78140687D01*
X76782872Y-78146397D01*
X76609422Y-78486811D01*
X76606740Y-78492836D01*
X76469829Y-78849502D01*
X76467788Y-78855784D01*
X76368906Y-79224816D01*
X76367535Y-79231266D01*
X76307766Y-79608629D01*
X76307080Y-79615167D01*
X76287084Y-79996699D01*
X76287084Y-80003301D01*
X60706000Y-80003301D01*
X60706000Y-79727885D01*
X61214000Y-79727885D01*
X61218475Y-79743124D01*
X61219865Y-79744329D01*
X61227548Y-79746000D01*
X62278344Y-79746000D01*
X62291875Y-79742027D01*
X62293180Y-79732947D01*
X62251214Y-79565875D01*
X62247894Y-79556124D01*
X62162972Y-79360814D01*
X62158105Y-79351739D01*
X62042426Y-79172926D01*
X62036136Y-79164757D01*
X61892806Y-79007240D01*
X61885273Y-79000215D01*
X61718139Y-78868222D01*
X61709552Y-78862517D01*
X61523117Y-78759599D01*
X61513705Y-78755369D01*
X61312959Y-78684280D01*
X61302988Y-78681646D01*
X61231837Y-78668972D01*
X61218540Y-78670432D01*
X61214000Y-78684989D01*
X61214000Y-79727885D01*
X60706000Y-79727885D01*
X60706000Y-78683102D01*
X60702082Y-78669758D01*
X60687806Y-78667771D01*
X60649324Y-78673660D01*
X60639288Y-78676051D01*
X60436868Y-78742212D01*
X60427359Y-78746209D01*
X60238463Y-78844542D01*
X60229738Y-78850036D01*
X60059433Y-78977905D01*
X60051726Y-78984748D01*
X59904590Y-79138717D01*
X59898109Y-79146722D01*
X59793498Y-79300074D01*
X59738587Y-79345076D01*
X59668062Y-79353247D01*
X59604315Y-79321993D01*
X59583618Y-79297509D01*
X59502822Y-79172617D01*
X59502820Y-79172614D01*
X59500014Y-79168277D01*
X59349670Y-79003051D01*
X59345619Y-78999852D01*
X59345615Y-78999848D01*
X59178414Y-78867800D01*
X59178410Y-78867798D01*
X59174359Y-78864598D01*
X59158393Y-78855784D01*
X59122136Y-78835769D01*
X58978789Y-78756638D01*
X58973920Y-78754914D01*
X58973916Y-78754912D01*
X58773087Y-78683795D01*
X58773083Y-78683794D01*
X58768212Y-78682069D01*
X58763119Y-78681162D01*
X58763116Y-78681161D01*
X58553373Y-78643800D01*
X58553367Y-78643799D01*
X58548284Y-78642894D01*
X58474452Y-78641992D01*
X58330081Y-78640228D01*
X58330079Y-78640228D01*
X58324911Y-78640165D01*
X58104091Y-78673955D01*
X57891756Y-78743357D01*
X57693607Y-78846507D01*
X57689474Y-78849610D01*
X57689471Y-78849612D01*
X57519100Y-78977530D01*
X57514965Y-78980635D01*
X57511393Y-78984373D01*
X57403729Y-79097037D01*
X57360629Y-79142138D01*
X57253201Y-79299621D01*
X57198293Y-79344621D01*
X57127768Y-79352792D01*
X57064021Y-79321538D01*
X57043324Y-79297054D01*
X56962822Y-79172617D01*
X56962820Y-79172614D01*
X56960014Y-79168277D01*
X56809670Y-79003051D01*
X56805619Y-78999852D01*
X56805615Y-78999848D01*
X56638414Y-78867800D01*
X56638410Y-78867798D01*
X56634359Y-78864598D01*
X56618393Y-78855784D01*
X56582136Y-78835769D01*
X56438789Y-78756638D01*
X56433920Y-78754914D01*
X56433916Y-78754912D01*
X56233087Y-78683795D01*
X56233083Y-78683794D01*
X56228212Y-78682069D01*
X56223119Y-78681162D01*
X56223116Y-78681161D01*
X56013373Y-78643800D01*
X56013367Y-78643799D01*
X56008284Y-78642894D01*
X55934452Y-78641992D01*
X55790081Y-78640228D01*
X55790079Y-78640228D01*
X55784911Y-78640165D01*
X55564091Y-78673955D01*
X55351756Y-78743357D01*
X55153607Y-78846507D01*
X55149474Y-78849610D01*
X55149471Y-78849612D01*
X54979100Y-78977530D01*
X54974965Y-78980635D01*
X54971393Y-78984373D01*
X54863729Y-79097037D01*
X54820629Y-79142138D01*
X54713201Y-79299621D01*
X54658293Y-79344621D01*
X54587768Y-79352792D01*
X54524021Y-79321538D01*
X54503324Y-79297054D01*
X54422822Y-79172617D01*
X54422820Y-79172614D01*
X54420014Y-79168277D01*
X54269670Y-79003051D01*
X54265619Y-78999852D01*
X54265615Y-78999848D01*
X54098414Y-78867800D01*
X54098410Y-78867798D01*
X54094359Y-78864598D01*
X54078393Y-78855784D01*
X54042136Y-78835769D01*
X53898789Y-78756638D01*
X53893920Y-78754914D01*
X53893916Y-78754912D01*
X53693087Y-78683795D01*
X53693083Y-78683794D01*
X53688212Y-78682069D01*
X53683119Y-78681162D01*
X53683116Y-78681161D01*
X53473373Y-78643800D01*
X53473367Y-78643799D01*
X53468284Y-78642894D01*
X53394452Y-78641992D01*
X53250081Y-78640228D01*
X53250079Y-78640228D01*
X53244911Y-78640165D01*
X53024091Y-78673955D01*
X52811756Y-78743357D01*
X52613607Y-78846507D01*
X52609474Y-78849610D01*
X52609471Y-78849612D01*
X52439100Y-78977530D01*
X52434965Y-78980635D01*
X52378537Y-79039684D01*
X52354283Y-79065064D01*
X52292759Y-79100494D01*
X52221846Y-79097037D01*
X52164060Y-79055791D01*
X52145207Y-79022243D01*
X52103767Y-78911703D01*
X52100615Y-78903295D01*
X52013261Y-78786739D01*
X51896705Y-78699385D01*
X51760316Y-78648255D01*
X51698134Y-78641500D01*
X49901866Y-78641500D01*
X49839684Y-78648255D01*
X49703295Y-78699385D01*
X49586739Y-78786739D01*
X49499385Y-78903295D01*
X49448255Y-79039684D01*
X49441500Y-79101866D01*
X49441500Y-80898134D01*
X33598150Y-80898134D01*
X33631094Y-80775184D01*
X33632465Y-80768734D01*
X33692234Y-80391371D01*
X33692920Y-80384833D01*
X33712916Y-80003301D01*
X33712916Y-79996699D01*
X33692920Y-79615167D01*
X33692234Y-79608629D01*
X33632465Y-79231266D01*
X33631094Y-79224816D01*
X33532212Y-78855784D01*
X33530171Y-78849502D01*
X33393260Y-78492836D01*
X33390578Y-78486811D01*
X33217128Y-78146397D01*
X33213831Y-78140687D01*
X33005747Y-77820265D01*
X33001877Y-77814939D01*
X32808522Y-77576165D01*
X32796267Y-77567700D01*
X32785176Y-77574034D01*
X30372022Y-79987188D01*
X30364408Y-80001132D01*
X29634356Y-80001132D01*
X29635592Y-79998868D01*
X29635461Y-79997035D01*
X29631210Y-79990420D01*
X27215690Y-77574900D01*
X27202614Y-77567759D01*
X27192247Y-77575216D01*
X26998123Y-77814939D01*
X26994253Y-77820265D01*
X26786169Y-78140687D01*
X26782872Y-78146397D01*
X26609422Y-78486811D01*
X26606740Y-78492836D01*
X26469829Y-78849502D01*
X26467788Y-78855784D01*
X26368906Y-79224816D01*
X26367535Y-79231266D01*
X26307766Y-79608629D01*
X26307080Y-79615167D01*
X26287084Y-79996699D01*
X26287084Y-80003301D01*
X24513689Y-80003301D01*
X24513729Y-80000000D01*
X24509773Y-79972376D01*
X24508500Y-79954514D01*
X24508500Y-77203733D01*
X27567700Y-77203733D01*
X27574034Y-77214824D01*
X29987188Y-79627978D01*
X30001132Y-79635592D01*
X30002965Y-79635461D01*
X30009580Y-79631210D01*
X32425100Y-77215690D01*
X32431630Y-77203733D01*
X77567700Y-77203733D01*
X77574034Y-77214824D01*
X79987188Y-79627978D01*
X80001132Y-79635592D01*
X80002965Y-79635461D01*
X80009580Y-79631210D01*
X82425100Y-77215690D01*
X82432241Y-77202614D01*
X82424784Y-77192247D01*
X82185065Y-76998126D01*
X82179728Y-76994249D01*
X81859315Y-76786170D01*
X81853606Y-76782873D01*
X81513189Y-76609422D01*
X81507164Y-76606740D01*
X81150498Y-76469829D01*
X81144216Y-76467788D01*
X80775184Y-76368906D01*
X80768734Y-76367535D01*
X80391371Y-76307766D01*
X80384833Y-76307080D01*
X80003301Y-76287084D01*
X79996699Y-76287084D01*
X79615167Y-76307080D01*
X79608629Y-76307766D01*
X79231266Y-76367535D01*
X79224816Y-76368906D01*
X78855784Y-76467788D01*
X78849502Y-76469829D01*
X78492836Y-76606740D01*
X78486811Y-76609422D01*
X78146397Y-76782872D01*
X78140687Y-76786169D01*
X77820265Y-76994253D01*
X77814939Y-76998123D01*
X77576165Y-77191478D01*
X77567700Y-77203733D01*
X32431630Y-77203733D01*
X32432241Y-77202614D01*
X32424784Y-77192247D01*
X32185065Y-76998126D01*
X32179728Y-76994249D01*
X31859315Y-76786170D01*
X31853606Y-76782873D01*
X31513189Y-76609422D01*
X31507164Y-76606740D01*
X31150498Y-76469829D01*
X31144216Y-76467788D01*
X30775184Y-76368906D01*
X30768734Y-76367535D01*
X30391371Y-76307766D01*
X30384833Y-76307080D01*
X30003301Y-76287084D01*
X29996699Y-76287084D01*
X29615167Y-76307080D01*
X29608629Y-76307766D01*
X29231266Y-76367535D01*
X29224816Y-76368906D01*
X28855784Y-76467788D01*
X28849502Y-76469829D01*
X28492836Y-76606740D01*
X28486811Y-76609422D01*
X28146397Y-76782872D01*
X28140687Y-76786169D01*
X27820265Y-76994253D01*
X27814939Y-76998123D01*
X27576165Y-77191478D01*
X27567700Y-77203733D01*
X24508500Y-77203733D01*
X24508500Y-75894669D01*
X49442001Y-75894669D01*
X49442371Y-75901490D01*
X49447895Y-75952352D01*
X49451521Y-75967604D01*
X49496676Y-76088054D01*
X49505214Y-76103649D01*
X49581715Y-76205724D01*
X49594276Y-76218285D01*
X49696351Y-76294786D01*
X49711946Y-76303324D01*
X49832394Y-76348478D01*
X49847649Y-76352105D01*
X49898514Y-76357631D01*
X49905328Y-76358000D01*
X50527885Y-76358000D01*
X50543124Y-76353525D01*
X50544329Y-76352135D01*
X50546000Y-76344452D01*
X50546000Y-76339884D01*
X51054000Y-76339884D01*
X51058475Y-76355123D01*
X51059865Y-76356328D01*
X51067548Y-76357999D01*
X51694669Y-76357999D01*
X51701490Y-76357629D01*
X51752352Y-76352105D01*
X51767604Y-76348479D01*
X51888054Y-76303324D01*
X51903649Y-76294786D01*
X52005724Y-76218285D01*
X52018285Y-76205724D01*
X52094786Y-76103649D01*
X52103325Y-76088052D01*
X52144425Y-75978418D01*
X52187066Y-75921653D01*
X52253628Y-75896953D01*
X52322977Y-75912160D01*
X52357645Y-75940150D01*
X52383219Y-75969674D01*
X52390580Y-75976883D01*
X52554434Y-76112916D01*
X52562881Y-76118831D01*
X52746756Y-76226279D01*
X52756042Y-76230729D01*
X52955001Y-76306703D01*
X52964899Y-76309579D01*
X53068250Y-76330606D01*
X53082299Y-76329410D01*
X53086000Y-76319065D01*
X53086000Y-76318517D01*
X53594000Y-76318517D01*
X53598064Y-76332359D01*
X53611478Y-76334393D01*
X53618184Y-76333534D01*
X53628262Y-76331392D01*
X53832255Y-76270191D01*
X53841842Y-76266433D01*
X54033095Y-76172739D01*
X54041945Y-76167464D01*
X54215328Y-76043792D01*
X54223200Y-76037139D01*
X54374052Y-75886812D01*
X54380730Y-75878965D01*
X54508022Y-75701819D01*
X54509147Y-75702627D01*
X54556669Y-75658876D01*
X54626607Y-75646661D01*
X54692046Y-75674197D01*
X54719870Y-75706028D01*
X54777690Y-75800383D01*
X54783777Y-75808699D01*
X54923213Y-75969667D01*
X54930580Y-75976883D01*
X55094434Y-76112916D01*
X55102881Y-76118831D01*
X55286756Y-76226279D01*
X55296042Y-76230729D01*
X55495001Y-76306703D01*
X55504899Y-76309579D01*
X55608250Y-76330606D01*
X55622299Y-76329410D01*
X55626000Y-76319065D01*
X55626000Y-76318517D01*
X56134000Y-76318517D01*
X56138064Y-76332359D01*
X56151478Y-76334393D01*
X56158184Y-76333534D01*
X56168262Y-76331392D01*
X56372255Y-76270191D01*
X56381842Y-76266433D01*
X56573095Y-76172739D01*
X56581945Y-76167464D01*
X56755328Y-76043792D01*
X56763200Y-76037139D01*
X56914052Y-75886812D01*
X56920730Y-75878965D01*
X57048022Y-75701819D01*
X57049147Y-75702627D01*
X57096669Y-75658876D01*
X57166607Y-75646661D01*
X57232046Y-75674197D01*
X57259870Y-75706028D01*
X57317690Y-75800383D01*
X57323777Y-75808699D01*
X57463213Y-75969667D01*
X57470580Y-75976883D01*
X57634434Y-76112916D01*
X57642881Y-76118831D01*
X57826756Y-76226279D01*
X57836042Y-76230729D01*
X58035001Y-76306703D01*
X58044899Y-76309579D01*
X58148250Y-76330606D01*
X58162299Y-76329410D01*
X58166000Y-76319065D01*
X58166000Y-76318517D01*
X58674000Y-76318517D01*
X58678064Y-76332359D01*
X58691478Y-76334393D01*
X58698184Y-76333534D01*
X58708262Y-76331392D01*
X58912255Y-76270191D01*
X58921842Y-76266433D01*
X59113095Y-76172739D01*
X59121945Y-76167464D01*
X59295328Y-76043792D01*
X59303200Y-76037139D01*
X59454052Y-75886812D01*
X59460730Y-75878965D01*
X59588022Y-75701819D01*
X59589147Y-75702627D01*
X59636669Y-75658876D01*
X59706607Y-75646661D01*
X59772046Y-75674197D01*
X59799870Y-75706028D01*
X59857690Y-75800383D01*
X59863777Y-75808699D01*
X60003213Y-75969667D01*
X60010580Y-75976883D01*
X60174434Y-76112916D01*
X60182881Y-76118831D01*
X60366756Y-76226279D01*
X60376042Y-76230729D01*
X60575001Y-76306703D01*
X60584899Y-76309579D01*
X60688250Y-76330606D01*
X60702299Y-76329410D01*
X60706000Y-76319065D01*
X60706000Y-76318517D01*
X61214000Y-76318517D01*
X61218064Y-76332359D01*
X61231478Y-76334393D01*
X61238184Y-76333534D01*
X61248262Y-76331392D01*
X61452255Y-76270191D01*
X61461842Y-76266433D01*
X61653095Y-76172739D01*
X61661945Y-76167464D01*
X61835328Y-76043792D01*
X61843200Y-76037139D01*
X61994052Y-75886812D01*
X62000730Y-75878965D01*
X62125003Y-75706020D01*
X62130313Y-75697183D01*
X62224670Y-75506267D01*
X62228469Y-75496672D01*
X62290377Y-75292910D01*
X62292555Y-75282837D01*
X62293986Y-75271962D01*
X62291775Y-75257778D01*
X62278617Y-75254000D01*
X61232115Y-75254000D01*
X61216876Y-75258475D01*
X61215671Y-75259865D01*
X61214000Y-75267548D01*
X61214000Y-76318517D01*
X60706000Y-76318517D01*
X60706000Y-75272115D01*
X60701525Y-75256876D01*
X60700135Y-75255671D01*
X60692452Y-75254000D01*
X58692115Y-75254000D01*
X58676876Y-75258475D01*
X58675671Y-75259865D01*
X58674000Y-75267548D01*
X58674000Y-76318517D01*
X58166000Y-76318517D01*
X58166000Y-75272115D01*
X58161525Y-75256876D01*
X58160135Y-75255671D01*
X58152452Y-75254000D01*
X56152115Y-75254000D01*
X56136876Y-75258475D01*
X56135671Y-75259865D01*
X56134000Y-75267548D01*
X56134000Y-76318517D01*
X55626000Y-76318517D01*
X55626000Y-75272115D01*
X55621525Y-75256876D01*
X55620135Y-75255671D01*
X55612452Y-75254000D01*
X53612115Y-75254000D01*
X53596876Y-75258475D01*
X53595671Y-75259865D01*
X53594000Y-75267548D01*
X53594000Y-76318517D01*
X53086000Y-76318517D01*
X53086000Y-75272115D01*
X53081525Y-75256876D01*
X53080135Y-75255671D01*
X53072452Y-75254000D01*
X51072115Y-75254000D01*
X51056876Y-75258475D01*
X51055671Y-75259865D01*
X51054000Y-75267548D01*
X51054000Y-76339884D01*
X50546000Y-76339884D01*
X50546000Y-75272115D01*
X50541525Y-75256876D01*
X50540135Y-75255671D01*
X50532452Y-75254000D01*
X49460116Y-75254000D01*
X49444877Y-75258475D01*
X49443672Y-75259865D01*
X49442001Y-75267548D01*
X49442001Y-75894669D01*
X24508500Y-75894669D01*
X24508500Y-74727885D01*
X49442000Y-74727885D01*
X49446475Y-74743124D01*
X49447865Y-74744329D01*
X49455548Y-74746000D01*
X50527885Y-74746000D01*
X50543124Y-74741525D01*
X50544329Y-74740135D01*
X50546000Y-74732452D01*
X50546000Y-74727885D01*
X51054000Y-74727885D01*
X51058475Y-74743124D01*
X51059865Y-74744329D01*
X51067548Y-74746000D01*
X53067885Y-74746000D01*
X53083124Y-74741525D01*
X53084329Y-74740135D01*
X53086000Y-74732452D01*
X53086000Y-74727885D01*
X53594000Y-74727885D01*
X53598475Y-74743124D01*
X53599865Y-74744329D01*
X53607548Y-74746000D01*
X55607885Y-74746000D01*
X55623124Y-74741525D01*
X55624329Y-74740135D01*
X55626000Y-74732452D01*
X55626000Y-74727885D01*
X56134000Y-74727885D01*
X56138475Y-74743124D01*
X56139865Y-74744329D01*
X56147548Y-74746000D01*
X58147885Y-74746000D01*
X58163124Y-74741525D01*
X58164329Y-74740135D01*
X58166000Y-74732452D01*
X58166000Y-74727885D01*
X58674000Y-74727885D01*
X58678475Y-74743124D01*
X58679865Y-74744329D01*
X58687548Y-74746000D01*
X60687885Y-74746000D01*
X60703124Y-74741525D01*
X60704329Y-74740135D01*
X60706000Y-74732452D01*
X60706000Y-74727885D01*
X61214000Y-74727885D01*
X61218475Y-74743124D01*
X61219865Y-74744329D01*
X61227548Y-74746000D01*
X62278344Y-74746000D01*
X62291875Y-74742027D01*
X62293180Y-74732947D01*
X62251214Y-74565875D01*
X62247894Y-74556124D01*
X62162972Y-74360814D01*
X62158105Y-74351739D01*
X62042426Y-74172926D01*
X62036136Y-74164757D01*
X61892806Y-74007240D01*
X61885273Y-74000215D01*
X61718139Y-73868222D01*
X61709552Y-73862517D01*
X61523117Y-73759599D01*
X61513705Y-73755369D01*
X61312959Y-73684280D01*
X61302988Y-73681646D01*
X61231837Y-73668972D01*
X61218540Y-73670432D01*
X61214000Y-73684989D01*
X61214000Y-74727885D01*
X60706000Y-74727885D01*
X60706000Y-73683102D01*
X60702082Y-73669758D01*
X60687806Y-73667771D01*
X60649324Y-73673660D01*
X60639288Y-73676051D01*
X60436868Y-73742212D01*
X60427359Y-73746209D01*
X60238463Y-73844542D01*
X60229738Y-73850036D01*
X60059433Y-73977905D01*
X60051726Y-73984748D01*
X59904590Y-74138717D01*
X59898104Y-74146727D01*
X59793193Y-74300521D01*
X59738282Y-74345524D01*
X59667757Y-74353695D01*
X59604010Y-74322441D01*
X59583313Y-74297957D01*
X59502427Y-74172926D01*
X59496136Y-74164757D01*
X59352806Y-74007240D01*
X59345273Y-74000215D01*
X59178139Y-73868222D01*
X59169552Y-73862517D01*
X58983117Y-73759599D01*
X58973705Y-73755369D01*
X58772959Y-73684280D01*
X58762988Y-73681646D01*
X58691837Y-73668972D01*
X58678540Y-73670432D01*
X58674000Y-73684989D01*
X58674000Y-74727885D01*
X58166000Y-74727885D01*
X58166000Y-73683102D01*
X58162082Y-73669758D01*
X58147806Y-73667771D01*
X58109324Y-73673660D01*
X58099288Y-73676051D01*
X57896868Y-73742212D01*
X57887359Y-73746209D01*
X57698463Y-73844542D01*
X57689738Y-73850036D01*
X57519433Y-73977905D01*
X57511726Y-73984748D01*
X57364590Y-74138717D01*
X57358104Y-74146727D01*
X57253193Y-74300521D01*
X57198282Y-74345524D01*
X57127757Y-74353695D01*
X57064010Y-74322441D01*
X57043313Y-74297957D01*
X56962427Y-74172926D01*
X56956136Y-74164757D01*
X56812806Y-74007240D01*
X56805273Y-74000215D01*
X56638139Y-73868222D01*
X56629552Y-73862517D01*
X56443117Y-73759599D01*
X56433705Y-73755369D01*
X56232959Y-73684280D01*
X56222988Y-73681646D01*
X56151837Y-73668972D01*
X56138540Y-73670432D01*
X56134000Y-73684989D01*
X56134000Y-74727885D01*
X55626000Y-74727885D01*
X55626000Y-73683102D01*
X55622082Y-73669758D01*
X55607806Y-73667771D01*
X55569324Y-73673660D01*
X55559288Y-73676051D01*
X55356868Y-73742212D01*
X55347359Y-73746209D01*
X55158463Y-73844542D01*
X55149738Y-73850036D01*
X54979433Y-73977905D01*
X54971726Y-73984748D01*
X54824590Y-74138717D01*
X54818104Y-74146727D01*
X54713193Y-74300521D01*
X54658282Y-74345524D01*
X54587757Y-74353695D01*
X54524010Y-74322441D01*
X54503313Y-74297957D01*
X54422427Y-74172926D01*
X54416136Y-74164757D01*
X54272806Y-74007240D01*
X54265273Y-74000215D01*
X54098139Y-73868222D01*
X54089552Y-73862517D01*
X53903117Y-73759599D01*
X53893705Y-73755369D01*
X53692959Y-73684280D01*
X53682988Y-73681646D01*
X53611837Y-73668972D01*
X53598540Y-73670432D01*
X53594000Y-73684989D01*
X53594000Y-74727885D01*
X53086000Y-74727885D01*
X53086000Y-73683102D01*
X53082082Y-73669758D01*
X53067806Y-73667771D01*
X53029324Y-73673660D01*
X53019288Y-73676051D01*
X52816868Y-73742212D01*
X52807359Y-73746209D01*
X52618463Y-73844542D01*
X52609738Y-73850036D01*
X52439433Y-73977905D01*
X52431726Y-73984748D01*
X52354094Y-74065985D01*
X52292570Y-74101415D01*
X52221657Y-74097958D01*
X52163871Y-74056712D01*
X52145018Y-74023164D01*
X52103324Y-73911946D01*
X52094786Y-73896351D01*
X52018285Y-73794276D01*
X52005724Y-73781715D01*
X51903649Y-73705214D01*
X51888054Y-73696676D01*
X51767606Y-73651522D01*
X51752351Y-73647895D01*
X51701486Y-73642369D01*
X51694672Y-73642000D01*
X51072115Y-73642000D01*
X51056876Y-73646475D01*
X51055671Y-73647865D01*
X51054000Y-73655548D01*
X51054000Y-74727885D01*
X50546000Y-74727885D01*
X50546000Y-73660116D01*
X50541525Y-73644877D01*
X50540135Y-73643672D01*
X50532452Y-73642001D01*
X49905331Y-73642001D01*
X49898510Y-73642371D01*
X49847648Y-73647895D01*
X49832396Y-73651521D01*
X49711946Y-73696676D01*
X49696351Y-73705214D01*
X49594276Y-73781715D01*
X49581715Y-73794276D01*
X49505214Y-73896351D01*
X49496676Y-73911946D01*
X49451522Y-74032394D01*
X49447895Y-74047649D01*
X49442369Y-74098514D01*
X49442000Y-74105328D01*
X49442000Y-74727885D01*
X24508500Y-74727885D01*
X24508500Y-70000000D01*
X45286996Y-70000000D01*
X45287686Y-70006565D01*
X45294344Y-70069908D01*
X45306958Y-70189928D01*
X45365973Y-70371556D01*
X45461460Y-70536944D01*
X45589247Y-70678866D01*
X45657565Y-70728502D01*
X45731416Y-70782158D01*
X45743748Y-70791118D01*
X45749776Y-70793802D01*
X45749778Y-70793803D01*
X45775125Y-70805088D01*
X45918212Y-70868794D01*
X46004509Y-70887137D01*
X46098556Y-70907128D01*
X46098561Y-70907128D01*
X46105013Y-70908500D01*
X46295987Y-70908500D01*
X46302439Y-70907128D01*
X46302444Y-70907128D01*
X46396491Y-70887137D01*
X46482788Y-70868794D01*
X46625875Y-70805088D01*
X46651222Y-70793803D01*
X46651224Y-70793802D01*
X46657252Y-70791118D01*
X46669585Y-70782158D01*
X46737844Y-70732564D01*
X46804711Y-70708706D01*
X46811905Y-70708500D01*
X49315500Y-70708500D01*
X49383621Y-70728502D01*
X49430114Y-70782158D01*
X49441500Y-70834500D01*
X49441500Y-70898134D01*
X49448255Y-70960316D01*
X49499385Y-71096705D01*
X49586739Y-71213261D01*
X49703295Y-71300615D01*
X49839684Y-71351745D01*
X49901866Y-71358500D01*
X51698134Y-71358500D01*
X51760316Y-71351745D01*
X51896705Y-71300615D01*
X52013261Y-71213261D01*
X52100615Y-71096705D01*
X52122799Y-71037529D01*
X52144598Y-70979382D01*
X52187240Y-70922618D01*
X52253802Y-70897918D01*
X52323150Y-70913126D01*
X52357817Y-70941114D01*
X52386250Y-70973938D01*
X52558126Y-71116632D01*
X52751000Y-71229338D01*
X52959692Y-71309030D01*
X52964760Y-71310061D01*
X52964763Y-71310062D01*
X53072017Y-71331883D01*
X53178597Y-71353567D01*
X53183772Y-71353757D01*
X53183774Y-71353757D01*
X53396673Y-71361564D01*
X53396677Y-71361564D01*
X53401837Y-71361753D01*
X53406957Y-71361097D01*
X53406959Y-71361097D01*
X53618288Y-71334025D01*
X53618289Y-71334025D01*
X53623416Y-71333368D01*
X53628366Y-71331883D01*
X53832429Y-71270661D01*
X53832434Y-71270659D01*
X53837384Y-71269174D01*
X54037994Y-71170896D01*
X54219860Y-71041173D01*
X54378096Y-70883489D01*
X54387670Y-70870166D01*
X54466132Y-70760974D01*
X54522127Y-70717326D01*
X54568455Y-70708500D01*
X54650234Y-70708500D01*
X54718355Y-70728502D01*
X54757667Y-70768665D01*
X54779987Y-70805088D01*
X54926250Y-70973938D01*
X55098126Y-71116632D01*
X55291000Y-71229338D01*
X55499692Y-71309030D01*
X55504760Y-71310061D01*
X55504763Y-71310062D01*
X55612017Y-71331883D01*
X55718597Y-71353567D01*
X55723772Y-71353757D01*
X55723774Y-71353757D01*
X55936673Y-71361564D01*
X55936677Y-71361564D01*
X55941837Y-71361753D01*
X55946957Y-71361097D01*
X55946959Y-71361097D01*
X56158288Y-71334025D01*
X56158289Y-71334025D01*
X56163416Y-71333368D01*
X56168366Y-71331883D01*
X56372429Y-71270661D01*
X56372434Y-71270659D01*
X56377384Y-71269174D01*
X56577994Y-71170896D01*
X56759860Y-71041173D01*
X56918096Y-70883489D01*
X56927670Y-70870166D01*
X57006132Y-70760974D01*
X57062127Y-70717326D01*
X57108455Y-70708500D01*
X57190234Y-70708500D01*
X57258355Y-70728502D01*
X57297667Y-70768665D01*
X57319987Y-70805088D01*
X57466250Y-70973938D01*
X57638126Y-71116632D01*
X57831000Y-71229338D01*
X58039692Y-71309030D01*
X58044760Y-71310061D01*
X58044763Y-71310062D01*
X58152017Y-71331883D01*
X58258597Y-71353567D01*
X58263772Y-71353757D01*
X58263774Y-71353757D01*
X58476673Y-71361564D01*
X58476677Y-71361564D01*
X58481837Y-71361753D01*
X58486957Y-71361097D01*
X58486959Y-71361097D01*
X58698288Y-71334025D01*
X58698289Y-71334025D01*
X58703416Y-71333368D01*
X58708366Y-71331883D01*
X58912429Y-71270661D01*
X58912434Y-71270659D01*
X58917384Y-71269174D01*
X59117994Y-71170896D01*
X59299860Y-71041173D01*
X59458096Y-70883489D01*
X59467670Y-70870166D01*
X59546132Y-70760974D01*
X59602127Y-70717326D01*
X59648455Y-70708500D01*
X59730234Y-70708500D01*
X59798355Y-70728502D01*
X59837667Y-70768665D01*
X59859987Y-70805088D01*
X60006250Y-70973938D01*
X60178126Y-71116632D01*
X60371000Y-71229338D01*
X60579692Y-71309030D01*
X60584760Y-71310061D01*
X60584763Y-71310062D01*
X60692017Y-71331883D01*
X60798597Y-71353567D01*
X60803772Y-71353757D01*
X60803774Y-71353757D01*
X61016673Y-71361564D01*
X61016677Y-71361564D01*
X61021837Y-71361753D01*
X61026957Y-71361097D01*
X61026959Y-71361097D01*
X61238288Y-71334025D01*
X61238289Y-71334025D01*
X61243416Y-71333368D01*
X61248366Y-71331883D01*
X61452429Y-71270661D01*
X61452434Y-71270659D01*
X61457384Y-71269174D01*
X61657994Y-71170896D01*
X61839860Y-71041173D01*
X61998096Y-70883489D01*
X62007670Y-70870166D01*
X62125435Y-70706277D01*
X62128453Y-70702077D01*
X62138006Y-70682749D01*
X62225136Y-70506453D01*
X62225137Y-70506451D01*
X62227430Y-70501811D01*
X62292370Y-70288069D01*
X62321529Y-70066590D01*
X62323156Y-70000000D01*
X62304852Y-69777361D01*
X62250431Y-69560702D01*
X62161354Y-69355840D01*
X62082287Y-69233621D01*
X62042822Y-69172617D01*
X62042818Y-69172612D01*
X62040014Y-69168277D01*
X61889670Y-69003051D01*
X61885619Y-68999852D01*
X61885615Y-68999848D01*
X61718414Y-68867800D01*
X61718410Y-68867798D01*
X61714359Y-68864598D01*
X61518789Y-68756638D01*
X61513920Y-68754914D01*
X61513916Y-68754912D01*
X61313087Y-68683795D01*
X61313083Y-68683794D01*
X61308212Y-68682069D01*
X61303119Y-68681162D01*
X61303116Y-68681161D01*
X61093373Y-68643800D01*
X61093367Y-68643799D01*
X61088284Y-68642894D01*
X61014452Y-68641992D01*
X60870081Y-68640228D01*
X60870079Y-68640228D01*
X60864911Y-68640165D01*
X60644091Y-68673955D01*
X60431756Y-68743357D01*
X60233607Y-68846507D01*
X60229474Y-68849610D01*
X60229471Y-68849612D01*
X60059100Y-68977530D01*
X60054965Y-68980635D01*
X60051393Y-68984373D01*
X59943729Y-69097037D01*
X59900629Y-69142138D01*
X59897715Y-69146410D01*
X59897714Y-69146411D01*
X59882798Y-69168277D01*
X59838224Y-69233621D01*
X59836257Y-69236504D01*
X59781346Y-69281507D01*
X59732169Y-69291500D01*
X59648286Y-69291500D01*
X59580165Y-69271498D01*
X59542494Y-69233941D01*
X59528793Y-69212763D01*
X59500014Y-69168277D01*
X59349670Y-69003051D01*
X59345619Y-68999852D01*
X59345615Y-68999848D01*
X59178414Y-68867800D01*
X59178410Y-68867798D01*
X59174359Y-68864598D01*
X58978789Y-68756638D01*
X58973920Y-68754914D01*
X58973916Y-68754912D01*
X58773087Y-68683795D01*
X58773083Y-68683794D01*
X58768212Y-68682069D01*
X58763119Y-68681162D01*
X58763116Y-68681161D01*
X58553373Y-68643800D01*
X58553367Y-68643799D01*
X58548284Y-68642894D01*
X58474452Y-68641992D01*
X58330081Y-68640228D01*
X58330079Y-68640228D01*
X58324911Y-68640165D01*
X58104091Y-68673955D01*
X57891756Y-68743357D01*
X57693607Y-68846507D01*
X57689474Y-68849610D01*
X57689471Y-68849612D01*
X57519100Y-68977530D01*
X57514965Y-68980635D01*
X57511393Y-68984373D01*
X57403729Y-69097037D01*
X57360629Y-69142138D01*
X57357715Y-69146410D01*
X57357714Y-69146411D01*
X57342798Y-69168277D01*
X57298224Y-69233621D01*
X57296257Y-69236504D01*
X57241346Y-69281507D01*
X57192169Y-69291500D01*
X57108286Y-69291500D01*
X57040165Y-69271498D01*
X57002494Y-69233941D01*
X56988793Y-69212763D01*
X56960014Y-69168277D01*
X56809670Y-69003051D01*
X56805619Y-68999852D01*
X56805615Y-68999848D01*
X56638414Y-68867800D01*
X56638410Y-68867798D01*
X56634359Y-68864598D01*
X56438789Y-68756638D01*
X56433920Y-68754914D01*
X56433916Y-68754912D01*
X56233087Y-68683795D01*
X56233083Y-68683794D01*
X56228212Y-68682069D01*
X56223119Y-68681162D01*
X56223116Y-68681161D01*
X56013373Y-68643800D01*
X56013367Y-68643799D01*
X56008284Y-68642894D01*
X55934452Y-68641992D01*
X55790081Y-68640228D01*
X55790079Y-68640228D01*
X55784911Y-68640165D01*
X55564091Y-68673955D01*
X55351756Y-68743357D01*
X55153607Y-68846507D01*
X55149474Y-68849610D01*
X55149471Y-68849612D01*
X54979100Y-68977530D01*
X54974965Y-68980635D01*
X54971393Y-68984373D01*
X54863729Y-69097037D01*
X54820629Y-69142138D01*
X54817715Y-69146410D01*
X54817714Y-69146411D01*
X54802798Y-69168277D01*
X54758224Y-69233621D01*
X54756257Y-69236504D01*
X54701346Y-69281507D01*
X54652169Y-69291500D01*
X54568286Y-69291500D01*
X54500165Y-69271498D01*
X54462494Y-69233941D01*
X54448793Y-69212763D01*
X54420014Y-69168277D01*
X54269670Y-69003051D01*
X54265619Y-68999852D01*
X54265615Y-68999848D01*
X54098414Y-68867800D01*
X54098410Y-68867798D01*
X54094359Y-68864598D01*
X53898789Y-68756638D01*
X53893920Y-68754914D01*
X53893916Y-68754912D01*
X53693087Y-68683795D01*
X53693083Y-68683794D01*
X53688212Y-68682069D01*
X53683119Y-68681162D01*
X53683116Y-68681161D01*
X53473373Y-68643800D01*
X53473367Y-68643799D01*
X53468284Y-68642894D01*
X53394452Y-68641992D01*
X53250081Y-68640228D01*
X53250079Y-68640228D01*
X53244911Y-68640165D01*
X53024091Y-68673955D01*
X52811756Y-68743357D01*
X52613607Y-68846507D01*
X52609474Y-68849610D01*
X52609471Y-68849612D01*
X52439100Y-68977530D01*
X52434965Y-68980635D01*
X52378537Y-69039684D01*
X52354283Y-69065064D01*
X52292759Y-69100494D01*
X52221846Y-69097037D01*
X52164060Y-69055791D01*
X52145207Y-69022243D01*
X52103767Y-68911703D01*
X52100615Y-68903295D01*
X52013261Y-68786739D01*
X51896705Y-68699385D01*
X51760316Y-68648255D01*
X51698134Y-68641500D01*
X49901866Y-68641500D01*
X49839684Y-68648255D01*
X49703295Y-68699385D01*
X49586739Y-68786739D01*
X49499385Y-68903295D01*
X49448255Y-69039684D01*
X49441500Y-69101866D01*
X49441500Y-69165500D01*
X49421498Y-69233621D01*
X49367842Y-69280114D01*
X49315500Y-69291500D01*
X46811905Y-69291500D01*
X46743784Y-69271498D01*
X46737844Y-69267436D01*
X46662594Y-69212763D01*
X46662593Y-69212762D01*
X46657252Y-69208882D01*
X46651224Y-69206198D01*
X46651222Y-69206197D01*
X46488819Y-69133891D01*
X46488818Y-69133891D01*
X46482788Y-69131206D01*
X46360831Y-69105283D01*
X46302444Y-69092872D01*
X46302439Y-69092872D01*
X46295987Y-69091500D01*
X46105013Y-69091500D01*
X46098561Y-69092872D01*
X46098556Y-69092872D01*
X46040169Y-69105283D01*
X45918212Y-69131206D01*
X45912182Y-69133891D01*
X45912181Y-69133891D01*
X45749778Y-69206197D01*
X45749776Y-69206198D01*
X45743748Y-69208882D01*
X45589247Y-69321134D01*
X45584826Y-69326044D01*
X45584825Y-69326045D01*
X45557998Y-69355840D01*
X45461460Y-69463056D01*
X45365973Y-69628444D01*
X45306958Y-69810072D01*
X45286996Y-70000000D01*
X24508500Y-70000000D01*
X24508500Y-66000000D01*
X45936996Y-66000000D01*
X45956958Y-66189928D01*
X46015973Y-66371556D01*
X46111460Y-66536944D01*
X46115878Y-66541851D01*
X46115879Y-66541852D01*
X46218867Y-66656232D01*
X46239247Y-66678866D01*
X46393748Y-66791118D01*
X46399776Y-66793802D01*
X46399778Y-66793803D01*
X46562181Y-66866109D01*
X46568212Y-66868794D01*
X46661613Y-66888647D01*
X46748556Y-66907128D01*
X46748561Y-66907128D01*
X46755013Y-66908500D01*
X46945987Y-66908500D01*
X46952439Y-66907128D01*
X46952444Y-66907128D01*
X47039387Y-66888647D01*
X47132788Y-66868794D01*
X47138819Y-66866109D01*
X47301222Y-66793803D01*
X47301224Y-66793802D01*
X47307252Y-66791118D01*
X47387844Y-66732564D01*
X47454711Y-66708706D01*
X47461905Y-66708500D01*
X48890327Y-66708500D01*
X48898897Y-66708792D01*
X48949015Y-66712209D01*
X48949019Y-66712209D01*
X48956591Y-66712725D01*
X48964068Y-66711420D01*
X48964069Y-66711420D01*
X48990547Y-66706799D01*
X49019542Y-66701738D01*
X49026060Y-66700777D01*
X49089481Y-66693102D01*
X49096582Y-66690419D01*
X49099191Y-66689778D01*
X49115501Y-66685315D01*
X49118037Y-66684550D01*
X49125523Y-66683243D01*
X49184039Y-66657556D01*
X49190143Y-66655065D01*
X49242787Y-66635173D01*
X49242788Y-66635172D01*
X49249895Y-66632487D01*
X49256158Y-66628183D01*
X49258524Y-66626946D01*
X49273336Y-66618701D01*
X49275590Y-66617368D01*
X49282544Y-66614315D01*
X49333241Y-66575413D01*
X49338571Y-66571541D01*
X49384959Y-66539661D01*
X49384964Y-66539656D01*
X49391220Y-66535357D01*
X49432675Y-66488829D01*
X49437655Y-66483554D01*
X51980528Y-63940682D01*
X51986793Y-63934828D01*
X52024664Y-63901791D01*
X52024665Y-63901790D01*
X52030385Y-63896800D01*
X52067136Y-63844510D01*
X52071028Y-63839268D01*
X52110476Y-63788957D01*
X52113600Y-63782038D01*
X52114988Y-63779746D01*
X52123357Y-63765074D01*
X52124622Y-63762714D01*
X52128990Y-63756500D01*
X52152203Y-63696962D01*
X52154759Y-63690881D01*
X52155190Y-63689928D01*
X52181045Y-63632666D01*
X52182430Y-63625193D01*
X52183234Y-63622627D01*
X52187855Y-63606404D01*
X52188520Y-63603812D01*
X52191282Y-63596730D01*
X52199622Y-63533378D01*
X52200654Y-63526862D01*
X52210911Y-63471520D01*
X52212295Y-63464053D01*
X52208709Y-63401859D01*
X52208500Y-63394606D01*
X52208500Y-62368744D01*
X52228502Y-62300623D01*
X52232564Y-62294683D01*
X52234621Y-62291852D01*
X52239040Y-62286944D01*
X52313197Y-62158500D01*
X52331223Y-62127279D01*
X52331224Y-62127278D01*
X52334527Y-62121556D01*
X52393542Y-61939928D01*
X52413504Y-61750000D01*
X52412814Y-61743435D01*
X52394232Y-61566635D01*
X52394232Y-61566633D01*
X52393542Y-61560072D01*
X52334527Y-61378444D01*
X52316677Y-61347526D01*
X52262057Y-61252922D01*
X52239040Y-61213056D01*
X52212151Y-61183192D01*
X52115675Y-61076045D01*
X52115674Y-61076044D01*
X52111253Y-61071134D01*
X52005924Y-60994608D01*
X51962094Y-60962763D01*
X51962093Y-60962762D01*
X51956752Y-60958882D01*
X51950724Y-60956198D01*
X51950722Y-60956197D01*
X51788319Y-60883891D01*
X51788318Y-60883891D01*
X51782288Y-60881206D01*
X51688888Y-60861353D01*
X51601944Y-60842872D01*
X51601939Y-60842872D01*
X51595487Y-60841500D01*
X51404513Y-60841500D01*
X51398061Y-60842872D01*
X51398056Y-60842872D01*
X51311112Y-60861353D01*
X51217712Y-60881206D01*
X51211685Y-60883889D01*
X51211677Y-60883892D01*
X51058652Y-60952023D01*
X50988285Y-60961457D01*
X50923988Y-60931350D01*
X50886175Y-60871261D01*
X50881404Y-60836916D01*
X50881404Y-57395660D01*
X53062654Y-57395660D01*
X53066400Y-57433869D01*
X53067001Y-57446164D01*
X53067001Y-57744669D01*
X53067371Y-57751490D01*
X53072895Y-57802352D01*
X53076521Y-57817604D01*
X53121676Y-57938054D01*
X53130214Y-57953649D01*
X53206715Y-58055724D01*
X53219276Y-58068285D01*
X53321351Y-58144786D01*
X53336946Y-58153324D01*
X53457394Y-58198478D01*
X53472649Y-58202105D01*
X53523514Y-58207631D01*
X53530328Y-58208000D01*
X53812618Y-58208000D01*
X53829283Y-58209107D01*
X53850991Y-58212004D01*
X53864986Y-58212297D01*
X53906494Y-58208519D01*
X53917914Y-58208000D01*
X54727885Y-58208000D01*
X54743124Y-58203525D01*
X54744329Y-58202135D01*
X54746000Y-58194452D01*
X54746000Y-58189884D01*
X55254000Y-58189884D01*
X55258475Y-58205123D01*
X55259865Y-58206328D01*
X55267548Y-58207999D01*
X56062610Y-58207999D01*
X56079275Y-58209106D01*
X56100990Y-58212004D01*
X56114986Y-58212297D01*
X56156503Y-58208518D01*
X56167923Y-58207999D01*
X56469669Y-58207999D01*
X56476490Y-58207629D01*
X56527352Y-58202105D01*
X56542603Y-58198479D01*
X56621270Y-58168988D01*
X56692077Y-58163805D01*
X56754446Y-58197726D01*
X56788576Y-58259981D01*
X56791500Y-58286970D01*
X56791500Y-59904338D01*
X56771498Y-59972459D01*
X56754596Y-59993433D01*
X56433467Y-60314563D01*
X56370568Y-60348715D01*
X56317895Y-60359911D01*
X56217712Y-60381206D01*
X56211682Y-60383891D01*
X56211681Y-60383891D01*
X56049278Y-60456197D01*
X56049276Y-60456198D01*
X56043248Y-60458882D01*
X56037907Y-60462762D01*
X56037906Y-60462763D01*
X55997080Y-60492425D01*
X55888747Y-60571134D01*
X55884326Y-60576044D01*
X55884325Y-60576045D01*
X55781874Y-60689829D01*
X55760960Y-60713056D01*
X55736824Y-60754861D01*
X55686011Y-60842872D01*
X55665473Y-60878444D01*
X55606458Y-61060072D01*
X55605768Y-61066633D01*
X55605768Y-61066635D01*
X55592105Y-61196632D01*
X55586496Y-61250000D01*
X55587186Y-61256565D01*
X55590849Y-61291412D01*
X55606458Y-61439928D01*
X55665473Y-61621556D01*
X55760960Y-61786944D01*
X55888747Y-61928866D01*
X56043248Y-62041118D01*
X56049276Y-62043802D01*
X56049278Y-62043803D01*
X56209799Y-62115271D01*
X56217712Y-62118794D01*
X56311112Y-62138647D01*
X56398056Y-62157128D01*
X56398061Y-62157128D01*
X56404513Y-62158500D01*
X56595487Y-62158500D01*
X56601939Y-62157128D01*
X56601944Y-62157128D01*
X56688888Y-62138647D01*
X56782288Y-62118794D01*
X56790201Y-62115271D01*
X56950722Y-62043803D01*
X56950724Y-62043802D01*
X56956752Y-62041118D01*
X57111253Y-61928866D01*
X57239040Y-61786944D01*
X57334527Y-61621556D01*
X57393542Y-61439928D01*
X57398450Y-61393230D01*
X57425463Y-61327573D01*
X57434665Y-61317305D01*
X57980520Y-60771450D01*
X57986785Y-60765596D01*
X57987651Y-60764840D01*
X58030385Y-60727561D01*
X58067114Y-60675300D01*
X58071046Y-60670005D01*
X58105791Y-60625694D01*
X58110477Y-60619718D01*
X58113602Y-60612796D01*
X58114964Y-60610548D01*
X58123368Y-60595815D01*
X58124622Y-60593476D01*
X58128990Y-60587261D01*
X58131749Y-60580185D01*
X58131751Y-60580181D01*
X58152202Y-60527726D01*
X58154758Y-60521646D01*
X58160986Y-60507852D01*
X58181045Y-60463426D01*
X58182429Y-60455955D01*
X58183230Y-60453401D01*
X58187867Y-60437122D01*
X58188523Y-60434567D01*
X58191282Y-60427491D01*
X58197556Y-60379834D01*
X58199621Y-60364149D01*
X58200653Y-60357633D01*
X58210912Y-60302280D01*
X58212296Y-60294813D01*
X58208709Y-60232602D01*
X58208500Y-60225349D01*
X58208500Y-53411624D01*
X60327262Y-53411624D01*
X60330722Y-53448221D01*
X60331577Y-53457271D01*
X60332136Y-53469129D01*
X60332136Y-53526817D01*
X60331351Y-53540861D01*
X60327355Y-53576487D01*
X60327871Y-53582631D01*
X60331694Y-53628160D01*
X60331950Y-53634255D01*
X60331986Y-53634253D01*
X60332136Y-53637320D01*
X60332136Y-53640405D01*
X60333618Y-53655516D01*
X60336134Y-53681185D01*
X60336293Y-53682935D01*
X60343904Y-53773570D01*
X60345561Y-53779350D01*
X60345599Y-53779540D01*
X60345931Y-53781281D01*
X60345970Y-53781494D01*
X60346556Y-53787469D01*
X60348338Y-53793371D01*
X60372827Y-53874484D01*
X60373324Y-53876171D01*
X60398419Y-53963686D01*
X60401169Y-53969035D01*
X60401236Y-53969199D01*
X60401876Y-53970784D01*
X60401987Y-53971065D01*
X60403720Y-53976805D01*
X60406611Y-53982242D01*
X60406615Y-53982252D01*
X60446460Y-54057189D01*
X60447204Y-54058611D01*
X60488823Y-54139592D01*
X60492550Y-54144295D01*
X60492696Y-54144514D01*
X60493653Y-54145976D01*
X60493745Y-54146118D01*
X60496570Y-54151432D01*
X60528654Y-54190771D01*
X60554075Y-54221940D01*
X60555167Y-54223299D01*
X60611671Y-54294589D01*
X60616249Y-54298485D01*
X60616379Y-54298616D01*
X60617619Y-54299882D01*
X60617774Y-54300043D01*
X60621571Y-54304698D01*
X60626318Y-54308625D01*
X60626321Y-54308628D01*
X60691647Y-54362670D01*
X60692995Y-54363801D01*
X60757596Y-54418781D01*
X60757599Y-54418783D01*
X60762286Y-54422772D01*
X60767534Y-54425705D01*
X60767710Y-54425824D01*
X60769184Y-54426834D01*
X60769331Y-54426936D01*
X60773961Y-54430766D01*
X60779381Y-54433696D01*
X60779383Y-54433698D01*
X60853971Y-54474028D01*
X60855512Y-54474875D01*
X60929553Y-54516255D01*
X60934930Y-54519260D01*
X60940645Y-54521117D01*
X60940819Y-54521190D01*
X60942421Y-54521877D01*
X60942658Y-54521981D01*
X60947935Y-54524834D01*
X61009214Y-54543803D01*
X61034870Y-54551745D01*
X61036533Y-54552273D01*
X61123028Y-54580376D01*
X61128990Y-54581087D01*
X61129210Y-54581132D01*
X61130927Y-54581497D01*
X61131129Y-54581541D01*
X61136868Y-54583318D01*
X61142995Y-54583962D01*
X61227312Y-54592824D01*
X61229060Y-54593020D01*
X61285460Y-54599745D01*
X61319413Y-54603794D01*
X61325408Y-54603333D01*
X61325556Y-54603334D01*
X61327304Y-54603358D01*
X61327593Y-54603364D01*
X61333561Y-54603991D01*
X61424148Y-54595747D01*
X61425784Y-54595609D01*
X61516608Y-54588620D01*
X61522396Y-54587004D01*
X61522585Y-54586968D01*
X61524321Y-54586649D01*
X61524536Y-54586611D01*
X61530524Y-54586066D01*
X61536430Y-54584328D01*
X61536434Y-54584327D01*
X61617807Y-54560378D01*
X61619497Y-54559894D01*
X61701157Y-54537094D01*
X61701166Y-54537091D01*
X61707099Y-54535434D01*
X61712455Y-54532729D01*
X61712699Y-54532630D01*
X61714335Y-54531982D01*
X61714481Y-54531926D01*
X61720255Y-54530226D01*
X61730569Y-54524834D01*
X61800887Y-54488073D01*
X61802451Y-54487269D01*
X61878139Y-54449036D01*
X61878141Y-54449035D01*
X61883632Y-54446261D01*
X61888357Y-54442570D01*
X61888557Y-54442439D01*
X61890034Y-54441487D01*
X61890207Y-54441377D01*
X61895526Y-54438596D01*
X61905265Y-54430766D01*
X61966377Y-54381630D01*
X61967756Y-54380536D01*
X61989902Y-54363234D01*
X62039483Y-54324497D01*
X62043407Y-54319951D01*
X62043559Y-54319802D01*
X62044797Y-54318607D01*
X62044988Y-54318425D01*
X62049661Y-54314668D01*
X62108201Y-54244902D01*
X62109199Y-54243729D01*
X62168714Y-54174781D01*
X62171676Y-54169567D01*
X62171813Y-54169367D01*
X62172817Y-54167922D01*
X62172928Y-54167764D01*
X62176790Y-54163162D01*
X62220620Y-54083434D01*
X62221471Y-54081913D01*
X62263360Y-54008175D01*
X62266405Y-54002815D01*
X62268303Y-53997108D01*
X62268358Y-53996980D01*
X62269054Y-53995386D01*
X62269179Y-53995105D01*
X62272069Y-53989849D01*
X62299577Y-53903133D01*
X62300085Y-53901568D01*
X62300477Y-53900390D01*
X62330926Y-53851107D01*
X62608706Y-53573327D01*
X62886627Y-53295405D01*
X62948940Y-53261380D01*
X62975723Y-53258500D01*
X71177192Y-53258500D01*
X71245313Y-53278502D01*
X71272471Y-53304103D01*
X71273377Y-53303317D01*
X71417261Y-53469129D01*
X71424477Y-53477445D01*
X71428608Y-53480832D01*
X71598627Y-53620240D01*
X71598633Y-53620244D01*
X71602755Y-53623624D01*
X71634250Y-53641552D01*
X71683555Y-53692632D01*
X71697417Y-53762262D01*
X71671434Y-53828333D01*
X71642284Y-53855573D01*
X71520681Y-53937441D01*
X71516824Y-53941120D01*
X71516822Y-53941122D01*
X71483442Y-53972965D01*
X71353865Y-54096576D01*
X71350682Y-54100854D01*
X71315088Y-54148694D01*
X71216246Y-54281542D01*
X71213830Y-54286293D01*
X71213828Y-54286297D01*
X71178471Y-54355840D01*
X71111760Y-54487051D01*
X71110178Y-54492145D01*
X71110177Y-54492148D01*
X71071686Y-54616109D01*
X71043393Y-54707227D01*
X71038476Y-54744329D01*
X71037829Y-54749208D01*
X71009050Y-54814111D01*
X71002016Y-54821749D01*
X69434154Y-56389612D01*
X67869171Y-57954595D01*
X67806859Y-57988621D01*
X67780076Y-57991500D01*
X65731926Y-57991500D01*
X65663805Y-57971498D01*
X65642831Y-57954596D01*
X65004064Y-57315830D01*
X64995516Y-57306370D01*
X64973673Y-57279588D01*
X64969065Y-57273938D01*
X64964323Y-57270015D01*
X64964321Y-57270013D01*
X64930244Y-57241822D01*
X64928838Y-57240604D01*
X64927925Y-57239691D01*
X64891560Y-57209820D01*
X64816675Y-57147870D01*
X64815112Y-57147025D01*
X64813739Y-57145897D01*
X64728289Y-57100080D01*
X64724322Y-57097935D01*
X64647917Y-57056622D01*
X64647914Y-57056621D01*
X64642701Y-57053802D01*
X64640997Y-57053275D01*
X64639437Y-57052438D01*
X64633799Y-57050714D01*
X64633796Y-57050713D01*
X64547004Y-57024178D01*
X64546584Y-57024049D01*
X64459386Y-56997057D01*
X64453768Y-56995318D01*
X64452000Y-56995132D01*
X64450302Y-56994613D01*
X64353804Y-56984811D01*
X64353540Y-56984784D01*
X64257075Y-56974645D01*
X64255308Y-56974806D01*
X64253538Y-56974626D01*
X64247656Y-56975182D01*
X64247655Y-56975182D01*
X64156822Y-56983768D01*
X64156553Y-56983793D01*
X64145924Y-56984760D01*
X64076273Y-56971019D01*
X64025106Y-56921801D01*
X64008500Y-56859280D01*
X64008500Y-56560222D01*
X64009492Y-56544444D01*
X64012985Y-56516795D01*
X64013380Y-56488500D01*
X63994080Y-56291667D01*
X63990829Y-56280897D01*
X63965050Y-56195516D01*
X63936916Y-56102331D01*
X63844066Y-55927704D01*
X63744063Y-55805088D01*
X63722960Y-55779213D01*
X63722957Y-55779210D01*
X63719065Y-55774438D01*
X63712724Y-55769192D01*
X63571425Y-55652299D01*
X63571421Y-55652297D01*
X63566675Y-55648370D01*
X63392701Y-55554302D01*
X63203768Y-55495818D01*
X63197643Y-55495174D01*
X63197642Y-55495174D01*
X63013204Y-55475789D01*
X63013202Y-55475789D01*
X63007075Y-55475145D01*
X62924576Y-55482653D01*
X62816251Y-55492511D01*
X62816248Y-55492512D01*
X62810112Y-55493070D01*
X62804206Y-55494808D01*
X62804202Y-55494809D01*
X62699076Y-55525749D01*
X62620381Y-55548910D01*
X62614923Y-55551763D01*
X62614919Y-55551765D01*
X62524147Y-55599220D01*
X62445110Y-55640540D01*
X62290975Y-55764468D01*
X62163846Y-55915974D01*
X62160879Y-55921372D01*
X62160875Y-55921377D01*
X62085284Y-56058878D01*
X62068567Y-56089287D01*
X62066706Y-56095154D01*
X62066705Y-56095156D01*
X62010629Y-56271928D01*
X62010628Y-56271934D01*
X62008765Y-56277806D01*
X62007030Y-56293274D01*
X62001011Y-56346938D01*
X61991194Y-56434461D01*
X61986719Y-56474351D01*
X61987613Y-56484995D01*
X61991058Y-56526024D01*
X61991500Y-56536567D01*
X61991500Y-58443923D01*
X61990763Y-58457530D01*
X61988045Y-58482555D01*
X61986676Y-58495154D01*
X61987978Y-58510031D01*
X61991050Y-58545154D01*
X61991379Y-58549980D01*
X61991500Y-58552452D01*
X61991500Y-58555535D01*
X61991801Y-58558603D01*
X61995690Y-58598272D01*
X61995812Y-58599585D01*
X62003913Y-58692179D01*
X62005400Y-58697298D01*
X62005920Y-58702599D01*
X62032791Y-58791600D01*
X62033126Y-58792733D01*
X62042024Y-58823357D01*
X62059091Y-58882102D01*
X62061544Y-58886834D01*
X62063084Y-58891935D01*
X62065978Y-58897378D01*
X62106731Y-58974026D01*
X62107343Y-58975192D01*
X62150108Y-59057692D01*
X62153431Y-59061855D01*
X62155934Y-59066562D01*
X62214755Y-59138684D01*
X62215446Y-59139540D01*
X62246738Y-59178739D01*
X62249242Y-59181243D01*
X62249884Y-59181961D01*
X62253585Y-59186294D01*
X62280935Y-59219828D01*
X62285682Y-59223755D01*
X62285684Y-59223757D01*
X62316262Y-59249053D01*
X62325042Y-59257043D01*
X63987379Y-60919379D01*
X63996481Y-60929522D01*
X64020202Y-60959025D01*
X64058690Y-60991320D01*
X64062309Y-60994478D01*
X64064124Y-60996124D01*
X64066309Y-60998309D01*
X64068689Y-61000264D01*
X64068699Y-61000273D01*
X64099470Y-61025549D01*
X64100485Y-61026391D01*
X64171708Y-61086154D01*
X64176382Y-61088723D01*
X64180495Y-61092102D01*
X64240304Y-61124171D01*
X64262281Y-61135955D01*
X64263411Y-61136568D01*
X64345021Y-61181433D01*
X64350103Y-61183045D01*
X64354797Y-61185562D01*
X64443765Y-61212762D01*
X64444793Y-61213082D01*
X64533540Y-61241235D01*
X64538836Y-61241829D01*
X64543932Y-61243387D01*
X64636491Y-61252790D01*
X64637627Y-61252911D01*
X64670209Y-61256565D01*
X64683964Y-61258108D01*
X64683968Y-61258108D01*
X64687461Y-61258500D01*
X64690988Y-61258500D01*
X64691973Y-61258555D01*
X64697653Y-61259002D01*
X64727059Y-61261989D01*
X64734571Y-61262752D01*
X64734573Y-61262752D01*
X64740696Y-61263374D01*
X64786342Y-61259059D01*
X64798201Y-61258500D01*
X71362015Y-61258500D01*
X71428132Y-61277241D01*
X71446030Y-61288274D01*
X71446033Y-61288276D01*
X71452262Y-61292115D01*
X71528208Y-61317305D01*
X71613611Y-61345632D01*
X71613613Y-61345632D01*
X71620139Y-61347797D01*
X71626975Y-61348497D01*
X71626978Y-61348498D01*
X71670031Y-61352909D01*
X71724600Y-61358500D01*
X73275400Y-61358500D01*
X73278646Y-61358163D01*
X73278650Y-61358163D01*
X73374308Y-61348238D01*
X73374312Y-61348237D01*
X73381166Y-61347526D01*
X73387702Y-61345345D01*
X73387704Y-61345345D01*
X73519806Y-61301272D01*
X73548946Y-61291550D01*
X73699348Y-61198478D01*
X73715119Y-61182680D01*
X73819134Y-61078483D01*
X73824305Y-61073303D01*
X73833197Y-61058878D01*
X73913275Y-60928968D01*
X73913276Y-60928966D01*
X73917115Y-60922738D01*
X73956725Y-60803317D01*
X73970632Y-60761389D01*
X73970632Y-60761387D01*
X73972797Y-60754861D01*
X73975083Y-60732555D01*
X73983172Y-60653598D01*
X73983500Y-60650400D01*
X73983500Y-60094925D01*
X74003502Y-60026804D01*
X74020405Y-60005830D01*
X75980829Y-58045405D01*
X76043141Y-58011380D01*
X76069924Y-58008500D01*
X77780074Y-58008500D01*
X77848195Y-58028502D01*
X77869169Y-58045404D01*
X78479595Y-58655829D01*
X78513620Y-58718142D01*
X78516500Y-58744925D01*
X78516500Y-59400400D01*
X78516837Y-59403646D01*
X78516837Y-59403650D01*
X78526020Y-59492148D01*
X78527474Y-59506166D01*
X78529655Y-59512702D01*
X78529655Y-59512704D01*
X78563549Y-59614297D01*
X78583450Y-59673946D01*
X78676522Y-59824348D01*
X78801697Y-59949305D01*
X78807927Y-59953145D01*
X78807928Y-59953146D01*
X78945090Y-60037694D01*
X78952262Y-60042115D01*
X79018925Y-60064226D01*
X79113611Y-60095632D01*
X79113613Y-60095632D01*
X79120139Y-60097797D01*
X79126975Y-60098497D01*
X79126978Y-60098498D01*
X79170031Y-60102909D01*
X79224600Y-60108500D01*
X80775400Y-60108500D01*
X80778646Y-60108163D01*
X80778650Y-60108163D01*
X80874308Y-60098238D01*
X80874312Y-60098237D01*
X80881166Y-60097526D01*
X80887702Y-60095345D01*
X80887704Y-60095345D01*
X81033525Y-60046695D01*
X81048946Y-60041550D01*
X81199348Y-59948478D01*
X81324305Y-59823303D01*
X81328146Y-59817072D01*
X81413275Y-59678968D01*
X81413276Y-59678966D01*
X81417115Y-59672738D01*
X81472797Y-59504861D01*
X81483500Y-59400400D01*
X81483500Y-58099600D01*
X81477877Y-58045404D01*
X81473238Y-58000692D01*
X81473237Y-58000688D01*
X81472526Y-57993834D01*
X81468781Y-57982607D01*
X81418868Y-57833002D01*
X81416550Y-57826054D01*
X81323478Y-57675652D01*
X81198303Y-57550695D01*
X81175512Y-57536646D01*
X81126922Y-57506695D01*
X81052660Y-57460919D01*
X81005168Y-57408148D01*
X80993744Y-57338076D01*
X81022018Y-57272952D01*
X81031805Y-57262490D01*
X81101445Y-57196056D01*
X81146135Y-57153424D01*
X81283754Y-56968458D01*
X81319199Y-56898744D01*
X81376369Y-56786297D01*
X81388240Y-56762949D01*
X81406403Y-56704457D01*
X81455024Y-56547871D01*
X81456607Y-56542773D01*
X81464861Y-56480495D01*
X81486198Y-56319511D01*
X81486198Y-56319506D01*
X81486898Y-56314226D01*
X81486112Y-56293274D01*
X81480415Y-56141550D01*
X81478249Y-56083842D01*
X81430907Y-55858209D01*
X81428948Y-55853248D01*
X81348185Y-55648744D01*
X81348184Y-55648742D01*
X81346224Y-55643779D01*
X81342528Y-55637687D01*
X81229390Y-55451243D01*
X81226623Y-55446683D01*
X81196896Y-55412425D01*
X81079023Y-55276588D01*
X81079021Y-55276586D01*
X81075523Y-55272555D01*
X80980654Y-55194767D01*
X80901373Y-55129760D01*
X80901367Y-55129756D01*
X80897245Y-55126376D01*
X80865750Y-55108448D01*
X80816445Y-55057368D01*
X80802583Y-54987738D01*
X80828566Y-54921667D01*
X80857716Y-54894427D01*
X80873398Y-54883870D01*
X80979319Y-54812559D01*
X80992877Y-54799626D01*
X81062517Y-54733192D01*
X81146135Y-54653424D01*
X81151061Y-54646804D01*
X81211389Y-54565720D01*
X81283754Y-54468458D01*
X81296085Y-54444206D01*
X81343222Y-54351492D01*
X81388240Y-54262949D01*
X81393455Y-54246156D01*
X81455024Y-54047871D01*
X81456607Y-54042773D01*
X81461193Y-54008175D01*
X81486198Y-53819511D01*
X81486198Y-53819506D01*
X81486898Y-53814226D01*
X81485894Y-53787469D01*
X81480142Y-53634255D01*
X81478249Y-53583842D01*
X81467763Y-53533863D01*
X81432002Y-53363428D01*
X81430907Y-53358209D01*
X81428948Y-53353248D01*
X81348185Y-53148744D01*
X81348184Y-53148742D01*
X81346224Y-53143779D01*
X81329249Y-53115804D01*
X81234334Y-52959391D01*
X81226623Y-52946683D01*
X81217354Y-52936001D01*
X81079023Y-52776588D01*
X81079021Y-52776586D01*
X81075523Y-52772555D01*
X81023115Y-52729583D01*
X80901373Y-52629760D01*
X80901367Y-52629756D01*
X80897245Y-52626376D01*
X80865750Y-52608448D01*
X80816445Y-52557368D01*
X80802583Y-52487738D01*
X80828566Y-52421667D01*
X80857716Y-52394427D01*
X80883650Y-52376967D01*
X80979319Y-52312559D01*
X81146135Y-52153424D01*
X81283754Y-51968458D01*
X81319199Y-51898744D01*
X81345671Y-51846676D01*
X81388240Y-51762949D01*
X81407401Y-51701243D01*
X81455024Y-51547871D01*
X81456607Y-51542773D01*
X81462518Y-51498178D01*
X81486198Y-51319511D01*
X81486198Y-51319506D01*
X81486898Y-51314226D01*
X81486432Y-51301797D01*
X81480024Y-51131114D01*
X81478249Y-51083842D01*
X81430907Y-50858209D01*
X81428948Y-50853248D01*
X81348185Y-50648744D01*
X81348184Y-50648742D01*
X81346224Y-50643779D01*
X81320421Y-50601256D01*
X81229390Y-50451243D01*
X81226623Y-50446683D01*
X81205040Y-50421811D01*
X81079023Y-50276588D01*
X81079021Y-50276586D01*
X81075523Y-50272555D01*
X81006020Y-50215566D01*
X80901373Y-50129760D01*
X80901367Y-50129756D01*
X80897245Y-50126376D01*
X80892609Y-50123737D01*
X80892606Y-50123735D01*
X80701529Y-50014968D01*
X80696886Y-50012325D01*
X80480175Y-49933663D01*
X80474926Y-49932714D01*
X80474923Y-49932713D01*
X80257392Y-49893377D01*
X80257385Y-49893376D01*
X80253308Y-49892639D01*
X80235586Y-49891803D01*
X80230644Y-49891570D01*
X80230637Y-49891570D01*
X80229156Y-49891500D01*
X79817110Y-49891500D01*
X79750191Y-49897178D01*
X79650591Y-49905629D01*
X79650587Y-49905630D01*
X79645280Y-49906080D01*
X79640125Y-49907418D01*
X79640119Y-49907419D01*
X79427297Y-49962657D01*
X79427293Y-49962658D01*
X79422128Y-49963999D01*
X79417262Y-49966191D01*
X79417259Y-49966192D01*
X79308980Y-50014968D01*
X79211925Y-50058688D01*
X79020681Y-50187441D01*
X79016824Y-50191120D01*
X79016822Y-50191122D01*
X78958521Y-50246739D01*
X78853865Y-50346576D01*
X78716246Y-50531542D01*
X78713830Y-50536293D01*
X78713828Y-50536297D01*
X78678277Y-50606221D01*
X78611760Y-50737051D01*
X78610176Y-50742151D01*
X78610176Y-50742152D01*
X78560273Y-50902864D01*
X78520970Y-50961990D01*
X78455941Y-50990480D01*
X78439941Y-50991500D01*
X74969926Y-50991500D01*
X74901805Y-50971498D01*
X74880831Y-50954596D01*
X74021720Y-50095486D01*
X73987695Y-50033173D01*
X73984904Y-50011117D01*
X73984690Y-50005400D01*
X73978249Y-49833842D01*
X73930907Y-49608209D01*
X73928948Y-49603248D01*
X73848185Y-49398744D01*
X73848184Y-49398742D01*
X73846224Y-49393779D01*
X73726623Y-49196683D01*
X73672862Y-49134729D01*
X73579023Y-49026588D01*
X73579021Y-49026586D01*
X73575523Y-49022555D01*
X73520023Y-48977048D01*
X73401373Y-48879760D01*
X73401367Y-48879756D01*
X73397245Y-48876376D01*
X73392609Y-48873737D01*
X73392606Y-48873735D01*
X73201529Y-48764968D01*
X73196886Y-48762325D01*
X72980175Y-48683663D01*
X72974926Y-48682714D01*
X72974923Y-48682713D01*
X72757392Y-48643377D01*
X72757385Y-48643376D01*
X72753308Y-48642639D01*
X72735586Y-48641803D01*
X72730644Y-48641570D01*
X72730637Y-48641570D01*
X72729156Y-48641500D01*
X72317110Y-48641500D01*
X72250191Y-48647178D01*
X72150591Y-48655629D01*
X72150587Y-48655630D01*
X72145280Y-48656080D01*
X72140125Y-48657418D01*
X72140119Y-48657419D01*
X71927297Y-48712657D01*
X71927293Y-48712658D01*
X71922128Y-48713999D01*
X71917262Y-48716191D01*
X71917259Y-48716192D01*
X71808980Y-48764968D01*
X71711925Y-48808688D01*
X71520681Y-48937441D01*
X71516824Y-48941120D01*
X71516822Y-48941122D01*
X71479162Y-48977048D01*
X71353865Y-49096576D01*
X71350682Y-49100854D01*
X71330154Y-49128444D01*
X71216246Y-49281542D01*
X71213830Y-49286293D01*
X71213828Y-49286297D01*
X71198404Y-49316635D01*
X71111760Y-49487051D01*
X71110178Y-49492145D01*
X71110177Y-49492148D01*
X71059225Y-49656241D01*
X71043393Y-49707227D01*
X71042692Y-49712516D01*
X71042692Y-49712517D01*
X71036499Y-49759244D01*
X71007720Y-49824147D01*
X71000686Y-49831785D01*
X70877876Y-49954595D01*
X70815564Y-49988621D01*
X70788781Y-49991500D01*
X62049872Y-49991500D01*
X62036264Y-49990763D01*
X62004768Y-49987341D01*
X62004764Y-49987341D01*
X61998643Y-49986676D01*
X61980643Y-49988251D01*
X61948641Y-49991050D01*
X61943816Y-49991379D01*
X61941345Y-49991500D01*
X61938263Y-49991500D01*
X61915795Y-49993703D01*
X61895521Y-49995691D01*
X61894206Y-49995813D01*
X61861945Y-49998636D01*
X61801619Y-50003913D01*
X61796500Y-50005400D01*
X61791199Y-50005920D01*
X61785294Y-50007703D01*
X61785293Y-50007703D01*
X61769984Y-50012325D01*
X61702226Y-50032782D01*
X61701086Y-50033120D01*
X61611695Y-50059091D01*
X61606961Y-50061545D01*
X61601863Y-50063084D01*
X61596419Y-50065978D01*
X61596418Y-50065979D01*
X61519863Y-50106684D01*
X61518695Y-50107298D01*
X61436106Y-50150108D01*
X61431943Y-50153431D01*
X61427236Y-50155934D01*
X61422462Y-50159828D01*
X61422460Y-50159829D01*
X61355137Y-50214737D01*
X61354192Y-50215500D01*
X61315059Y-50246739D01*
X61312568Y-50249230D01*
X61311841Y-50249880D01*
X61307495Y-50253592D01*
X61288620Y-50268987D01*
X61273970Y-50280935D01*
X61270047Y-50285677D01*
X61270045Y-50285679D01*
X61244735Y-50316273D01*
X61236745Y-50325053D01*
X60712653Y-50849145D01*
X60702510Y-50858247D01*
X60673007Y-50881968D01*
X60662963Y-50893938D01*
X60640741Y-50920421D01*
X60637560Y-50924069D01*
X60635917Y-50925881D01*
X60633723Y-50928075D01*
X60606390Y-50961349D01*
X60605728Y-50962147D01*
X60545878Y-51033474D01*
X60543310Y-51038144D01*
X60539929Y-51042261D01*
X60527448Y-51065539D01*
X60496055Y-51124086D01*
X60495426Y-51125245D01*
X60453570Y-51201381D01*
X60453567Y-51201389D01*
X60450599Y-51206787D01*
X60448987Y-51211869D01*
X60446470Y-51216563D01*
X60419270Y-51305531D01*
X60418966Y-51306507D01*
X60390797Y-51395306D01*
X60390203Y-51400602D01*
X60388645Y-51405698D01*
X60382819Y-51463051D01*
X60379251Y-51498178D01*
X60379118Y-51499427D01*
X60368751Y-51591851D01*
X60369197Y-51597159D01*
X60368658Y-51602462D01*
X60375792Y-51677927D01*
X60377407Y-51695016D01*
X60377524Y-51696331D01*
X60384320Y-51777260D01*
X60385300Y-51788934D01*
X60386770Y-51794060D01*
X60387271Y-51799362D01*
X60389031Y-51805265D01*
X60413824Y-51888433D01*
X60414192Y-51889691D01*
X60439815Y-51979050D01*
X60442251Y-51983789D01*
X60443773Y-51988896D01*
X60487177Y-52071221D01*
X60487698Y-52072221D01*
X60530219Y-52154956D01*
X60533528Y-52159131D01*
X60536014Y-52163846D01*
X60591481Y-52232342D01*
X60594450Y-52236008D01*
X60595274Y-52237037D01*
X60619023Y-52267000D01*
X60653067Y-52309953D01*
X60657129Y-52313410D01*
X60660479Y-52317547D01*
X60665214Y-52321492D01*
X60665218Y-52321496D01*
X60731798Y-52376967D01*
X60732811Y-52377820D01*
X60747104Y-52389985D01*
X60786015Y-52449368D01*
X60786644Y-52520362D01*
X60754533Y-52575031D01*
X60671257Y-52658307D01*
X60661114Y-52667409D01*
X60631611Y-52691130D01*
X60627644Y-52695858D01*
X60599345Y-52729583D01*
X60596164Y-52733231D01*
X60594521Y-52735043D01*
X60592327Y-52737237D01*
X60564994Y-52770511D01*
X60564332Y-52771309D01*
X60504482Y-52842636D01*
X60501914Y-52847306D01*
X60498533Y-52851423D01*
X60476888Y-52891791D01*
X60454659Y-52933248D01*
X60454030Y-52934407D01*
X60412174Y-53010543D01*
X60412171Y-53010551D01*
X60409203Y-53015949D01*
X60407591Y-53021031D01*
X60405074Y-53025725D01*
X60377874Y-53114693D01*
X60377554Y-53115721D01*
X60349401Y-53204468D01*
X60348807Y-53209764D01*
X60347249Y-53214860D01*
X60338184Y-53304103D01*
X60337854Y-53307349D01*
X60337725Y-53308555D01*
X60334278Y-53339292D01*
X60332713Y-53353248D01*
X60332136Y-53358389D01*
X60332136Y-53361916D01*
X60332081Y-53362901D01*
X60331634Y-53368581D01*
X60327262Y-53411624D01*
X58208500Y-53411624D01*
X58208500Y-52095660D01*
X58228502Y-52027539D01*
X58245405Y-52006565D01*
X59102633Y-51149338D01*
X59964735Y-50287236D01*
X59979769Y-50274395D01*
X60105909Y-50182749D01*
X60105911Y-50182747D01*
X60111253Y-50178866D01*
X60130891Y-50157056D01*
X60234621Y-50041852D01*
X60234622Y-50041851D01*
X60239040Y-50036944D01*
X60308494Y-49916646D01*
X60331223Y-49877279D01*
X60331224Y-49877278D01*
X60334527Y-49871556D01*
X60393542Y-49689928D01*
X60401583Y-49613428D01*
X60412814Y-49506565D01*
X60413504Y-49500000D01*
X60410977Y-49475954D01*
X60394232Y-49316635D01*
X60394232Y-49316633D01*
X60393542Y-49310072D01*
X60334527Y-49128444D01*
X60239040Y-48963056D01*
X60203020Y-48923051D01*
X60115675Y-48826045D01*
X60115674Y-48826044D01*
X60111253Y-48821134D01*
X59988220Y-48731745D01*
X59962094Y-48712763D01*
X59962093Y-48712762D01*
X59956752Y-48708882D01*
X59950724Y-48706198D01*
X59950722Y-48706197D01*
X59788319Y-48633891D01*
X59788318Y-48633891D01*
X59782288Y-48631206D01*
X59688887Y-48611353D01*
X59601944Y-48592872D01*
X59601939Y-48592872D01*
X59595487Y-48591500D01*
X59404513Y-48591500D01*
X59398061Y-48592872D01*
X59398056Y-48592872D01*
X59311112Y-48611353D01*
X59217712Y-48631206D01*
X59211682Y-48633891D01*
X59211681Y-48633891D01*
X59049278Y-48706197D01*
X59049276Y-48706198D01*
X59043248Y-48708882D01*
X59037907Y-48712762D01*
X59037906Y-48712763D01*
X59011780Y-48731745D01*
X58888747Y-48821134D01*
X58884326Y-48826044D01*
X58884325Y-48826045D01*
X58796981Y-48923051D01*
X58760960Y-48963056D01*
X58665473Y-49128444D01*
X58606458Y-49310072D01*
X58605768Y-49316633D01*
X58605768Y-49316635D01*
X58589023Y-49475954D01*
X58586496Y-49500000D01*
X58587186Y-49506565D01*
X58595577Y-49586403D01*
X58582805Y-49656241D01*
X58559362Y-49688668D01*
X57019480Y-51228550D01*
X57013215Y-51234404D01*
X56969615Y-51272439D01*
X56944139Y-51308688D01*
X56932872Y-51324719D01*
X56928939Y-51330014D01*
X56889524Y-51380282D01*
X56886401Y-51387198D01*
X56885017Y-51389484D01*
X56876643Y-51404165D01*
X56875378Y-51406525D01*
X56871010Y-51412739D01*
X56868250Y-51419818D01*
X56868249Y-51419820D01*
X56847798Y-51472275D01*
X56845247Y-51478344D01*
X56818955Y-51536573D01*
X56817571Y-51544040D01*
X56816770Y-51546595D01*
X56812141Y-51562848D01*
X56811478Y-51565428D01*
X56808718Y-51572509D01*
X56807727Y-51580040D01*
X56807726Y-51580042D01*
X56800379Y-51635852D01*
X56799348Y-51642359D01*
X56787704Y-51705186D01*
X56788141Y-51712766D01*
X56787710Y-51719615D01*
X56763469Y-51786345D01*
X56707000Y-51829377D01*
X56636230Y-51835047D01*
X56617730Y-51829684D01*
X56542609Y-51801522D01*
X56527351Y-51797895D01*
X56476486Y-51792369D01*
X56469672Y-51792000D01*
X56180877Y-51792000D01*
X56165959Y-51791114D01*
X56137670Y-51787741D01*
X56123673Y-51787643D01*
X56088783Y-51791310D01*
X56075613Y-51792000D01*
X55272115Y-51792000D01*
X55256876Y-51796475D01*
X55255671Y-51797865D01*
X55254000Y-51805548D01*
X55254000Y-58189884D01*
X54746000Y-58189884D01*
X54746000Y-55272115D01*
X54741525Y-55256876D01*
X54740135Y-55255671D01*
X54732452Y-55254000D01*
X54546369Y-55254000D01*
X54535344Y-55257237D01*
X54538582Y-55264328D01*
X54565138Y-55290885D01*
X54599162Y-55353197D01*
X54594096Y-55424013D01*
X54565136Y-55469075D01*
X54234210Y-55800000D01*
X53964095Y-56070116D01*
X53901783Y-56104141D01*
X53830967Y-56099076D01*
X53785905Y-56070115D01*
X53515790Y-55800000D01*
X53184863Y-55469074D01*
X53150837Y-55406762D01*
X53155902Y-55335947D01*
X53184863Y-55290884D01*
X53208937Y-55266810D01*
X53214164Y-55257237D01*
X53695301Y-55257237D01*
X53698539Y-55264328D01*
X53862192Y-55427981D01*
X53876130Y-55435592D01*
X53877966Y-55435461D01*
X53884579Y-55431211D01*
X54048981Y-55266808D01*
X54054487Y-55256724D01*
X54047183Y-55254000D01*
X53706326Y-55254000D01*
X53695301Y-55257237D01*
X53214164Y-55257237D01*
X53214444Y-55256724D01*
X53207140Y-55254000D01*
X53085116Y-55254000D01*
X53069877Y-55258475D01*
X53068672Y-55259865D01*
X53067001Y-55267548D01*
X53067001Y-55740869D01*
X53066007Y-55756662D01*
X53062850Y-55781654D01*
X53062654Y-55795659D01*
X53066400Y-55833866D01*
X53067001Y-55846162D01*
X53067001Y-57340868D01*
X53066007Y-57356660D01*
X53062850Y-57381653D01*
X53062654Y-57395660D01*
X50881404Y-57395660D01*
X50881404Y-54444244D01*
X50901406Y-54376123D01*
X50905468Y-54370183D01*
X50907525Y-54367352D01*
X50911944Y-54362444D01*
X50918267Y-54351492D01*
X51004127Y-54202779D01*
X51004128Y-54202778D01*
X51007431Y-54197056D01*
X51007886Y-54195657D01*
X53062653Y-54195657D01*
X53066399Y-54233862D01*
X53067000Y-54246156D01*
X53067000Y-54727885D01*
X53071475Y-54743124D01*
X53072865Y-54744329D01*
X53080548Y-54746000D01*
X53203631Y-54746000D01*
X53212909Y-54743276D01*
X53695513Y-54743276D01*
X53702817Y-54746000D01*
X54043674Y-54746000D01*
X54054699Y-54742763D01*
X54051461Y-54735672D01*
X53887808Y-54572019D01*
X53873870Y-54564408D01*
X53872034Y-54564539D01*
X53865421Y-54568789D01*
X53701019Y-54733192D01*
X53695513Y-54743276D01*
X53212909Y-54743276D01*
X53214656Y-54742763D01*
X53211418Y-54735672D01*
X53184862Y-54709115D01*
X53150838Y-54646803D01*
X53155904Y-54575987D01*
X53184864Y-54530925D01*
X53785905Y-53929885D01*
X53848217Y-53895860D01*
X53919033Y-53900925D01*
X53964095Y-53929885D01*
X54565136Y-54530925D01*
X54599161Y-54593238D01*
X54594097Y-54664053D01*
X54565138Y-54709115D01*
X54541062Y-54733192D01*
X54535556Y-54743276D01*
X54542860Y-54746000D01*
X54727885Y-54746000D01*
X54743124Y-54741525D01*
X54744329Y-54740135D01*
X54746000Y-54732452D01*
X54746000Y-51810116D01*
X54741525Y-51794877D01*
X54740135Y-51793672D01*
X54732452Y-51792001D01*
X53930885Y-51792001D01*
X53915966Y-51791115D01*
X53887670Y-51787741D01*
X53873673Y-51787643D01*
X53838776Y-51791311D01*
X53825605Y-51792001D01*
X53530331Y-51792001D01*
X53523510Y-51792371D01*
X53472648Y-51797895D01*
X53457396Y-51801521D01*
X53336946Y-51846676D01*
X53321351Y-51855214D01*
X53219276Y-51931715D01*
X53206715Y-51944276D01*
X53130214Y-52046351D01*
X53121676Y-52061946D01*
X53076522Y-52182394D01*
X53072895Y-52197649D01*
X53067369Y-52248514D01*
X53067000Y-52255328D01*
X53067000Y-52540875D01*
X53066006Y-52556667D01*
X53062850Y-52581653D01*
X53062654Y-52595660D01*
X53066399Y-52633859D01*
X53067000Y-52646154D01*
X53067000Y-54140867D01*
X53066007Y-54156658D01*
X53062849Y-54181660D01*
X53062653Y-54195657D01*
X51007886Y-54195657D01*
X51066446Y-54015428D01*
X51067209Y-54008175D01*
X51085718Y-53832065D01*
X51086408Y-53825500D01*
X51081668Y-53780402D01*
X51067136Y-53642135D01*
X51067136Y-53642133D01*
X51066446Y-53635572D01*
X51064282Y-53628909D01*
X51021593Y-53497529D01*
X51007431Y-53453944D01*
X50982998Y-53411624D01*
X50943660Y-53343489D01*
X50911944Y-53288556D01*
X50902892Y-53278502D01*
X50788579Y-53151545D01*
X50788578Y-53151544D01*
X50784157Y-53146634D01*
X50629656Y-53034382D01*
X50623628Y-53031698D01*
X50623626Y-53031697D01*
X50461223Y-52959391D01*
X50461222Y-52959391D01*
X50455192Y-52956706D01*
X50347852Y-52933890D01*
X50274848Y-52918372D01*
X50274843Y-52918372D01*
X50268391Y-52917000D01*
X50077417Y-52917000D01*
X50070965Y-52918372D01*
X50070960Y-52918372D01*
X49997956Y-52933890D01*
X49890616Y-52956706D01*
X49884586Y-52959391D01*
X49884585Y-52959391D01*
X49722182Y-53031697D01*
X49722180Y-53031698D01*
X49716152Y-53034382D01*
X49561651Y-53146634D01*
X49458334Y-53261380D01*
X49457760Y-53262017D01*
X49397314Y-53299257D01*
X49326331Y-53297905D01*
X49267346Y-53258392D01*
X49255006Y-53240709D01*
X49242341Y-53218774D01*
X49239040Y-53213056D01*
X49231308Y-53204468D01*
X49115675Y-53076045D01*
X49115674Y-53076044D01*
X49111253Y-53071134D01*
X49002521Y-52992135D01*
X48962094Y-52962763D01*
X48962093Y-52962762D01*
X48956752Y-52958882D01*
X48950724Y-52956198D01*
X48950722Y-52956197D01*
X48788319Y-52883891D01*
X48788318Y-52883891D01*
X48782288Y-52881206D01*
X48667717Y-52856853D01*
X48601944Y-52842872D01*
X48601939Y-52842872D01*
X48595487Y-52841500D01*
X48404513Y-52841500D01*
X48398061Y-52842872D01*
X48398056Y-52842872D01*
X48332283Y-52856853D01*
X48217712Y-52881206D01*
X48211682Y-52883891D01*
X48211681Y-52883891D01*
X48049278Y-52956197D01*
X48049276Y-52956198D01*
X48043248Y-52958882D01*
X48037907Y-52962762D01*
X48037906Y-52962763D01*
X47997479Y-52992135D01*
X47888747Y-53071134D01*
X47884326Y-53076044D01*
X47884325Y-53076045D01*
X47768693Y-53204468D01*
X47760960Y-53213056D01*
X47723175Y-53278502D01*
X47674020Y-53363641D01*
X47665473Y-53378444D01*
X47606458Y-53560072D01*
X47605768Y-53566633D01*
X47605768Y-53566635D01*
X47589447Y-53721921D01*
X47586496Y-53750000D01*
X47587186Y-53756565D01*
X47602507Y-53902333D01*
X47606458Y-53939928D01*
X47665473Y-54121556D01*
X47668776Y-54127278D01*
X47668777Y-54127279D01*
X47698891Y-54179438D01*
X47760960Y-54286944D01*
X47765378Y-54291851D01*
X47765379Y-54291852D01*
X47859480Y-54396362D01*
X47888747Y-54428866D01*
X47969132Y-54487269D01*
X48035425Y-54535434D01*
X48043248Y-54541118D01*
X48049276Y-54543802D01*
X48049278Y-54543803D01*
X48211681Y-54616109D01*
X48217712Y-54618794D01*
X48349483Y-54646803D01*
X48370569Y-54651285D01*
X48433467Y-54685437D01*
X48777499Y-55029469D01*
X48811525Y-55091781D01*
X48814404Y-55118564D01*
X48814404Y-62595562D01*
X48794402Y-62663683D01*
X48751406Y-62704680D01*
X48748778Y-62706197D01*
X48742748Y-62708882D01*
X48588247Y-62821134D01*
X48583826Y-62826044D01*
X48583825Y-62826045D01*
X48505612Y-62912910D01*
X48460460Y-62963056D01*
X48457159Y-62968774D01*
X48371770Y-63116672D01*
X48364973Y-63128444D01*
X48305958Y-63310072D01*
X48305268Y-63316633D01*
X48305268Y-63316635D01*
X48294363Y-63420388D01*
X48285996Y-63500000D01*
X48286686Y-63506565D01*
X48299940Y-63632666D01*
X48305958Y-63689928D01*
X48364973Y-63871556D01*
X48368276Y-63877278D01*
X48368277Y-63877279D01*
X48411066Y-63951392D01*
X48460460Y-64036944D01*
X48464626Y-64041571D01*
X48488438Y-64108307D01*
X48472357Y-64177459D01*
X48421443Y-64226939D01*
X48362643Y-64241500D01*
X48111905Y-64241500D01*
X48043784Y-64221498D01*
X48037844Y-64217436D01*
X47962594Y-64162763D01*
X47962593Y-64162762D01*
X47957252Y-64158882D01*
X47951224Y-64156198D01*
X47951222Y-64156197D01*
X47788819Y-64083891D01*
X47788818Y-64083891D01*
X47782788Y-64081206D01*
X47689388Y-64061353D01*
X47602444Y-64042872D01*
X47602439Y-64042872D01*
X47595987Y-64041500D01*
X47405013Y-64041500D01*
X47398561Y-64042872D01*
X47398556Y-64042872D01*
X47311612Y-64061353D01*
X47218212Y-64081206D01*
X47212182Y-64083891D01*
X47212181Y-64083891D01*
X47049778Y-64156197D01*
X47049776Y-64156198D01*
X47043748Y-64158882D01*
X46889247Y-64271134D01*
X46761460Y-64413056D01*
X46665973Y-64578444D01*
X46606958Y-64760072D01*
X46586996Y-64950000D01*
X46587686Y-64956565D01*
X46587686Y-64956566D01*
X46594781Y-65024074D01*
X46582009Y-65093912D01*
X46533506Y-65145759D01*
X46520719Y-65152351D01*
X46399781Y-65206195D01*
X46399774Y-65206199D01*
X46393748Y-65208882D01*
X46239247Y-65321134D01*
X46111460Y-65463056D01*
X46015973Y-65628444D01*
X45956958Y-65810072D01*
X45936996Y-66000000D01*
X24508500Y-66000000D01*
X24508500Y-62768580D01*
X28543752Y-62768580D01*
X28568477Y-62886421D01*
X28571537Y-62896617D01*
X28652263Y-63101029D01*
X28656994Y-63110561D01*
X28771016Y-63298462D01*
X28777280Y-63307052D01*
X28921327Y-63473052D01*
X28928958Y-63480472D01*
X29098911Y-63619826D01*
X29107678Y-63625850D01*
X29298682Y-63734576D01*
X29308346Y-63739041D01*
X29514941Y-63814031D01*
X29525208Y-63816802D01*
X29728174Y-63853504D01*
X29741414Y-63852085D01*
X29746000Y-63837450D01*
X29746000Y-63833849D01*
X30254000Y-63833849D01*
X30258310Y-63848527D01*
X30270193Y-63850590D01*
X30349325Y-63843876D01*
X30359797Y-63842086D01*
X30572535Y-63786870D01*
X30582575Y-63783335D01*
X30782970Y-63693063D01*
X30792256Y-63687894D01*
X30974575Y-63565150D01*
X30982870Y-63558481D01*
X31141900Y-63406772D01*
X31148941Y-63398814D01*
X31280141Y-63222475D01*
X31285745Y-63213438D01*
X31385358Y-63017514D01*
X31389357Y-63007665D01*
X31426524Y-62887966D01*
X33668257Y-62887966D01*
X33698565Y-63022446D01*
X33701645Y-63032275D01*
X33781770Y-63229603D01*
X33786413Y-63238794D01*
X33897694Y-63420388D01*
X33903777Y-63428699D01*
X34043213Y-63589667D01*
X34050580Y-63596883D01*
X34214434Y-63732916D01*
X34222881Y-63738831D01*
X34406756Y-63846279D01*
X34416042Y-63850729D01*
X34615001Y-63926703D01*
X34624899Y-63929579D01*
X34728250Y-63950606D01*
X34742299Y-63949410D01*
X34746000Y-63939065D01*
X34746000Y-63938517D01*
X35254000Y-63938517D01*
X35258064Y-63952359D01*
X35271478Y-63954393D01*
X35278184Y-63953534D01*
X35288262Y-63951392D01*
X35492255Y-63890191D01*
X35501842Y-63886433D01*
X35693095Y-63792739D01*
X35701945Y-63787464D01*
X35875328Y-63663792D01*
X35883200Y-63657139D01*
X36034052Y-63506812D01*
X36040730Y-63498965D01*
X36165003Y-63326020D01*
X36170313Y-63317183D01*
X36264670Y-63126267D01*
X36268469Y-63116672D01*
X36330377Y-62912910D01*
X36332555Y-62902837D01*
X36333986Y-62891962D01*
X36331775Y-62877778D01*
X36318617Y-62874000D01*
X35272115Y-62874000D01*
X35256876Y-62878475D01*
X35255671Y-62879865D01*
X35254000Y-62887548D01*
X35254000Y-63938517D01*
X34746000Y-63938517D01*
X34746000Y-62892115D01*
X34741525Y-62876876D01*
X34740135Y-62875671D01*
X34732452Y-62874000D01*
X33683225Y-62874000D01*
X33669694Y-62877973D01*
X33668257Y-62887966D01*
X31426524Y-62887966D01*
X31454534Y-62797760D01*
X31456817Y-62787376D01*
X31458861Y-62771957D01*
X31456665Y-62757793D01*
X31443478Y-62754000D01*
X30272115Y-62754000D01*
X30256876Y-62758475D01*
X30255671Y-62759865D01*
X30254000Y-62767548D01*
X30254000Y-63833849D01*
X29746000Y-63833849D01*
X29746000Y-62772115D01*
X29741525Y-62756876D01*
X29740135Y-62755671D01*
X29732452Y-62754000D01*
X28558808Y-62754000D01*
X28545277Y-62757973D01*
X28543752Y-62768580D01*
X24508500Y-62768580D01*
X24508500Y-59935774D01*
X28513102Y-59935774D01*
X28513302Y-59941103D01*
X28513302Y-59941105D01*
X28513754Y-59953146D01*
X28521751Y-60166158D01*
X28569093Y-60391791D01*
X28571051Y-60396750D01*
X28571052Y-60396752D01*
X28642180Y-60576857D01*
X28653776Y-60606221D01*
X28656543Y-60610780D01*
X28656544Y-60610783D01*
X28682525Y-60653598D01*
X28773377Y-60803317D01*
X28776874Y-60807347D01*
X28912367Y-60963489D01*
X28924477Y-60977445D01*
X28952318Y-61000273D01*
X29098627Y-61120240D01*
X29098633Y-61120244D01*
X29102755Y-61123624D01*
X29107398Y-61126267D01*
X29134735Y-61141829D01*
X29184041Y-61192912D01*
X29197902Y-61262542D01*
X29171918Y-61328613D01*
X29142768Y-61355851D01*
X29025422Y-61434852D01*
X29017130Y-61441519D01*
X28858100Y-61593228D01*
X28851059Y-61601186D01*
X28719859Y-61777525D01*
X28714255Y-61786562D01*
X28614643Y-61982484D01*
X28610643Y-61992335D01*
X28545466Y-62202240D01*
X28543183Y-62212624D01*
X28541139Y-62228043D01*
X28543335Y-62242207D01*
X28556522Y-62246000D01*
X31441192Y-62246000D01*
X31454723Y-62242027D01*
X31456248Y-62231420D01*
X31431523Y-62113579D01*
X31428463Y-62103383D01*
X31347737Y-61898971D01*
X31343006Y-61889439D01*
X31228984Y-61701538D01*
X31222720Y-61692948D01*
X31078673Y-61526948D01*
X31071042Y-61519528D01*
X30901089Y-61380174D01*
X30892326Y-61374152D01*
X30865289Y-61358762D01*
X30815982Y-61307680D01*
X30802120Y-61238049D01*
X30828103Y-61171978D01*
X30857253Y-61144739D01*
X30935437Y-61092102D01*
X30979319Y-61062559D01*
X31018116Y-61025549D01*
X31119358Y-60928968D01*
X31146135Y-60903424D01*
X31195619Y-60836916D01*
X31236420Y-60782077D01*
X31283754Y-60718458D01*
X31307073Y-60672594D01*
X31353229Y-60581811D01*
X31388240Y-60512949D01*
X31403618Y-60463426D01*
X31455024Y-60297871D01*
X31456607Y-60292773D01*
X31457341Y-60287232D01*
X31486198Y-60069511D01*
X31486198Y-60069506D01*
X31486898Y-60064226D01*
X31486434Y-60051851D01*
X31486240Y-60046695D01*
X33637251Y-60046695D01*
X33637548Y-60051848D01*
X33637548Y-60051851D01*
X33643011Y-60146590D01*
X33650110Y-60269715D01*
X33651247Y-60274761D01*
X33651248Y-60274767D01*
X33667914Y-60348715D01*
X33699222Y-60487639D01*
X33745357Y-60601256D01*
X33773273Y-60670005D01*
X33783266Y-60694616D01*
X33803455Y-60727561D01*
X33895916Y-60878444D01*
X33899987Y-60885088D01*
X34046250Y-61053938D01*
X34188430Y-61171978D01*
X34196243Y-61178464D01*
X34218126Y-61196632D01*
X34256018Y-61218774D01*
X34291955Y-61239774D01*
X34340679Y-61291412D01*
X34353750Y-61361195D01*
X34327019Y-61426967D01*
X34286562Y-61460327D01*
X34278457Y-61464546D01*
X34269738Y-61470036D01*
X34099433Y-61597905D01*
X34091726Y-61604748D01*
X33944590Y-61758717D01*
X33938104Y-61766727D01*
X33818098Y-61942649D01*
X33813000Y-61951623D01*
X33723338Y-62144783D01*
X33719775Y-62154470D01*
X33664389Y-62354183D01*
X33665912Y-62362607D01*
X33678292Y-62366000D01*
X36318344Y-62366000D01*
X36331875Y-62362027D01*
X36333180Y-62352947D01*
X36291214Y-62185875D01*
X36287894Y-62176124D01*
X36202972Y-61980814D01*
X36198105Y-61971739D01*
X36082426Y-61792926D01*
X36076136Y-61784757D01*
X35932806Y-61627240D01*
X35925273Y-61620215D01*
X35758139Y-61488222D01*
X35749556Y-61482520D01*
X35712602Y-61462120D01*
X35662631Y-61411687D01*
X35647859Y-61342245D01*
X35672975Y-61275839D01*
X35700327Y-61249232D01*
X35757925Y-61208148D01*
X35879860Y-61121173D01*
X35918976Y-61082194D01*
X36006868Y-60994608D01*
X36038096Y-60963489D01*
X36041407Y-60958882D01*
X36165435Y-60786277D01*
X36168453Y-60782077D01*
X36176599Y-60765596D01*
X36265136Y-60586453D01*
X36265137Y-60586451D01*
X36267430Y-60581811D01*
X36306444Y-60453401D01*
X36330865Y-60373023D01*
X36330865Y-60373021D01*
X36332370Y-60368069D01*
X36361529Y-60146590D01*
X36362704Y-60098498D01*
X36363074Y-60083365D01*
X36363074Y-60083361D01*
X36363156Y-60080000D01*
X36344852Y-59857361D01*
X36290431Y-59640702D01*
X36201354Y-59435840D01*
X36107729Y-59291118D01*
X36082822Y-59252617D01*
X36082820Y-59252614D01*
X36080014Y-59248277D01*
X35929670Y-59083051D01*
X35925619Y-59079852D01*
X35925615Y-59079848D01*
X35758414Y-58947800D01*
X35758410Y-58947798D01*
X35754359Y-58944598D01*
X35713053Y-58921796D01*
X35663084Y-58871364D01*
X35648312Y-58801921D01*
X35673428Y-58735516D01*
X35700780Y-58708909D01*
X35752991Y-58671667D01*
X35879860Y-58581173D01*
X35895760Y-58565329D01*
X36003936Y-58457530D01*
X36038096Y-58423489D01*
X36049871Y-58407103D01*
X36165435Y-58246277D01*
X36168453Y-58242077D01*
X36185039Y-58208519D01*
X36265136Y-58046453D01*
X36265137Y-58046451D01*
X36267430Y-58041811D01*
X36332370Y-57828069D01*
X36361529Y-57606590D01*
X36362564Y-57564226D01*
X36363074Y-57543365D01*
X36363074Y-57543361D01*
X36363156Y-57540000D01*
X36344852Y-57317361D01*
X36290431Y-57100702D01*
X36201354Y-56895840D01*
X36155202Y-56824500D01*
X38348780Y-56824500D01*
X38349470Y-56831065D01*
X38366445Y-56992570D01*
X38368742Y-57014428D01*
X38427757Y-57196056D01*
X38431060Y-57201778D01*
X38431061Y-57201779D01*
X38435592Y-57209627D01*
X38523244Y-57361444D01*
X38527662Y-57366351D01*
X38527663Y-57366352D01*
X38565296Y-57408148D01*
X38651031Y-57503366D01*
X38805532Y-57615618D01*
X38811560Y-57618302D01*
X38811562Y-57618303D01*
X38973965Y-57690609D01*
X38979996Y-57693294D01*
X39071590Y-57712763D01*
X39160340Y-57731628D01*
X39160345Y-57731628D01*
X39166797Y-57733000D01*
X39357771Y-57733000D01*
X39364223Y-57731628D01*
X39364228Y-57731628D01*
X39452978Y-57712763D01*
X39544572Y-57693294D01*
X39550603Y-57690609D01*
X39713006Y-57618303D01*
X39713008Y-57618302D01*
X39719036Y-57615618D01*
X39873537Y-57503366D01*
X39959272Y-57408148D01*
X39996905Y-57366352D01*
X39996906Y-57366351D01*
X40001324Y-57361444D01*
X40088976Y-57209627D01*
X40093507Y-57201779D01*
X40093508Y-57201778D01*
X40096811Y-57196056D01*
X40152658Y-57024178D01*
X40153786Y-57020707D01*
X40153786Y-57020705D01*
X40155826Y-57014428D01*
X40160734Y-56967730D01*
X40187747Y-56902073D01*
X40196949Y-56891805D01*
X41576405Y-55512349D01*
X41638717Y-55478323D01*
X41709532Y-55483388D01*
X41766368Y-55525935D01*
X41791179Y-55592455D01*
X41791500Y-55601444D01*
X41791500Y-57516528D01*
X41771498Y-57584649D01*
X41716748Y-57631635D01*
X41549281Y-57706195D01*
X41549274Y-57706199D01*
X41543248Y-57708882D01*
X41537907Y-57712762D01*
X41537906Y-57712763D01*
X41507620Y-57734767D01*
X41388747Y-57821134D01*
X41384326Y-57826044D01*
X41384325Y-57826045D01*
X41274842Y-57947639D01*
X41260960Y-57963056D01*
X41213416Y-58045404D01*
X41175670Y-58110783D01*
X41165473Y-58128444D01*
X41106458Y-58310072D01*
X41105768Y-58316633D01*
X41105768Y-58316635D01*
X41094347Y-58425303D01*
X41086496Y-58500000D01*
X41087186Y-58506565D01*
X41099767Y-58626262D01*
X41106458Y-58689928D01*
X41165473Y-58871556D01*
X41168776Y-58877278D01*
X41168777Y-58877279D01*
X41174294Y-58886834D01*
X41260960Y-59036944D01*
X41265378Y-59041851D01*
X41265379Y-59041852D01*
X41311340Y-59092897D01*
X41388747Y-59178866D01*
X41543248Y-59291118D01*
X41549276Y-59293802D01*
X41549278Y-59293803D01*
X41711681Y-59366109D01*
X41717712Y-59368794D01*
X41811112Y-59388647D01*
X41898056Y-59407128D01*
X41898061Y-59407128D01*
X41904513Y-59408500D01*
X42095487Y-59408500D01*
X42101939Y-59407128D01*
X42101944Y-59407128D01*
X42188888Y-59388647D01*
X42282288Y-59368794D01*
X42288319Y-59366109D01*
X42450722Y-59293803D01*
X42450724Y-59293802D01*
X42456752Y-59291118D01*
X42611253Y-59178866D01*
X42688660Y-59092897D01*
X42734621Y-59041852D01*
X42734622Y-59041851D01*
X42739040Y-59036944D01*
X42825706Y-58886834D01*
X42831223Y-58877279D01*
X42831224Y-58877278D01*
X42834527Y-58871556D01*
X42875672Y-58744925D01*
X42891502Y-58696207D01*
X42891502Y-58696205D01*
X42893542Y-58689928D01*
X42898450Y-58643230D01*
X42925463Y-58577573D01*
X42934665Y-58567305D01*
X42980520Y-58521450D01*
X42986785Y-58515596D01*
X43024660Y-58482555D01*
X43030385Y-58477561D01*
X43067114Y-58425300D01*
X43071046Y-58420005D01*
X43081163Y-58407103D01*
X43110477Y-58369718D01*
X43113602Y-58362796D01*
X43114964Y-58360548D01*
X43123368Y-58345815D01*
X43124622Y-58343476D01*
X43128990Y-58337261D01*
X43131749Y-58330185D01*
X43131751Y-58330181D01*
X43152200Y-58277731D01*
X43154749Y-58271666D01*
X43181045Y-58213427D01*
X43182429Y-58205962D01*
X43183226Y-58203418D01*
X43187859Y-58187152D01*
X43188521Y-58184572D01*
X43191282Y-58177491D01*
X43192402Y-58168988D01*
X43199621Y-58114147D01*
X43200653Y-58107629D01*
X43201536Y-58102866D01*
X43212296Y-58044813D01*
X43211356Y-58028502D01*
X43208709Y-57982607D01*
X43208500Y-57975353D01*
X43208500Y-53670064D01*
X43225381Y-53607064D01*
X43238789Y-53583842D01*
X43260027Y-53547056D01*
X43319042Y-53365428D01*
X43320150Y-53354892D01*
X43338314Y-53182065D01*
X43339004Y-53175500D01*
X43323262Y-53025725D01*
X43319732Y-52992135D01*
X43319732Y-52992133D01*
X43319042Y-52985572D01*
X43260027Y-52803944D01*
X43253578Y-52792773D01*
X43173899Y-52654767D01*
X43164540Y-52638556D01*
X43137433Y-52608450D01*
X43041175Y-52501545D01*
X43041174Y-52501544D01*
X43036753Y-52496634D01*
X42882252Y-52384382D01*
X42876224Y-52381698D01*
X42876222Y-52381697D01*
X42713819Y-52309391D01*
X42713818Y-52309391D01*
X42707788Y-52306706D01*
X42614387Y-52286853D01*
X42527444Y-52268372D01*
X42527439Y-52268372D01*
X42520987Y-52267000D01*
X42330013Y-52267000D01*
X42323561Y-52268372D01*
X42323556Y-52268372D01*
X42236612Y-52286853D01*
X42143212Y-52306706D01*
X42137182Y-52309391D01*
X42137181Y-52309391D01*
X41974778Y-52381697D01*
X41974776Y-52381698D01*
X41968748Y-52384382D01*
X41814247Y-52496634D01*
X41809826Y-52501544D01*
X41809825Y-52501545D01*
X41713568Y-52608450D01*
X41686460Y-52638556D01*
X41677101Y-52654767D01*
X41597423Y-52792773D01*
X41590973Y-52803944D01*
X41588931Y-52810229D01*
X41588930Y-52810231D01*
X41582395Y-52830344D01*
X41542322Y-52888950D01*
X41476926Y-52916588D01*
X41458675Y-52916673D01*
X41458675Y-52917000D01*
X41267701Y-52917000D01*
X41261249Y-52918372D01*
X41261244Y-52918372D01*
X41188240Y-52933890D01*
X41080900Y-52956706D01*
X41074870Y-52959391D01*
X41074869Y-52959391D01*
X40912466Y-53031697D01*
X40912464Y-53031698D01*
X40906436Y-53034382D01*
X40751935Y-53146634D01*
X40747514Y-53151544D01*
X40747513Y-53151545D01*
X40633201Y-53278502D01*
X40624148Y-53288556D01*
X40592432Y-53343489D01*
X40553095Y-53411624D01*
X40528661Y-53453944D01*
X40514499Y-53497529D01*
X40471811Y-53628909D01*
X40469646Y-53635572D01*
X40468956Y-53642133D01*
X40468956Y-53642135D01*
X40454424Y-53780402D01*
X40449684Y-53825500D01*
X40450374Y-53832065D01*
X40468884Y-54008175D01*
X40469646Y-54015428D01*
X40528661Y-54197056D01*
X40531964Y-54202778D01*
X40531965Y-54202779D01*
X40611758Y-54340985D01*
X40628496Y-54409981D01*
X40605275Y-54477072D01*
X40591734Y-54493080D01*
X39195751Y-55889063D01*
X39132853Y-55923215D01*
X38979996Y-55955706D01*
X38973966Y-55958391D01*
X38973965Y-55958391D01*
X38811562Y-56030697D01*
X38811560Y-56030698D01*
X38805532Y-56033382D01*
X38800191Y-56037262D01*
X38800190Y-56037263D01*
X38790682Y-56044171D01*
X38651031Y-56145634D01*
X38646610Y-56150544D01*
X38646609Y-56150545D01*
X38557990Y-56248967D01*
X38523244Y-56287556D01*
X38464970Y-56388490D01*
X38441869Y-56428502D01*
X38427757Y-56452944D01*
X38368742Y-56634572D01*
X38368052Y-56641133D01*
X38368052Y-56641135D01*
X38362214Y-56696683D01*
X38348780Y-56824500D01*
X36155202Y-56824500D01*
X36150955Y-56817935D01*
X36082822Y-56712617D01*
X36082820Y-56712614D01*
X36080014Y-56708277D01*
X35929670Y-56543051D01*
X35925619Y-56539852D01*
X35925615Y-56539848D01*
X35758414Y-56407800D01*
X35758410Y-56407798D01*
X35754359Y-56404598D01*
X35713053Y-56381796D01*
X35663084Y-56331364D01*
X35648312Y-56261921D01*
X35673428Y-56195516D01*
X35700780Y-56168909D01*
X35764267Y-56123624D01*
X35879860Y-56041173D01*
X35887679Y-56033382D01*
X36034435Y-55887137D01*
X36038096Y-55883489D01*
X36056262Y-55858209D01*
X36165435Y-55706277D01*
X36168453Y-55702077D01*
X36194997Y-55648370D01*
X36265136Y-55506453D01*
X36265137Y-55506451D01*
X36267430Y-55501811D01*
X36329392Y-55297871D01*
X36330865Y-55293023D01*
X36330865Y-55293021D01*
X36332370Y-55288069D01*
X36361529Y-55066590D01*
X36363156Y-55000000D01*
X36344852Y-54777361D01*
X36290431Y-54560702D01*
X36201354Y-54355840D01*
X36114730Y-54221940D01*
X36082822Y-54172617D01*
X36082820Y-54172614D01*
X36080014Y-54168277D01*
X35929670Y-54003051D01*
X35925619Y-53999852D01*
X35925615Y-53999848D01*
X35758414Y-53867800D01*
X35758410Y-53867798D01*
X35754359Y-53864598D01*
X35713053Y-53841796D01*
X35663084Y-53791364D01*
X35648312Y-53721921D01*
X35673428Y-53655516D01*
X35700780Y-53628909D01*
X35765659Y-53582631D01*
X35879860Y-53501173D01*
X36038096Y-53343489D01*
X36097594Y-53260689D01*
X36165435Y-53166277D01*
X36168453Y-53162077D01*
X36176086Y-53146634D01*
X36265136Y-52966453D01*
X36265137Y-52966451D01*
X36267430Y-52961811D01*
X36332370Y-52748069D01*
X36361529Y-52526590D01*
X36363156Y-52460000D01*
X36344852Y-52237361D01*
X36290431Y-52020702D01*
X36201354Y-51815840D01*
X36124040Y-51696331D01*
X36082822Y-51632617D01*
X36082820Y-51632614D01*
X36080014Y-51628277D01*
X35929670Y-51463051D01*
X35925619Y-51459852D01*
X35925615Y-51459848D01*
X35758414Y-51327800D01*
X35758410Y-51327798D01*
X35754359Y-51324598D01*
X35713053Y-51301796D01*
X35663084Y-51251364D01*
X35648312Y-51181921D01*
X35673428Y-51115516D01*
X35700780Y-51088909D01*
X35744603Y-51057650D01*
X35879860Y-50961173D01*
X36038096Y-50803489D01*
X36097594Y-50720689D01*
X36165435Y-50626277D01*
X36168453Y-50622077D01*
X36176290Y-50606221D01*
X36265136Y-50426453D01*
X36265137Y-50426451D01*
X36267430Y-50421811D01*
X36320621Y-50246739D01*
X36330865Y-50213023D01*
X36330865Y-50213021D01*
X36332370Y-50208069D01*
X36361529Y-49986590D01*
X36361611Y-49983240D01*
X36363074Y-49923365D01*
X36363074Y-49923361D01*
X36363156Y-49920000D01*
X36344852Y-49697361D01*
X36290431Y-49480702D01*
X36201354Y-49275840D01*
X36102297Y-49122721D01*
X36082822Y-49092617D01*
X36082820Y-49092614D01*
X36080014Y-49088277D01*
X36076532Y-49084450D01*
X35932798Y-48926488D01*
X35901746Y-48862642D01*
X35910141Y-48792143D01*
X35955317Y-48737375D01*
X35981761Y-48723706D01*
X36088297Y-48683767D01*
X36096705Y-48680615D01*
X36213261Y-48593261D01*
X36300615Y-48476705D01*
X36351745Y-48340316D01*
X36358500Y-48278134D01*
X36358500Y-46481866D01*
X36351745Y-46419684D01*
X36300615Y-46283295D01*
X36213261Y-46166739D01*
X36096705Y-46079385D01*
X35960316Y-46028255D01*
X35898134Y-46021500D01*
X34101866Y-46021500D01*
X34039684Y-46028255D01*
X33903295Y-46079385D01*
X33786739Y-46166739D01*
X33699385Y-46283295D01*
X33648255Y-46419684D01*
X33641500Y-46481866D01*
X33641500Y-48278134D01*
X33648255Y-48340316D01*
X33699385Y-48476705D01*
X33786739Y-48593261D01*
X33903295Y-48680615D01*
X33911704Y-48683767D01*
X33911705Y-48683768D01*
X34020451Y-48724535D01*
X34077216Y-48767176D01*
X34101916Y-48833738D01*
X34086709Y-48903087D01*
X34067316Y-48929568D01*
X33940629Y-49062138D01*
X33814743Y-49246680D01*
X33788232Y-49303794D01*
X33744158Y-49398744D01*
X33720688Y-49449305D01*
X33660989Y-49664570D01*
X33637251Y-49886695D01*
X33637548Y-49891848D01*
X33637548Y-49891851D01*
X33647222Y-50059635D01*
X33650110Y-50109715D01*
X33651247Y-50114761D01*
X33651248Y-50114767D01*
X33668456Y-50191122D01*
X33699222Y-50327639D01*
X33783266Y-50534616D01*
X33899987Y-50725088D01*
X34046250Y-50893938D01*
X34218126Y-51036632D01*
X34256196Y-51058878D01*
X34291445Y-51079476D01*
X34340169Y-51131114D01*
X34353240Y-51200897D01*
X34326509Y-51266669D01*
X34286055Y-51300027D01*
X34273607Y-51306507D01*
X34269474Y-51309610D01*
X34269471Y-51309612D01*
X34133324Y-51411834D01*
X34094965Y-51440635D01*
X33940629Y-51602138D01*
X33814743Y-51786680D01*
X33799003Y-51820590D01*
X33741590Y-51944276D01*
X33720688Y-51989305D01*
X33660989Y-52204570D01*
X33637251Y-52426695D01*
X33637548Y-52431848D01*
X33637548Y-52431851D01*
X33645804Y-52575031D01*
X33650110Y-52649715D01*
X33651247Y-52654761D01*
X33651248Y-52654767D01*
X33658572Y-52687265D01*
X33699222Y-52867639D01*
X33737461Y-52961811D01*
X33765839Y-53031697D01*
X33783266Y-53074616D01*
X33785965Y-53079020D01*
X33895884Y-53258392D01*
X33899987Y-53265088D01*
X34046250Y-53433938D01*
X34189395Y-53552779D01*
X34206085Y-53566635D01*
X34218126Y-53576632D01*
X34270204Y-53607064D01*
X34291445Y-53619476D01*
X34340169Y-53671114D01*
X34353240Y-53740897D01*
X34326509Y-53806669D01*
X34286055Y-53840027D01*
X34273607Y-53846507D01*
X34269474Y-53849610D01*
X34269471Y-53849612D01*
X34100066Y-53976805D01*
X34094965Y-53980635D01*
X34030713Y-54047871D01*
X33954829Y-54127279D01*
X33940629Y-54142138D01*
X33937715Y-54146410D01*
X33937714Y-54146411D01*
X33886192Y-54221940D01*
X33814743Y-54326680D01*
X33783597Y-54393779D01*
X33724860Y-54520318D01*
X33720688Y-54529305D01*
X33660989Y-54744570D01*
X33637251Y-54966695D01*
X33637548Y-54971848D01*
X33637548Y-54971851D01*
X33646306Y-55123738D01*
X33650110Y-55189715D01*
X33651247Y-55194761D01*
X33651248Y-55194767D01*
X33672275Y-55288069D01*
X33699222Y-55407639D01*
X33783266Y-55614616D01*
X33804180Y-55648744D01*
X33885627Y-55781654D01*
X33899987Y-55805088D01*
X34046250Y-55973938D01*
X34218126Y-56116632D01*
X34234606Y-56126262D01*
X34291445Y-56159476D01*
X34340169Y-56211114D01*
X34353240Y-56280897D01*
X34326509Y-56346669D01*
X34286055Y-56380027D01*
X34273607Y-56386507D01*
X34269474Y-56389610D01*
X34269471Y-56389612D01*
X34100079Y-56516795D01*
X34094965Y-56520635D01*
X34073544Y-56543051D01*
X33992084Y-56628294D01*
X33940629Y-56682138D01*
X33814743Y-56866680D01*
X33799003Y-56900590D01*
X33740715Y-57026161D01*
X33720688Y-57069305D01*
X33660989Y-57284570D01*
X33637251Y-57506695D01*
X33637548Y-57511848D01*
X33637548Y-57511851D01*
X33646746Y-57671377D01*
X33650110Y-57729715D01*
X33651247Y-57734761D01*
X33651248Y-57734767D01*
X33669837Y-57817251D01*
X33699222Y-57947639D01*
X33783266Y-58154616D01*
X33822388Y-58218458D01*
X33895191Y-58337261D01*
X33899987Y-58345088D01*
X34046250Y-58513938D01*
X34174292Y-58620240D01*
X34209460Y-58649437D01*
X34218126Y-58656632D01*
X34263871Y-58683363D01*
X34291445Y-58699476D01*
X34340169Y-58751114D01*
X34353240Y-58820897D01*
X34326509Y-58886669D01*
X34286055Y-58920027D01*
X34273607Y-58926507D01*
X34269474Y-58929610D01*
X34269471Y-58929612D01*
X34099135Y-59057504D01*
X34094965Y-59060635D01*
X34091393Y-59064373D01*
X33947399Y-59215054D01*
X33940629Y-59222138D01*
X33937715Y-59226410D01*
X33937714Y-59226411D01*
X33916818Y-59257043D01*
X33814743Y-59406680D01*
X33799003Y-59440590D01*
X33723500Y-59603248D01*
X33720688Y-59609305D01*
X33660989Y-59824570D01*
X33637251Y-60046695D01*
X31486240Y-60046695D01*
X31481877Y-59930489D01*
X31478249Y-59833842D01*
X31430907Y-59608209D01*
X31346224Y-59393779D01*
X31331896Y-59370166D01*
X31243052Y-59223757D01*
X31226623Y-59196683D01*
X31214532Y-59182749D01*
X31079023Y-59026588D01*
X31079021Y-59026586D01*
X31075523Y-59022555D01*
X30977406Y-58942104D01*
X30901373Y-58879760D01*
X30901367Y-58879756D01*
X30897245Y-58876376D01*
X30865750Y-58858448D01*
X30816445Y-58807368D01*
X30802583Y-58737738D01*
X30828566Y-58671667D01*
X30857716Y-58644427D01*
X30924322Y-58599585D01*
X30979319Y-58562559D01*
X31026826Y-58517240D01*
X31123200Y-58425303D01*
X31146135Y-58403424D01*
X31283754Y-58218458D01*
X31286887Y-58212297D01*
X31366492Y-58055724D01*
X31388240Y-58012949D01*
X31394176Y-57993834D01*
X31455024Y-57797871D01*
X31456607Y-57792773D01*
X31464965Y-57729715D01*
X31486198Y-57569511D01*
X31486198Y-57569506D01*
X31486898Y-57564226D01*
X31484546Y-57501562D01*
X31479106Y-57356660D01*
X31478249Y-57333842D01*
X31464857Y-57270013D01*
X31432002Y-57113428D01*
X31430907Y-57108209D01*
X31428850Y-57103000D01*
X31348185Y-56898744D01*
X31348184Y-56898742D01*
X31346224Y-56893779D01*
X31327184Y-56862401D01*
X31229390Y-56701243D01*
X31226623Y-56696683D01*
X31223120Y-56692646D01*
X31079023Y-56526588D01*
X31079021Y-56526586D01*
X31075523Y-56522555D01*
X31009263Y-56468225D01*
X30901373Y-56379760D01*
X30901367Y-56379756D01*
X30897245Y-56376376D01*
X30865750Y-56358448D01*
X30816445Y-56307368D01*
X30802583Y-56237738D01*
X30828566Y-56171667D01*
X30857716Y-56144427D01*
X30893642Y-56120240D01*
X30979319Y-56062559D01*
X31146135Y-55903424D01*
X31283754Y-55718458D01*
X31289948Y-55706277D01*
X31368505Y-55551765D01*
X31388240Y-55512949D01*
X31391699Y-55501811D01*
X31455024Y-55297871D01*
X31456607Y-55292773D01*
X31464882Y-55230341D01*
X31486198Y-55069511D01*
X31486198Y-55069506D01*
X31486898Y-55064226D01*
X31478249Y-54833842D01*
X31430907Y-54608209D01*
X31425954Y-54595668D01*
X31348185Y-54398744D01*
X31348184Y-54398742D01*
X31346224Y-54393779D01*
X31327210Y-54362444D01*
X31229390Y-54201243D01*
X31226623Y-54196683D01*
X31211659Y-54179438D01*
X31079023Y-54026588D01*
X31079021Y-54026586D01*
X31075523Y-54022555D01*
X31007908Y-53967114D01*
X30901373Y-53879760D01*
X30901367Y-53879756D01*
X30897245Y-53876376D01*
X30865750Y-53858448D01*
X30816445Y-53807368D01*
X30802583Y-53737738D01*
X30828566Y-53671667D01*
X30857716Y-53644427D01*
X30913213Y-53607064D01*
X30979319Y-53562559D01*
X30995571Y-53547056D01*
X31072769Y-53473412D01*
X31146135Y-53403424D01*
X31175735Y-53363641D01*
X31280568Y-53222740D01*
X31283754Y-53218458D01*
X31287855Y-53210393D01*
X31360631Y-53067251D01*
X31388240Y-53012949D01*
X31398691Y-52979294D01*
X31455024Y-52797871D01*
X31456607Y-52792773D01*
X31469452Y-52695858D01*
X31486198Y-52569511D01*
X31486198Y-52569506D01*
X31486898Y-52564226D01*
X31484361Y-52496634D01*
X31480146Y-52384382D01*
X31478249Y-52333842D01*
X31472268Y-52305334D01*
X31432002Y-52113428D01*
X31430907Y-52108209D01*
X31399049Y-52027539D01*
X31348185Y-51898744D01*
X31348184Y-51898742D01*
X31346224Y-51893779D01*
X31310585Y-51835047D01*
X31253955Y-51741724D01*
X31226623Y-51696683D01*
X31148289Y-51606411D01*
X31079023Y-51526588D01*
X31079021Y-51526586D01*
X31075523Y-51522555D01*
X31002953Y-51463051D01*
X30901373Y-51379760D01*
X30901367Y-51379756D01*
X30897245Y-51376376D01*
X30865750Y-51358448D01*
X30816445Y-51307368D01*
X30802583Y-51237738D01*
X30828566Y-51171667D01*
X30857716Y-51144427D01*
X30886976Y-51124728D01*
X30979319Y-51062559D01*
X31003762Y-51039242D01*
X31085585Y-50961186D01*
X31146135Y-50903424D01*
X31283754Y-50718458D01*
X31319199Y-50648744D01*
X31343342Y-50601256D01*
X31388240Y-50512949D01*
X31407401Y-50451243D01*
X31455024Y-50297871D01*
X31456607Y-50292773D01*
X31458176Y-50280935D01*
X31486198Y-50069511D01*
X31486198Y-50069506D01*
X31486898Y-50064226D01*
X31484688Y-50005344D01*
X31481610Y-49923365D01*
X31478249Y-49833842D01*
X31430907Y-49608209D01*
X31428948Y-49603248D01*
X31348185Y-49398744D01*
X31348184Y-49398742D01*
X31346224Y-49393779D01*
X31226623Y-49196683D01*
X31172862Y-49134729D01*
X31079023Y-49026588D01*
X31079021Y-49026586D01*
X31075523Y-49022555D01*
X31039880Y-48993330D01*
X30999886Y-48934671D01*
X30997954Y-48863701D01*
X31034698Y-48802952D01*
X31053468Y-48788752D01*
X31193120Y-48702332D01*
X31199348Y-48698478D01*
X31240336Y-48657419D01*
X31319134Y-48578483D01*
X31324305Y-48573303D01*
X31417115Y-48422738D01*
X31472797Y-48254861D01*
X31483500Y-48150400D01*
X31483500Y-46849600D01*
X31472526Y-46743834D01*
X31416550Y-46576054D01*
X31323478Y-46425652D01*
X31198303Y-46300695D01*
X31192072Y-46296854D01*
X31053968Y-46211725D01*
X31053966Y-46211724D01*
X31047738Y-46207885D01*
X30887254Y-46154655D01*
X30886389Y-46154368D01*
X30886387Y-46154368D01*
X30879861Y-46152203D01*
X30873025Y-46151503D01*
X30873022Y-46151502D01*
X30829969Y-46147091D01*
X30775400Y-46141500D01*
X29224600Y-46141500D01*
X29221354Y-46141837D01*
X29221350Y-46141837D01*
X29125692Y-46151762D01*
X29125688Y-46151763D01*
X29118834Y-46152474D01*
X29112298Y-46154655D01*
X29112296Y-46154655D01*
X28980194Y-46198728D01*
X28951054Y-46208450D01*
X28800652Y-46301522D01*
X28675695Y-46426697D01*
X28582885Y-46577262D01*
X28527203Y-46745139D01*
X28516500Y-46849600D01*
X28516500Y-48150400D01*
X28527474Y-48256166D01*
X28583450Y-48423946D01*
X28676522Y-48574348D01*
X28801697Y-48699305D01*
X28947340Y-48789081D01*
X28994832Y-48841852D01*
X29006256Y-48911924D01*
X28977982Y-48977048D01*
X28968195Y-48987510D01*
X28853865Y-49096576D01*
X28850682Y-49100854D01*
X28830154Y-49128444D01*
X28716246Y-49281542D01*
X28713830Y-49286293D01*
X28713828Y-49286297D01*
X28698404Y-49316635D01*
X28611760Y-49487051D01*
X28610178Y-49492145D01*
X28610177Y-49492148D01*
X28559225Y-49656241D01*
X28543393Y-49707227D01*
X28542692Y-49712516D01*
X28514747Y-49923365D01*
X28513102Y-49935774D01*
X28513302Y-49941103D01*
X28513302Y-49941105D01*
X28516900Y-50036944D01*
X28521751Y-50166158D01*
X28569093Y-50391791D01*
X28571051Y-50396750D01*
X28571052Y-50396752D01*
X28626162Y-50536297D01*
X28653776Y-50606221D01*
X28656543Y-50610780D01*
X28656544Y-50610783D01*
X28718998Y-50713703D01*
X28773377Y-50803317D01*
X28776874Y-50807347D01*
X28910852Y-50961743D01*
X28924477Y-50977445D01*
X28928608Y-50980832D01*
X29098627Y-51120240D01*
X29098633Y-51120244D01*
X29102755Y-51123624D01*
X29134250Y-51141552D01*
X29183555Y-51192632D01*
X29197417Y-51262262D01*
X29171434Y-51328333D01*
X29142284Y-51355573D01*
X29020681Y-51437441D01*
X29016824Y-51441120D01*
X29016822Y-51441122D01*
X28980947Y-51475345D01*
X28853865Y-51596576D01*
X28850682Y-51600854D01*
X28844924Y-51608593D01*
X28716246Y-51781542D01*
X28713830Y-51786293D01*
X28713828Y-51786297D01*
X28683130Y-51846676D01*
X28611760Y-51987051D01*
X28610178Y-51992145D01*
X28610177Y-51992148D01*
X28561428Y-52149146D01*
X28543393Y-52207227D01*
X28542692Y-52212516D01*
X28514972Y-52421667D01*
X28513102Y-52435774D01*
X28513302Y-52441103D01*
X28513302Y-52441105D01*
X28514011Y-52460000D01*
X28521751Y-52666158D01*
X28569093Y-52891791D01*
X28571051Y-52896750D01*
X28571052Y-52896752D01*
X28641295Y-53074616D01*
X28653776Y-53106221D01*
X28656543Y-53110780D01*
X28656544Y-53110783D01*
X28716989Y-53210393D01*
X28773377Y-53303317D01*
X28776874Y-53307347D01*
X28917261Y-53469129D01*
X28924477Y-53477445D01*
X28928608Y-53480832D01*
X29098627Y-53620240D01*
X29098633Y-53620244D01*
X29102755Y-53623624D01*
X29134250Y-53641552D01*
X29183555Y-53692632D01*
X29197417Y-53762262D01*
X29171434Y-53828333D01*
X29142284Y-53855573D01*
X29020681Y-53937441D01*
X29016824Y-53941120D01*
X29016822Y-53941122D01*
X28983442Y-53972965D01*
X28853865Y-54096576D01*
X28850682Y-54100854D01*
X28815088Y-54148694D01*
X28716246Y-54281542D01*
X28713830Y-54286293D01*
X28713828Y-54286297D01*
X28678471Y-54355840D01*
X28611760Y-54487051D01*
X28610178Y-54492145D01*
X28610177Y-54492148D01*
X28571686Y-54616109D01*
X28543393Y-54707227D01*
X28542692Y-54712516D01*
X28514641Y-54924163D01*
X28513102Y-54935774D01*
X28521751Y-55166158D01*
X28569093Y-55391791D01*
X28571051Y-55396750D01*
X28571052Y-55396752D01*
X28648340Y-55592455D01*
X28653776Y-55606221D01*
X28656543Y-55610780D01*
X28656544Y-55610783D01*
X28718998Y-55713703D01*
X28773377Y-55803317D01*
X28776874Y-55807347D01*
X28886036Y-55933145D01*
X28924477Y-55977445D01*
X28928608Y-55980832D01*
X29098627Y-56120240D01*
X29098633Y-56120244D01*
X29102755Y-56123624D01*
X29134250Y-56141552D01*
X29183555Y-56192632D01*
X29197417Y-56262262D01*
X29171434Y-56328333D01*
X29142284Y-56355573D01*
X29020681Y-56437441D01*
X29016824Y-56441120D01*
X29016822Y-56441122D01*
X28963464Y-56492023D01*
X28853865Y-56596576D01*
X28850682Y-56600854D01*
X28833762Y-56623595D01*
X28716246Y-56781542D01*
X28611760Y-56987051D01*
X28610178Y-56992145D01*
X28610177Y-56992148D01*
X28561824Y-57147870D01*
X28543393Y-57207227D01*
X28542692Y-57212516D01*
X28518419Y-57395660D01*
X28513102Y-57435774D01*
X28513302Y-57441103D01*
X28513302Y-57441105D01*
X28515764Y-57506695D01*
X28521751Y-57666158D01*
X28522846Y-57671377D01*
X28530715Y-57708882D01*
X28569093Y-57891791D01*
X28571051Y-57896750D01*
X28571052Y-57896752D01*
X28633834Y-58055724D01*
X28653776Y-58106221D01*
X28656543Y-58110780D01*
X28656544Y-58110783D01*
X28715537Y-58208000D01*
X28773377Y-58303317D01*
X28776874Y-58307347D01*
X28907196Y-58457530D01*
X28924477Y-58477445D01*
X28943978Y-58493435D01*
X29098627Y-58620240D01*
X29098633Y-58620244D01*
X29102755Y-58623624D01*
X29134250Y-58641552D01*
X29183555Y-58692632D01*
X29197417Y-58762262D01*
X29171434Y-58828333D01*
X29142284Y-58855573D01*
X29020681Y-58937441D01*
X29016824Y-58941120D01*
X29016822Y-58941122D01*
X29009822Y-58947800D01*
X28853865Y-59096576D01*
X28716246Y-59281542D01*
X28713830Y-59286293D01*
X28713828Y-59286297D01*
X28711377Y-59291118D01*
X28611760Y-59487051D01*
X28610178Y-59492145D01*
X28610177Y-59492148D01*
X28554102Y-59672738D01*
X28543393Y-59707227D01*
X28542692Y-59712516D01*
X28522811Y-59862522D01*
X28513102Y-59935774D01*
X24508500Y-59935774D01*
X24508500Y-32797386D01*
X27567759Y-32797386D01*
X27575216Y-32807753D01*
X27814935Y-33001874D01*
X27820272Y-33005751D01*
X28140685Y-33213830D01*
X28146394Y-33217127D01*
X28486811Y-33390578D01*
X28492836Y-33393260D01*
X28849502Y-33530171D01*
X28855784Y-33532212D01*
X29224816Y-33631094D01*
X29231266Y-33632465D01*
X29608629Y-33692234D01*
X29615167Y-33692920D01*
X29996699Y-33712916D01*
X30003301Y-33712916D01*
X30384833Y-33692920D01*
X30391371Y-33692234D01*
X30768734Y-33632465D01*
X30775184Y-33631094D01*
X31144216Y-33532212D01*
X31150498Y-33530171D01*
X31507164Y-33393260D01*
X31513189Y-33390578D01*
X31853606Y-33217127D01*
X31859315Y-33213830D01*
X32179728Y-33005751D01*
X32185065Y-33001874D01*
X32423835Y-32808522D01*
X32431527Y-32797386D01*
X77567759Y-32797386D01*
X77575216Y-32807753D01*
X77814935Y-33001874D01*
X77820272Y-33005751D01*
X78140685Y-33213830D01*
X78146394Y-33217127D01*
X78486811Y-33390578D01*
X78492836Y-33393260D01*
X78849502Y-33530171D01*
X78855784Y-33532212D01*
X79224816Y-33631094D01*
X79231266Y-33632465D01*
X79608629Y-33692234D01*
X79615167Y-33692920D01*
X79996699Y-33712916D01*
X80003301Y-33712916D01*
X80384833Y-33692920D01*
X80391371Y-33692234D01*
X80768734Y-33632465D01*
X80775184Y-33631094D01*
X81144216Y-33532212D01*
X81150498Y-33530171D01*
X81507164Y-33393260D01*
X81513189Y-33390578D01*
X81853606Y-33217127D01*
X81859315Y-33213830D01*
X82179728Y-33005751D01*
X82185065Y-33001874D01*
X82423835Y-32808522D01*
X82432300Y-32796267D01*
X82425966Y-32785176D01*
X80012812Y-30372022D01*
X79998868Y-30364408D01*
X79997035Y-30364539D01*
X79990420Y-30368790D01*
X77574900Y-32784310D01*
X77567759Y-32797386D01*
X32431527Y-32797386D01*
X32432300Y-32796267D01*
X32425966Y-32785176D01*
X30012812Y-30372022D01*
X29998868Y-30364408D01*
X29997035Y-30364539D01*
X29990420Y-30368790D01*
X27574900Y-32784310D01*
X27567759Y-32797386D01*
X24508500Y-32797386D01*
X24508500Y-30053250D01*
X24510246Y-30032345D01*
X24512770Y-30017344D01*
X24512770Y-30017341D01*
X24513576Y-30012552D01*
X24513689Y-30003301D01*
X26287084Y-30003301D01*
X26307080Y-30384833D01*
X26307766Y-30391371D01*
X26367535Y-30768734D01*
X26368906Y-30775184D01*
X26467788Y-31144216D01*
X26469829Y-31150498D01*
X26606740Y-31507164D01*
X26609422Y-31513189D01*
X26782872Y-31853603D01*
X26786169Y-31859313D01*
X26994253Y-32179735D01*
X26998123Y-32185061D01*
X27191478Y-32423835D01*
X27203733Y-32432300D01*
X27214824Y-32425966D01*
X29627978Y-30012812D01*
X29634356Y-30001132D01*
X30364408Y-30001132D01*
X30364539Y-30002965D01*
X30368790Y-30009580D01*
X32784310Y-32425100D01*
X32797386Y-32432241D01*
X32807753Y-32424784D01*
X33001877Y-32185061D01*
X33005747Y-32179735D01*
X33213831Y-31859313D01*
X33217128Y-31853603D01*
X33390578Y-31513189D01*
X33393260Y-31507164D01*
X33530171Y-31150498D01*
X33532212Y-31144216D01*
X33631036Y-30775400D01*
X51141500Y-30775400D01*
X51141837Y-30778646D01*
X51141837Y-30778650D01*
X51149991Y-30857232D01*
X51152474Y-30881166D01*
X51154655Y-30887702D01*
X51154655Y-30887704D01*
X51186405Y-30982870D01*
X51208450Y-31048946D01*
X51301522Y-31199348D01*
X51426697Y-31324305D01*
X51432927Y-31328145D01*
X51432928Y-31328146D01*
X51570090Y-31412694D01*
X51577262Y-31417115D01*
X51612938Y-31428948D01*
X51738611Y-31470632D01*
X51738613Y-31470632D01*
X51745139Y-31472797D01*
X51751975Y-31473497D01*
X51751978Y-31473498D01*
X51787663Y-31477154D01*
X51849600Y-31483500D01*
X53150400Y-31483500D01*
X53153646Y-31483163D01*
X53153650Y-31483163D01*
X53249308Y-31473238D01*
X53249312Y-31473237D01*
X53256166Y-31472526D01*
X53262702Y-31470345D01*
X53262704Y-31470345D01*
X53394806Y-31426272D01*
X53423946Y-31416550D01*
X53574348Y-31323478D01*
X53699305Y-31198303D01*
X53789081Y-31052660D01*
X53841852Y-31005168D01*
X53911924Y-30993744D01*
X53977048Y-31022018D01*
X53987510Y-31031805D01*
X54029215Y-31075523D01*
X54096576Y-31146135D01*
X54281542Y-31283754D01*
X54286293Y-31286170D01*
X54286297Y-31286172D01*
X54349481Y-31318296D01*
X54487051Y-31388240D01*
X54492145Y-31389822D01*
X54492148Y-31389823D01*
X54657583Y-31441192D01*
X54707227Y-31456607D01*
X54712516Y-31457308D01*
X54930489Y-31486198D01*
X54930494Y-31486198D01*
X54935774Y-31486898D01*
X54941103Y-31486698D01*
X54941105Y-31486698D01*
X55050966Y-31482573D01*
X55166158Y-31478249D01*
X55188802Y-31473498D01*
X55386572Y-31432002D01*
X55391791Y-31430907D01*
X55396750Y-31428949D01*
X55396752Y-31428948D01*
X55601256Y-31348185D01*
X55601258Y-31348184D01*
X55606221Y-31346224D01*
X55611525Y-31343006D01*
X55798757Y-31229390D01*
X55798756Y-31229390D01*
X55803317Y-31226623D01*
X55891044Y-31150498D01*
X55973412Y-31079023D01*
X55973414Y-31079021D01*
X55977445Y-31075523D01*
X56053416Y-30982870D01*
X56120240Y-30901373D01*
X56120244Y-30901367D01*
X56123624Y-30897245D01*
X56136681Y-30874308D01*
X56141829Y-30865265D01*
X56192912Y-30815959D01*
X56262542Y-30802098D01*
X56328613Y-30828082D01*
X56355851Y-30857232D01*
X56434852Y-30974578D01*
X56441519Y-30982870D01*
X56593228Y-31141900D01*
X56601186Y-31148941D01*
X56777525Y-31280141D01*
X56786562Y-31285745D01*
X56982484Y-31385357D01*
X56992335Y-31389357D01*
X57202240Y-31454534D01*
X57212624Y-31456817D01*
X57228043Y-31458861D01*
X57242207Y-31456665D01*
X57246000Y-31443478D01*
X57246000Y-31441192D01*
X57754000Y-31441192D01*
X57757973Y-31454723D01*
X57768580Y-31456248D01*
X57886421Y-31431523D01*
X57896617Y-31428463D01*
X58101029Y-31347737D01*
X58110561Y-31343006D01*
X58298462Y-31228984D01*
X58307052Y-31222720D01*
X58473052Y-31078673D01*
X58480472Y-31071042D01*
X58619826Y-30901089D01*
X58625850Y-30892322D01*
X58734576Y-30701318D01*
X58739041Y-30691654D01*
X58814031Y-30485059D01*
X58816802Y-30474792D01*
X58853504Y-30271826D01*
X58852085Y-30258586D01*
X58837450Y-30254000D01*
X57772115Y-30254000D01*
X57756876Y-30258475D01*
X57755671Y-30259865D01*
X57754000Y-30267548D01*
X57754000Y-31441192D01*
X57246000Y-31441192D01*
X57246000Y-30003301D01*
X76287084Y-30003301D01*
X76307080Y-30384833D01*
X76307766Y-30391371D01*
X76367535Y-30768734D01*
X76368906Y-30775184D01*
X76467788Y-31144216D01*
X76469829Y-31150498D01*
X76606740Y-31507164D01*
X76609422Y-31513189D01*
X76782872Y-31853603D01*
X76786169Y-31859313D01*
X76994253Y-32179735D01*
X76998123Y-32185061D01*
X77191478Y-32423835D01*
X77203733Y-32432300D01*
X77214824Y-32425966D01*
X79627978Y-30012812D01*
X79634356Y-30001132D01*
X80364408Y-30001132D01*
X80364539Y-30002965D01*
X80368790Y-30009580D01*
X82784310Y-32425100D01*
X82797386Y-32432241D01*
X82807753Y-32424784D01*
X83001877Y-32185061D01*
X83005747Y-32179735D01*
X83213831Y-31859313D01*
X83217128Y-31853603D01*
X83390578Y-31513189D01*
X83393260Y-31507164D01*
X83530171Y-31150498D01*
X83532212Y-31144216D01*
X83631094Y-30775184D01*
X83632465Y-30768734D01*
X83692234Y-30391371D01*
X83692920Y-30384833D01*
X83712916Y-30003301D01*
X83712916Y-29996699D01*
X83692920Y-29615167D01*
X83692234Y-29608629D01*
X83632465Y-29231266D01*
X83631094Y-29224816D01*
X83532212Y-28855784D01*
X83530171Y-28849502D01*
X83393260Y-28492836D01*
X83390578Y-28486811D01*
X83217128Y-28146397D01*
X83213831Y-28140687D01*
X83005747Y-27820265D01*
X83001877Y-27814939D01*
X82808522Y-27576165D01*
X82796267Y-27567700D01*
X82785176Y-27574034D01*
X80372022Y-29987188D01*
X80364408Y-30001132D01*
X79634356Y-30001132D01*
X79635592Y-29998868D01*
X79635461Y-29997035D01*
X79631210Y-29990420D01*
X77215690Y-27574900D01*
X77202614Y-27567759D01*
X77192247Y-27575216D01*
X76998123Y-27814939D01*
X76994253Y-27820265D01*
X76786169Y-28140687D01*
X76782872Y-28146397D01*
X76609422Y-28486811D01*
X76606740Y-28492836D01*
X76469829Y-28849502D01*
X76467788Y-28855784D01*
X76368906Y-29224816D01*
X76367535Y-29231266D01*
X76307766Y-29608629D01*
X76307080Y-29615167D01*
X76287084Y-29996699D01*
X76287084Y-30003301D01*
X57246000Y-30003301D01*
X57246000Y-29727885D01*
X57754000Y-29727885D01*
X57758475Y-29743124D01*
X57759865Y-29744329D01*
X57767548Y-29746000D01*
X58833849Y-29746000D01*
X58848527Y-29741690D01*
X58850590Y-29729807D01*
X58843876Y-29650675D01*
X58842086Y-29640203D01*
X58786870Y-29427465D01*
X58783335Y-29417425D01*
X58693063Y-29217030D01*
X58687894Y-29207744D01*
X58565150Y-29025425D01*
X58558481Y-29017130D01*
X58406772Y-28858100D01*
X58398814Y-28851059D01*
X58222475Y-28719859D01*
X58213438Y-28714255D01*
X58017516Y-28614643D01*
X58007665Y-28610643D01*
X57797760Y-28545466D01*
X57787376Y-28543183D01*
X57771957Y-28541139D01*
X57757793Y-28543335D01*
X57754000Y-28556522D01*
X57754000Y-29727885D01*
X57246000Y-29727885D01*
X57246000Y-28558808D01*
X57242027Y-28545277D01*
X57231420Y-28543752D01*
X57113579Y-28568477D01*
X57103383Y-28571537D01*
X56898971Y-28652263D01*
X56889439Y-28656994D01*
X56701538Y-28771016D01*
X56692948Y-28777280D01*
X56526948Y-28921327D01*
X56519528Y-28928958D01*
X56380174Y-29098911D01*
X56374152Y-29107674D01*
X56358762Y-29134711D01*
X56307680Y-29184018D01*
X56238049Y-29197880D01*
X56171978Y-29171897D01*
X56144739Y-29142747D01*
X56068348Y-29029280D01*
X56062559Y-29020681D01*
X56003918Y-28959209D01*
X55975059Y-28928958D01*
X55903424Y-28853865D01*
X55718458Y-28716246D01*
X55713707Y-28713830D01*
X55713703Y-28713828D01*
X55595588Y-28653776D01*
X55512949Y-28611760D01*
X55507855Y-28610178D01*
X55507852Y-28610177D01*
X55297871Y-28544976D01*
X55292773Y-28543393D01*
X55287484Y-28542692D01*
X55069511Y-28513802D01*
X55069506Y-28513802D01*
X55064226Y-28513102D01*
X55058897Y-28513302D01*
X55058895Y-28513302D01*
X54949034Y-28517426D01*
X54833842Y-28521751D01*
X54828623Y-28522846D01*
X54806566Y-28527474D01*
X54608209Y-28569093D01*
X54603250Y-28571051D01*
X54603248Y-28571052D01*
X54398744Y-28651815D01*
X54398742Y-28651816D01*
X54393779Y-28653776D01*
X54389220Y-28656543D01*
X54389217Y-28656544D01*
X54294113Y-28714255D01*
X54196683Y-28773377D01*
X54192653Y-28776874D01*
X54099484Y-28857722D01*
X54022555Y-28924477D01*
X53993330Y-28960120D01*
X53934671Y-29000114D01*
X53863701Y-29002046D01*
X53802952Y-28965302D01*
X53788752Y-28946532D01*
X53702332Y-28806880D01*
X53698478Y-28800652D01*
X53573303Y-28675695D01*
X53542965Y-28656994D01*
X53428968Y-28586725D01*
X53428966Y-28586724D01*
X53422738Y-28582885D01*
X53309353Y-28545277D01*
X53261389Y-28529368D01*
X53261387Y-28529368D01*
X53254861Y-28527203D01*
X53248025Y-28526503D01*
X53248022Y-28526502D01*
X53204969Y-28522091D01*
X53150400Y-28516500D01*
X51849600Y-28516500D01*
X51846354Y-28516837D01*
X51846350Y-28516837D01*
X51750692Y-28526762D01*
X51750688Y-28526763D01*
X51743834Y-28527474D01*
X51737298Y-28529655D01*
X51737296Y-28529655D01*
X51605194Y-28573728D01*
X51576054Y-28583450D01*
X51425652Y-28676522D01*
X51300695Y-28801697D01*
X51296855Y-28807927D01*
X51296854Y-28807928D01*
X51226954Y-28921327D01*
X51207885Y-28952262D01*
X51152203Y-29120139D01*
X51151503Y-29126975D01*
X51151502Y-29126978D01*
X51149338Y-29148102D01*
X51141500Y-29224600D01*
X51141500Y-30775400D01*
X33631036Y-30775400D01*
X33631094Y-30775184D01*
X33632465Y-30768734D01*
X33692234Y-30391371D01*
X33692920Y-30384833D01*
X33712916Y-30003301D01*
X33712916Y-29996699D01*
X33692920Y-29615167D01*
X33692234Y-29608629D01*
X33632465Y-29231266D01*
X33631094Y-29224816D01*
X33532212Y-28855784D01*
X33530171Y-28849502D01*
X33393260Y-28492836D01*
X33390578Y-28486811D01*
X33217128Y-28146397D01*
X33213831Y-28140687D01*
X33005747Y-27820265D01*
X33001877Y-27814939D01*
X32808522Y-27576165D01*
X32796267Y-27567700D01*
X32785176Y-27574034D01*
X30372022Y-29987188D01*
X30364408Y-30001132D01*
X29634356Y-30001132D01*
X29635592Y-29998868D01*
X29635461Y-29997035D01*
X29631210Y-29990420D01*
X27215690Y-27574900D01*
X27202614Y-27567759D01*
X27192247Y-27575216D01*
X26998123Y-27814939D01*
X26994253Y-27820265D01*
X26786169Y-28140687D01*
X26782872Y-28146397D01*
X26609422Y-28486811D01*
X26606740Y-28492836D01*
X26469829Y-28849502D01*
X26467788Y-28855784D01*
X26368906Y-29224816D01*
X26367535Y-29231266D01*
X26307766Y-29608629D01*
X26307080Y-29615167D01*
X26287084Y-29996699D01*
X26287084Y-30003301D01*
X24513689Y-30003301D01*
X24513729Y-30000000D01*
X24513039Y-29995185D01*
X24513039Y-29995178D01*
X24511316Y-29983148D01*
X24510151Y-29960077D01*
X24527041Y-29551722D01*
X24527901Y-29541344D01*
X24570714Y-29197880D01*
X24582753Y-29101298D01*
X24584466Y-29091030D01*
X24613563Y-28952262D01*
X24675467Y-28657024D01*
X24678023Y-28646928D01*
X24804561Y-28221899D01*
X24807938Y-28212062D01*
X24969147Y-27798919D01*
X24973318Y-27789411D01*
X25078610Y-27574034D01*
X25168082Y-27391015D01*
X25173037Y-27381859D01*
X25279177Y-27203733D01*
X27567700Y-27203733D01*
X27574034Y-27214824D01*
X29987188Y-29627978D01*
X30001132Y-29635592D01*
X30002965Y-29635461D01*
X30009580Y-29631210D01*
X32425100Y-27215690D01*
X32431630Y-27203733D01*
X77567700Y-27203733D01*
X77574034Y-27214824D01*
X79987188Y-29627978D01*
X80001132Y-29635592D01*
X80002965Y-29635461D01*
X80009580Y-29631210D01*
X82425100Y-27215690D01*
X82432241Y-27202614D01*
X82424784Y-27192247D01*
X82185065Y-26998126D01*
X82179728Y-26994249D01*
X81859315Y-26786170D01*
X81853606Y-26782873D01*
X81513189Y-26609422D01*
X81507164Y-26606740D01*
X81150498Y-26469829D01*
X81144216Y-26467788D01*
X80775184Y-26368906D01*
X80768734Y-26367535D01*
X80391371Y-26307766D01*
X80384833Y-26307080D01*
X80003301Y-26287084D01*
X79996699Y-26287084D01*
X79615167Y-26307080D01*
X79608629Y-26307766D01*
X79231266Y-26367535D01*
X79224816Y-26368906D01*
X78855784Y-26467788D01*
X78849502Y-26469829D01*
X78492836Y-26606740D01*
X78486811Y-26609422D01*
X78146397Y-26782872D01*
X78140687Y-26786169D01*
X77820265Y-26994253D01*
X77814939Y-26998123D01*
X77576165Y-27191478D01*
X77567700Y-27203733D01*
X32431630Y-27203733D01*
X32432241Y-27202614D01*
X32424784Y-27192247D01*
X32185065Y-26998126D01*
X32179728Y-26994249D01*
X31859315Y-26786170D01*
X31853606Y-26782873D01*
X31513189Y-26609422D01*
X31507164Y-26606740D01*
X31150498Y-26469829D01*
X31144216Y-26467788D01*
X30775184Y-26368906D01*
X30768734Y-26367535D01*
X30391371Y-26307766D01*
X30384833Y-26307080D01*
X30003301Y-26287084D01*
X29996699Y-26287084D01*
X29615167Y-26307080D01*
X29608629Y-26307766D01*
X29231266Y-26367535D01*
X29224816Y-26368906D01*
X28855784Y-26467788D01*
X28849502Y-26469829D01*
X28492836Y-26606740D01*
X28486811Y-26609422D01*
X28146397Y-26782872D01*
X28140687Y-26786169D01*
X27820265Y-26994253D01*
X27814939Y-26998123D01*
X27576165Y-27191478D01*
X27567700Y-27203733D01*
X25279177Y-27203733D01*
X25400030Y-27000915D01*
X25405726Y-26992196D01*
X25663405Y-26631295D01*
X25669801Y-26623077D01*
X25956413Y-26284674D01*
X25963467Y-26277013D01*
X26277013Y-25963467D01*
X26284674Y-25956413D01*
X26623077Y-25669801D01*
X26631295Y-25663405D01*
X26992196Y-25405726D01*
X27000915Y-25400030D01*
X27381859Y-25173037D01*
X27391017Y-25168081D01*
X27789419Y-24973314D01*
X27798919Y-24969147D01*
X28212062Y-24807938D01*
X28221899Y-24804561D01*
X28646928Y-24678023D01*
X28657024Y-24675467D01*
X28927946Y-24618661D01*
X29091033Y-24584465D01*
X29101298Y-24582753D01*
X29265326Y-24562307D01*
X29541344Y-24527901D01*
X29551722Y-24527041D01*
X29729324Y-24519695D01*
X29956339Y-24510306D01*
X29980920Y-24511698D01*
X29993724Y-24513691D01*
X30002626Y-24512527D01*
X30002628Y-24512527D01*
X30019610Y-24510306D01*
X30025286Y-24509564D01*
X30041621Y-24508500D01*
X79950633Y-24508500D01*
X79970018Y-24510000D01*
G37*
%TD.AperFunction*%
%TA.AperFunction,Conductor*%
G36*
X55749011Y-55080903D02*
G01*
X55794075Y-55109864D01*
X56112189Y-55427979D01*
X56126132Y-55435592D01*
X56127966Y-55435461D01*
X56134579Y-55431210D01*
X56455925Y-55109864D01*
X56518238Y-55075839D01*
X56589053Y-55080903D01*
X56634116Y-55109863D01*
X56724627Y-55200373D01*
X56754595Y-55230341D01*
X56788620Y-55292653D01*
X56791500Y-55319437D01*
X56791500Y-55440520D01*
X56771498Y-55508641D01*
X56754595Y-55529616D01*
X56484210Y-55800000D01*
X56214095Y-56070116D01*
X56151783Y-56104141D01*
X56080967Y-56099076D01*
X56035905Y-56070115D01*
X55765790Y-55800000D01*
X55434863Y-55469074D01*
X55400837Y-55406762D01*
X55405902Y-55335947D01*
X55434863Y-55290884D01*
X55525374Y-55200373D01*
X55615884Y-55109864D01*
X55678196Y-55075838D01*
X55749011Y-55080903D01*
G37*
%TD.AperFunction*%
%TA.AperFunction,Conductor*%
G36*
X56169033Y-53900925D02*
G01*
X56214095Y-53929885D01*
X56754595Y-54470384D01*
X56788620Y-54532697D01*
X56791500Y-54559480D01*
X56791500Y-54680564D01*
X56771498Y-54748685D01*
X56754595Y-54769659D01*
X56634117Y-54890137D01*
X56571805Y-54924163D01*
X56500990Y-54919098D01*
X56455926Y-54890137D01*
X56137811Y-54572021D01*
X56123868Y-54564408D01*
X56122034Y-54564539D01*
X56115421Y-54568790D01*
X55794075Y-54890136D01*
X55731762Y-54924161D01*
X55660947Y-54919097D01*
X55615884Y-54890137D01*
X55525373Y-54799627D01*
X55525372Y-54799626D01*
X55434863Y-54709116D01*
X55400838Y-54646804D01*
X55405904Y-54575988D01*
X55434864Y-54530925D01*
X56035905Y-53929885D01*
X56098217Y-53895860D01*
X56169033Y-53900925D01*
G37*
%TD.AperFunction*%
%TD*%
M02*
