%TF.GenerationSoftware,KiCad,Pcbnew,6.0.11-2627ca5db0~126~ubuntu22.04.1*%
%TF.CreationDate,2023-02-06T22:18:29+01:00*%
%TF.ProjectId,Stepper_Driver_TMC2225-SA-T,53746570-7065-4725-9f44-72697665725f,rev?*%
%TF.SameCoordinates,Original*%
%TF.FileFunction,Soldermask,Bot*%
%TF.FilePolarity,Negative*%
%FSLAX46Y46*%
G04 Gerber Fmt 4.6, Leading zero omitted, Abs format (unit mm)*
G04 Created by KiCad (PCBNEW 6.0.11-2627ca5db0~126~ubuntu22.04.1) date 2023-02-06 22:18:29*
%MOMM*%
%LPD*%
G01*
G04 APERTURE LIST*
G04 Aperture macros list*
%AMRoundRect*
0 Rectangle with rounded corners*
0 $1 Rounding radius*
0 $2 $3 $4 $5 $6 $7 $8 $9 X,Y pos of 4 corners*
0 Add a 4 corners polygon primitive as box body*
4,1,4,$2,$3,$4,$5,$6,$7,$8,$9,$2,$3,0*
0 Add four circle primitives for the rounded corners*
1,1,$1+$1,$2,$3*
1,1,$1+$1,$4,$5*
1,1,$1+$1,$6,$7*
1,1,$1+$1,$8,$9*
0 Add four rect primitives between the rounded corners*
20,1,$1+$1,$2,$3,$4,$5,0*
20,1,$1+$1,$4,$5,$6,$7,0*
20,1,$1+$1,$6,$7,$8,$9,0*
20,1,$1+$1,$8,$9,$2,$3,0*%
G04 Aperture macros list end*
%ADD10C,0.800000*%
%ADD11C,6.400000*%
%ADD12R,1.700000X1.700000*%
%ADD13O,1.700000X1.700000*%
%ADD14RoundRect,0.250000X-0.725000X0.600000X-0.725000X-0.600000X0.725000X-0.600000X0.725000X0.600000X0*%
%ADD15O,1.950000X1.700000*%
%ADD16RoundRect,0.250000X0.725000X-0.600000X0.725000X0.600000X-0.725000X0.600000X-0.725000X-0.600000X0*%
%ADD17RoundRect,0.250000X-0.600000X-0.725000X0.600000X-0.725000X0.600000X0.725000X-0.600000X0.725000X0*%
%ADD18O,1.700000X1.950000*%
G04 APERTURE END LIST*
D10*
%TO.C,H3*%
X80000000Y-77600000D03*
X78302944Y-78302944D03*
X81697056Y-78302944D03*
X81697056Y-81697056D03*
X80000000Y-82400000D03*
D11*
X80000000Y-80000000D03*
D10*
X77600000Y-80000000D03*
X78302944Y-81697056D03*
X82400000Y-80000000D03*
%TD*%
D12*
%TO.C,J3*%
X35000000Y-47380000D03*
D13*
X35000000Y-49920000D03*
X35000000Y-52460000D03*
X35000000Y-55000000D03*
X35000000Y-57540000D03*
X35000000Y-60080000D03*
X35000000Y-62620000D03*
%TD*%
D12*
%TO.C,J6*%
X50800000Y-75000000D03*
D13*
X53340000Y-75000000D03*
X55880000Y-75000000D03*
X58420000Y-75000000D03*
X60960000Y-75000000D03*
%TD*%
D10*
%TO.C,H2*%
X77600000Y-30000000D03*
X82400000Y-30000000D03*
X78302944Y-31697056D03*
X81697056Y-28302944D03*
X78302944Y-28302944D03*
X81697056Y-31697056D03*
X80000000Y-27600000D03*
D11*
X80000000Y-30000000D03*
D10*
X80000000Y-32400000D03*
%TD*%
D12*
%TO.C,J4*%
X50800000Y-80000000D03*
D13*
X53340000Y-80000000D03*
X55880000Y-80000000D03*
X58420000Y-80000000D03*
X60960000Y-80000000D03*
%TD*%
D12*
%TO.C,J5*%
X50800000Y-70000000D03*
D13*
X53340000Y-70000000D03*
X55880000Y-70000000D03*
X58420000Y-70000000D03*
X60960000Y-70000000D03*
%TD*%
D10*
%TO.C,H4*%
X28302944Y-81697056D03*
X27600000Y-80000000D03*
X30000000Y-77600000D03*
D11*
X30000000Y-80000000D03*
D10*
X31697056Y-78302944D03*
X30000000Y-82400000D03*
X28302944Y-78302944D03*
X32400000Y-80000000D03*
X31697056Y-81697056D03*
%TD*%
D14*
%TO.C,J2*%
X30000000Y-47500000D03*
D15*
X30000000Y-50000000D03*
X30000000Y-52500000D03*
X30000000Y-55000000D03*
X30000000Y-57500000D03*
X30000000Y-60000000D03*
X30000000Y-62500000D03*
%TD*%
D16*
%TO.C,J8*%
X72500000Y-60000000D03*
D15*
X72500000Y-57500000D03*
X72500000Y-55000000D03*
X72500000Y-52500000D03*
X72500000Y-50000000D03*
%TD*%
D16*
%TO.C,J7*%
X80000000Y-58750000D03*
D15*
X80000000Y-56250000D03*
X80000000Y-53750000D03*
X80000000Y-51250000D03*
%TD*%
D17*
%TO.C,J1*%
X52500000Y-30000000D03*
D18*
X55000000Y-30000000D03*
X57500000Y-30000000D03*
%TD*%
D10*
%TO.C,H1*%
X28302944Y-28302944D03*
X28302944Y-31697056D03*
X31697056Y-28302944D03*
X30000000Y-27600000D03*
X32400000Y-30000000D03*
X31697056Y-31697056D03*
D11*
X30000000Y-30000000D03*
D10*
X30000000Y-32400000D03*
X27600000Y-30000000D03*
%TD*%
M02*
