%TF.GenerationSoftware,KiCad,Pcbnew,6.0.11-2627ca5db0~126~ubuntu22.04.1*%
%TF.CreationDate,2023-02-06T22:18:29+01:00*%
%TF.ProjectId,Stepper_Driver_TMC2225-SA-T,53746570-7065-4725-9f44-72697665725f,rev?*%
%TF.SameCoordinates,Original*%
%TF.FileFunction,Legend,Top*%
%TF.FilePolarity,Positive*%
%FSLAX46Y46*%
G04 Gerber Fmt 4.6, Leading zero omitted, Abs format (unit mm)*
G04 Created by KiCad (PCBNEW 6.0.11-2627ca5db0~126~ubuntu22.04.1) date 2023-02-06 22:18:29*
%MOMM*%
%LPD*%
G01*
G04 APERTURE LIST*
%ADD10C,0.300000*%
%ADD11C,0.150000*%
%ADD12C,0.120000*%
G04 APERTURE END LIST*
D10*
X39035714Y-29178571D02*
X39892857Y-29178571D01*
X39464285Y-30678571D02*
X39464285Y-29178571D01*
X40678571Y-29178571D02*
X40964285Y-29178571D01*
X41107142Y-29250000D01*
X41250000Y-29392857D01*
X41321428Y-29678571D01*
X41321428Y-30178571D01*
X41250000Y-30464285D01*
X41107142Y-30607142D01*
X40964285Y-30678571D01*
X40678571Y-30678571D01*
X40535714Y-30607142D01*
X40392857Y-30464285D01*
X40321428Y-30178571D01*
X40321428Y-29678571D01*
X40392857Y-29392857D01*
X40535714Y-29250000D01*
X40678571Y-29178571D01*
X41964285Y-30678571D02*
X41964285Y-29178571D01*
X42535714Y-29178571D01*
X42678571Y-29250000D01*
X42750000Y-29321428D01*
X42821428Y-29464285D01*
X42821428Y-29678571D01*
X42750000Y-29821428D01*
X42678571Y-29892857D01*
X42535714Y-29964285D01*
X41964285Y-29964285D01*
X29714285Y-35584642D02*
X29928571Y-35656071D01*
X30285714Y-35656071D01*
X30428571Y-35584642D01*
X30500000Y-35513214D01*
X30571428Y-35370357D01*
X30571428Y-35227500D01*
X30500000Y-35084642D01*
X30428571Y-35013214D01*
X30285714Y-34941785D01*
X30000000Y-34870357D01*
X29857142Y-34798928D01*
X29785714Y-34727500D01*
X29714285Y-34584642D01*
X29714285Y-34441785D01*
X29785714Y-34298928D01*
X29857142Y-34227500D01*
X30000000Y-34156071D01*
X30357142Y-34156071D01*
X30571428Y-34227500D01*
X31000000Y-34656071D02*
X31571428Y-34656071D01*
X31214285Y-34156071D02*
X31214285Y-35441785D01*
X31285714Y-35584642D01*
X31428571Y-35656071D01*
X31571428Y-35656071D01*
X32642857Y-35584642D02*
X32500000Y-35656071D01*
X32214285Y-35656071D01*
X32071428Y-35584642D01*
X32000000Y-35441785D01*
X32000000Y-34870357D01*
X32071428Y-34727500D01*
X32214285Y-34656071D01*
X32500000Y-34656071D01*
X32642857Y-34727500D01*
X32714285Y-34870357D01*
X32714285Y-35013214D01*
X32000000Y-35156071D01*
X33357142Y-34656071D02*
X33357142Y-36156071D01*
X33357142Y-34727500D02*
X33500000Y-34656071D01*
X33785714Y-34656071D01*
X33928571Y-34727500D01*
X34000000Y-34798928D01*
X34071428Y-34941785D01*
X34071428Y-35370357D01*
X34000000Y-35513214D01*
X33928571Y-35584642D01*
X33785714Y-35656071D01*
X33500000Y-35656071D01*
X33357142Y-35584642D01*
X34714285Y-34656071D02*
X34714285Y-36156071D01*
X34714285Y-34727500D02*
X34857142Y-34656071D01*
X35142857Y-34656071D01*
X35285714Y-34727500D01*
X35357142Y-34798928D01*
X35428571Y-34941785D01*
X35428571Y-35370357D01*
X35357142Y-35513214D01*
X35285714Y-35584642D01*
X35142857Y-35656071D01*
X34857142Y-35656071D01*
X34714285Y-35584642D01*
X36642857Y-35584642D02*
X36500000Y-35656071D01*
X36214285Y-35656071D01*
X36071428Y-35584642D01*
X36000000Y-35441785D01*
X36000000Y-34870357D01*
X36071428Y-34727500D01*
X36214285Y-34656071D01*
X36500000Y-34656071D01*
X36642857Y-34727500D01*
X36714285Y-34870357D01*
X36714285Y-35013214D01*
X36000000Y-35156071D01*
X37357142Y-35656071D02*
X37357142Y-34656071D01*
X37357142Y-34941785D02*
X37428571Y-34798928D01*
X37500000Y-34727500D01*
X37642857Y-34656071D01*
X37785714Y-34656071D01*
X39428571Y-35656071D02*
X39428571Y-34156071D01*
X39785714Y-34156071D01*
X40000000Y-34227500D01*
X40142857Y-34370357D01*
X40214285Y-34513214D01*
X40285714Y-34798928D01*
X40285714Y-35013214D01*
X40214285Y-35298928D01*
X40142857Y-35441785D01*
X40000000Y-35584642D01*
X39785714Y-35656071D01*
X39428571Y-35656071D01*
X40928571Y-35656071D02*
X40928571Y-34656071D01*
X40928571Y-34941785D02*
X41000000Y-34798928D01*
X41071428Y-34727500D01*
X41214285Y-34656071D01*
X41357142Y-34656071D01*
X41857142Y-35656071D02*
X41857142Y-34656071D01*
X41857142Y-34156071D02*
X41785714Y-34227500D01*
X41857142Y-34298928D01*
X41928571Y-34227500D01*
X41857142Y-34156071D01*
X41857142Y-34298928D01*
X42428571Y-34656071D02*
X42785714Y-35656071D01*
X43142857Y-34656071D01*
X44285714Y-35584642D02*
X44142857Y-35656071D01*
X43857142Y-35656071D01*
X43714285Y-35584642D01*
X43642857Y-35441785D01*
X43642857Y-34870357D01*
X43714285Y-34727500D01*
X43857142Y-34656071D01*
X44142857Y-34656071D01*
X44285714Y-34727500D01*
X44357142Y-34870357D01*
X44357142Y-35013214D01*
X43642857Y-35156071D01*
X45000000Y-35656071D02*
X45000000Y-34656071D01*
X45000000Y-34941785D02*
X45071428Y-34798928D01*
X45142857Y-34727500D01*
X45285714Y-34656071D01*
X45428571Y-34656071D01*
X28821428Y-36571071D02*
X29678571Y-36571071D01*
X29249999Y-38071071D02*
X29249999Y-36571071D01*
X30178571Y-38071071D02*
X30178571Y-36571071D01*
X30678571Y-37642500D01*
X31178571Y-36571071D01*
X31178571Y-38071071D01*
X32749999Y-37928214D02*
X32678571Y-37999642D01*
X32464285Y-38071071D01*
X32321428Y-38071071D01*
X32107142Y-37999642D01*
X31964285Y-37856785D01*
X31892857Y-37713928D01*
X31821428Y-37428214D01*
X31821428Y-37213928D01*
X31892857Y-36928214D01*
X31964285Y-36785357D01*
X32107142Y-36642500D01*
X32321428Y-36571071D01*
X32464285Y-36571071D01*
X32678571Y-36642500D01*
X32749999Y-36713928D01*
X33321428Y-36713928D02*
X33392857Y-36642500D01*
X33535714Y-36571071D01*
X33892857Y-36571071D01*
X34035714Y-36642500D01*
X34107142Y-36713928D01*
X34178571Y-36856785D01*
X34178571Y-36999642D01*
X34107142Y-37213928D01*
X33249999Y-38071071D01*
X34178571Y-38071071D01*
X34749999Y-36713928D02*
X34821428Y-36642500D01*
X34964285Y-36571071D01*
X35321428Y-36571071D01*
X35464285Y-36642500D01*
X35535714Y-36713928D01*
X35607142Y-36856785D01*
X35607142Y-36999642D01*
X35535714Y-37213928D01*
X34678571Y-38071071D01*
X35607142Y-38071071D01*
X36178571Y-36713928D02*
X36249999Y-36642500D01*
X36392857Y-36571071D01*
X36749999Y-36571071D01*
X36892857Y-36642500D01*
X36964285Y-36713928D01*
X37035714Y-36856785D01*
X37035714Y-36999642D01*
X36964285Y-37213928D01*
X36107142Y-38071071D01*
X37035714Y-38071071D01*
X38392857Y-36571071D02*
X37678571Y-36571071D01*
X37607142Y-37285357D01*
X37678571Y-37213928D01*
X37821428Y-37142500D01*
X38178571Y-37142500D01*
X38321428Y-37213928D01*
X38392857Y-37285357D01*
X38464285Y-37428214D01*
X38464285Y-37785357D01*
X38392857Y-37928214D01*
X38321428Y-37999642D01*
X38178571Y-38071071D01*
X37821428Y-38071071D01*
X37678571Y-37999642D01*
X37607142Y-37928214D01*
X39107142Y-37499642D02*
X40250000Y-37499642D01*
X40892857Y-37999642D02*
X41107142Y-38071071D01*
X41464285Y-38071071D01*
X41607142Y-37999642D01*
X41678571Y-37928214D01*
X41750000Y-37785357D01*
X41750000Y-37642500D01*
X41678571Y-37499642D01*
X41607142Y-37428214D01*
X41464285Y-37356785D01*
X41178571Y-37285357D01*
X41035714Y-37213928D01*
X40964285Y-37142500D01*
X40892857Y-36999642D01*
X40892857Y-36856785D01*
X40964285Y-36713928D01*
X41035714Y-36642500D01*
X41178571Y-36571071D01*
X41535714Y-36571071D01*
X41750000Y-36642500D01*
X42321428Y-37642500D02*
X43035714Y-37642500D01*
X42178571Y-38071071D02*
X42678571Y-36571071D01*
X43178571Y-38071071D01*
X43678571Y-37499642D02*
X44821428Y-37499642D01*
X45321428Y-36571071D02*
X46178571Y-36571071D01*
X45750000Y-38071071D02*
X45750000Y-36571071D01*
X27035714Y-39128928D02*
X27107142Y-39057500D01*
X27250000Y-38986071D01*
X27607142Y-38986071D01*
X27750000Y-39057500D01*
X27821428Y-39128928D01*
X27892857Y-39271785D01*
X27892857Y-39414642D01*
X27821428Y-39628928D01*
X26964285Y-40486071D01*
X27892857Y-40486071D01*
X28821428Y-38986071D02*
X28964285Y-38986071D01*
X29107142Y-39057500D01*
X29178571Y-39128928D01*
X29250000Y-39271785D01*
X29321428Y-39557500D01*
X29321428Y-39914642D01*
X29250000Y-40200357D01*
X29178571Y-40343214D01*
X29107142Y-40414642D01*
X28964285Y-40486071D01*
X28821428Y-40486071D01*
X28678571Y-40414642D01*
X28607142Y-40343214D01*
X28535714Y-40200357D01*
X28464285Y-39914642D01*
X28464285Y-39557500D01*
X28535714Y-39271785D01*
X28607142Y-39128928D01*
X28678571Y-39057500D01*
X28821428Y-38986071D01*
X29892857Y-39128928D02*
X29964285Y-39057500D01*
X30107142Y-38986071D01*
X30464285Y-38986071D01*
X30607142Y-39057500D01*
X30678571Y-39128928D01*
X30750000Y-39271785D01*
X30750000Y-39414642D01*
X30678571Y-39628928D01*
X29821428Y-40486071D01*
X30750000Y-40486071D01*
X31250000Y-38986071D02*
X32178571Y-38986071D01*
X31678571Y-39557500D01*
X31892857Y-39557500D01*
X32035714Y-39628928D01*
X32107142Y-39700357D01*
X32178571Y-39843214D01*
X32178571Y-40200357D01*
X32107142Y-40343214D01*
X32035714Y-40414642D01*
X31892857Y-40486071D01*
X31464285Y-40486071D01*
X31321428Y-40414642D01*
X31250000Y-40343214D01*
X32821428Y-40343214D02*
X32892857Y-40414642D01*
X32821428Y-40486071D01*
X32750000Y-40414642D01*
X32821428Y-40343214D01*
X32821428Y-40486071D01*
X33821428Y-38986071D02*
X33964285Y-38986071D01*
X34107142Y-39057500D01*
X34178571Y-39128928D01*
X34250000Y-39271785D01*
X34321428Y-39557500D01*
X34321428Y-39914642D01*
X34250000Y-40200357D01*
X34178571Y-40343214D01*
X34107142Y-40414642D01*
X33964285Y-40486071D01*
X33821428Y-40486071D01*
X33678571Y-40414642D01*
X33607142Y-40343214D01*
X33535714Y-40200357D01*
X33464285Y-39914642D01*
X33464285Y-39557500D01*
X33535714Y-39271785D01*
X33607142Y-39128928D01*
X33678571Y-39057500D01*
X33821428Y-38986071D01*
X34892857Y-39128928D02*
X34964285Y-39057500D01*
X35107142Y-38986071D01*
X35464285Y-38986071D01*
X35607142Y-39057500D01*
X35678571Y-39128928D01*
X35750000Y-39271785D01*
X35750000Y-39414642D01*
X35678571Y-39628928D01*
X34821428Y-40486071D01*
X35750000Y-40486071D01*
X36392857Y-40343214D02*
X36464285Y-40414642D01*
X36392857Y-40486071D01*
X36321428Y-40414642D01*
X36392857Y-40343214D01*
X36392857Y-40486071D01*
X37392857Y-38986071D02*
X37535714Y-38986071D01*
X37678571Y-39057500D01*
X37750000Y-39128928D01*
X37821428Y-39271785D01*
X37892857Y-39557500D01*
X37892857Y-39914642D01*
X37821428Y-40200357D01*
X37750000Y-40343214D01*
X37678571Y-40414642D01*
X37535714Y-40486071D01*
X37392857Y-40486071D01*
X37250000Y-40414642D01*
X37178571Y-40343214D01*
X37107142Y-40200357D01*
X37035714Y-39914642D01*
X37035714Y-39557500D01*
X37107142Y-39271785D01*
X37178571Y-39128928D01*
X37250000Y-39057500D01*
X37392857Y-38986071D01*
X38392857Y-38986071D02*
X39321428Y-38986071D01*
X38821428Y-39557500D01*
X39035714Y-39557500D01*
X39178571Y-39628928D01*
X39250000Y-39700357D01*
X39321428Y-39843214D01*
X39321428Y-40200357D01*
X39250000Y-40343214D01*
X39178571Y-40414642D01*
X39035714Y-40486071D01*
X38607142Y-40486071D01*
X38464285Y-40414642D01*
X38392857Y-40343214D01*
X41107142Y-39914642D02*
X42250000Y-39914642D01*
X44107142Y-40486071D02*
X44107142Y-38986071D01*
X44964285Y-40486071D01*
X44964285Y-38986071D01*
X45678571Y-40343214D02*
X45750000Y-40414642D01*
X45678571Y-40486071D01*
X45607142Y-40414642D01*
X45678571Y-40343214D01*
X45678571Y-40486071D01*
X46392857Y-40486071D02*
X46392857Y-38986071D01*
X46964285Y-38986071D01*
X47107142Y-39057500D01*
X47178571Y-39128928D01*
X47250000Y-39271785D01*
X47250000Y-39486071D01*
X47178571Y-39628928D01*
X47107142Y-39700357D01*
X46964285Y-39771785D01*
X46392857Y-39771785D01*
X47892857Y-40343214D02*
X47964285Y-40414642D01*
X47892857Y-40486071D01*
X47821428Y-40414642D01*
X47892857Y-40343214D01*
X47892857Y-40486071D01*
X34357142Y-42115357D02*
X34857142Y-42115357D01*
X35071428Y-42901071D02*
X34357142Y-42901071D01*
X34357142Y-41401071D01*
X35071428Y-41401071D01*
X35714285Y-42901071D02*
X35714285Y-41401071D01*
X36571428Y-42901071D01*
X36571428Y-41401071D01*
X37214285Y-42829642D02*
X37428571Y-42901071D01*
X37785714Y-42901071D01*
X37928571Y-42829642D01*
X38000000Y-42758214D01*
X38071428Y-42615357D01*
X38071428Y-42472500D01*
X38000000Y-42329642D01*
X37928571Y-42258214D01*
X37785714Y-42186785D01*
X37500000Y-42115357D01*
X37357142Y-42043928D01*
X37285714Y-41972500D01*
X37214285Y-41829642D01*
X37214285Y-41686785D01*
X37285714Y-41543928D01*
X37357142Y-41472500D01*
X37500000Y-41401071D01*
X37857142Y-41401071D01*
X38071428Y-41472500D01*
X38714285Y-42115357D02*
X39214285Y-42115357D01*
X39428571Y-42901071D02*
X38714285Y-42901071D01*
X38714285Y-41401071D01*
X39428571Y-41401071D01*
X40000000Y-42472500D02*
X40714285Y-42472500D01*
X39857142Y-42901071D02*
X40357142Y-41401071D01*
X40857142Y-42901071D01*
D11*
%TO.C,C4*%
X63207142Y-46816666D02*
X63254761Y-46864285D01*
X63302380Y-47007142D01*
X63302380Y-47102380D01*
X63254761Y-47245238D01*
X63159523Y-47340476D01*
X63064285Y-47388095D01*
X62873809Y-47435714D01*
X62730952Y-47435714D01*
X62540476Y-47388095D01*
X62445238Y-47340476D01*
X62350000Y-47245238D01*
X62302380Y-47102380D01*
X62302380Y-47007142D01*
X62350000Y-46864285D01*
X62397619Y-46816666D01*
X62635714Y-45959523D02*
X63302380Y-45959523D01*
X62254761Y-46197619D02*
X62969047Y-46435714D01*
X62969047Y-45816666D01*
%TO.C,H3*%
X79238095Y-76252380D02*
X79238095Y-75252380D01*
X79238095Y-75728571D02*
X79809523Y-75728571D01*
X79809523Y-76252380D02*
X79809523Y-75252380D01*
X80190476Y-75252380D02*
X80809523Y-75252380D01*
X80476190Y-75633333D01*
X80619047Y-75633333D01*
X80714285Y-75680952D01*
X80761904Y-75728571D01*
X80809523Y-75823809D01*
X80809523Y-76061904D01*
X80761904Y-76157142D01*
X80714285Y-76204761D01*
X80619047Y-76252380D01*
X80333333Y-76252380D01*
X80238095Y-76204761D01*
X80190476Y-76157142D01*
%TO.C,J3*%
X34666666Y-44502380D02*
X34666666Y-45216666D01*
X34619047Y-45359523D01*
X34523809Y-45454761D01*
X34380952Y-45502380D01*
X34285714Y-45502380D01*
X35047619Y-44502380D02*
X35666666Y-44502380D01*
X35333333Y-44883333D01*
X35476190Y-44883333D01*
X35571428Y-44930952D01*
X35619047Y-44978571D01*
X35666666Y-45073809D01*
X35666666Y-45311904D01*
X35619047Y-45407142D01*
X35571428Y-45454761D01*
X35476190Y-45502380D01*
X35190476Y-45502380D01*
X35095238Y-45454761D01*
X35047619Y-45407142D01*
%TO.C,J6*%
X55566666Y-72052380D02*
X55566666Y-72766666D01*
X55519047Y-72909523D01*
X55423809Y-73004761D01*
X55280952Y-73052380D01*
X55185714Y-73052380D01*
X56471428Y-72052380D02*
X56280952Y-72052380D01*
X56185714Y-72100000D01*
X56138095Y-72147619D01*
X56042857Y-72290476D01*
X55995238Y-72480952D01*
X55995238Y-72861904D01*
X56042857Y-72957142D01*
X56090476Y-73004761D01*
X56185714Y-73052380D01*
X56376190Y-73052380D01*
X56471428Y-73004761D01*
X56519047Y-72957142D01*
X56566666Y-72861904D01*
X56566666Y-72623809D01*
X56519047Y-72528571D01*
X56471428Y-72480952D01*
X56376190Y-72433333D01*
X56185714Y-72433333D01*
X56090476Y-72480952D01*
X56042857Y-72528571D01*
X55995238Y-72623809D01*
%TO.C,R1*%
X57533333Y-43882380D02*
X57200000Y-43406190D01*
X56961904Y-43882380D02*
X56961904Y-42882380D01*
X57342857Y-42882380D01*
X57438095Y-42930000D01*
X57485714Y-42977619D01*
X57533333Y-43072857D01*
X57533333Y-43215714D01*
X57485714Y-43310952D01*
X57438095Y-43358571D01*
X57342857Y-43406190D01*
X56961904Y-43406190D01*
X58485714Y-43882380D02*
X57914285Y-43882380D01*
X58200000Y-43882380D02*
X58200000Y-42882380D01*
X58104761Y-43025238D01*
X58009523Y-43120476D01*
X57914285Y-43168095D01*
%TO.C,R2*%
X42233333Y-48752380D02*
X41900000Y-48276190D01*
X41661904Y-48752380D02*
X41661904Y-47752380D01*
X42042857Y-47752380D01*
X42138095Y-47800000D01*
X42185714Y-47847619D01*
X42233333Y-47942857D01*
X42233333Y-48085714D01*
X42185714Y-48180952D01*
X42138095Y-48228571D01*
X42042857Y-48276190D01*
X41661904Y-48276190D01*
X42614285Y-47847619D02*
X42661904Y-47800000D01*
X42757142Y-47752380D01*
X42995238Y-47752380D01*
X43090476Y-47800000D01*
X43138095Y-47847619D01*
X43185714Y-47942857D01*
X43185714Y-48038095D01*
X43138095Y-48180952D01*
X42566666Y-48752380D01*
X43185714Y-48752380D01*
%TO.C,R6*%
X47433333Y-60252380D02*
X47100000Y-59776190D01*
X46861904Y-60252380D02*
X46861904Y-59252380D01*
X47242857Y-59252380D01*
X47338095Y-59300000D01*
X47385714Y-59347619D01*
X47433333Y-59442857D01*
X47433333Y-59585714D01*
X47385714Y-59680952D01*
X47338095Y-59728571D01*
X47242857Y-59776190D01*
X46861904Y-59776190D01*
X48290476Y-59252380D02*
X48100000Y-59252380D01*
X48004761Y-59300000D01*
X47957142Y-59347619D01*
X47861904Y-59490476D01*
X47814285Y-59680952D01*
X47814285Y-60061904D01*
X47861904Y-60157142D01*
X47909523Y-60204761D01*
X48004761Y-60252380D01*
X48195238Y-60252380D01*
X48290476Y-60204761D01*
X48338095Y-60157142D01*
X48385714Y-60061904D01*
X48385714Y-59823809D01*
X48338095Y-59728571D01*
X48290476Y-59680952D01*
X48195238Y-59633333D01*
X48004761Y-59633333D01*
X47909523Y-59680952D01*
X47861904Y-59728571D01*
X47814285Y-59823809D01*
%TO.C,C8*%
X58833333Y-62787142D02*
X58785714Y-62834761D01*
X58642857Y-62882380D01*
X58547619Y-62882380D01*
X58404761Y-62834761D01*
X58309523Y-62739523D01*
X58261904Y-62644285D01*
X58214285Y-62453809D01*
X58214285Y-62310952D01*
X58261904Y-62120476D01*
X58309523Y-62025238D01*
X58404761Y-61930000D01*
X58547619Y-61882380D01*
X58642857Y-61882380D01*
X58785714Y-61930000D01*
X58833333Y-61977619D01*
X59404761Y-62310952D02*
X59309523Y-62263333D01*
X59261904Y-62215714D01*
X59214285Y-62120476D01*
X59214285Y-62072857D01*
X59261904Y-61977619D01*
X59309523Y-61930000D01*
X59404761Y-61882380D01*
X59595238Y-61882380D01*
X59690476Y-61930000D01*
X59738095Y-61977619D01*
X59785714Y-62072857D01*
X59785714Y-62120476D01*
X59738095Y-62215714D01*
X59690476Y-62263333D01*
X59595238Y-62310952D01*
X59404761Y-62310952D01*
X59309523Y-62358571D01*
X59261904Y-62406190D01*
X59214285Y-62501428D01*
X59214285Y-62691904D01*
X59261904Y-62787142D01*
X59309523Y-62834761D01*
X59404761Y-62882380D01*
X59595238Y-62882380D01*
X59690476Y-62834761D01*
X59738095Y-62787142D01*
X59785714Y-62691904D01*
X59785714Y-62501428D01*
X59738095Y-62406190D01*
X59690476Y-62358571D01*
X59595238Y-62310952D01*
%TO.C,H2*%
X79238095Y-26252380D02*
X79238095Y-25252380D01*
X79238095Y-25728571D02*
X79809523Y-25728571D01*
X79809523Y-26252380D02*
X79809523Y-25252380D01*
X80238095Y-25347619D02*
X80285714Y-25300000D01*
X80380952Y-25252380D01*
X80619047Y-25252380D01*
X80714285Y-25300000D01*
X80761904Y-25347619D01*
X80809523Y-25442857D01*
X80809523Y-25538095D01*
X80761904Y-25680952D01*
X80190476Y-26252380D01*
X80809523Y-26252380D01*
%TO.C,R5*%
X47433333Y-63452380D02*
X47100000Y-62976190D01*
X46861904Y-63452380D02*
X46861904Y-62452380D01*
X47242857Y-62452380D01*
X47338095Y-62500000D01*
X47385714Y-62547619D01*
X47433333Y-62642857D01*
X47433333Y-62785714D01*
X47385714Y-62880952D01*
X47338095Y-62928571D01*
X47242857Y-62976190D01*
X46861904Y-62976190D01*
X48338095Y-62452380D02*
X47861904Y-62452380D01*
X47814285Y-62928571D01*
X47861904Y-62880952D01*
X47957142Y-62833333D01*
X48195238Y-62833333D01*
X48290476Y-62880952D01*
X48338095Y-62928571D01*
X48385714Y-63023809D01*
X48385714Y-63261904D01*
X48338095Y-63357142D01*
X48290476Y-63404761D01*
X48195238Y-63452380D01*
X47957142Y-63452380D01*
X47861904Y-63404761D01*
X47814285Y-63357142D01*
%TO.C,C7*%
X61857142Y-62866666D02*
X61904761Y-62914285D01*
X61952380Y-63057142D01*
X61952380Y-63152380D01*
X61904761Y-63295238D01*
X61809523Y-63390476D01*
X61714285Y-63438095D01*
X61523809Y-63485714D01*
X61380952Y-63485714D01*
X61190476Y-63438095D01*
X61095238Y-63390476D01*
X61000000Y-63295238D01*
X60952380Y-63152380D01*
X60952380Y-63057142D01*
X61000000Y-62914285D01*
X61047619Y-62866666D01*
X60952380Y-62533333D02*
X60952380Y-61866666D01*
X61952380Y-62295238D01*
%TO.C,R3*%
X47433333Y-61852380D02*
X47100000Y-61376190D01*
X46861904Y-61852380D02*
X46861904Y-60852380D01*
X47242857Y-60852380D01*
X47338095Y-60900000D01*
X47385714Y-60947619D01*
X47433333Y-61042857D01*
X47433333Y-61185714D01*
X47385714Y-61280952D01*
X47338095Y-61328571D01*
X47242857Y-61376190D01*
X46861904Y-61376190D01*
X47766666Y-60852380D02*
X48385714Y-60852380D01*
X48052380Y-61233333D01*
X48195238Y-61233333D01*
X48290476Y-61280952D01*
X48338095Y-61328571D01*
X48385714Y-61423809D01*
X48385714Y-61661904D01*
X48338095Y-61757142D01*
X48290476Y-61804761D01*
X48195238Y-61852380D01*
X47909523Y-61852380D01*
X47814285Y-61804761D01*
X47766666Y-61757142D01*
%TO.C,C1*%
X57033333Y-35757142D02*
X56985714Y-35804761D01*
X56842857Y-35852380D01*
X56747619Y-35852380D01*
X56604761Y-35804761D01*
X56509523Y-35709523D01*
X56461904Y-35614285D01*
X56414285Y-35423809D01*
X56414285Y-35280952D01*
X56461904Y-35090476D01*
X56509523Y-34995238D01*
X56604761Y-34900000D01*
X56747619Y-34852380D01*
X56842857Y-34852380D01*
X56985714Y-34900000D01*
X57033333Y-34947619D01*
X57985714Y-35852380D02*
X57414285Y-35852380D01*
X57700000Y-35852380D02*
X57700000Y-34852380D01*
X57604761Y-34995238D01*
X57509523Y-35090476D01*
X57414285Y-35138095D01*
%TO.C,J4*%
X55566666Y-77052380D02*
X55566666Y-77766666D01*
X55519047Y-77909523D01*
X55423809Y-78004761D01*
X55280952Y-78052380D01*
X55185714Y-78052380D01*
X56471428Y-77385714D02*
X56471428Y-78052380D01*
X56233333Y-77004761D02*
X55995238Y-77719047D01*
X56614285Y-77719047D01*
%TO.C,J5*%
X55566666Y-67052380D02*
X55566666Y-67766666D01*
X55519047Y-67909523D01*
X55423809Y-68004761D01*
X55280952Y-68052380D01*
X55185714Y-68052380D01*
X56519047Y-67052380D02*
X56042857Y-67052380D01*
X55995238Y-67528571D01*
X56042857Y-67480952D01*
X56138095Y-67433333D01*
X56376190Y-67433333D01*
X56471428Y-67480952D01*
X56519047Y-67528571D01*
X56566666Y-67623809D01*
X56566666Y-67861904D01*
X56519047Y-67957142D01*
X56471428Y-68004761D01*
X56376190Y-68052380D01*
X56138095Y-68052380D01*
X56042857Y-68004761D01*
X55995238Y-67957142D01*
%TO.C,H4*%
X29238095Y-76252380D02*
X29238095Y-75252380D01*
X29238095Y-75728571D02*
X29809523Y-75728571D01*
X29809523Y-76252380D02*
X29809523Y-75252380D01*
X30714285Y-75585714D02*
X30714285Y-76252380D01*
X30476190Y-75204761D02*
X30238095Y-75919047D01*
X30857142Y-75919047D01*
%TO.C,R7*%
X39652380Y-58966666D02*
X39176190Y-59300000D01*
X39652380Y-59538095D02*
X38652380Y-59538095D01*
X38652380Y-59157142D01*
X38700000Y-59061904D01*
X38747619Y-59014285D01*
X38842857Y-58966666D01*
X38985714Y-58966666D01*
X39080952Y-59014285D01*
X39128571Y-59061904D01*
X39176190Y-59157142D01*
X39176190Y-59538095D01*
X38652380Y-58633333D02*
X38652380Y-57966666D01*
X39652380Y-58395238D01*
%TO.C,C6*%
X64657142Y-44766666D02*
X64704761Y-44814285D01*
X64752380Y-44957142D01*
X64752380Y-45052380D01*
X64704761Y-45195238D01*
X64609523Y-45290476D01*
X64514285Y-45338095D01*
X64323809Y-45385714D01*
X64180952Y-45385714D01*
X63990476Y-45338095D01*
X63895238Y-45290476D01*
X63800000Y-45195238D01*
X63752380Y-45052380D01*
X63752380Y-44957142D01*
X63800000Y-44814285D01*
X63847619Y-44766666D01*
X63752380Y-43909523D02*
X63752380Y-44100000D01*
X63800000Y-44195238D01*
X63847619Y-44242857D01*
X63990476Y-44338095D01*
X64180952Y-44385714D01*
X64561904Y-44385714D01*
X64657142Y-44338095D01*
X64704761Y-44290476D01*
X64752380Y-44195238D01*
X64752380Y-44004761D01*
X64704761Y-43909523D01*
X64657142Y-43861904D01*
X64561904Y-43814285D01*
X64323809Y-43814285D01*
X64228571Y-43861904D01*
X64180952Y-43909523D01*
X64133333Y-44004761D01*
X64133333Y-44195238D01*
X64180952Y-44290476D01*
X64228571Y-44338095D01*
X64323809Y-44385714D01*
%TO.C,D1*%
X44061904Y-48752380D02*
X44061904Y-47752380D01*
X44300000Y-47752380D01*
X44442857Y-47800000D01*
X44538095Y-47895238D01*
X44585714Y-47990476D01*
X44633333Y-48180952D01*
X44633333Y-48323809D01*
X44585714Y-48514285D01*
X44538095Y-48609523D01*
X44442857Y-48704761D01*
X44300000Y-48752380D01*
X44061904Y-48752380D01*
X45585714Y-48752380D02*
X45014285Y-48752380D01*
X45300000Y-48752380D02*
X45300000Y-47752380D01*
X45204761Y-47895238D01*
X45109523Y-47990476D01*
X45014285Y-48038095D01*
%TO.C,D2*%
X56661904Y-66052380D02*
X56661904Y-65052380D01*
X56900000Y-65052380D01*
X57042857Y-65100000D01*
X57138095Y-65195238D01*
X57185714Y-65290476D01*
X57233333Y-65480952D01*
X57233333Y-65623809D01*
X57185714Y-65814285D01*
X57138095Y-65909523D01*
X57042857Y-66004761D01*
X56900000Y-66052380D01*
X56661904Y-66052380D01*
X57614285Y-65147619D02*
X57661904Y-65100000D01*
X57757142Y-65052380D01*
X57995238Y-65052380D01*
X58090476Y-65100000D01*
X58138095Y-65147619D01*
X58185714Y-65242857D01*
X58185714Y-65338095D01*
X58138095Y-65480952D01*
X57566666Y-66052380D01*
X58185714Y-66052380D01*
%TO.C,R4*%
X47433333Y-58652380D02*
X47100000Y-58176190D01*
X46861904Y-58652380D02*
X46861904Y-57652380D01*
X47242857Y-57652380D01*
X47338095Y-57700000D01*
X47385714Y-57747619D01*
X47433333Y-57842857D01*
X47433333Y-57985714D01*
X47385714Y-58080952D01*
X47338095Y-58128571D01*
X47242857Y-58176190D01*
X46861904Y-58176190D01*
X48290476Y-57985714D02*
X48290476Y-58652380D01*
X48052380Y-57604761D02*
X47814285Y-58319047D01*
X48433333Y-58319047D01*
%TO.C,J2*%
X29666666Y-43452380D02*
X29666666Y-44166666D01*
X29619047Y-44309523D01*
X29523809Y-44404761D01*
X29380952Y-44452380D01*
X29285714Y-44452380D01*
X30095238Y-43547619D02*
X30142857Y-43500000D01*
X30238095Y-43452380D01*
X30476190Y-43452380D01*
X30571428Y-43500000D01*
X30619047Y-43547619D01*
X30666666Y-43642857D01*
X30666666Y-43738095D01*
X30619047Y-43880952D01*
X30047619Y-44452380D01*
X30666666Y-44452380D01*
%TO.C,J8*%
X72166666Y-45952380D02*
X72166666Y-46666666D01*
X72119047Y-46809523D01*
X72023809Y-46904761D01*
X71880952Y-46952380D01*
X71785714Y-46952380D01*
X72785714Y-46380952D02*
X72690476Y-46333333D01*
X72642857Y-46285714D01*
X72595238Y-46190476D01*
X72595238Y-46142857D01*
X72642857Y-46047619D01*
X72690476Y-46000000D01*
X72785714Y-45952380D01*
X72976190Y-45952380D01*
X73071428Y-46000000D01*
X73119047Y-46047619D01*
X73166666Y-46142857D01*
X73166666Y-46190476D01*
X73119047Y-46285714D01*
X73071428Y-46333333D01*
X72976190Y-46380952D01*
X72785714Y-46380952D01*
X72690476Y-46428571D01*
X72642857Y-46476190D01*
X72595238Y-46571428D01*
X72595238Y-46761904D01*
X72642857Y-46857142D01*
X72690476Y-46904761D01*
X72785714Y-46952380D01*
X72976190Y-46952380D01*
X73071428Y-46904761D01*
X73119047Y-46857142D01*
X73166666Y-46761904D01*
X73166666Y-46571428D01*
X73119047Y-46476190D01*
X73071428Y-46428571D01*
X72976190Y-46380952D01*
%TO.C,R9*%
X67833333Y-52952380D02*
X67500000Y-52476190D01*
X67261904Y-52952380D02*
X67261904Y-51952380D01*
X67642857Y-51952380D01*
X67738095Y-52000000D01*
X67785714Y-52047619D01*
X67833333Y-52142857D01*
X67833333Y-52285714D01*
X67785714Y-52380952D01*
X67738095Y-52428571D01*
X67642857Y-52476190D01*
X67261904Y-52476190D01*
X68309523Y-52952380D02*
X68500000Y-52952380D01*
X68595238Y-52904761D01*
X68642857Y-52857142D01*
X68738095Y-52714285D01*
X68785714Y-52523809D01*
X68785714Y-52142857D01*
X68738095Y-52047619D01*
X68690476Y-52000000D01*
X68595238Y-51952380D01*
X68404761Y-51952380D01*
X68309523Y-52000000D01*
X68261904Y-52047619D01*
X68214285Y-52142857D01*
X68214285Y-52380952D01*
X68261904Y-52476190D01*
X68309523Y-52523809D01*
X68404761Y-52571428D01*
X68595238Y-52571428D01*
X68690476Y-52523809D01*
X68738095Y-52476190D01*
X68785714Y-52380952D01*
%TO.C,R10*%
X57257142Y-64552380D02*
X56923809Y-64076190D01*
X56685714Y-64552380D02*
X56685714Y-63552380D01*
X57066666Y-63552380D01*
X57161904Y-63600000D01*
X57209523Y-63647619D01*
X57257142Y-63742857D01*
X57257142Y-63885714D01*
X57209523Y-63980952D01*
X57161904Y-64028571D01*
X57066666Y-64076190D01*
X56685714Y-64076190D01*
X58209523Y-64552380D02*
X57638095Y-64552380D01*
X57923809Y-64552380D02*
X57923809Y-63552380D01*
X57828571Y-63695238D01*
X57733333Y-63790476D01*
X57638095Y-63838095D01*
X58828571Y-63552380D02*
X58923809Y-63552380D01*
X59019047Y-63600000D01*
X59066666Y-63647619D01*
X59114285Y-63742857D01*
X59161904Y-63933333D01*
X59161904Y-64171428D01*
X59114285Y-64361904D01*
X59066666Y-64457142D01*
X59019047Y-64504761D01*
X58923809Y-64552380D01*
X58828571Y-64552380D01*
X58733333Y-64504761D01*
X58685714Y-64457142D01*
X58638095Y-64361904D01*
X58590476Y-64171428D01*
X58590476Y-63933333D01*
X58638095Y-63742857D01*
X58685714Y-63647619D01*
X58733333Y-63600000D01*
X58828571Y-63552380D01*
%TO.C,U1*%
X54238095Y-60152380D02*
X54238095Y-60961904D01*
X54285714Y-61057142D01*
X54333333Y-61104761D01*
X54428571Y-61152380D01*
X54619047Y-61152380D01*
X54714285Y-61104761D01*
X54761904Y-61057142D01*
X54809523Y-60961904D01*
X54809523Y-60152380D01*
X55809523Y-61152380D02*
X55238095Y-61152380D01*
X55523809Y-61152380D02*
X55523809Y-60152380D01*
X55428571Y-60295238D01*
X55333333Y-60390476D01*
X55238095Y-60438095D01*
%TO.C,J7*%
X79666666Y-47152380D02*
X79666666Y-47866666D01*
X79619047Y-48009523D01*
X79523809Y-48104761D01*
X79380952Y-48152380D01*
X79285714Y-48152380D01*
X80047619Y-47152380D02*
X80714285Y-47152380D01*
X80285714Y-48152380D01*
%TO.C,C2*%
X39833333Y-48657142D02*
X39785714Y-48704761D01*
X39642857Y-48752380D01*
X39547619Y-48752380D01*
X39404761Y-48704761D01*
X39309523Y-48609523D01*
X39261904Y-48514285D01*
X39214285Y-48323809D01*
X39214285Y-48180952D01*
X39261904Y-47990476D01*
X39309523Y-47895238D01*
X39404761Y-47800000D01*
X39547619Y-47752380D01*
X39642857Y-47752380D01*
X39785714Y-47800000D01*
X39833333Y-47847619D01*
X40214285Y-47847619D02*
X40261904Y-47800000D01*
X40357142Y-47752380D01*
X40595238Y-47752380D01*
X40690476Y-47800000D01*
X40738095Y-47847619D01*
X40785714Y-47942857D01*
X40785714Y-48038095D01*
X40738095Y-48180952D01*
X40166666Y-48752380D01*
X40785714Y-48752380D01*
%TO.C,J1*%
X54666666Y-25902380D02*
X54666666Y-26616666D01*
X54619047Y-26759523D01*
X54523809Y-26854761D01*
X54380952Y-26902380D01*
X54285714Y-26902380D01*
X55666666Y-26902380D02*
X55095238Y-26902380D01*
X55380952Y-26902380D02*
X55380952Y-25902380D01*
X55285714Y-26045238D01*
X55190476Y-26140476D01*
X55095238Y-26188095D01*
%TO.C,H1*%
X29238095Y-26252380D02*
X29238095Y-25252380D01*
X29238095Y-25728571D02*
X29809523Y-25728571D01*
X29809523Y-26252380D02*
X29809523Y-25252380D01*
X30809523Y-26252380D02*
X30238095Y-26252380D01*
X30523809Y-26252380D02*
X30523809Y-25252380D01*
X30428571Y-25395238D01*
X30333333Y-25490476D01*
X30238095Y-25538095D01*
%TO.C,C3*%
X63357142Y-62866666D02*
X63404761Y-62914285D01*
X63452380Y-63057142D01*
X63452380Y-63152380D01*
X63404761Y-63295238D01*
X63309523Y-63390476D01*
X63214285Y-63438095D01*
X63023809Y-63485714D01*
X62880952Y-63485714D01*
X62690476Y-63438095D01*
X62595238Y-63390476D01*
X62500000Y-63295238D01*
X62452380Y-63152380D01*
X62452380Y-63057142D01*
X62500000Y-62914285D01*
X62547619Y-62866666D01*
X62452380Y-62533333D02*
X62452380Y-61914285D01*
X62833333Y-62247619D01*
X62833333Y-62104761D01*
X62880952Y-62009523D01*
X62928571Y-61961904D01*
X63023809Y-61914285D01*
X63261904Y-61914285D01*
X63357142Y-61961904D01*
X63404761Y-62009523D01*
X63452380Y-62104761D01*
X63452380Y-62390476D01*
X63404761Y-62485714D01*
X63357142Y-62533333D01*
%TO.C,C9*%
X51637142Y-48966666D02*
X51684761Y-49014285D01*
X51732380Y-49157142D01*
X51732380Y-49252380D01*
X51684761Y-49395238D01*
X51589523Y-49490476D01*
X51494285Y-49538095D01*
X51303809Y-49585714D01*
X51160952Y-49585714D01*
X50970476Y-49538095D01*
X50875238Y-49490476D01*
X50780000Y-49395238D01*
X50732380Y-49252380D01*
X50732380Y-49157142D01*
X50780000Y-49014285D01*
X50827619Y-48966666D01*
X51732380Y-48490476D02*
X51732380Y-48300000D01*
X51684761Y-48204761D01*
X51637142Y-48157142D01*
X51494285Y-48061904D01*
X51303809Y-48014285D01*
X50922857Y-48014285D01*
X50827619Y-48061904D01*
X50780000Y-48109523D01*
X50732380Y-48204761D01*
X50732380Y-48395238D01*
X50780000Y-48490476D01*
X50827619Y-48538095D01*
X50922857Y-48585714D01*
X51160952Y-48585714D01*
X51256190Y-48538095D01*
X51303809Y-48490476D01*
X51351428Y-48395238D01*
X51351428Y-48204761D01*
X51303809Y-48109523D01*
X51256190Y-48061904D01*
X51160952Y-48014285D01*
%TO.C,R8*%
X66583333Y-54882380D02*
X66250000Y-54406190D01*
X66011904Y-54882380D02*
X66011904Y-53882380D01*
X66392857Y-53882380D01*
X66488095Y-53930000D01*
X66535714Y-53977619D01*
X66583333Y-54072857D01*
X66583333Y-54215714D01*
X66535714Y-54310952D01*
X66488095Y-54358571D01*
X66392857Y-54406190D01*
X66011904Y-54406190D01*
X67154761Y-54310952D02*
X67059523Y-54263333D01*
X67011904Y-54215714D01*
X66964285Y-54120476D01*
X66964285Y-54072857D01*
X67011904Y-53977619D01*
X67059523Y-53930000D01*
X67154761Y-53882380D01*
X67345238Y-53882380D01*
X67440476Y-53930000D01*
X67488095Y-53977619D01*
X67535714Y-54072857D01*
X67535714Y-54120476D01*
X67488095Y-54215714D01*
X67440476Y-54263333D01*
X67345238Y-54310952D01*
X67154761Y-54310952D01*
X67059523Y-54358571D01*
X67011904Y-54406190D01*
X66964285Y-54501428D01*
X66964285Y-54691904D01*
X67011904Y-54787142D01*
X67059523Y-54834761D01*
X67154761Y-54882380D01*
X67345238Y-54882380D01*
X67440476Y-54834761D01*
X67488095Y-54787142D01*
X67535714Y-54691904D01*
X67535714Y-54501428D01*
X67488095Y-54406190D01*
X67440476Y-54358571D01*
X67345238Y-54310952D01*
%TO.C,C5*%
X68457142Y-64366666D02*
X68504761Y-64414285D01*
X68552380Y-64557142D01*
X68552380Y-64652380D01*
X68504761Y-64795238D01*
X68409523Y-64890476D01*
X68314285Y-64938095D01*
X68123809Y-64985714D01*
X67980952Y-64985714D01*
X67790476Y-64938095D01*
X67695238Y-64890476D01*
X67600000Y-64795238D01*
X67552380Y-64652380D01*
X67552380Y-64557142D01*
X67600000Y-64414285D01*
X67647619Y-64366666D01*
X67552380Y-63461904D02*
X67552380Y-63938095D01*
X68028571Y-63985714D01*
X67980952Y-63938095D01*
X67933333Y-63842857D01*
X67933333Y-63604761D01*
X67980952Y-63509523D01*
X68028571Y-63461904D01*
X68123809Y-63414285D01*
X68361904Y-63414285D01*
X68457142Y-63461904D01*
X68504761Y-63509523D01*
X68552380Y-63604761D01*
X68552380Y-63842857D01*
X68504761Y-63938095D01*
X68457142Y-63985714D01*
D12*
%TO.C,C4*%
X63310000Y-49646267D02*
X63310000Y-49353733D01*
X62290000Y-49646267D02*
X62290000Y-49353733D01*
%TO.C,J3*%
X33670000Y-48650000D02*
X36330000Y-48650000D01*
X33670000Y-48650000D02*
X33670000Y-63950000D01*
X33670000Y-63950000D02*
X36330000Y-63950000D01*
X33670000Y-47380000D02*
X33670000Y-46050000D01*
X33670000Y-46050000D02*
X35000000Y-46050000D01*
X36330000Y-48650000D02*
X36330000Y-63950000D01*
%TO.C,J6*%
X52070000Y-76330000D02*
X62290000Y-76330000D01*
X52070000Y-73670000D02*
X62290000Y-73670000D01*
X62290000Y-76330000D02*
X62290000Y-73670000D01*
X50800000Y-76330000D02*
X49470000Y-76330000D01*
X52070000Y-76330000D02*
X52070000Y-73670000D01*
X49470000Y-76330000D02*
X49470000Y-75000000D01*
%TO.C,R1*%
X57954724Y-41477500D02*
X57445276Y-41477500D01*
X57954724Y-42522500D02*
X57445276Y-42522500D01*
%TO.C,R2*%
X42922500Y-50879724D02*
X42922500Y-50370276D01*
X41877500Y-50879724D02*
X41877500Y-50370276D01*
%TO.C,R6*%
X44745276Y-61922500D02*
X45254724Y-61922500D01*
X44745276Y-60877500D02*
X45254724Y-60877500D01*
%TO.C,C8*%
X59146267Y-60490000D02*
X58853733Y-60490000D01*
X59146267Y-61510000D02*
X58853733Y-61510000D01*
%TO.C,R5*%
X45254724Y-63522500D02*
X44745276Y-63522500D01*
X45254724Y-62477500D02*
X44745276Y-62477500D01*
%TO.C,C7*%
X62010000Y-59853733D02*
X62010000Y-60146267D01*
X60990000Y-59853733D02*
X60990000Y-60146267D01*
%TO.C,R3*%
X45254724Y-60322500D02*
X44745276Y-60322500D01*
X45254724Y-59277500D02*
X44745276Y-59277500D01*
%TO.C,C1*%
X54940000Y-37404437D02*
X54940000Y-37540000D01*
X54450000Y-36790000D02*
X54450000Y-37290000D01*
X59460000Y-36340000D02*
X59460000Y-37540000D01*
X54200000Y-37040000D02*
X54700000Y-37040000D01*
X59460000Y-40860000D02*
X59460000Y-39660000D01*
X54940000Y-39795563D02*
X56004437Y-40860000D01*
X54940000Y-37404437D02*
X56004437Y-36340000D01*
X54940000Y-39795563D02*
X54940000Y-39660000D01*
X56004437Y-36340000D02*
X59460000Y-36340000D01*
X56004437Y-40860000D02*
X59460000Y-40860000D01*
%TO.C,J4*%
X49470000Y-81330000D02*
X49470000Y-80000000D01*
X62290000Y-81330000D02*
X62290000Y-78670000D01*
X52070000Y-81330000D02*
X52070000Y-78670000D01*
X52070000Y-78670000D02*
X62290000Y-78670000D01*
X52070000Y-81330000D02*
X62290000Y-81330000D01*
X50800000Y-81330000D02*
X49470000Y-81330000D01*
%TO.C,J5*%
X52070000Y-71330000D02*
X62290000Y-71330000D01*
X49470000Y-71330000D02*
X49470000Y-70000000D01*
X52070000Y-68670000D02*
X62290000Y-68670000D01*
X52070000Y-71330000D02*
X52070000Y-68670000D01*
X50800000Y-71330000D02*
X49470000Y-71330000D01*
X62290000Y-71330000D02*
X62290000Y-68670000D01*
%TO.C,R7*%
X37177500Y-59054724D02*
X37177500Y-58545276D01*
X38222500Y-59054724D02*
X38222500Y-58545276D01*
%TO.C,C6*%
X67195563Y-50260000D02*
X67060000Y-50260000D01*
X64190000Y-50750000D02*
X64690000Y-50750000D01*
X68260000Y-45740000D02*
X67060000Y-45740000D01*
X64804437Y-50260000D02*
X64940000Y-50260000D01*
X64440000Y-51000000D02*
X64440000Y-50500000D01*
X63740000Y-45740000D02*
X64940000Y-45740000D01*
X68260000Y-49195563D02*
X68260000Y-45740000D01*
X67195563Y-50260000D02*
X68260000Y-49195563D01*
X63740000Y-49195563D02*
X63740000Y-45740000D01*
X64804437Y-50260000D02*
X63740000Y-49195563D01*
%TO.C,D1*%
X43265000Y-49825000D02*
X43265000Y-52285000D01*
X43265000Y-52285000D02*
X44735000Y-52285000D01*
X44735000Y-52285000D02*
X44735000Y-49825000D01*
%TO.C,D2*%
X55612500Y-64846250D02*
X53152500Y-64846250D01*
X53152500Y-64846250D02*
X53152500Y-66316250D01*
X53152500Y-66316250D02*
X55612500Y-66316250D01*
%TO.C,R4*%
X44745276Y-57677500D02*
X45254724Y-57677500D01*
X44745276Y-58722500D02*
X45254724Y-58722500D01*
%TO.C,J2*%
X32450000Y-48250000D02*
X31700000Y-48250000D01*
X27250000Y-45700000D02*
X27250000Y-55000000D01*
X31700000Y-61750000D02*
X32450000Y-61750000D01*
X32460000Y-65060000D02*
X32460000Y-44940000D01*
X32750000Y-45900000D02*
X32750000Y-44650000D01*
X32450000Y-65050000D02*
X32450000Y-63250000D01*
X30200000Y-65050000D02*
X30200000Y-64300000D01*
X32450000Y-44950000D02*
X31700000Y-44950000D01*
X30200000Y-44950000D02*
X30200000Y-45700000D01*
X32750000Y-44650000D02*
X31500000Y-44650000D01*
X31700000Y-44950000D02*
X31700000Y-46750000D01*
X30200000Y-45700000D02*
X27250000Y-45700000D01*
X30200000Y-64300000D02*
X27250000Y-64300000D01*
X32460000Y-44940000D02*
X26490000Y-44940000D01*
X27250000Y-64300000D02*
X27250000Y-55000000D01*
X32450000Y-61750000D02*
X32450000Y-48250000D01*
X31700000Y-65050000D02*
X32450000Y-65050000D01*
X32450000Y-63250000D02*
X31700000Y-63250000D01*
X26490000Y-44940000D02*
X26490000Y-65060000D01*
X31700000Y-46750000D02*
X32450000Y-46750000D01*
X31700000Y-63250000D02*
X31700000Y-65050000D01*
X32450000Y-46750000D02*
X32450000Y-44950000D01*
X26490000Y-65060000D02*
X32460000Y-65060000D01*
X31700000Y-48250000D02*
X31700000Y-61750000D01*
%TO.C,J8*%
X70040000Y-62560000D02*
X76010000Y-62560000D01*
X70800000Y-62550000D02*
X70800000Y-60750000D01*
X69750000Y-61600000D02*
X69750000Y-62850000D01*
X70050000Y-60750000D02*
X70050000Y-62550000D01*
X75250000Y-48200000D02*
X75250000Y-55000000D01*
X69750000Y-62850000D02*
X71000000Y-62850000D01*
X70800000Y-47450000D02*
X70050000Y-47450000D01*
X70050000Y-47450000D02*
X70050000Y-49250000D01*
X76010000Y-47440000D02*
X70040000Y-47440000D01*
X70800000Y-50750000D02*
X70050000Y-50750000D01*
X76010000Y-62560000D02*
X76010000Y-47440000D01*
X70050000Y-50750000D02*
X70050000Y-59250000D01*
X70800000Y-49250000D02*
X70800000Y-47450000D01*
X72300000Y-48200000D02*
X75250000Y-48200000D01*
X72300000Y-47450000D02*
X72300000Y-48200000D01*
X70040000Y-47440000D02*
X70040000Y-62560000D01*
X70050000Y-59250000D02*
X70800000Y-59250000D01*
X75250000Y-61800000D02*
X75250000Y-55000000D01*
X70800000Y-60750000D02*
X70050000Y-60750000D01*
X70050000Y-62550000D02*
X70800000Y-62550000D01*
X70800000Y-59250000D02*
X70800000Y-50750000D01*
X72300000Y-62550000D02*
X72300000Y-61800000D01*
X72300000Y-61800000D02*
X75250000Y-61800000D01*
X70050000Y-49250000D02*
X70800000Y-49250000D01*
%TO.C,R9*%
X63772936Y-51590000D02*
X65227064Y-51590000D01*
X63772936Y-53410000D02*
X65227064Y-53410000D01*
%TO.C,R10*%
X55092224Y-64503750D02*
X54582776Y-64503750D01*
X55092224Y-63458750D02*
X54582776Y-63458750D01*
%TO.C,U1*%
X52690000Y-50040000D02*
X52690000Y-50315000D01*
X55000000Y-50040000D02*
X52690000Y-50040000D01*
X57310000Y-50040000D02*
X57310000Y-50315000D01*
X55000000Y-59960000D02*
X52690000Y-59960000D01*
X57310000Y-59685000D02*
X58600000Y-59685000D01*
X55000000Y-59960000D02*
X57310000Y-59960000D01*
X52690000Y-59960000D02*
X52690000Y-59685000D01*
X57310000Y-59960000D02*
X57310000Y-59685000D01*
X55000000Y-50040000D02*
X57310000Y-50040000D01*
%TO.C,J7*%
X78300000Y-59500000D02*
X77550000Y-59500000D01*
X78300000Y-50500000D02*
X78300000Y-48700000D01*
X83510000Y-48690000D02*
X77540000Y-48690000D01*
X77250000Y-60350000D02*
X77250000Y-61600000D01*
X83510000Y-61310000D02*
X83510000Y-48690000D01*
X79800000Y-61300000D02*
X79800000Y-60550000D01*
X78300000Y-61300000D02*
X78300000Y-59500000D01*
X82750000Y-49450000D02*
X82750000Y-55000000D01*
X77550000Y-61300000D02*
X78300000Y-61300000D01*
X79800000Y-49450000D02*
X82750000Y-49450000D01*
X77540000Y-61310000D02*
X83510000Y-61310000D01*
X78300000Y-52000000D02*
X77550000Y-52000000D01*
X77540000Y-48690000D02*
X77540000Y-61310000D01*
X79800000Y-60550000D02*
X82750000Y-60550000D01*
X82750000Y-60550000D02*
X82750000Y-55000000D01*
X78300000Y-48700000D02*
X77550000Y-48700000D01*
X77550000Y-59500000D02*
X77550000Y-61300000D01*
X77550000Y-50500000D02*
X78300000Y-50500000D01*
X77250000Y-61600000D02*
X78500000Y-61600000D01*
X77550000Y-48700000D02*
X77550000Y-50500000D01*
X79800000Y-48700000D02*
X79800000Y-49450000D01*
X77550000Y-58000000D02*
X78300000Y-58000000D01*
X77550000Y-52000000D02*
X77550000Y-58000000D01*
X78300000Y-58000000D02*
X78300000Y-52000000D01*
%TO.C,C2*%
X40290000Y-50771267D02*
X40290000Y-50478733D01*
X41310000Y-50771267D02*
X41310000Y-50478733D01*
%TO.C,J1*%
X51750000Y-28300000D02*
X51750000Y-27550000D01*
X53250000Y-28300000D02*
X56750000Y-28300000D01*
X60050000Y-28300000D02*
X60050000Y-27550000D01*
X56750000Y-28300000D02*
X56750000Y-27550000D01*
X60060000Y-33510000D02*
X60060000Y-27540000D01*
X50700000Y-29800000D02*
X50700000Y-32750000D01*
X49940000Y-27540000D02*
X49940000Y-33510000D01*
X60060000Y-27540000D02*
X49940000Y-27540000D01*
X60050000Y-27550000D02*
X58250000Y-27550000D01*
X49650000Y-27250000D02*
X49650000Y-28500000D01*
X49950000Y-29800000D02*
X50700000Y-29800000D01*
X58250000Y-27550000D02*
X58250000Y-28300000D01*
X56750000Y-27550000D02*
X53250000Y-27550000D01*
X59300000Y-32750000D02*
X55000000Y-32750000D01*
X50900000Y-27250000D02*
X49650000Y-27250000D01*
X49950000Y-28300000D02*
X51750000Y-28300000D01*
X58250000Y-28300000D02*
X60050000Y-28300000D01*
X49950000Y-27550000D02*
X49950000Y-28300000D01*
X53250000Y-27550000D02*
X53250000Y-28300000D01*
X50700000Y-32750000D02*
X55000000Y-32750000D01*
X60050000Y-29800000D02*
X59300000Y-29800000D01*
X59300000Y-29800000D02*
X59300000Y-32750000D01*
X51750000Y-27550000D02*
X49950000Y-27550000D01*
X49940000Y-33510000D02*
X60060000Y-33510000D01*
%TO.C,C3*%
X62490000Y-59853733D02*
X62490000Y-60146267D01*
X63510000Y-59853733D02*
X63510000Y-60146267D01*
%TO.C,C9*%
X50335000Y-48538748D02*
X50335000Y-49061252D01*
X48865000Y-48538748D02*
X48865000Y-49061252D01*
%TO.C,R8*%
X66022936Y-57160000D02*
X67477064Y-57160000D01*
X66022936Y-55340000D02*
X67477064Y-55340000D01*
%TO.C,C5*%
X68060000Y-58000000D02*
X67560000Y-58000000D01*
X68510000Y-63010000D02*
X67310000Y-63010000D01*
X67810000Y-57750000D02*
X67810000Y-58250000D01*
X67445563Y-58490000D02*
X68510000Y-59554437D01*
X67445563Y-58490000D02*
X67310000Y-58490000D01*
X65054437Y-58490000D02*
X63990000Y-59554437D01*
X63990000Y-63010000D02*
X65190000Y-63010000D01*
X63990000Y-59554437D02*
X63990000Y-63010000D01*
X65054437Y-58490000D02*
X65190000Y-58490000D01*
X68510000Y-59554437D02*
X68510000Y-63010000D01*
%TD*%
M02*
