%TF.GenerationSoftware,KiCad,Pcbnew,6.0.11-2627ca5db0~126~ubuntu22.04.1*%
%TF.CreationDate,2023-02-06T22:18:29+01:00*%
%TF.ProjectId,Stepper_Driver_TMC2225-SA-T,53746570-7065-4725-9f44-72697665725f,rev?*%
%TF.SameCoordinates,Original*%
%TF.FileFunction,Copper,L1,Top*%
%TF.FilePolarity,Positive*%
%FSLAX46Y46*%
G04 Gerber Fmt 4.6, Leading zero omitted, Abs format (unit mm)*
G04 Created by KiCad (PCBNEW 6.0.11-2627ca5db0~126~ubuntu22.04.1) date 2023-02-06 22:18:29*
%MOMM*%
%LPD*%
G01*
G04 APERTURE LIST*
G04 Aperture macros list*
%AMRoundRect*
0 Rectangle with rounded corners*
0 $1 Rounding radius*
0 $2 $3 $4 $5 $6 $7 $8 $9 X,Y pos of 4 corners*
0 Add a 4 corners polygon primitive as box body*
4,1,4,$2,$3,$4,$5,$6,$7,$8,$9,$2,$3,0*
0 Add four circle primitives for the rounded corners*
1,1,$1+$1,$2,$3*
1,1,$1+$1,$4,$5*
1,1,$1+$1,$6,$7*
1,1,$1+$1,$8,$9*
0 Add four rect primitives between the rounded corners*
20,1,$1+$1,$2,$3,$4,$5,0*
20,1,$1+$1,$4,$5,$6,$7,0*
20,1,$1+$1,$6,$7,$8,$9,0*
20,1,$1+$1,$8,$9,$2,$3,0*%
G04 Aperture macros list end*
%TA.AperFunction,SMDPad,CuDef*%
%ADD10RoundRect,0.237500X0.237500X-0.300000X0.237500X0.300000X-0.237500X0.300000X-0.237500X-0.300000X0*%
%TD*%
%TA.AperFunction,ComponentPad*%
%ADD11C,0.800000*%
%TD*%
%TA.AperFunction,ComponentPad*%
%ADD12C,6.400000*%
%TD*%
%TA.AperFunction,ComponentPad*%
%ADD13R,1.700000X1.700000*%
%TD*%
%TA.AperFunction,ComponentPad*%
%ADD14O,1.700000X1.700000*%
%TD*%
%TA.AperFunction,SMDPad,CuDef*%
%ADD15RoundRect,0.237500X0.250000X0.237500X-0.250000X0.237500X-0.250000X-0.237500X0.250000X-0.237500X0*%
%TD*%
%TA.AperFunction,SMDPad,CuDef*%
%ADD16RoundRect,0.237500X0.237500X-0.250000X0.237500X0.250000X-0.237500X0.250000X-0.237500X-0.250000X0*%
%TD*%
%TA.AperFunction,SMDPad,CuDef*%
%ADD17RoundRect,0.237500X-0.250000X-0.237500X0.250000X-0.237500X0.250000X0.237500X-0.250000X0.237500X0*%
%TD*%
%TA.AperFunction,SMDPad,CuDef*%
%ADD18RoundRect,0.237500X0.300000X0.237500X-0.300000X0.237500X-0.300000X-0.237500X0.300000X-0.237500X0*%
%TD*%
%TA.AperFunction,SMDPad,CuDef*%
%ADD19RoundRect,0.237500X-0.237500X0.300000X-0.237500X-0.300000X0.237500X-0.300000X0.237500X0.300000X0*%
%TD*%
%TA.AperFunction,SMDPad,CuDef*%
%ADD20RoundRect,0.250000X-1.050000X-0.550000X1.050000X-0.550000X1.050000X0.550000X-1.050000X0.550000X0*%
%TD*%
%TA.AperFunction,SMDPad,CuDef*%
%ADD21RoundRect,0.250000X0.550000X-1.050000X0.550000X1.050000X-0.550000X1.050000X-0.550000X-1.050000X0*%
%TD*%
%TA.AperFunction,SMDPad,CuDef*%
%ADD22RoundRect,0.237500X0.237500X-0.287500X0.237500X0.287500X-0.237500X0.287500X-0.237500X-0.287500X0*%
%TD*%
%TA.AperFunction,SMDPad,CuDef*%
%ADD23RoundRect,0.237500X-0.287500X-0.237500X0.287500X-0.237500X0.287500X0.237500X-0.287500X0.237500X0*%
%TD*%
%TA.AperFunction,ComponentPad*%
%ADD24RoundRect,0.250000X-0.725000X0.600000X-0.725000X-0.600000X0.725000X-0.600000X0.725000X0.600000X0*%
%TD*%
%TA.AperFunction,ComponentPad*%
%ADD25O,1.950000X1.700000*%
%TD*%
%TA.AperFunction,ComponentPad*%
%ADD26RoundRect,0.250000X0.725000X-0.600000X0.725000X0.600000X-0.725000X0.600000X-0.725000X-0.600000X0*%
%TD*%
%TA.AperFunction,SMDPad,CuDef*%
%ADD27RoundRect,0.250000X-0.400000X-0.625000X0.400000X-0.625000X0.400000X0.625000X-0.400000X0.625000X0*%
%TD*%
%TA.AperFunction,SMDPad,CuDef*%
%ADD28RoundRect,0.100000X0.637500X0.100000X-0.637500X0.100000X-0.637500X-0.100000X0.637500X-0.100000X0*%
%TD*%
%TA.AperFunction,ComponentPad*%
%ADD29C,0.600000*%
%TD*%
%TA.AperFunction,SMDPad,CuDef*%
%ADD30R,2.850000X5.400000*%
%TD*%
%TA.AperFunction,ComponentPad*%
%ADD31RoundRect,0.250000X-0.600000X-0.725000X0.600000X-0.725000X0.600000X0.725000X-0.600000X0.725000X0*%
%TD*%
%TA.AperFunction,ComponentPad*%
%ADD32O,1.700000X1.950000*%
%TD*%
%TA.AperFunction,SMDPad,CuDef*%
%ADD33RoundRect,0.250000X-0.475000X0.337500X-0.475000X-0.337500X0.475000X-0.337500X0.475000X0.337500X0*%
%TD*%
%TA.AperFunction,SMDPad,CuDef*%
%ADD34RoundRect,0.250000X-0.550000X1.050000X-0.550000X-1.050000X0.550000X-1.050000X0.550000X1.050000X0*%
%TD*%
%TA.AperFunction,ViaPad*%
%ADD35C,0.800000*%
%TD*%
%TA.AperFunction,ViaPad*%
%ADD36C,1.000000*%
%TD*%
%TA.AperFunction,Conductor*%
%ADD37C,1.000000*%
%TD*%
%TA.AperFunction,Conductor*%
%ADD38C,0.400000*%
%TD*%
G04 APERTURE END LIST*
D10*
%TO.P,C4,1*%
%TO.N,VCC*%
X62800000Y-50362500D03*
%TO.P,C4,2*%
%TO.N,GND*%
X62800000Y-48637500D03*
%TD*%
D11*
%TO.P,H3,1,1*%
%TO.N,GND*%
X80000000Y-77600000D03*
X78302944Y-78302944D03*
X81697056Y-78302944D03*
X81697056Y-81697056D03*
X80000000Y-82400000D03*
D12*
X80000000Y-80000000D03*
D11*
X77600000Y-80000000D03*
X78302944Y-81697056D03*
X82400000Y-80000000D03*
%TD*%
D13*
%TO.P,J3,1,Pin_1*%
%TO.N,+3.3V*%
X35000000Y-47380000D03*
D14*
%TO.P,J3,2,Pin_2*%
%TO.N,DIR*%
X35000000Y-49920000D03*
%TO.P,J3,3,Pin_3*%
%TO.N,STEP*%
X35000000Y-52460000D03*
%TO.P,J3,4,Pin_4*%
%TO.N,CLK*%
X35000000Y-55000000D03*
%TO.P,J3,5,Pin_5*%
%TO.N,UART_TX*%
X35000000Y-57540000D03*
%TO.P,J3,6,Pin_6*%
%TO.N,UART_RX*%
X35000000Y-60080000D03*
%TO.P,J3,7,Pin_7*%
%TO.N,GND*%
X35000000Y-62620000D03*
%TD*%
D13*
%TO.P,J6,1,Pin_1*%
%TO.N,GND*%
X50800000Y-75000000D03*
D14*
%TO.P,J6,2,Pin_2*%
X53340000Y-75000000D03*
%TO.P,J6,3,Pin_3*%
X55880000Y-75000000D03*
%TO.P,J6,4,Pin_4*%
X58420000Y-75000000D03*
%TO.P,J6,5,Pin_5*%
X60960000Y-75000000D03*
%TD*%
D15*
%TO.P,R1,1*%
%TO.N,Net-(C1-Pad2)*%
X58612500Y-42000000D03*
%TO.P,R1,2*%
%TO.N,GND*%
X56787500Y-42000000D03*
%TD*%
D16*
%TO.P,R2,1*%
%TO.N,+3.3V*%
X42400000Y-51537500D03*
%TO.P,R2,2*%
%TO.N,Net-(D1-Pad2)*%
X42400000Y-49712500D03*
%TD*%
D17*
%TO.P,R6,1*%
%TO.N,GND*%
X44087500Y-61400000D03*
%TO.P,R6,2*%
%TO.N,MS2*%
X45912500Y-61400000D03*
%TD*%
D18*
%TO.P,C8,1*%
%TO.N,Net-(C8-Pad1)*%
X59862500Y-61000000D03*
%TO.P,C8,2*%
%TO.N,Net-(C8-Pad2)*%
X58137500Y-61000000D03*
%TD*%
D11*
%TO.P,H2,1,1*%
%TO.N,GND*%
X77600000Y-30000000D03*
X82400000Y-30000000D03*
X78302944Y-31697056D03*
X81697056Y-28302944D03*
X78302944Y-28302944D03*
X81697056Y-31697056D03*
X80000000Y-27600000D03*
D12*
X80000000Y-30000000D03*
D11*
X80000000Y-32400000D03*
%TD*%
D15*
%TO.P,R5,1*%
%TO.N,MS2*%
X45912500Y-63000000D03*
%TO.P,R5,2*%
%TO.N,+3.3V*%
X44087500Y-63000000D03*
%TD*%
D19*
%TO.P,C7,1*%
%TO.N,VCC*%
X61500000Y-59137500D03*
%TO.P,C7,2*%
%TO.N,VCP*%
X61500000Y-60862500D03*
%TD*%
D15*
%TO.P,R3,1*%
%TO.N,MS1*%
X45912500Y-59800000D03*
%TO.P,R3,2*%
%TO.N,+3.3V*%
X44087500Y-59800000D03*
%TD*%
D20*
%TO.P,C1,1*%
%TO.N,VCC*%
X55400000Y-38600000D03*
%TO.P,C1,2*%
%TO.N,Net-(C1-Pad2)*%
X59000000Y-38600000D03*
%TD*%
D13*
%TO.P,J4,1,Pin_1*%
%TO.N,VREF*%
X50800000Y-80000000D03*
D14*
%TO.P,J4,2,Pin_2*%
%TO.N,SPREAD*%
X53340000Y-80000000D03*
%TO.P,J4,3,Pin_3*%
%TO.N,INDEX*%
X55880000Y-80000000D03*
%TO.P,J4,4,Pin_4*%
%TO.N,DIAG*%
X58420000Y-80000000D03*
%TO.P,J4,5,Pin_5*%
%TO.N,GND*%
X60960000Y-80000000D03*
%TD*%
D13*
%TO.P,J5,1,Pin_1*%
%TO.N,+3.3V*%
X50800000Y-70000000D03*
D14*
%TO.P,J5,2,Pin_2*%
X53340000Y-70000000D03*
%TO.P,J5,3,Pin_3*%
X55880000Y-70000000D03*
%TO.P,J5,4,Pin_4*%
X58420000Y-70000000D03*
%TO.P,J5,5,Pin_5*%
X60960000Y-70000000D03*
%TD*%
D11*
%TO.P,H4,1,1*%
%TO.N,GND*%
X28302944Y-81697056D03*
X27600000Y-80000000D03*
X30000000Y-77600000D03*
D12*
X30000000Y-80000000D03*
D11*
X31697056Y-78302944D03*
X30000000Y-82400000D03*
X28302944Y-78302944D03*
X32400000Y-80000000D03*
X31697056Y-81697056D03*
%TD*%
D16*
%TO.P,R7,1*%
%TO.N,UART_RX*%
X37700000Y-59712500D03*
%TO.P,R7,2*%
%TO.N,UART_TX*%
X37700000Y-57887500D03*
%TD*%
D21*
%TO.P,C6,1*%
%TO.N,VCC*%
X66000000Y-49800000D03*
%TO.P,C6,2*%
%TO.N,GND*%
X66000000Y-46200000D03*
%TD*%
D22*
%TO.P,D1,1,K*%
%TO.N,GND*%
X44000000Y-51500000D03*
%TO.P,D1,2,A*%
%TO.N,Net-(D1-Pad2)*%
X44000000Y-49750000D03*
%TD*%
D23*
%TO.P,D2,1,K*%
%TO.N,GND*%
X53937500Y-65581250D03*
%TO.P,D2,2,A*%
%TO.N,Net-(D2-Pad2)*%
X55687500Y-65581250D03*
%TD*%
D17*
%TO.P,R4,1*%
%TO.N,GND*%
X44087500Y-58200000D03*
%TO.P,R4,2*%
%TO.N,MS1*%
X45912500Y-58200000D03*
%TD*%
D24*
%TO.P,J2,1,Pin_1*%
%TO.N,+3.3V*%
X30000000Y-47500000D03*
D25*
%TO.P,J2,2,Pin_2*%
%TO.N,DIR*%
X30000000Y-50000000D03*
%TO.P,J2,3,Pin_3*%
%TO.N,STEP*%
X30000000Y-52500000D03*
%TO.P,J2,4,Pin_4*%
%TO.N,CLK*%
X30000000Y-55000000D03*
%TO.P,J2,5,Pin_5*%
%TO.N,UART_TX*%
X30000000Y-57500000D03*
%TO.P,J2,6,Pin_6*%
%TO.N,UART_RX*%
X30000000Y-60000000D03*
%TO.P,J2,7,Pin_7*%
%TO.N,GND*%
X30000000Y-62500000D03*
%TD*%
D26*
%TO.P,J8,1,Pin_1*%
%TO.N,OA1*%
X72500000Y-60000000D03*
D25*
%TO.P,J8,2,Pin_2*%
%TO.N,unconnected-(J8-Pad2)*%
X72500000Y-57500000D03*
%TO.P,J8,3,Pin_3*%
%TO.N,OA2*%
X72500000Y-55000000D03*
%TO.P,J8,4,Pin_4*%
%TO.N,OB1*%
X72500000Y-52500000D03*
%TO.P,J8,5,Pin_5*%
%TO.N,OB2*%
X72500000Y-50000000D03*
%TD*%
D27*
%TO.P,R9,1*%
%TO.N,BRB*%
X62950000Y-52500000D03*
%TO.P,R9,2*%
%TO.N,GND*%
X66050000Y-52500000D03*
%TD*%
D15*
%TO.P,R10,1*%
%TO.N,Net-(D2-Pad2)*%
X55750000Y-63981250D03*
%TO.P,R10,2*%
%TO.N,DIAG*%
X53925000Y-63981250D03*
%TD*%
D28*
%TO.P,U1,1,CPO*%
%TO.N,Net-(C8-Pad2)*%
X57862500Y-59225000D03*
%TO.P,U1,2,CPI*%
%TO.N,Net-(C8-Pad1)*%
X57862500Y-58575000D03*
%TO.P,U1,3,VCP*%
%TO.N,VCP*%
X57862500Y-57925000D03*
%TO.P,U1,4,VS*%
%TO.N,VCC*%
X57862500Y-57275000D03*
%TO.P,U1,5,OA2*%
%TO.N,OA2*%
X57862500Y-56625000D03*
%TO.P,U1,6,BRA*%
%TO.N,BRA*%
X57862500Y-55975000D03*
%TO.P,U1,7,OA1*%
%TO.N,OA1*%
X57862500Y-55325000D03*
%TO.P,U1,8,OB1*%
%TO.N,OB1*%
X57862500Y-54675000D03*
%TO.P,U1,9,BRB*%
%TO.N,BRB*%
X57862500Y-54025000D03*
%TO.P,U1,10,OB2*%
%TO.N,OB2*%
X57862500Y-53375000D03*
%TO.P,U1,11,VS*%
%TO.N,VCC*%
X57862500Y-52725000D03*
%TO.P,U1,12,VREF*%
%TO.N,VREF*%
X57862500Y-52075000D03*
%TO.P,U1,13,TEST*%
%TO.N,GND*%
X57862500Y-51425000D03*
%TO.P,U1,14,GND*%
X57862500Y-50775000D03*
%TO.P,U1,15,5VOUT*%
%TO.N,5VOUT*%
X52137500Y-50775000D03*
%TO.P,U1,16,VCC_IO*%
%TO.N,+3.3V*%
X52137500Y-51425000D03*
%TO.P,U1,17,PDN_UART*%
%TO.N,UART_RX*%
X52137500Y-52075000D03*
%TO.P,U1,18,DIAG*%
%TO.N,DIAG*%
X52137500Y-52725000D03*
%TO.P,U1,19,SPREAD*%
%TO.N,SPREAD*%
X52137500Y-53375000D03*
%TO.P,U1,20,DIR*%
%TO.N,DIR*%
X52137500Y-54025000D03*
%TO.P,U1,21,ENN*%
%TO.N,GND*%
X52137500Y-54675000D03*
%TO.P,U1,22,STEP*%
%TO.N,STEP*%
X52137500Y-55325000D03*
%TO.P,U1,23,N.C*%
%TO.N,unconnected-(U1-Pad23)*%
X52137500Y-55975000D03*
%TO.P,U1,24,CLK*%
%TO.N,CLK*%
X52137500Y-56625000D03*
%TO.P,U1,25,MS1*%
%TO.N,MS1*%
X52137500Y-57275000D03*
%TO.P,U1,26,MS2*%
%TO.N,MS2*%
X52137500Y-57925000D03*
%TO.P,U1,27,INDEX*%
%TO.N,INDEX*%
X52137500Y-58575000D03*
%TO.P,U1,28,GND*%
%TO.N,GND*%
X52137500Y-59225000D03*
D29*
%TO.P,U1,29,PAD*%
X53875000Y-57400000D03*
X56125000Y-57400000D03*
X56125000Y-52600000D03*
D30*
X55000000Y-55000000D03*
D29*
X53875000Y-54200000D03*
X53875000Y-55800000D03*
X56125000Y-55800000D03*
X56125000Y-54200000D03*
X53875000Y-52600000D03*
%TD*%
D26*
%TO.P,J7,1,Pin_1*%
%TO.N,OA1*%
X80000000Y-58750000D03*
D25*
%TO.P,J7,2,Pin_2*%
%TO.N,OA2*%
X80000000Y-56250000D03*
%TO.P,J7,3,Pin_3*%
%TO.N,OB1*%
X80000000Y-53750000D03*
%TO.P,J7,4,Pin_4*%
%TO.N,OB2*%
X80000000Y-51250000D03*
%TD*%
D10*
%TO.P,C2,1*%
%TO.N,+3.3V*%
X40800000Y-51487500D03*
%TO.P,C2,2*%
%TO.N,GND*%
X40800000Y-49762500D03*
%TD*%
D31*
%TO.P,J1,1,Pin_1*%
%TO.N,+3.3V*%
X52500000Y-30000000D03*
D32*
%TO.P,J1,2,Pin_2*%
%TO.N,VCC*%
X55000000Y-30000000D03*
%TO.P,J1,3,Pin_3*%
%TO.N,GND*%
X57500000Y-30000000D03*
%TD*%
D11*
%TO.P,H1,1,1*%
%TO.N,GND*%
X28302944Y-28302944D03*
X28302944Y-31697056D03*
X31697056Y-28302944D03*
X30000000Y-27600000D03*
X32400000Y-30000000D03*
X31697056Y-31697056D03*
D12*
X30000000Y-30000000D03*
D11*
X30000000Y-32400000D03*
X27600000Y-30000000D03*
%TD*%
D19*
%TO.P,C3,1*%
%TO.N,VCC*%
X63000000Y-59137500D03*
%TO.P,C3,2*%
%TO.N,GND*%
X63000000Y-60862500D03*
%TD*%
D33*
%TO.P,C9,1*%
%TO.N,GND*%
X49600000Y-47762500D03*
%TO.P,C9,2*%
%TO.N,5VOUT*%
X49600000Y-49837500D03*
%TD*%
D27*
%TO.P,R8,1*%
%TO.N,BRA*%
X65200000Y-56250000D03*
%TO.P,R8,2*%
%TO.N,GND*%
X68300000Y-56250000D03*
%TD*%
D34*
%TO.P,C5,1*%
%TO.N,VCC*%
X66250000Y-58950000D03*
%TO.P,C5,2*%
%TO.N,GND*%
X66250000Y-62550000D03*
%TD*%
D35*
%TO.N,+3.3V*%
X42000000Y-58500000D03*
X42425500Y-53175500D03*
X46200500Y-70000000D03*
D36*
%TO.N,GND*%
X62800000Y-47000000D03*
X55200000Y-42000000D03*
X65250000Y-54500000D03*
X50300000Y-46100000D03*
X68250000Y-54500000D03*
X66750000Y-54500000D03*
X62250000Y-54500000D03*
X63750000Y-54500000D03*
D35*
X42849500Y-61500000D03*
X37500000Y-56250000D03*
D36*
X65400000Y-43900000D03*
D35*
X40000000Y-53000000D03*
%TO.N,UART_RX*%
X41363188Y-53825500D03*
X39262284Y-56824500D03*
%TO.N,VREF*%
X51500000Y-61750000D03*
X59500000Y-49500000D03*
X46850500Y-66000000D03*
X56500000Y-61250000D03*
%TO.N,SPREAD*%
X47500500Y-64950000D03*
X50172904Y-53825500D03*
%TO.N,DIAG*%
X48500000Y-53750000D03*
X49199500Y-63500000D03*
D36*
%TO.N,OA1*%
X63000000Y-56488500D03*
%TO.N,OA2*%
X64250000Y-57988000D03*
%TO.N,OB1*%
X61340636Y-53590636D03*
%TO.N,OB2*%
X61382032Y-51606000D03*
%TD*%
D37*
%TO.N,VCC*%
X55000000Y-35250000D02*
X55000000Y-36750000D01*
X55000000Y-30000000D02*
X55000000Y-35250000D01*
X69000000Y-52500000D02*
X70000000Y-53500000D01*
D38*
X59900000Y-51100000D02*
X59900000Y-51822055D01*
D37*
X62800000Y-50362500D02*
X65437500Y-50362500D01*
X63000000Y-59137500D02*
X66062500Y-59137500D01*
X69000000Y-45250000D02*
X69000000Y-48500000D01*
D38*
X61475976Y-59137500D02*
X61500000Y-59137500D01*
X60637500Y-50362500D02*
X59900000Y-51100000D01*
D37*
X70000000Y-57750000D02*
X68800000Y-58950000D01*
D38*
X57862500Y-57275000D02*
X59613477Y-57275000D01*
D37*
X69000000Y-48500000D02*
X67700000Y-49800000D01*
D38*
X62800000Y-50362500D02*
X60637500Y-50362500D01*
D37*
X55000000Y-36750000D02*
X60500000Y-36750000D01*
X70000000Y-53500000D02*
X70000000Y-57750000D01*
X61500000Y-59137500D02*
X63000000Y-59137500D01*
X69000000Y-48500000D02*
X69000000Y-52500000D01*
X67700000Y-49800000D02*
X66000000Y-49800000D01*
X65437500Y-50362500D02*
X66000000Y-49800000D01*
D38*
X59900000Y-51822055D02*
X58997055Y-52725000D01*
D37*
X55000000Y-38200000D02*
X55400000Y-38600000D01*
D38*
X59613477Y-57275000D02*
X61475976Y-59137500D01*
D37*
X60500000Y-36750000D02*
X69000000Y-45250000D01*
D38*
X58997055Y-52725000D02*
X57862500Y-52725000D01*
D37*
X55000000Y-35250000D02*
X55000000Y-38200000D01*
D38*
X66062500Y-59137500D02*
X66250000Y-58950000D01*
D37*
X68800000Y-58950000D02*
X66250000Y-58950000D01*
%TO.N,Net-(C1-Pad2)*%
X59000000Y-41612500D02*
X58612500Y-42000000D01*
X59000000Y-38600000D02*
X59000000Y-41612500D01*
D38*
%TO.N,+3.3V*%
X42000000Y-58500000D02*
X42000000Y-60000000D01*
X42200000Y-59800000D02*
X42000000Y-60000000D01*
X48000000Y-46600000D02*
X48000000Y-50700000D01*
X48725000Y-51425000D02*
X51075000Y-51425000D01*
X52500000Y-42100000D02*
X48000000Y-46600000D01*
X48000000Y-50700000D02*
X48725000Y-51425000D01*
X35000000Y-47380000D02*
X36750000Y-49130000D01*
X50800000Y-70000000D02*
X53340000Y-70000000D01*
X48703680Y-51425000D02*
X51075000Y-51425000D01*
X53340000Y-70000000D02*
X55880000Y-70000000D01*
X46200500Y-70000000D02*
X46200500Y-66700500D01*
X58420000Y-70000000D02*
X60960000Y-70000000D01*
X37325976Y-51487500D02*
X40800000Y-51487500D01*
X46200500Y-66700500D02*
X44087500Y-64587500D01*
X51075000Y-51425000D02*
X52137500Y-51425000D01*
X46753680Y-53375000D02*
X48703680Y-51425000D01*
X55880000Y-70000000D02*
X58420000Y-70000000D01*
X42250000Y-63000000D02*
X44087500Y-63000000D01*
D37*
X34880000Y-47500000D02*
X35000000Y-47380000D01*
X30000000Y-47500000D02*
X34880000Y-47500000D01*
D38*
X42425500Y-51563000D02*
X42400000Y-51537500D01*
X36750000Y-49130000D02*
X36750000Y-50911524D01*
X36750000Y-50911524D02*
X37325976Y-51487500D01*
X44087500Y-59800000D02*
X42200000Y-59800000D01*
X42425500Y-53175500D02*
X42625000Y-53375000D01*
X42425500Y-53175500D02*
X42425500Y-51563000D01*
X44087500Y-64587500D02*
X44087500Y-63000000D01*
X42350000Y-51487500D02*
X42400000Y-51537500D01*
X52500000Y-30000000D02*
X52500000Y-42100000D01*
X42000000Y-60000000D02*
X42000000Y-62750000D01*
X40800000Y-51487500D02*
X42350000Y-51487500D01*
X42625000Y-53375000D02*
X46753680Y-53375000D01*
X42000000Y-62750000D02*
X42250000Y-63000000D01*
%TO.N,GND*%
X57862500Y-50775000D02*
X56225000Y-50775000D01*
X42949500Y-61400000D02*
X42849500Y-61500000D01*
X44087500Y-61400000D02*
X42949500Y-61400000D01*
X55575000Y-51425000D02*
X55175000Y-51425000D01*
X52137500Y-54675000D02*
X54675000Y-54675000D01*
X57862500Y-51425000D02*
X55575000Y-51425000D01*
X55000000Y-51600000D02*
X55000000Y-55000000D01*
X56225000Y-50775000D02*
X55575000Y-51425000D01*
X54675000Y-54675000D02*
X55000000Y-55000000D01*
X55175000Y-51425000D02*
X55000000Y-51600000D01*
%TO.N,Net-(C8-Pad1)*%
X59075000Y-58575000D02*
X57862500Y-58575000D01*
X59862500Y-61000000D02*
X59862500Y-59362500D01*
X59862500Y-59362500D02*
X59075000Y-58575000D01*
%TO.N,Net-(C8-Pad2)*%
X56750000Y-60250000D02*
X57500000Y-61000000D01*
X57025000Y-59225000D02*
X56750000Y-59500000D01*
X57500000Y-61000000D02*
X58137500Y-61000000D01*
X56750000Y-59500000D02*
X56750000Y-60250000D01*
X57862500Y-59225000D02*
X57025000Y-59225000D01*
%TO.N,Net-(D1-Pad2)*%
X43962500Y-49712500D02*
X44000000Y-49750000D01*
X42400000Y-49712500D02*
X43962500Y-49712500D01*
%TO.N,Net-(D2-Pad2)*%
X55750000Y-63981250D02*
X55750000Y-65518750D01*
%TO.N,DIR*%
X30000000Y-50000000D02*
X34920000Y-50000000D01*
X51272183Y-54025000D02*
X50622183Y-54675000D01*
X50622183Y-54675000D02*
X39594238Y-54675000D01*
X34920000Y-50000000D02*
X35000000Y-49920000D01*
X35000000Y-50080762D02*
X35000000Y-49920000D01*
X52137500Y-54025000D02*
X51272183Y-54025000D01*
X39594238Y-54675000D02*
X35000000Y-50080762D01*
%TO.N,STEP*%
X30000000Y-52500000D02*
X34960000Y-52500000D01*
X36460000Y-52460000D02*
X39325000Y-55325000D01*
X34960000Y-52500000D02*
X35000000Y-52460000D01*
X39325000Y-55325000D02*
X52137500Y-55325000D01*
X35000000Y-52460000D02*
X36460000Y-52460000D01*
%TO.N,CLK*%
X50622183Y-55975000D02*
X51272183Y-56625000D01*
X39055762Y-55975000D02*
X50622183Y-55975000D01*
X30000000Y-55000000D02*
X35000000Y-55000000D01*
X35000000Y-55000000D02*
X38080762Y-55000000D01*
X51272183Y-56625000D02*
X52137500Y-56625000D01*
X38080762Y-55000000D02*
X39055762Y-55975000D01*
%TO.N,UART_TX*%
X30000000Y-57500000D02*
X34960000Y-57500000D01*
X35000000Y-57540000D02*
X37352500Y-57540000D01*
X34960000Y-57500000D02*
X35000000Y-57540000D01*
X37352500Y-57540000D02*
X37800000Y-57987500D01*
%TO.N,UART_RX*%
X52137500Y-52075000D02*
X48972918Y-52075000D01*
X35000000Y-60080000D02*
X37532500Y-60080000D01*
X41562688Y-54025000D02*
X41363188Y-53825500D01*
X47022918Y-54025000D02*
X41562688Y-54025000D01*
X39000000Y-57086784D02*
X39000000Y-59500000D01*
X48972918Y-52075000D02*
X47022918Y-54025000D01*
X34920000Y-60000000D02*
X35000000Y-60080000D01*
X38787500Y-59712500D02*
X37700000Y-59712500D01*
X30000000Y-60000000D02*
X34920000Y-60000000D01*
X39262284Y-56824500D02*
X39000000Y-57086784D01*
X39000000Y-59500000D02*
X38787500Y-59712500D01*
X37532500Y-60080000D02*
X37800000Y-59812500D01*
%TO.N,VREF*%
X51500000Y-61750000D02*
X52000000Y-61250000D01*
X59250000Y-49750000D02*
X59250000Y-51552817D01*
X50800000Y-78750000D02*
X50500000Y-78450000D01*
X47050000Y-66199500D02*
X46850500Y-66000000D01*
X52000000Y-61250000D02*
X56500000Y-61250000D01*
X50800000Y-80000000D02*
X50800000Y-78750000D01*
X59500000Y-49500000D02*
X59250000Y-49750000D01*
X48692285Y-78450000D02*
X47050000Y-76807715D01*
X47050000Y-72500000D02*
X47050000Y-66199500D01*
X59250000Y-51552817D02*
X58727817Y-52075000D01*
X58727817Y-52075000D02*
X57862500Y-52075000D01*
X47050000Y-76807715D02*
X47050000Y-72500000D01*
X50500000Y-78450000D02*
X48692285Y-78450000D01*
%TO.N,SPREAD*%
X47700000Y-65149500D02*
X47700000Y-76538477D01*
X47500500Y-64950000D02*
X47700000Y-65149500D01*
X51140000Y-77800000D02*
X53340000Y-80000000D01*
X52137500Y-53375000D02*
X50623404Y-53375000D01*
X48961524Y-77800000D02*
X51140000Y-77800000D01*
X50623404Y-53375000D02*
X50172904Y-53825500D01*
X47700000Y-76538477D02*
X48961524Y-77800000D01*
%TO.N,INDEX*%
X48350000Y-60900000D02*
X50675000Y-58575000D01*
X49230762Y-77150000D02*
X48350000Y-76269238D01*
X48350000Y-76269238D02*
X48350000Y-60900000D01*
X53030000Y-77150000D02*
X49230762Y-77150000D01*
X55880000Y-80000000D02*
X53030000Y-77150000D01*
X50675000Y-58575000D02*
X52137500Y-58575000D01*
%TO.N,DIAG*%
X53925000Y-63981250D02*
X49680750Y-63981250D01*
X49199500Y-63500000D02*
X49000000Y-63699500D01*
X49680750Y-63981250D02*
X49199500Y-63500000D01*
X49805762Y-52725000D02*
X49525000Y-52725000D01*
X49000000Y-76000000D02*
X49500000Y-76500000D01*
X52137500Y-52725000D02*
X49805762Y-52725000D01*
X49525000Y-52725000D02*
X48500000Y-53750000D01*
X54920000Y-76500000D02*
X58420000Y-80000000D01*
X49000000Y-63699500D02*
X49000000Y-76000000D01*
X49500000Y-76500000D02*
X54920000Y-76500000D01*
%TO.N,OA1*%
X61584693Y-56488500D02*
X60421194Y-55325000D01*
X60421194Y-55325000D02*
X57862500Y-55325000D01*
X63000000Y-56488500D02*
X61584693Y-56488500D01*
%TO.N,OA2*%
X59882716Y-56625000D02*
X57862500Y-56625000D01*
X64250000Y-57988000D02*
X61245715Y-57988000D01*
X61245715Y-57988000D02*
X59882716Y-56625000D01*
%TO.N,OB1*%
X61340636Y-53590636D02*
X60256272Y-54675000D01*
X60256272Y-54675000D02*
X57862500Y-54675000D01*
%TO.N,VCP*%
X59344238Y-57925000D02*
X58500000Y-57925000D01*
X61500000Y-60862500D02*
X60575000Y-59937500D01*
X60575000Y-59155762D02*
X59344238Y-57925000D01*
X60575000Y-59937500D02*
X60575000Y-59155762D01*
%TO.N,5VOUT*%
X49775000Y-50775000D02*
X49600000Y-50600000D01*
X52137500Y-50775000D02*
X49775000Y-50775000D01*
X49600000Y-50600000D02*
X49600000Y-49837500D01*
%TO.N,MS1*%
X49040381Y-58290381D02*
X50055762Y-57275000D01*
X45912500Y-58200000D02*
X48950000Y-58200000D01*
X47530762Y-59800000D02*
X49040381Y-58290381D01*
X48950000Y-58200000D02*
X49040381Y-58290381D01*
X50055762Y-57275000D02*
X52137500Y-57275000D01*
X45912500Y-59800000D02*
X47530762Y-59800000D01*
%TO.N,MS2*%
X47700000Y-62050000D02*
X47700000Y-61200000D01*
X45912500Y-63000000D02*
X46750000Y-63000000D01*
X50325000Y-57925000D02*
X47700000Y-60550000D01*
X47700000Y-60550000D02*
X47700000Y-61250000D01*
X52137500Y-57925000D02*
X50325000Y-57925000D01*
X47700000Y-61250000D02*
X47550000Y-61400000D01*
X46750000Y-63000000D02*
X47700000Y-62050000D01*
X47550000Y-61400000D02*
X45912500Y-61400000D01*
%TO.N,BRA*%
X60151955Y-55975000D02*
X57862500Y-55975000D01*
X61514954Y-57338000D02*
X60151955Y-55975000D01*
X64785918Y-56250000D02*
X63697918Y-57338000D01*
X63697918Y-57338000D02*
X61514954Y-57338000D01*
X65035918Y-56000000D02*
X65200000Y-56000000D01*
X65200000Y-56250000D02*
X64785918Y-56250000D01*
%TO.N,BRB*%
X59563476Y-54025000D02*
X60544238Y-53044238D01*
X62894000Y-52556000D02*
X61044238Y-52556000D01*
X60544238Y-53044238D02*
X61044238Y-52544238D01*
X57862500Y-54025000D02*
X59563476Y-54025000D01*
X62950000Y-52500000D02*
X62894000Y-52556000D01*
%TO.N,OB2*%
X59294238Y-53375000D02*
X57862500Y-53375000D01*
X61063238Y-51606000D02*
X59294238Y-53375000D01*
X61382032Y-51606000D02*
X61063238Y-51606000D01*
%TD*%
%TA.AperFunction,Conductor*%
%TO.N,GND*%
G36*
X79970018Y-24510000D02*
G01*
X79984851Y-24512310D01*
X79984855Y-24512310D01*
X79993724Y-24513691D01*
X80014664Y-24510953D01*
X80036202Y-24509997D01*
X80224026Y-24517766D01*
X80448278Y-24527041D01*
X80458656Y-24527901D01*
X80734674Y-24562307D01*
X80898702Y-24582753D01*
X80908967Y-24584465D01*
X81072054Y-24618661D01*
X81342976Y-24675467D01*
X81353072Y-24678023D01*
X81778101Y-24804561D01*
X81787938Y-24807938D01*
X82201081Y-24969147D01*
X82210581Y-24973314D01*
X82608983Y-25168081D01*
X82618141Y-25173037D01*
X82999085Y-25400030D01*
X83007804Y-25405726D01*
X83368705Y-25663405D01*
X83376923Y-25669801D01*
X83715326Y-25956413D01*
X83722987Y-25963467D01*
X84036533Y-26277013D01*
X84043587Y-26284674D01*
X84330199Y-26623077D01*
X84336595Y-26631295D01*
X84594274Y-26992196D01*
X84599970Y-27000915D01*
X84826963Y-27381859D01*
X84831918Y-27391015D01*
X84921391Y-27574034D01*
X85026682Y-27789411D01*
X85030853Y-27798919D01*
X85192062Y-28212062D01*
X85195439Y-28221899D01*
X85321977Y-28646928D01*
X85324533Y-28657024D01*
X85386438Y-28952262D01*
X85415534Y-29091030D01*
X85417247Y-29101298D01*
X85429286Y-29197880D01*
X85472099Y-29541344D01*
X85472959Y-29551722D01*
X85476428Y-29635592D01*
X85483936Y-29817110D01*
X85489694Y-29956335D01*
X85488302Y-29980920D01*
X85486309Y-29993724D01*
X85487473Y-30002626D01*
X85487473Y-30002628D01*
X85490436Y-30025283D01*
X85491500Y-30041621D01*
X85491500Y-79950633D01*
X85490000Y-79970018D01*
X85487690Y-79984851D01*
X85487690Y-79984855D01*
X85486309Y-79993724D01*
X85489047Y-80014659D01*
X85490003Y-80036205D01*
X85472959Y-80448278D01*
X85472099Y-80458656D01*
X85452659Y-80614616D01*
X85418730Y-80886812D01*
X85417248Y-80898698D01*
X85415535Y-80908967D01*
X85402807Y-80969667D01*
X85324533Y-81342976D01*
X85321977Y-81353072D01*
X85195439Y-81778101D01*
X85192062Y-81787938D01*
X85030853Y-82201081D01*
X85026686Y-82210581D01*
X84918323Y-82432241D01*
X84831919Y-82608983D01*
X84826963Y-82618141D01*
X84599970Y-82999085D01*
X84594274Y-83007804D01*
X84336595Y-83368705D01*
X84330199Y-83376923D01*
X84043587Y-83715326D01*
X84036533Y-83722987D01*
X83722987Y-84036533D01*
X83715326Y-84043587D01*
X83376923Y-84330199D01*
X83368705Y-84336595D01*
X83007804Y-84594274D01*
X82999085Y-84599970D01*
X82618141Y-84826963D01*
X82608985Y-84831918D01*
X82210581Y-85026686D01*
X82201081Y-85030853D01*
X81787938Y-85192062D01*
X81778101Y-85195439D01*
X81353072Y-85321977D01*
X81342975Y-85324533D01*
X80908967Y-85415535D01*
X80898702Y-85417247D01*
X80734674Y-85437693D01*
X80458656Y-85472099D01*
X80448278Y-85472959D01*
X80270676Y-85480305D01*
X80043661Y-85489694D01*
X80019080Y-85488302D01*
X80006276Y-85486309D01*
X79997374Y-85487473D01*
X79997372Y-85487473D01*
X79982323Y-85489441D01*
X79974714Y-85490436D01*
X79958379Y-85491500D01*
X30049367Y-85491500D01*
X30029982Y-85490000D01*
X30015149Y-85487690D01*
X30015145Y-85487690D01*
X30006276Y-85486309D01*
X29985336Y-85489047D01*
X29963798Y-85490003D01*
X29775974Y-85482234D01*
X29551722Y-85472959D01*
X29541344Y-85472099D01*
X29265326Y-85437693D01*
X29101298Y-85417247D01*
X29091033Y-85415535D01*
X28657025Y-85324533D01*
X28646928Y-85321977D01*
X28221899Y-85195439D01*
X28212062Y-85192062D01*
X27798919Y-85030853D01*
X27789419Y-85026686D01*
X27391015Y-84831918D01*
X27381859Y-84826963D01*
X27000915Y-84599970D01*
X26992196Y-84594274D01*
X26631295Y-84336595D01*
X26623077Y-84330199D01*
X26284674Y-84043587D01*
X26277013Y-84036533D01*
X25963467Y-83722987D01*
X25956413Y-83715326D01*
X25669801Y-83376923D01*
X25663405Y-83368705D01*
X25405726Y-83007804D01*
X25400030Y-82999085D01*
X25279844Y-82797386D01*
X27567759Y-82797386D01*
X27575216Y-82807753D01*
X27814935Y-83001874D01*
X27820272Y-83005751D01*
X28140685Y-83213830D01*
X28146394Y-83217127D01*
X28486811Y-83390578D01*
X28492836Y-83393260D01*
X28849502Y-83530171D01*
X28855784Y-83532212D01*
X29224816Y-83631094D01*
X29231266Y-83632465D01*
X29608629Y-83692234D01*
X29615167Y-83692920D01*
X29996699Y-83712916D01*
X30003301Y-83712916D01*
X30384833Y-83692920D01*
X30391371Y-83692234D01*
X30768734Y-83632465D01*
X30775184Y-83631094D01*
X31144216Y-83532212D01*
X31150498Y-83530171D01*
X31507164Y-83393260D01*
X31513189Y-83390578D01*
X31853606Y-83217127D01*
X31859315Y-83213830D01*
X32179728Y-83005751D01*
X32185065Y-83001874D01*
X32423835Y-82808522D01*
X32431527Y-82797386D01*
X77567759Y-82797386D01*
X77575216Y-82807753D01*
X77814935Y-83001874D01*
X77820272Y-83005751D01*
X78140685Y-83213830D01*
X78146394Y-83217127D01*
X78486811Y-83390578D01*
X78492836Y-83393260D01*
X78849502Y-83530171D01*
X78855784Y-83532212D01*
X79224816Y-83631094D01*
X79231266Y-83632465D01*
X79608629Y-83692234D01*
X79615167Y-83692920D01*
X79996699Y-83712916D01*
X80003301Y-83712916D01*
X80384833Y-83692920D01*
X80391371Y-83692234D01*
X80768734Y-83632465D01*
X80775184Y-83631094D01*
X81144216Y-83532212D01*
X81150498Y-83530171D01*
X81507164Y-83393260D01*
X81513189Y-83390578D01*
X81853606Y-83217127D01*
X81859315Y-83213830D01*
X82179728Y-83005751D01*
X82185065Y-83001874D01*
X82423835Y-82808522D01*
X82432300Y-82796267D01*
X82425966Y-82785176D01*
X80012812Y-80372022D01*
X79998868Y-80364408D01*
X79997035Y-80364539D01*
X79990420Y-80368790D01*
X77574900Y-82784310D01*
X77567759Y-82797386D01*
X32431527Y-82797386D01*
X32432300Y-82796267D01*
X32425966Y-82785176D01*
X30012812Y-80372022D01*
X29998868Y-80364408D01*
X29997035Y-80364539D01*
X29990420Y-80368790D01*
X27574900Y-82784310D01*
X27567759Y-82797386D01*
X25279844Y-82797386D01*
X25173037Y-82618141D01*
X25168081Y-82608983D01*
X25081677Y-82432241D01*
X24973314Y-82210581D01*
X24969147Y-82201081D01*
X24807938Y-81787938D01*
X24804561Y-81778101D01*
X24678023Y-81353072D01*
X24675467Y-81342976D01*
X24597193Y-80969667D01*
X24584465Y-80908967D01*
X24582752Y-80898698D01*
X24581271Y-80886812D01*
X24547341Y-80614616D01*
X24527901Y-80458656D01*
X24527041Y-80448278D01*
X24510462Y-80047439D01*
X24512100Y-80021329D01*
X24512769Y-80017351D01*
X24512770Y-80017345D01*
X24513576Y-80012552D01*
X24513689Y-80003301D01*
X26287084Y-80003301D01*
X26307080Y-80384833D01*
X26307766Y-80391371D01*
X26367535Y-80768734D01*
X26368906Y-80775184D01*
X26467788Y-81144216D01*
X26469829Y-81150498D01*
X26606740Y-81507164D01*
X26609422Y-81513189D01*
X26782872Y-81853603D01*
X26786169Y-81859313D01*
X26994253Y-82179735D01*
X26998123Y-82185061D01*
X27191478Y-82423835D01*
X27203733Y-82432300D01*
X27214824Y-82425966D01*
X29627978Y-80012812D01*
X29634356Y-80001132D01*
X30364408Y-80001132D01*
X30364539Y-80002965D01*
X30368790Y-80009580D01*
X32784310Y-82425100D01*
X32797386Y-82432241D01*
X32807753Y-82424784D01*
X33001877Y-82185061D01*
X33005747Y-82179735D01*
X33213831Y-81859313D01*
X33217128Y-81853603D01*
X33390578Y-81513189D01*
X33393260Y-81507164D01*
X33530171Y-81150498D01*
X33532212Y-81144216D01*
X33631094Y-80775184D01*
X33632465Y-80768734D01*
X33692234Y-80391371D01*
X33692920Y-80384833D01*
X33712916Y-80003301D01*
X33712916Y-79996699D01*
X33692920Y-79615167D01*
X33692234Y-79608629D01*
X33632465Y-79231266D01*
X33631094Y-79224816D01*
X33532212Y-78855784D01*
X33530171Y-78849502D01*
X33393260Y-78492836D01*
X33390578Y-78486811D01*
X33217128Y-78146397D01*
X33213831Y-78140687D01*
X33005747Y-77820265D01*
X33001877Y-77814939D01*
X32808522Y-77576165D01*
X32796267Y-77567700D01*
X32785176Y-77574034D01*
X30372022Y-79987188D01*
X30364408Y-80001132D01*
X29634356Y-80001132D01*
X29635592Y-79998868D01*
X29635461Y-79997035D01*
X29631210Y-79990420D01*
X27215690Y-77574900D01*
X27202614Y-77567759D01*
X27192247Y-77575216D01*
X26998123Y-77814939D01*
X26994253Y-77820265D01*
X26786169Y-78140687D01*
X26782872Y-78146397D01*
X26609422Y-78486811D01*
X26606740Y-78492836D01*
X26469829Y-78849502D01*
X26467788Y-78855784D01*
X26368906Y-79224816D01*
X26367535Y-79231266D01*
X26307766Y-79608629D01*
X26307080Y-79615167D01*
X26287084Y-79996699D01*
X26287084Y-80003301D01*
X24513689Y-80003301D01*
X24513729Y-80000000D01*
X24509773Y-79972376D01*
X24508500Y-79954514D01*
X24508500Y-77203733D01*
X27567700Y-77203733D01*
X27574034Y-77214824D01*
X29987188Y-79627978D01*
X30001132Y-79635592D01*
X30002965Y-79635461D01*
X30009580Y-79631210D01*
X32425100Y-77215690D01*
X32432241Y-77202614D01*
X32424784Y-77192247D01*
X32185065Y-76998126D01*
X32179728Y-76994249D01*
X31859315Y-76786170D01*
X31853606Y-76782873D01*
X31513189Y-76609422D01*
X31507164Y-76606740D01*
X31150498Y-76469829D01*
X31144216Y-76467788D01*
X30775184Y-76368906D01*
X30768734Y-76367535D01*
X30391371Y-76307766D01*
X30384833Y-76307080D01*
X30003301Y-76287084D01*
X29996699Y-76287084D01*
X29615167Y-76307080D01*
X29608629Y-76307766D01*
X29231266Y-76367535D01*
X29224816Y-76368906D01*
X28855784Y-76467788D01*
X28849502Y-76469829D01*
X28492836Y-76606740D01*
X28486811Y-76609422D01*
X28146397Y-76782872D01*
X28140687Y-76786169D01*
X27820265Y-76994253D01*
X27814939Y-76998123D01*
X27576165Y-77191478D01*
X27567700Y-77203733D01*
X24508500Y-77203733D01*
X24508500Y-62768580D01*
X28543752Y-62768580D01*
X28568477Y-62886421D01*
X28571537Y-62896617D01*
X28652263Y-63101029D01*
X28656994Y-63110561D01*
X28771016Y-63298462D01*
X28777280Y-63307052D01*
X28921327Y-63473052D01*
X28928958Y-63480472D01*
X29098911Y-63619826D01*
X29107678Y-63625850D01*
X29298682Y-63734576D01*
X29308346Y-63739041D01*
X29514941Y-63814031D01*
X29525208Y-63816802D01*
X29728174Y-63853504D01*
X29741414Y-63852085D01*
X29746000Y-63837450D01*
X29746000Y-63833849D01*
X30254000Y-63833849D01*
X30258310Y-63848527D01*
X30270193Y-63850590D01*
X30349325Y-63843876D01*
X30359797Y-63842086D01*
X30572535Y-63786870D01*
X30582575Y-63783335D01*
X30782970Y-63693063D01*
X30792256Y-63687894D01*
X30974575Y-63565150D01*
X30982870Y-63558481D01*
X31141900Y-63406772D01*
X31148941Y-63398814D01*
X31280141Y-63222475D01*
X31285745Y-63213438D01*
X31385358Y-63017514D01*
X31389357Y-63007665D01*
X31426524Y-62887966D01*
X33668257Y-62887966D01*
X33698565Y-63022446D01*
X33701645Y-63032275D01*
X33781770Y-63229603D01*
X33786413Y-63238794D01*
X33897694Y-63420388D01*
X33903777Y-63428699D01*
X34043213Y-63589667D01*
X34050580Y-63596883D01*
X34214434Y-63732916D01*
X34222881Y-63738831D01*
X34406756Y-63846279D01*
X34416042Y-63850729D01*
X34615001Y-63926703D01*
X34624899Y-63929579D01*
X34728250Y-63950606D01*
X34742299Y-63949410D01*
X34746000Y-63939065D01*
X34746000Y-63938517D01*
X35254000Y-63938517D01*
X35258064Y-63952359D01*
X35271478Y-63954393D01*
X35278184Y-63953534D01*
X35288262Y-63951392D01*
X35492255Y-63890191D01*
X35501842Y-63886433D01*
X35693095Y-63792739D01*
X35701945Y-63787464D01*
X35875328Y-63663792D01*
X35883200Y-63657139D01*
X36034052Y-63506812D01*
X36040730Y-63498965D01*
X36165003Y-63326020D01*
X36170313Y-63317183D01*
X36264670Y-63126267D01*
X36268469Y-63116672D01*
X36330377Y-62912910D01*
X36332555Y-62902837D01*
X36333986Y-62891962D01*
X36331775Y-62877778D01*
X36318617Y-62874000D01*
X35272115Y-62874000D01*
X35256876Y-62878475D01*
X35255671Y-62879865D01*
X35254000Y-62887548D01*
X35254000Y-63938517D01*
X34746000Y-63938517D01*
X34746000Y-62892115D01*
X34741525Y-62876876D01*
X34740135Y-62875671D01*
X34732452Y-62874000D01*
X33683225Y-62874000D01*
X33669694Y-62877973D01*
X33668257Y-62887966D01*
X31426524Y-62887966D01*
X31454534Y-62797760D01*
X31456817Y-62787376D01*
X31458861Y-62771957D01*
X31456665Y-62757793D01*
X31443478Y-62754000D01*
X30272115Y-62754000D01*
X30256876Y-62758475D01*
X30255671Y-62759865D01*
X30254000Y-62767548D01*
X30254000Y-63833849D01*
X29746000Y-63833849D01*
X29746000Y-62772115D01*
X29741525Y-62756876D01*
X29740135Y-62755671D01*
X29732452Y-62754000D01*
X28558808Y-62754000D01*
X28545277Y-62757973D01*
X28543752Y-62768580D01*
X24508500Y-62768580D01*
X24508500Y-59935774D01*
X28513102Y-59935774D01*
X28521751Y-60166158D01*
X28522846Y-60171377D01*
X28538061Y-60243893D01*
X28569093Y-60391791D01*
X28571051Y-60396750D01*
X28571052Y-60396752D01*
X28649326Y-60594952D01*
X28653776Y-60606221D01*
X28656543Y-60610780D01*
X28656544Y-60610783D01*
X28716956Y-60710339D01*
X28773377Y-60803317D01*
X28776874Y-60807347D01*
X28912367Y-60963489D01*
X28924477Y-60977445D01*
X28928608Y-60980832D01*
X29098627Y-61120240D01*
X29098633Y-61120244D01*
X29102755Y-61123624D01*
X29107398Y-61126267D01*
X29134735Y-61141829D01*
X29184041Y-61192912D01*
X29197902Y-61262542D01*
X29171918Y-61328613D01*
X29142768Y-61355851D01*
X29025422Y-61434852D01*
X29017130Y-61441519D01*
X28858100Y-61593228D01*
X28851059Y-61601186D01*
X28719859Y-61777525D01*
X28714255Y-61786562D01*
X28614643Y-61982484D01*
X28610643Y-61992335D01*
X28545466Y-62202240D01*
X28543183Y-62212624D01*
X28541139Y-62228043D01*
X28543335Y-62242207D01*
X28556522Y-62246000D01*
X31441192Y-62246000D01*
X31454723Y-62242027D01*
X31456248Y-62231420D01*
X31431523Y-62113579D01*
X31428463Y-62103383D01*
X31347737Y-61898971D01*
X31343006Y-61889439D01*
X31228984Y-61701538D01*
X31222720Y-61692948D01*
X31078673Y-61526948D01*
X31071042Y-61519528D01*
X30901089Y-61380174D01*
X30892326Y-61374152D01*
X30865289Y-61358762D01*
X30815982Y-61307680D01*
X30802120Y-61238049D01*
X30828103Y-61171978D01*
X30857253Y-61144739D01*
X30966582Y-61071134D01*
X30979319Y-61062559D01*
X31146135Y-60903424D01*
X31253377Y-60759287D01*
X31310086Y-60716574D01*
X31354465Y-60708500D01*
X33721210Y-60708500D01*
X33789331Y-60728502D01*
X33828643Y-60768665D01*
X33899987Y-60885088D01*
X34046250Y-61053938D01*
X34218126Y-61196632D01*
X34288363Y-61237675D01*
X34291955Y-61239774D01*
X34340679Y-61291412D01*
X34353750Y-61361195D01*
X34327019Y-61426967D01*
X34286562Y-61460327D01*
X34278457Y-61464546D01*
X34269738Y-61470036D01*
X34099433Y-61597905D01*
X34091726Y-61604748D01*
X33944590Y-61758717D01*
X33938104Y-61766727D01*
X33818098Y-61942649D01*
X33813000Y-61951623D01*
X33723338Y-62144783D01*
X33719775Y-62154470D01*
X33664389Y-62354183D01*
X33665912Y-62362607D01*
X33678292Y-62366000D01*
X36318344Y-62366000D01*
X36331875Y-62362027D01*
X36333180Y-62352947D01*
X36291214Y-62185875D01*
X36287894Y-62176124D01*
X36202972Y-61980814D01*
X36198105Y-61971739D01*
X36082426Y-61792926D01*
X36076136Y-61784757D01*
X35932806Y-61627240D01*
X35925273Y-61620215D01*
X35758139Y-61488222D01*
X35749556Y-61482520D01*
X35712602Y-61462120D01*
X35662631Y-61411687D01*
X35647859Y-61342245D01*
X35672975Y-61275839D01*
X35700327Y-61249232D01*
X35751044Y-61213056D01*
X35879860Y-61121173D01*
X35884550Y-61116500D01*
X35984265Y-61017132D01*
X36038096Y-60963489D01*
X36041112Y-60959292D01*
X36126132Y-60840974D01*
X36182127Y-60797326D01*
X36228455Y-60788500D01*
X37503588Y-60788500D01*
X37512158Y-60788792D01*
X37562276Y-60792209D01*
X37562280Y-60792209D01*
X37569852Y-60792725D01*
X37577329Y-60791420D01*
X37577330Y-60791420D01*
X37622709Y-60783500D01*
X37632803Y-60781738D01*
X37639321Y-60780777D01*
X37702742Y-60773102D01*
X37709843Y-60770419D01*
X37712452Y-60769778D01*
X37728762Y-60765315D01*
X37731298Y-60764550D01*
X37738784Y-60763243D01*
X37797300Y-60737556D01*
X37803404Y-60735065D01*
X37804900Y-60734500D01*
X37852181Y-60716634D01*
X37896718Y-60708500D01*
X37987072Y-60708500D01*
X37990318Y-60708163D01*
X37990322Y-60708163D01*
X38084235Y-60698419D01*
X38084239Y-60698418D01*
X38091093Y-60697707D01*
X38097629Y-60695526D01*
X38097631Y-60695526D01*
X38249159Y-60644972D01*
X38256107Y-60642654D01*
X38404031Y-60551116D01*
X38409204Y-60545934D01*
X38409209Y-60545930D01*
X38497002Y-60457983D01*
X38559284Y-60423903D01*
X38586175Y-60421000D01*
X38758588Y-60421000D01*
X38767158Y-60421292D01*
X38817276Y-60424709D01*
X38817280Y-60424709D01*
X38824852Y-60425225D01*
X38832329Y-60423920D01*
X38832330Y-60423920D01*
X38858808Y-60419299D01*
X38887803Y-60414238D01*
X38894321Y-60413277D01*
X38957742Y-60405602D01*
X38964843Y-60402919D01*
X38967452Y-60402278D01*
X38983762Y-60397815D01*
X38986298Y-60397050D01*
X38993784Y-60395743D01*
X39052300Y-60370056D01*
X39058404Y-60367565D01*
X39111048Y-60347673D01*
X39111049Y-60347672D01*
X39118156Y-60344987D01*
X39124419Y-60340683D01*
X39126785Y-60339446D01*
X39141597Y-60331201D01*
X39143851Y-60329868D01*
X39150805Y-60326815D01*
X39201502Y-60287913D01*
X39206832Y-60284041D01*
X39253220Y-60252161D01*
X39253225Y-60252156D01*
X39259481Y-60247857D01*
X39300935Y-60201330D01*
X39305916Y-60196054D01*
X39480535Y-60021436D01*
X39486800Y-60015583D01*
X39524664Y-59982552D01*
X39524665Y-59982551D01*
X39530385Y-59977561D01*
X39567136Y-59925271D01*
X39571028Y-59920029D01*
X39610476Y-59869718D01*
X39613600Y-59862799D01*
X39614988Y-59860507D01*
X39623357Y-59845835D01*
X39624622Y-59843475D01*
X39628990Y-59837261D01*
X39632413Y-59828483D01*
X39652202Y-59777725D01*
X39654759Y-59771642D01*
X39658204Y-59764014D01*
X39681045Y-59713427D01*
X39682430Y-59705954D01*
X39683234Y-59703388D01*
X39687855Y-59687165D01*
X39688520Y-59684573D01*
X39691282Y-59677491D01*
X39699622Y-59614139D01*
X39700654Y-59607623D01*
X39710911Y-59552281D01*
X39712295Y-59544814D01*
X39708709Y-59482620D01*
X39708500Y-59475367D01*
X39708500Y-57687473D01*
X39728502Y-57619352D01*
X39760439Y-57585537D01*
X39813681Y-57546854D01*
X39873537Y-57503366D01*
X39953206Y-57414885D01*
X39996905Y-57366352D01*
X39996906Y-57366351D01*
X40001324Y-57361444D01*
X40077517Y-57229474D01*
X40093507Y-57201779D01*
X40093508Y-57201778D01*
X40096811Y-57196056D01*
X40155826Y-57014428D01*
X40158704Y-56987051D01*
X40175098Y-56831065D01*
X40175788Y-56824500D01*
X40175098Y-56817935D01*
X40175098Y-56811329D01*
X40177668Y-56811329D01*
X40188375Y-56752818D01*
X40236884Y-56700977D01*
X40300906Y-56683500D01*
X49341100Y-56683500D01*
X49409221Y-56703502D01*
X49455714Y-56757158D01*
X49465818Y-56827432D01*
X49436324Y-56892012D01*
X49430196Y-56898595D01*
X48874197Y-57454595D01*
X48811884Y-57488620D01*
X48785101Y-57491500D01*
X46798766Y-57491500D01*
X46730645Y-57471498D01*
X46709749Y-57454673D01*
X46633188Y-57378246D01*
X46633183Y-57378242D01*
X46628003Y-57373071D01*
X46609141Y-57361444D01*
X46486150Y-57285631D01*
X46486148Y-57285630D01*
X46479920Y-57281791D01*
X46314809Y-57227026D01*
X46307973Y-57226326D01*
X46307970Y-57226325D01*
X46256474Y-57221049D01*
X46212072Y-57216500D01*
X45612928Y-57216500D01*
X45609682Y-57216837D01*
X45609678Y-57216837D01*
X45515765Y-57226581D01*
X45515761Y-57226582D01*
X45508907Y-57227293D01*
X45502371Y-57229474D01*
X45502369Y-57229474D01*
X45420856Y-57256669D01*
X45343893Y-57282346D01*
X45195969Y-57373884D01*
X45088899Y-57481141D01*
X45026618Y-57515220D01*
X44955798Y-57510217D01*
X44910709Y-57481296D01*
X44807871Y-57378637D01*
X44796460Y-57369625D01*
X44660937Y-57286088D01*
X44647759Y-57279944D01*
X44496234Y-57229685D01*
X44482868Y-57226819D01*
X44390230Y-57217328D01*
X44383815Y-57217000D01*
X44359615Y-57217000D01*
X44344376Y-57221475D01*
X44343171Y-57222865D01*
X44341500Y-57230548D01*
X44341500Y-58328000D01*
X44321498Y-58396121D01*
X44267842Y-58442614D01*
X44215500Y-58454000D01*
X43110115Y-58454000D01*
X43059710Y-58468800D01*
X42988713Y-58468800D01*
X42928987Y-58430416D01*
X42898902Y-58361073D01*
X42894232Y-58316636D01*
X42894232Y-58316635D01*
X42893542Y-58310072D01*
X42834527Y-58128444D01*
X42824331Y-58110783D01*
X42764903Y-58007852D01*
X42739040Y-57963056D01*
X42719654Y-57941525D01*
X42707372Y-57927885D01*
X43092000Y-57927885D01*
X43096475Y-57943124D01*
X43097865Y-57944329D01*
X43105548Y-57946000D01*
X43815385Y-57946000D01*
X43830624Y-57941525D01*
X43831829Y-57940135D01*
X43833500Y-57932452D01*
X43833500Y-57235115D01*
X43829025Y-57219876D01*
X43827635Y-57218671D01*
X43819952Y-57217000D01*
X43791234Y-57217000D01*
X43784718Y-57217337D01*
X43690868Y-57227075D01*
X43677472Y-57229968D01*
X43526047Y-57280488D01*
X43512885Y-57286653D01*
X43377508Y-57370426D01*
X43366110Y-57379460D01*
X43253637Y-57492129D01*
X43244625Y-57503540D01*
X43161088Y-57639063D01*
X43154944Y-57652241D01*
X43104685Y-57803766D01*
X43101819Y-57817132D01*
X43092328Y-57909770D01*
X43092000Y-57916185D01*
X43092000Y-57927885D01*
X42707372Y-57927885D01*
X42615675Y-57826045D01*
X42615674Y-57826044D01*
X42611253Y-57821134D01*
X42456752Y-57708882D01*
X42450724Y-57706198D01*
X42450722Y-57706197D01*
X42288319Y-57633891D01*
X42288318Y-57633891D01*
X42282288Y-57631206D01*
X42188887Y-57611353D01*
X42101944Y-57592872D01*
X42101939Y-57592872D01*
X42095487Y-57591500D01*
X41904513Y-57591500D01*
X41898061Y-57592872D01*
X41898056Y-57592872D01*
X41811113Y-57611353D01*
X41717712Y-57631206D01*
X41711682Y-57633891D01*
X41711681Y-57633891D01*
X41549278Y-57706197D01*
X41549276Y-57706198D01*
X41543248Y-57708882D01*
X41388747Y-57821134D01*
X41384326Y-57826044D01*
X41384325Y-57826045D01*
X41280347Y-57941525D01*
X41260960Y-57963056D01*
X41235097Y-58007852D01*
X41175670Y-58110783D01*
X41165473Y-58128444D01*
X41106458Y-58310072D01*
X41105768Y-58316633D01*
X41105768Y-58316635D01*
X41091331Y-58454000D01*
X41086496Y-58500000D01*
X41087186Y-58506565D01*
X41102035Y-58647841D01*
X41106458Y-58689928D01*
X41165473Y-58871556D01*
X41168776Y-58877278D01*
X41168777Y-58877279D01*
X41252652Y-59022555D01*
X41260960Y-59036944D01*
X41265379Y-59041852D01*
X41267436Y-59044683D01*
X41291295Y-59111551D01*
X41291500Y-59118744D01*
X41291500Y-59923127D01*
X41289390Y-59946087D01*
X41287704Y-59955186D01*
X41288141Y-59962766D01*
X41288141Y-59962767D01*
X41291291Y-60017392D01*
X41291500Y-60024646D01*
X41291500Y-62721088D01*
X41291208Y-62729658D01*
X41288314Y-62772115D01*
X41287275Y-62787352D01*
X41288580Y-62794829D01*
X41288580Y-62794830D01*
X41298261Y-62850299D01*
X41299223Y-62856821D01*
X41306898Y-62920242D01*
X41309581Y-62927343D01*
X41310222Y-62929952D01*
X41314685Y-62946262D01*
X41315450Y-62948798D01*
X41316757Y-62956284D01*
X41339698Y-63008543D01*
X41342442Y-63014795D01*
X41344933Y-63020899D01*
X41367513Y-63080656D01*
X41371817Y-63086919D01*
X41373054Y-63089285D01*
X41381299Y-63104097D01*
X41382632Y-63106351D01*
X41385685Y-63113305D01*
X41421130Y-63159496D01*
X41424579Y-63163991D01*
X41428459Y-63169332D01*
X41460339Y-63215720D01*
X41460344Y-63215725D01*
X41464643Y-63221981D01*
X41470312Y-63227031D01*
X41470312Y-63227032D01*
X41511169Y-63263434D01*
X41516446Y-63268416D01*
X41728564Y-63480535D01*
X41734417Y-63486800D01*
X41772439Y-63530385D01*
X41824729Y-63567136D01*
X41829971Y-63571028D01*
X41880282Y-63610476D01*
X41887201Y-63613600D01*
X41889493Y-63614988D01*
X41904165Y-63623357D01*
X41906525Y-63624622D01*
X41912739Y-63628990D01*
X41919818Y-63631750D01*
X41919820Y-63631751D01*
X41972275Y-63652202D01*
X41978344Y-63654753D01*
X42036573Y-63681045D01*
X42044046Y-63682430D01*
X42046612Y-63683234D01*
X42062835Y-63687855D01*
X42065427Y-63688520D01*
X42072509Y-63691282D01*
X42080044Y-63692274D01*
X42135861Y-63699622D01*
X42142377Y-63700654D01*
X42160598Y-63704031D01*
X42205186Y-63712295D01*
X42212766Y-63711858D01*
X42212767Y-63711858D01*
X42267380Y-63708709D01*
X42274633Y-63708500D01*
X43201234Y-63708500D01*
X43269355Y-63728502D01*
X43290251Y-63745326D01*
X43342017Y-63797001D01*
X43376097Y-63859283D01*
X43379000Y-63886175D01*
X43379000Y-64558588D01*
X43378708Y-64567158D01*
X43374775Y-64624852D01*
X43385322Y-64685281D01*
X43385761Y-64687799D01*
X43386723Y-64694321D01*
X43394398Y-64757742D01*
X43397081Y-64764843D01*
X43397722Y-64767452D01*
X43402185Y-64783762D01*
X43402950Y-64786298D01*
X43404257Y-64793784D01*
X43407311Y-64800741D01*
X43429942Y-64852295D01*
X43432433Y-64858399D01*
X43455013Y-64918156D01*
X43459317Y-64924419D01*
X43460554Y-64926785D01*
X43468799Y-64941597D01*
X43470132Y-64943851D01*
X43473185Y-64950805D01*
X43477807Y-64956828D01*
X43512079Y-65001491D01*
X43515959Y-65006832D01*
X43547839Y-65053220D01*
X43547844Y-65053225D01*
X43552143Y-65059481D01*
X43557813Y-65064532D01*
X43557814Y-65064534D01*
X43598670Y-65100935D01*
X43603946Y-65105916D01*
X45455095Y-66957066D01*
X45489121Y-67019378D01*
X45492000Y-67046161D01*
X45492000Y-69381256D01*
X45471998Y-69449377D01*
X45467936Y-69455317D01*
X45465879Y-69458148D01*
X45461460Y-69463056D01*
X45365973Y-69628444D01*
X45306958Y-69810072D01*
X45286996Y-70000000D01*
X45287686Y-70006565D01*
X45294344Y-70069908D01*
X45306958Y-70189928D01*
X45365973Y-70371556D01*
X45461460Y-70536944D01*
X45589247Y-70678866D01*
X45657565Y-70728502D01*
X45702259Y-70760974D01*
X45743748Y-70791118D01*
X45749776Y-70793802D01*
X45749778Y-70793803D01*
X45775125Y-70805088D01*
X45918212Y-70868794D01*
X46004509Y-70887137D01*
X46098556Y-70907128D01*
X46098561Y-70907128D01*
X46105013Y-70908500D01*
X46215500Y-70908500D01*
X46283621Y-70928502D01*
X46330114Y-70982158D01*
X46341500Y-71034500D01*
X46341500Y-76778803D01*
X46341208Y-76787373D01*
X46337275Y-76845067D01*
X46338580Y-76852544D01*
X46338580Y-76852545D01*
X46348261Y-76908014D01*
X46349223Y-76914536D01*
X46356898Y-76977957D01*
X46359581Y-76985058D01*
X46360222Y-76987667D01*
X46364685Y-77003977D01*
X46365450Y-77006513D01*
X46366757Y-77013999D01*
X46369811Y-77020956D01*
X46392442Y-77072510D01*
X46394933Y-77078614D01*
X46417513Y-77138371D01*
X46421817Y-77144634D01*
X46423054Y-77147000D01*
X46431299Y-77161812D01*
X46432632Y-77164066D01*
X46435685Y-77171020D01*
X46469963Y-77215690D01*
X46474579Y-77221706D01*
X46478459Y-77227047D01*
X46510339Y-77273435D01*
X46510344Y-77273440D01*
X46514643Y-77279696D01*
X46520313Y-77284747D01*
X46520314Y-77284749D01*
X46561170Y-77321150D01*
X46566446Y-77326131D01*
X48170835Y-78930520D01*
X48176689Y-78936785D01*
X48214724Y-78980385D01*
X48220942Y-78984755D01*
X48266982Y-79017112D01*
X48272278Y-79021045D01*
X48322567Y-79060477D01*
X48329489Y-79063602D01*
X48331737Y-79064964D01*
X48346470Y-79073368D01*
X48348809Y-79074622D01*
X48355024Y-79078990D01*
X48362100Y-79081749D01*
X48362104Y-79081751D01*
X48414554Y-79102200D01*
X48420619Y-79104749D01*
X48478858Y-79131045D01*
X48486323Y-79132429D01*
X48488867Y-79133226D01*
X48505133Y-79137859D01*
X48507713Y-79138521D01*
X48514794Y-79141282D01*
X48522327Y-79142274D01*
X48522328Y-79142274D01*
X48554984Y-79146573D01*
X48578142Y-79149622D01*
X48584640Y-79150650D01*
X48647472Y-79162296D01*
X48655052Y-79161859D01*
X48655053Y-79161859D01*
X48709683Y-79158709D01*
X48716936Y-79158500D01*
X49315500Y-79158500D01*
X49383621Y-79178502D01*
X49430114Y-79232158D01*
X49441500Y-79284500D01*
X49441500Y-80898134D01*
X49448255Y-80960316D01*
X49499385Y-81096705D01*
X49586739Y-81213261D01*
X49703295Y-81300615D01*
X49839684Y-81351745D01*
X49901866Y-81358500D01*
X51698134Y-81358500D01*
X51760316Y-81351745D01*
X51896705Y-81300615D01*
X52013261Y-81213261D01*
X52100615Y-81096705D01*
X52122799Y-81037529D01*
X52144598Y-80979382D01*
X52187240Y-80922618D01*
X52253802Y-80897918D01*
X52323150Y-80913126D01*
X52357817Y-80941114D01*
X52386250Y-80973938D01*
X52558126Y-81116632D01*
X52751000Y-81229338D01*
X52959692Y-81309030D01*
X52964760Y-81310061D01*
X52964763Y-81310062D01*
X53059862Y-81329410D01*
X53178597Y-81353567D01*
X53183772Y-81353757D01*
X53183774Y-81353757D01*
X53396673Y-81361564D01*
X53396677Y-81361564D01*
X53401837Y-81361753D01*
X53406957Y-81361097D01*
X53406959Y-81361097D01*
X53618288Y-81334025D01*
X53618289Y-81334025D01*
X53623416Y-81333368D01*
X53628366Y-81331883D01*
X53832429Y-81270661D01*
X53832434Y-81270659D01*
X53837384Y-81269174D01*
X54037994Y-81170896D01*
X54219860Y-81041173D01*
X54378096Y-80883489D01*
X54508453Y-80702077D01*
X54509776Y-80703028D01*
X54556645Y-80659857D01*
X54626580Y-80647625D01*
X54692026Y-80675144D01*
X54719875Y-80706994D01*
X54779987Y-80805088D01*
X54926250Y-80973938D01*
X55098126Y-81116632D01*
X55291000Y-81229338D01*
X55499692Y-81309030D01*
X55504760Y-81310061D01*
X55504763Y-81310062D01*
X55599862Y-81329410D01*
X55718597Y-81353567D01*
X55723772Y-81353757D01*
X55723774Y-81353757D01*
X55936673Y-81361564D01*
X55936677Y-81361564D01*
X55941837Y-81361753D01*
X55946957Y-81361097D01*
X55946959Y-81361097D01*
X56158288Y-81334025D01*
X56158289Y-81334025D01*
X56163416Y-81333368D01*
X56168366Y-81331883D01*
X56372429Y-81270661D01*
X56372434Y-81270659D01*
X56377384Y-81269174D01*
X56577994Y-81170896D01*
X56759860Y-81041173D01*
X56918096Y-80883489D01*
X57048453Y-80702077D01*
X57049776Y-80703028D01*
X57096645Y-80659857D01*
X57166580Y-80647625D01*
X57232026Y-80675144D01*
X57259875Y-80706994D01*
X57319987Y-80805088D01*
X57466250Y-80973938D01*
X57638126Y-81116632D01*
X57831000Y-81229338D01*
X58039692Y-81309030D01*
X58044760Y-81310061D01*
X58044763Y-81310062D01*
X58139862Y-81329410D01*
X58258597Y-81353567D01*
X58263772Y-81353757D01*
X58263774Y-81353757D01*
X58476673Y-81361564D01*
X58476677Y-81361564D01*
X58481837Y-81361753D01*
X58486957Y-81361097D01*
X58486959Y-81361097D01*
X58698288Y-81334025D01*
X58698289Y-81334025D01*
X58703416Y-81333368D01*
X58708366Y-81331883D01*
X58912429Y-81270661D01*
X58912434Y-81270659D01*
X58917384Y-81269174D01*
X59117994Y-81170896D01*
X59299860Y-81041173D01*
X59458096Y-80883489D01*
X59588453Y-80702077D01*
X59589640Y-80702930D01*
X59636960Y-80659362D01*
X59706897Y-80647145D01*
X59772338Y-80674678D01*
X59800166Y-80706511D01*
X59857694Y-80800388D01*
X59863777Y-80808699D01*
X60003213Y-80969667D01*
X60010580Y-80976883D01*
X60174434Y-81112916D01*
X60182881Y-81118831D01*
X60366756Y-81226279D01*
X60376042Y-81230729D01*
X60575001Y-81306703D01*
X60584899Y-81309579D01*
X60688250Y-81330606D01*
X60702299Y-81329410D01*
X60706000Y-81319065D01*
X60706000Y-81318517D01*
X61214000Y-81318517D01*
X61218064Y-81332359D01*
X61231478Y-81334393D01*
X61238184Y-81333534D01*
X61248262Y-81331392D01*
X61452255Y-81270191D01*
X61461842Y-81266433D01*
X61653095Y-81172739D01*
X61661945Y-81167464D01*
X61835328Y-81043792D01*
X61843200Y-81037139D01*
X61994052Y-80886812D01*
X62000730Y-80878965D01*
X62125003Y-80706020D01*
X62130313Y-80697183D01*
X62224670Y-80506267D01*
X62228469Y-80496672D01*
X62290377Y-80292910D01*
X62292555Y-80282837D01*
X62293986Y-80271962D01*
X62291775Y-80257778D01*
X62278617Y-80254000D01*
X61232115Y-80254000D01*
X61216876Y-80258475D01*
X61215671Y-80259865D01*
X61214000Y-80267548D01*
X61214000Y-81318517D01*
X60706000Y-81318517D01*
X60706000Y-80003301D01*
X76287084Y-80003301D01*
X76307080Y-80384833D01*
X76307766Y-80391371D01*
X76367535Y-80768734D01*
X76368906Y-80775184D01*
X76467788Y-81144216D01*
X76469829Y-81150498D01*
X76606740Y-81507164D01*
X76609422Y-81513189D01*
X76782872Y-81853603D01*
X76786169Y-81859313D01*
X76994253Y-82179735D01*
X76998123Y-82185061D01*
X77191478Y-82423835D01*
X77203733Y-82432300D01*
X77214824Y-82425966D01*
X79627978Y-80012812D01*
X79634356Y-80001132D01*
X80364408Y-80001132D01*
X80364539Y-80002965D01*
X80368790Y-80009580D01*
X82784310Y-82425100D01*
X82797386Y-82432241D01*
X82807753Y-82424784D01*
X83001877Y-82185061D01*
X83005747Y-82179735D01*
X83213831Y-81859313D01*
X83217128Y-81853603D01*
X83390578Y-81513189D01*
X83393260Y-81507164D01*
X83530171Y-81150498D01*
X83532212Y-81144216D01*
X83631094Y-80775184D01*
X83632465Y-80768734D01*
X83692234Y-80391371D01*
X83692920Y-80384833D01*
X83712916Y-80003301D01*
X83712916Y-79996699D01*
X83692920Y-79615167D01*
X83692234Y-79608629D01*
X83632465Y-79231266D01*
X83631094Y-79224816D01*
X83532212Y-78855784D01*
X83530171Y-78849502D01*
X83393260Y-78492836D01*
X83390578Y-78486811D01*
X83217128Y-78146397D01*
X83213831Y-78140687D01*
X83005747Y-77820265D01*
X83001877Y-77814939D01*
X82808522Y-77576165D01*
X82796267Y-77567700D01*
X82785176Y-77574034D01*
X80372022Y-79987188D01*
X80364408Y-80001132D01*
X79634356Y-80001132D01*
X79635592Y-79998868D01*
X79635461Y-79997035D01*
X79631210Y-79990420D01*
X77215690Y-77574900D01*
X77202614Y-77567759D01*
X77192247Y-77575216D01*
X76998123Y-77814939D01*
X76994253Y-77820265D01*
X76786169Y-78140687D01*
X76782872Y-78146397D01*
X76609422Y-78486811D01*
X76606740Y-78492836D01*
X76469829Y-78849502D01*
X76467788Y-78855784D01*
X76368906Y-79224816D01*
X76367535Y-79231266D01*
X76307766Y-79608629D01*
X76307080Y-79615167D01*
X76287084Y-79996699D01*
X76287084Y-80003301D01*
X60706000Y-80003301D01*
X60706000Y-79727885D01*
X61214000Y-79727885D01*
X61218475Y-79743124D01*
X61219865Y-79744329D01*
X61227548Y-79746000D01*
X62278344Y-79746000D01*
X62291875Y-79742027D01*
X62293180Y-79732947D01*
X62251214Y-79565875D01*
X62247894Y-79556124D01*
X62162972Y-79360814D01*
X62158105Y-79351739D01*
X62042426Y-79172926D01*
X62036136Y-79164757D01*
X61892806Y-79007240D01*
X61885273Y-79000215D01*
X61718139Y-78868222D01*
X61709552Y-78862517D01*
X61523117Y-78759599D01*
X61513705Y-78755369D01*
X61312959Y-78684280D01*
X61302988Y-78681646D01*
X61231837Y-78668972D01*
X61218540Y-78670432D01*
X61214000Y-78684989D01*
X61214000Y-79727885D01*
X60706000Y-79727885D01*
X60706000Y-78683102D01*
X60702082Y-78669758D01*
X60687806Y-78667771D01*
X60649324Y-78673660D01*
X60639288Y-78676051D01*
X60436868Y-78742212D01*
X60427359Y-78746209D01*
X60238463Y-78844542D01*
X60229738Y-78850036D01*
X60059433Y-78977905D01*
X60051726Y-78984748D01*
X59904590Y-79138717D01*
X59898109Y-79146722D01*
X59793498Y-79300074D01*
X59738587Y-79345076D01*
X59668062Y-79353247D01*
X59604315Y-79321993D01*
X59583618Y-79297509D01*
X59502822Y-79172617D01*
X59502820Y-79172614D01*
X59500014Y-79168277D01*
X59349670Y-79003051D01*
X59345619Y-78999852D01*
X59345615Y-78999848D01*
X59178414Y-78867800D01*
X59178410Y-78867798D01*
X59174359Y-78864598D01*
X59158393Y-78855784D01*
X59122136Y-78835769D01*
X58978789Y-78756638D01*
X58973920Y-78754914D01*
X58973916Y-78754912D01*
X58773087Y-78683795D01*
X58773083Y-78683794D01*
X58768212Y-78682069D01*
X58763119Y-78681162D01*
X58763116Y-78681161D01*
X58553373Y-78643800D01*
X58553367Y-78643799D01*
X58548284Y-78642894D01*
X58474452Y-78641992D01*
X58330081Y-78640228D01*
X58330079Y-78640228D01*
X58324911Y-78640165D01*
X58160059Y-78665391D01*
X58089698Y-78655923D01*
X58051906Y-78629936D01*
X56625703Y-77203733D01*
X77567700Y-77203733D01*
X77574034Y-77214824D01*
X79987188Y-79627978D01*
X80001132Y-79635592D01*
X80002965Y-79635461D01*
X80009580Y-79631210D01*
X82425100Y-77215690D01*
X82432241Y-77202614D01*
X82424784Y-77192247D01*
X82185065Y-76998126D01*
X82179728Y-76994249D01*
X81859315Y-76786170D01*
X81853606Y-76782873D01*
X81513189Y-76609422D01*
X81507164Y-76606740D01*
X81150498Y-76469829D01*
X81144216Y-76467788D01*
X80775184Y-76368906D01*
X80768734Y-76367535D01*
X80391371Y-76307766D01*
X80384833Y-76307080D01*
X80003301Y-76287084D01*
X79996699Y-76287084D01*
X79615167Y-76307080D01*
X79608629Y-76307766D01*
X79231266Y-76367535D01*
X79224816Y-76368906D01*
X78855784Y-76467788D01*
X78849502Y-76469829D01*
X78492836Y-76606740D01*
X78486811Y-76609422D01*
X78146397Y-76782872D01*
X78140687Y-76786169D01*
X77820265Y-76994253D01*
X77814939Y-76998123D01*
X77576165Y-77191478D01*
X77567700Y-77203733D01*
X56625703Y-77203733D01*
X55982696Y-76560726D01*
X55948670Y-76498414D01*
X55953735Y-76427599D01*
X55996282Y-76370763D01*
X56055781Y-76346652D01*
X56158184Y-76333534D01*
X56168262Y-76331392D01*
X56372255Y-76270191D01*
X56381842Y-76266433D01*
X56573095Y-76172739D01*
X56581945Y-76167464D01*
X56755328Y-76043792D01*
X56763200Y-76037139D01*
X56914052Y-75886812D01*
X56920730Y-75878965D01*
X57048022Y-75701819D01*
X57049147Y-75702627D01*
X57096669Y-75658876D01*
X57166607Y-75646661D01*
X57232046Y-75674197D01*
X57259870Y-75706028D01*
X57317690Y-75800383D01*
X57323777Y-75808699D01*
X57463213Y-75969667D01*
X57470580Y-75976883D01*
X57634434Y-76112916D01*
X57642881Y-76118831D01*
X57826756Y-76226279D01*
X57836042Y-76230729D01*
X58035001Y-76306703D01*
X58044899Y-76309579D01*
X58148250Y-76330606D01*
X58162299Y-76329410D01*
X58166000Y-76319065D01*
X58166000Y-76318517D01*
X58674000Y-76318517D01*
X58678064Y-76332359D01*
X58691478Y-76334393D01*
X58698184Y-76333534D01*
X58708262Y-76331392D01*
X58912255Y-76270191D01*
X58921842Y-76266433D01*
X59113095Y-76172739D01*
X59121945Y-76167464D01*
X59295328Y-76043792D01*
X59303200Y-76037139D01*
X59454052Y-75886812D01*
X59460730Y-75878965D01*
X59588022Y-75701819D01*
X59589147Y-75702627D01*
X59636669Y-75658876D01*
X59706607Y-75646661D01*
X59772046Y-75674197D01*
X59799870Y-75706028D01*
X59857690Y-75800383D01*
X59863777Y-75808699D01*
X60003213Y-75969667D01*
X60010580Y-75976883D01*
X60174434Y-76112916D01*
X60182881Y-76118831D01*
X60366756Y-76226279D01*
X60376042Y-76230729D01*
X60575001Y-76306703D01*
X60584899Y-76309579D01*
X60688250Y-76330606D01*
X60702299Y-76329410D01*
X60706000Y-76319065D01*
X60706000Y-76318517D01*
X61214000Y-76318517D01*
X61218064Y-76332359D01*
X61231478Y-76334393D01*
X61238184Y-76333534D01*
X61248262Y-76331392D01*
X61452255Y-76270191D01*
X61461842Y-76266433D01*
X61653095Y-76172739D01*
X61661945Y-76167464D01*
X61835328Y-76043792D01*
X61843200Y-76037139D01*
X61994052Y-75886812D01*
X62000730Y-75878965D01*
X62125003Y-75706020D01*
X62130313Y-75697183D01*
X62224670Y-75506267D01*
X62228469Y-75496672D01*
X62290377Y-75292910D01*
X62292555Y-75282837D01*
X62293986Y-75271962D01*
X62291775Y-75257778D01*
X62278617Y-75254000D01*
X61232115Y-75254000D01*
X61216876Y-75258475D01*
X61215671Y-75259865D01*
X61214000Y-75267548D01*
X61214000Y-76318517D01*
X60706000Y-76318517D01*
X60706000Y-75272115D01*
X60701525Y-75256876D01*
X60700135Y-75255671D01*
X60692452Y-75254000D01*
X58692115Y-75254000D01*
X58676876Y-75258475D01*
X58675671Y-75259865D01*
X58674000Y-75267548D01*
X58674000Y-76318517D01*
X58166000Y-76318517D01*
X58166000Y-75272115D01*
X58161525Y-75256876D01*
X58160135Y-75255671D01*
X58152452Y-75254000D01*
X50672000Y-75254000D01*
X50603879Y-75233998D01*
X50557386Y-75180342D01*
X50546000Y-75128000D01*
X50546000Y-74727885D01*
X51054000Y-74727885D01*
X51058475Y-74743124D01*
X51059865Y-74744329D01*
X51067548Y-74746000D01*
X53067885Y-74746000D01*
X53083124Y-74741525D01*
X53084329Y-74740135D01*
X53086000Y-74732452D01*
X53086000Y-74727885D01*
X53594000Y-74727885D01*
X53598475Y-74743124D01*
X53599865Y-74744329D01*
X53607548Y-74746000D01*
X55607885Y-74746000D01*
X55623124Y-74741525D01*
X55624329Y-74740135D01*
X55626000Y-74732452D01*
X55626000Y-74727885D01*
X56134000Y-74727885D01*
X56138475Y-74743124D01*
X56139865Y-74744329D01*
X56147548Y-74746000D01*
X58147885Y-74746000D01*
X58163124Y-74741525D01*
X58164329Y-74740135D01*
X58166000Y-74732452D01*
X58166000Y-74727885D01*
X58674000Y-74727885D01*
X58678475Y-74743124D01*
X58679865Y-74744329D01*
X58687548Y-74746000D01*
X60687885Y-74746000D01*
X60703124Y-74741525D01*
X60704329Y-74740135D01*
X60706000Y-74732452D01*
X60706000Y-74727885D01*
X61214000Y-74727885D01*
X61218475Y-74743124D01*
X61219865Y-74744329D01*
X61227548Y-74746000D01*
X62278344Y-74746000D01*
X62291875Y-74742027D01*
X62293180Y-74732947D01*
X62251214Y-74565875D01*
X62247894Y-74556124D01*
X62162972Y-74360814D01*
X62158105Y-74351739D01*
X62042426Y-74172926D01*
X62036136Y-74164757D01*
X61892806Y-74007240D01*
X61885273Y-74000215D01*
X61718139Y-73868222D01*
X61709552Y-73862517D01*
X61523117Y-73759599D01*
X61513705Y-73755369D01*
X61312959Y-73684280D01*
X61302988Y-73681646D01*
X61231837Y-73668972D01*
X61218540Y-73670432D01*
X61214000Y-73684989D01*
X61214000Y-74727885D01*
X60706000Y-74727885D01*
X60706000Y-73683102D01*
X60702082Y-73669758D01*
X60687806Y-73667771D01*
X60649324Y-73673660D01*
X60639288Y-73676051D01*
X60436868Y-73742212D01*
X60427359Y-73746209D01*
X60238463Y-73844542D01*
X60229738Y-73850036D01*
X60059433Y-73977905D01*
X60051726Y-73984748D01*
X59904590Y-74138717D01*
X59898104Y-74146727D01*
X59793193Y-74300521D01*
X59738282Y-74345524D01*
X59667757Y-74353695D01*
X59604010Y-74322441D01*
X59583313Y-74297957D01*
X59502427Y-74172926D01*
X59496136Y-74164757D01*
X59352806Y-74007240D01*
X59345273Y-74000215D01*
X59178139Y-73868222D01*
X59169552Y-73862517D01*
X58983117Y-73759599D01*
X58973705Y-73755369D01*
X58772959Y-73684280D01*
X58762988Y-73681646D01*
X58691837Y-73668972D01*
X58678540Y-73670432D01*
X58674000Y-73684989D01*
X58674000Y-74727885D01*
X58166000Y-74727885D01*
X58166000Y-73683102D01*
X58162082Y-73669758D01*
X58147806Y-73667771D01*
X58109324Y-73673660D01*
X58099288Y-73676051D01*
X57896868Y-73742212D01*
X57887359Y-73746209D01*
X57698463Y-73844542D01*
X57689738Y-73850036D01*
X57519433Y-73977905D01*
X57511726Y-73984748D01*
X57364590Y-74138717D01*
X57358104Y-74146727D01*
X57253193Y-74300521D01*
X57198282Y-74345524D01*
X57127757Y-74353695D01*
X57064010Y-74322441D01*
X57043313Y-74297957D01*
X56962427Y-74172926D01*
X56956136Y-74164757D01*
X56812806Y-74007240D01*
X56805273Y-74000215D01*
X56638139Y-73868222D01*
X56629552Y-73862517D01*
X56443117Y-73759599D01*
X56433705Y-73755369D01*
X56232959Y-73684280D01*
X56222988Y-73681646D01*
X56151837Y-73668972D01*
X56138540Y-73670432D01*
X56134000Y-73684989D01*
X56134000Y-74727885D01*
X55626000Y-74727885D01*
X55626000Y-73683102D01*
X55622082Y-73669758D01*
X55607806Y-73667771D01*
X55569324Y-73673660D01*
X55559288Y-73676051D01*
X55356868Y-73742212D01*
X55347359Y-73746209D01*
X55158463Y-73844542D01*
X55149738Y-73850036D01*
X54979433Y-73977905D01*
X54971726Y-73984748D01*
X54824590Y-74138717D01*
X54818104Y-74146727D01*
X54713193Y-74300521D01*
X54658282Y-74345524D01*
X54587757Y-74353695D01*
X54524010Y-74322441D01*
X54503313Y-74297957D01*
X54422427Y-74172926D01*
X54416136Y-74164757D01*
X54272806Y-74007240D01*
X54265273Y-74000215D01*
X54098139Y-73868222D01*
X54089552Y-73862517D01*
X53903117Y-73759599D01*
X53893705Y-73755369D01*
X53692959Y-73684280D01*
X53682988Y-73681646D01*
X53611837Y-73668972D01*
X53598540Y-73670432D01*
X53594000Y-73684989D01*
X53594000Y-74727885D01*
X53086000Y-74727885D01*
X53086000Y-73683102D01*
X53082082Y-73669758D01*
X53067806Y-73667771D01*
X53029324Y-73673660D01*
X53019288Y-73676051D01*
X52816868Y-73742212D01*
X52807359Y-73746209D01*
X52618463Y-73844542D01*
X52609738Y-73850036D01*
X52439433Y-73977905D01*
X52431726Y-73984748D01*
X52354094Y-74065985D01*
X52292570Y-74101415D01*
X52221657Y-74097958D01*
X52163871Y-74056712D01*
X52145018Y-74023164D01*
X52103324Y-73911946D01*
X52094786Y-73896351D01*
X52018285Y-73794276D01*
X52005724Y-73781715D01*
X51903649Y-73705214D01*
X51888054Y-73696676D01*
X51767606Y-73651522D01*
X51752351Y-73647895D01*
X51701486Y-73642369D01*
X51694672Y-73642000D01*
X51072115Y-73642000D01*
X51056876Y-73646475D01*
X51055671Y-73647865D01*
X51054000Y-73655548D01*
X51054000Y-74727885D01*
X50546000Y-74727885D01*
X50546000Y-73660116D01*
X50541525Y-73644877D01*
X50540135Y-73643672D01*
X50532452Y-73642001D01*
X49905331Y-73642001D01*
X49898509Y-73642371D01*
X49848105Y-73647845D01*
X49778223Y-73635316D01*
X49726208Y-73586994D01*
X49708500Y-73522582D01*
X49708500Y-71477923D01*
X49728502Y-71409802D01*
X49782158Y-71363309D01*
X49848108Y-71352660D01*
X49901866Y-71358500D01*
X51698134Y-71358500D01*
X51760316Y-71351745D01*
X51896705Y-71300615D01*
X52013261Y-71213261D01*
X52100615Y-71096705D01*
X52143557Y-70982158D01*
X52144598Y-70979382D01*
X52187240Y-70922618D01*
X52253802Y-70897918D01*
X52323150Y-70913126D01*
X52357817Y-70941114D01*
X52386250Y-70973938D01*
X52558126Y-71116632D01*
X52751000Y-71229338D01*
X52959692Y-71309030D01*
X52964760Y-71310061D01*
X52964763Y-71310062D01*
X53072017Y-71331883D01*
X53178597Y-71353567D01*
X53183772Y-71353757D01*
X53183774Y-71353757D01*
X53396673Y-71361564D01*
X53396677Y-71361564D01*
X53401837Y-71361753D01*
X53406957Y-71361097D01*
X53406959Y-71361097D01*
X53618288Y-71334025D01*
X53618289Y-71334025D01*
X53623416Y-71333368D01*
X53628366Y-71331883D01*
X53832429Y-71270661D01*
X53832434Y-71270659D01*
X53837384Y-71269174D01*
X54037994Y-71170896D01*
X54219860Y-71041173D01*
X54226557Y-71034500D01*
X54374435Y-70887137D01*
X54378096Y-70883489D01*
X54387670Y-70870166D01*
X54466132Y-70760974D01*
X54522127Y-70717326D01*
X54568455Y-70708500D01*
X54650234Y-70708500D01*
X54718355Y-70728502D01*
X54757667Y-70768665D01*
X54779987Y-70805088D01*
X54926250Y-70973938D01*
X55098126Y-71116632D01*
X55291000Y-71229338D01*
X55499692Y-71309030D01*
X55504760Y-71310061D01*
X55504763Y-71310062D01*
X55612017Y-71331883D01*
X55718597Y-71353567D01*
X55723772Y-71353757D01*
X55723774Y-71353757D01*
X55936673Y-71361564D01*
X55936677Y-71361564D01*
X55941837Y-71361753D01*
X55946957Y-71361097D01*
X55946959Y-71361097D01*
X56158288Y-71334025D01*
X56158289Y-71334025D01*
X56163416Y-71333368D01*
X56168366Y-71331883D01*
X56372429Y-71270661D01*
X56372434Y-71270659D01*
X56377384Y-71269174D01*
X56577994Y-71170896D01*
X56759860Y-71041173D01*
X56766557Y-71034500D01*
X56914435Y-70887137D01*
X56918096Y-70883489D01*
X56927670Y-70870166D01*
X57006132Y-70760974D01*
X57062127Y-70717326D01*
X57108455Y-70708500D01*
X57190234Y-70708500D01*
X57258355Y-70728502D01*
X57297667Y-70768665D01*
X57319987Y-70805088D01*
X57466250Y-70973938D01*
X57638126Y-71116632D01*
X57831000Y-71229338D01*
X58039692Y-71309030D01*
X58044760Y-71310061D01*
X58044763Y-71310062D01*
X58152017Y-71331883D01*
X58258597Y-71353567D01*
X58263772Y-71353757D01*
X58263774Y-71353757D01*
X58476673Y-71361564D01*
X58476677Y-71361564D01*
X58481837Y-71361753D01*
X58486957Y-71361097D01*
X58486959Y-71361097D01*
X58698288Y-71334025D01*
X58698289Y-71334025D01*
X58703416Y-71333368D01*
X58708366Y-71331883D01*
X58912429Y-71270661D01*
X58912434Y-71270659D01*
X58917384Y-71269174D01*
X59117994Y-71170896D01*
X59299860Y-71041173D01*
X59306557Y-71034500D01*
X59454435Y-70887137D01*
X59458096Y-70883489D01*
X59467670Y-70870166D01*
X59546132Y-70760974D01*
X59602127Y-70717326D01*
X59648455Y-70708500D01*
X59730234Y-70708500D01*
X59798355Y-70728502D01*
X59837667Y-70768665D01*
X59859987Y-70805088D01*
X60006250Y-70973938D01*
X60178126Y-71116632D01*
X60371000Y-71229338D01*
X60579692Y-71309030D01*
X60584760Y-71310061D01*
X60584763Y-71310062D01*
X60692017Y-71331883D01*
X60798597Y-71353567D01*
X60803772Y-71353757D01*
X60803774Y-71353757D01*
X61016673Y-71361564D01*
X61016677Y-71361564D01*
X61021837Y-71361753D01*
X61026957Y-71361097D01*
X61026959Y-71361097D01*
X61238288Y-71334025D01*
X61238289Y-71334025D01*
X61243416Y-71333368D01*
X61248366Y-71331883D01*
X61452429Y-71270661D01*
X61452434Y-71270659D01*
X61457384Y-71269174D01*
X61657994Y-71170896D01*
X61839860Y-71041173D01*
X61846557Y-71034500D01*
X61994435Y-70887137D01*
X61998096Y-70883489D01*
X62007670Y-70870166D01*
X62125435Y-70706277D01*
X62128453Y-70702077D01*
X62138006Y-70682749D01*
X62225136Y-70506453D01*
X62225137Y-70506451D01*
X62227430Y-70501811D01*
X62292370Y-70288069D01*
X62321529Y-70066590D01*
X62323156Y-70000000D01*
X62304852Y-69777361D01*
X62250431Y-69560702D01*
X62161354Y-69355840D01*
X62040014Y-69168277D01*
X61889670Y-69003051D01*
X61885619Y-68999852D01*
X61885615Y-68999848D01*
X61718414Y-68867800D01*
X61718410Y-68867798D01*
X61714359Y-68864598D01*
X61518789Y-68756638D01*
X61513920Y-68754914D01*
X61513916Y-68754912D01*
X61313087Y-68683795D01*
X61313083Y-68683794D01*
X61308212Y-68682069D01*
X61303119Y-68681162D01*
X61303116Y-68681161D01*
X61093373Y-68643800D01*
X61093367Y-68643799D01*
X61088284Y-68642894D01*
X61014452Y-68641992D01*
X60870081Y-68640228D01*
X60870079Y-68640228D01*
X60864911Y-68640165D01*
X60644091Y-68673955D01*
X60431756Y-68743357D01*
X60233607Y-68846507D01*
X60229474Y-68849610D01*
X60229471Y-68849612D01*
X60059100Y-68977530D01*
X60054965Y-68980635D01*
X60051393Y-68984373D01*
X59943729Y-69097037D01*
X59900629Y-69142138D01*
X59897715Y-69146410D01*
X59897714Y-69146411D01*
X59836257Y-69236504D01*
X59781346Y-69281507D01*
X59732169Y-69291500D01*
X59648286Y-69291500D01*
X59580165Y-69271498D01*
X59542494Y-69233941D01*
X59500014Y-69168277D01*
X59349670Y-69003051D01*
X59345619Y-68999852D01*
X59345615Y-68999848D01*
X59178414Y-68867800D01*
X59178410Y-68867798D01*
X59174359Y-68864598D01*
X58978789Y-68756638D01*
X58973920Y-68754914D01*
X58973916Y-68754912D01*
X58773087Y-68683795D01*
X58773083Y-68683794D01*
X58768212Y-68682069D01*
X58763119Y-68681162D01*
X58763116Y-68681161D01*
X58553373Y-68643800D01*
X58553367Y-68643799D01*
X58548284Y-68642894D01*
X58474452Y-68641992D01*
X58330081Y-68640228D01*
X58330079Y-68640228D01*
X58324911Y-68640165D01*
X58104091Y-68673955D01*
X57891756Y-68743357D01*
X57693607Y-68846507D01*
X57689474Y-68849610D01*
X57689471Y-68849612D01*
X57519100Y-68977530D01*
X57514965Y-68980635D01*
X57511393Y-68984373D01*
X57403729Y-69097037D01*
X57360629Y-69142138D01*
X57357715Y-69146410D01*
X57357714Y-69146411D01*
X57296257Y-69236504D01*
X57241346Y-69281507D01*
X57192169Y-69291500D01*
X57108286Y-69291500D01*
X57040165Y-69271498D01*
X57002494Y-69233941D01*
X56960014Y-69168277D01*
X56809670Y-69003051D01*
X56805619Y-68999852D01*
X56805615Y-68999848D01*
X56638414Y-68867800D01*
X56638410Y-68867798D01*
X56634359Y-68864598D01*
X56438789Y-68756638D01*
X56433920Y-68754914D01*
X56433916Y-68754912D01*
X56233087Y-68683795D01*
X56233083Y-68683794D01*
X56228212Y-68682069D01*
X56223119Y-68681162D01*
X56223116Y-68681161D01*
X56013373Y-68643800D01*
X56013367Y-68643799D01*
X56008284Y-68642894D01*
X55934452Y-68641992D01*
X55790081Y-68640228D01*
X55790079Y-68640228D01*
X55784911Y-68640165D01*
X55564091Y-68673955D01*
X55351756Y-68743357D01*
X55153607Y-68846507D01*
X55149474Y-68849610D01*
X55149471Y-68849612D01*
X54979100Y-68977530D01*
X54974965Y-68980635D01*
X54971393Y-68984373D01*
X54863729Y-69097037D01*
X54820629Y-69142138D01*
X54817715Y-69146410D01*
X54817714Y-69146411D01*
X54756257Y-69236504D01*
X54701346Y-69281507D01*
X54652169Y-69291500D01*
X54568286Y-69291500D01*
X54500165Y-69271498D01*
X54462494Y-69233941D01*
X54420014Y-69168277D01*
X54269670Y-69003051D01*
X54265619Y-68999852D01*
X54265615Y-68999848D01*
X54098414Y-68867800D01*
X54098410Y-68867798D01*
X54094359Y-68864598D01*
X53898789Y-68756638D01*
X53893920Y-68754914D01*
X53893916Y-68754912D01*
X53693087Y-68683795D01*
X53693083Y-68683794D01*
X53688212Y-68682069D01*
X53683119Y-68681162D01*
X53683116Y-68681161D01*
X53473373Y-68643800D01*
X53473367Y-68643799D01*
X53468284Y-68642894D01*
X53394452Y-68641992D01*
X53250081Y-68640228D01*
X53250079Y-68640228D01*
X53244911Y-68640165D01*
X53024091Y-68673955D01*
X52811756Y-68743357D01*
X52613607Y-68846507D01*
X52609474Y-68849610D01*
X52609471Y-68849612D01*
X52439100Y-68977530D01*
X52434965Y-68980635D01*
X52378537Y-69039684D01*
X52354283Y-69065064D01*
X52292759Y-69100494D01*
X52221846Y-69097037D01*
X52164060Y-69055791D01*
X52145207Y-69022243D01*
X52103767Y-68911703D01*
X52100615Y-68903295D01*
X52013261Y-68786739D01*
X51896705Y-68699385D01*
X51760316Y-68648255D01*
X51698134Y-68641500D01*
X49901866Y-68641500D01*
X49848108Y-68647340D01*
X49778225Y-68634812D01*
X49726210Y-68586491D01*
X49708500Y-68522077D01*
X49708500Y-65865016D01*
X52904500Y-65865016D01*
X52904837Y-65871532D01*
X52914575Y-65965382D01*
X52917468Y-65978778D01*
X52967988Y-66130203D01*
X52974153Y-66143365D01*
X53057926Y-66278742D01*
X53066960Y-66290140D01*
X53179629Y-66402613D01*
X53191040Y-66411625D01*
X53326563Y-66495162D01*
X53339741Y-66501306D01*
X53491266Y-66551565D01*
X53504632Y-66554431D01*
X53597270Y-66563922D01*
X53603685Y-66564250D01*
X53665385Y-66564250D01*
X53680624Y-66559775D01*
X53681829Y-66558385D01*
X53683500Y-66550702D01*
X53683500Y-65853365D01*
X53679025Y-65838126D01*
X53677635Y-65836921D01*
X53669952Y-65835250D01*
X52922615Y-65835250D01*
X52907376Y-65839725D01*
X52906171Y-65841115D01*
X52904500Y-65848798D01*
X52904500Y-65865016D01*
X49708500Y-65865016D01*
X49708500Y-64815750D01*
X49728502Y-64747629D01*
X49782158Y-64701136D01*
X49834500Y-64689750D01*
X52951668Y-64689750D01*
X53019789Y-64709752D01*
X53066282Y-64763408D01*
X53076386Y-64833682D01*
X53058928Y-64881866D01*
X52973588Y-65020313D01*
X52967444Y-65033491D01*
X52917185Y-65185016D01*
X52914319Y-65198382D01*
X52904828Y-65291020D01*
X52904500Y-65297435D01*
X52904500Y-65309135D01*
X52908975Y-65324374D01*
X52910365Y-65325579D01*
X52918048Y-65327250D01*
X54065500Y-65327250D01*
X54133621Y-65347252D01*
X54180114Y-65400908D01*
X54191500Y-65453250D01*
X54191500Y-66546135D01*
X54195975Y-66561374D01*
X54197365Y-66562579D01*
X54205048Y-66564250D01*
X54271266Y-66564250D01*
X54277782Y-66563913D01*
X54371632Y-66554175D01*
X54385028Y-66551282D01*
X54536453Y-66500762D01*
X54549615Y-66494597D01*
X54684992Y-66410824D01*
X54696395Y-66401786D01*
X54723025Y-66375110D01*
X54785307Y-66341031D01*
X54856127Y-66346034D01*
X54901215Y-66374955D01*
X54934497Y-66408179D01*
X55082580Y-66499459D01*
X55247691Y-66554224D01*
X55254527Y-66554924D01*
X55254530Y-66554925D01*
X55301870Y-66559775D01*
X55350428Y-66564750D01*
X56024572Y-66564750D01*
X56027818Y-66564413D01*
X56027822Y-66564413D01*
X56121735Y-66554669D01*
X56121739Y-66554668D01*
X56128593Y-66553957D01*
X56135129Y-66551776D01*
X56135131Y-66551776D01*
X56267895Y-66507482D01*
X56293607Y-66498904D01*
X56441531Y-66407366D01*
X56473731Y-66375110D01*
X56559258Y-66289434D01*
X56559262Y-66289429D01*
X56564429Y-66284253D01*
X56655709Y-66136170D01*
X56710474Y-65971059D01*
X56721000Y-65868322D01*
X56721000Y-65294178D01*
X56711871Y-65206195D01*
X56710919Y-65197015D01*
X56710918Y-65197011D01*
X56710207Y-65190157D01*
X56690540Y-65131206D01*
X56657472Y-65032091D01*
X56655154Y-65025143D01*
X56563616Y-64877219D01*
X56558779Y-64872390D01*
X56532216Y-64806766D01*
X56545387Y-64737002D01*
X56568425Y-64705294D01*
X56584257Y-64689434D01*
X56589429Y-64684253D01*
X56621435Y-64632330D01*
X56676869Y-64542400D01*
X56676870Y-64542398D01*
X56680709Y-64536170D01*
X56735474Y-64371059D01*
X56736984Y-64356328D01*
X56745672Y-64271521D01*
X56746000Y-64268322D01*
X56746000Y-63694178D01*
X56745581Y-63690138D01*
X56741115Y-63647095D01*
X64942001Y-63647095D01*
X64942338Y-63653614D01*
X64952257Y-63749206D01*
X64955149Y-63762600D01*
X65006588Y-63916784D01*
X65012761Y-63929962D01*
X65098063Y-64067807D01*
X65107099Y-64079208D01*
X65221829Y-64193739D01*
X65233240Y-64202751D01*
X65371243Y-64287816D01*
X65384424Y-64293963D01*
X65538710Y-64345138D01*
X65552086Y-64348005D01*
X65646438Y-64357672D01*
X65652854Y-64358000D01*
X65977885Y-64358000D01*
X65993124Y-64353525D01*
X65994329Y-64352135D01*
X65996000Y-64344452D01*
X65996000Y-64339884D01*
X66504000Y-64339884D01*
X66508475Y-64355123D01*
X66509865Y-64356328D01*
X66517548Y-64357999D01*
X66847095Y-64357999D01*
X66853614Y-64357662D01*
X66949206Y-64347743D01*
X66962600Y-64344851D01*
X67116784Y-64293412D01*
X67129962Y-64287239D01*
X67267807Y-64201937D01*
X67279208Y-64192901D01*
X67393739Y-64078171D01*
X67402751Y-64066760D01*
X67487816Y-63928757D01*
X67493963Y-63915576D01*
X67545138Y-63761290D01*
X67548005Y-63747914D01*
X67557672Y-63653562D01*
X67558000Y-63647146D01*
X67558000Y-62822115D01*
X67553525Y-62806876D01*
X67552135Y-62805671D01*
X67544452Y-62804000D01*
X66522115Y-62804000D01*
X66506876Y-62808475D01*
X66505671Y-62809865D01*
X66504000Y-62817548D01*
X66504000Y-64339884D01*
X65996000Y-64339884D01*
X65996000Y-62822115D01*
X65991525Y-62806876D01*
X65990135Y-62805671D01*
X65982452Y-62804000D01*
X64960116Y-62804000D01*
X64944877Y-62808475D01*
X64943672Y-62809865D01*
X64942001Y-62817548D01*
X64942001Y-63647095D01*
X56741115Y-63647095D01*
X56735919Y-63597015D01*
X56735918Y-63597011D01*
X56735207Y-63590157D01*
X56715266Y-63530385D01*
X56682472Y-63432091D01*
X56680154Y-63425143D01*
X56588616Y-63277219D01*
X56573562Y-63262191D01*
X56470684Y-63159492D01*
X56470679Y-63159488D01*
X56465503Y-63154321D01*
X56408734Y-63119328D01*
X56323650Y-63066881D01*
X56323648Y-63066880D01*
X56317420Y-63063041D01*
X56152309Y-63008276D01*
X56145473Y-63007576D01*
X56145470Y-63007575D01*
X56093974Y-63002299D01*
X56049572Y-62997750D01*
X55450428Y-62997750D01*
X55447182Y-62998087D01*
X55447178Y-62998087D01*
X55353265Y-63007831D01*
X55353261Y-63007832D01*
X55346407Y-63008543D01*
X55339871Y-63010724D01*
X55339869Y-63010724D01*
X55207105Y-63055018D01*
X55181393Y-63063596D01*
X55033469Y-63155134D01*
X55028296Y-63160316D01*
X54926753Y-63262036D01*
X54864470Y-63296115D01*
X54793650Y-63291112D01*
X54748563Y-63262191D01*
X54645688Y-63159496D01*
X54645683Y-63159492D01*
X54640503Y-63154321D01*
X54583734Y-63119328D01*
X54498650Y-63066881D01*
X54498648Y-63066880D01*
X54492420Y-63063041D01*
X54327309Y-63008276D01*
X54320473Y-63007576D01*
X54320470Y-63007575D01*
X54268974Y-63002299D01*
X54224572Y-62997750D01*
X53625428Y-62997750D01*
X53622182Y-62998087D01*
X53622178Y-62998087D01*
X53528265Y-63007831D01*
X53528261Y-63007832D01*
X53521407Y-63008543D01*
X53514871Y-63010724D01*
X53514869Y-63010724D01*
X53382105Y-63055018D01*
X53356393Y-63063596D01*
X53208469Y-63155134D01*
X53203296Y-63160316D01*
X53203291Y-63160320D01*
X53127976Y-63235767D01*
X53065694Y-63269847D01*
X53038803Y-63272750D01*
X50172459Y-63272750D01*
X50104338Y-63252748D01*
X50057845Y-63199092D01*
X50052626Y-63185686D01*
X50036069Y-63134729D01*
X50034027Y-63128444D01*
X50027231Y-63116672D01*
X49972829Y-63022446D01*
X49938540Y-62963056D01*
X49932443Y-62956284D01*
X49815175Y-62826045D01*
X49815174Y-62826044D01*
X49810753Y-62821134D01*
X49656252Y-62708882D01*
X49650224Y-62706198D01*
X49650222Y-62706197D01*
X49487819Y-62633891D01*
X49487818Y-62633891D01*
X49481788Y-62631206D01*
X49388387Y-62611353D01*
X49301444Y-62592872D01*
X49301439Y-62592872D01*
X49294987Y-62591500D01*
X49184500Y-62591500D01*
X49116379Y-62571498D01*
X49069886Y-62517842D01*
X49058500Y-62465500D01*
X49058500Y-61245660D01*
X49078502Y-61177539D01*
X49095405Y-61156565D01*
X50733480Y-59518490D01*
X50795792Y-59484464D01*
X50866607Y-59489529D01*
X50923443Y-59532076D01*
X50938984Y-59559367D01*
X50965753Y-59623993D01*
X50973941Y-59638176D01*
X51061344Y-59752080D01*
X51072920Y-59763656D01*
X51186824Y-59851059D01*
X51201007Y-59859247D01*
X51333650Y-59914190D01*
X51349468Y-59918428D01*
X51456066Y-59932462D01*
X51464275Y-59933000D01*
X51919385Y-59933000D01*
X51934624Y-59928525D01*
X51935829Y-59927135D01*
X51937500Y-59919452D01*
X51937500Y-59409500D01*
X51957502Y-59341379D01*
X52011158Y-59294886D01*
X52063500Y-59283500D01*
X52180503Y-59283500D01*
X52180506Y-59283499D01*
X52214872Y-59283499D01*
X52282993Y-59303501D01*
X52329486Y-59357157D01*
X52339590Y-59427431D01*
X52337993Y-59436282D01*
X52337500Y-59438548D01*
X52337500Y-59914884D01*
X52341975Y-59930123D01*
X52343365Y-59931328D01*
X52351048Y-59932999D01*
X52810723Y-59932999D01*
X52818935Y-59932461D01*
X52925533Y-59918428D01*
X52941348Y-59914190D01*
X53073993Y-59859247D01*
X53088176Y-59851059D01*
X53202080Y-59763656D01*
X53213656Y-59752080D01*
X53301059Y-59638176D01*
X53309247Y-59623993D01*
X53364189Y-59491351D01*
X53368428Y-59475531D01*
X53372716Y-59442960D01*
X53370505Y-59428778D01*
X53357348Y-59425000D01*
X53168337Y-59425000D01*
X53100216Y-59404998D01*
X53053723Y-59351342D01*
X53043619Y-59281068D01*
X53073113Y-59216488D01*
X53091632Y-59199038D01*
X53202436Y-59114014D01*
X53202437Y-59114013D01*
X53208987Y-59108987D01*
X53235608Y-59074295D01*
X53292946Y-59032428D01*
X53335569Y-59025000D01*
X53356965Y-59025000D01*
X53370736Y-59020956D01*
X53372765Y-59007417D01*
X53368428Y-58974467D01*
X53364190Y-58958652D01*
X53360140Y-58948874D01*
X53352550Y-58878285D01*
X53360140Y-58852434D01*
X53364678Y-58841479D01*
X53367838Y-58833850D01*
X53383500Y-58714885D01*
X53383499Y-58435116D01*
X53382881Y-58430416D01*
X53372022Y-58347931D01*
X53382962Y-58277782D01*
X53430091Y-58224684D01*
X53498445Y-58205495D01*
X53510551Y-58206223D01*
X53523512Y-58207631D01*
X53530328Y-58208000D01*
X53812618Y-58208000D01*
X53829283Y-58209107D01*
X53850991Y-58212004D01*
X53864986Y-58212297D01*
X53906494Y-58208519D01*
X53917914Y-58208000D01*
X54727885Y-58208000D01*
X54743124Y-58203525D01*
X54744329Y-58202135D01*
X54746000Y-58194452D01*
X54746000Y-51810116D01*
X54741525Y-51794877D01*
X54740135Y-51793672D01*
X54732452Y-51792001D01*
X53930885Y-51792001D01*
X53915966Y-51791115D01*
X53887670Y-51787741D01*
X53873673Y-51787643D01*
X53838776Y-51791311D01*
X53825605Y-51792001D01*
X53530331Y-51792001D01*
X53523523Y-51792370D01*
X53510547Y-51793779D01*
X53440665Y-51781248D01*
X53388651Y-51732925D01*
X53371020Y-51664153D01*
X53372022Y-51652069D01*
X53382962Y-51568972D01*
X53382962Y-51568971D01*
X53383500Y-51564885D01*
X53383499Y-51285116D01*
X53380491Y-51262262D01*
X53368916Y-51174337D01*
X53368916Y-51174335D01*
X53367838Y-51166150D01*
X53360411Y-51148219D01*
X53352821Y-51077630D01*
X53360411Y-51051780D01*
X53360412Y-51051779D01*
X53367838Y-51033850D01*
X53370795Y-51011389D01*
X53382962Y-50918972D01*
X53382962Y-50918971D01*
X53383500Y-50914885D01*
X53383499Y-50635116D01*
X53382422Y-50626929D01*
X53373221Y-50557040D01*
X56627284Y-50557040D01*
X56629495Y-50571222D01*
X56642652Y-50575000D01*
X57644385Y-50575000D01*
X57659624Y-50570525D01*
X57660829Y-50569135D01*
X57662500Y-50561452D01*
X57662500Y-50085116D01*
X57658025Y-50069877D01*
X57656635Y-50068672D01*
X57648952Y-50067001D01*
X57189277Y-50067001D01*
X57181065Y-50067539D01*
X57074467Y-50081572D01*
X57058652Y-50085810D01*
X56926007Y-50140753D01*
X56911824Y-50148941D01*
X56797920Y-50236344D01*
X56786344Y-50247920D01*
X56698941Y-50361824D01*
X56690753Y-50376007D01*
X56635811Y-50508649D01*
X56631572Y-50524469D01*
X56627284Y-50557040D01*
X53373221Y-50557040D01*
X53368916Y-50524337D01*
X53368916Y-50524335D01*
X53367838Y-50516150D01*
X53316327Y-50391791D01*
X53309684Y-50375752D01*
X53309683Y-50375750D01*
X53306524Y-50368124D01*
X53252616Y-50297871D01*
X53214014Y-50247564D01*
X53214013Y-50247563D01*
X53208987Y-50241013D01*
X53202437Y-50235987D01*
X53202434Y-50235984D01*
X53118236Y-50171377D01*
X53081875Y-50143476D01*
X52933850Y-50082162D01*
X52925662Y-50081084D01*
X52818972Y-50067038D01*
X52818971Y-50067038D01*
X52814885Y-50066500D01*
X50959500Y-50066500D01*
X50891379Y-50046498D01*
X50844886Y-49992842D01*
X50833500Y-49940500D01*
X50833500Y-49449600D01*
X50830033Y-49416185D01*
X50823238Y-49350692D01*
X50823237Y-49350688D01*
X50822526Y-49343834D01*
X50819245Y-49333998D01*
X50768868Y-49183002D01*
X50766550Y-49176054D01*
X50673478Y-49025652D01*
X50548303Y-48900695D01*
X50543765Y-48897898D01*
X50503176Y-48840647D01*
X50499946Y-48769724D01*
X50535572Y-48708313D01*
X50544068Y-48700938D01*
X50554207Y-48692902D01*
X50668739Y-48578171D01*
X50677751Y-48566760D01*
X50762816Y-48428757D01*
X50768963Y-48415576D01*
X50785611Y-48365385D01*
X61817000Y-48365385D01*
X61821475Y-48380624D01*
X61822865Y-48381829D01*
X61830548Y-48383500D01*
X62527885Y-48383500D01*
X62543124Y-48379025D01*
X62544329Y-48377635D01*
X62546000Y-48369952D01*
X62546000Y-48365385D01*
X63054000Y-48365385D01*
X63058475Y-48380624D01*
X63059865Y-48381829D01*
X63067548Y-48383500D01*
X63764885Y-48383500D01*
X63780124Y-48379025D01*
X63781329Y-48377635D01*
X63783000Y-48369952D01*
X63783000Y-48291234D01*
X63782663Y-48284718D01*
X63772925Y-48190868D01*
X63770032Y-48177472D01*
X63719512Y-48026047D01*
X63713347Y-48012885D01*
X63629574Y-47877508D01*
X63620540Y-47866110D01*
X63507871Y-47753637D01*
X63496460Y-47744625D01*
X63360937Y-47661088D01*
X63347759Y-47654944D01*
X63196234Y-47604685D01*
X63182868Y-47601819D01*
X63090230Y-47592328D01*
X63083815Y-47592000D01*
X63072115Y-47592000D01*
X63056876Y-47596475D01*
X63055671Y-47597865D01*
X63054000Y-47605548D01*
X63054000Y-48365385D01*
X62546000Y-48365385D01*
X62546000Y-47610115D01*
X62541525Y-47594876D01*
X62540135Y-47593671D01*
X62532452Y-47592000D01*
X62516234Y-47592000D01*
X62509718Y-47592337D01*
X62415868Y-47602075D01*
X62402472Y-47604968D01*
X62251047Y-47655488D01*
X62237885Y-47661653D01*
X62102508Y-47745426D01*
X62091110Y-47754460D01*
X61978637Y-47867129D01*
X61969625Y-47878540D01*
X61886088Y-48014063D01*
X61879944Y-48027241D01*
X61829685Y-48178766D01*
X61826819Y-48192132D01*
X61817328Y-48284770D01*
X61817000Y-48291185D01*
X61817000Y-48365385D01*
X50785611Y-48365385D01*
X50820138Y-48261290D01*
X50823005Y-48247914D01*
X50832672Y-48153562D01*
X50833000Y-48147146D01*
X50833000Y-48034615D01*
X50828525Y-48019376D01*
X50827135Y-48018171D01*
X50819452Y-48016500D01*
X49472000Y-48016500D01*
X49403879Y-47996498D01*
X49357386Y-47942842D01*
X49346000Y-47890500D01*
X49346000Y-47490385D01*
X49854000Y-47490385D01*
X49858475Y-47505624D01*
X49859865Y-47506829D01*
X49867548Y-47508500D01*
X50814884Y-47508500D01*
X50830123Y-47504025D01*
X50831328Y-47502635D01*
X50832999Y-47494952D01*
X50832999Y-47377905D01*
X50832662Y-47371386D01*
X50822743Y-47275794D01*
X50819851Y-47262400D01*
X50768412Y-47108216D01*
X50762239Y-47095038D01*
X50676937Y-46957193D01*
X50667901Y-46945792D01*
X50553171Y-46831261D01*
X50541760Y-46822249D01*
X50403757Y-46737184D01*
X50390576Y-46731037D01*
X50236290Y-46679862D01*
X50222914Y-46676995D01*
X50128562Y-46667328D01*
X50122145Y-46667000D01*
X49872115Y-46667000D01*
X49856876Y-46671475D01*
X49855671Y-46672865D01*
X49854000Y-46680548D01*
X49854000Y-47490385D01*
X49346000Y-47490385D01*
X49346000Y-46685116D01*
X49341525Y-46669877D01*
X49340135Y-46668672D01*
X49332452Y-46667001D01*
X49239159Y-46667001D01*
X49171038Y-46646999D01*
X49124545Y-46593343D01*
X49114441Y-46523069D01*
X49143935Y-46458489D01*
X49150064Y-46451906D01*
X49674085Y-45927885D01*
X64692000Y-45927885D01*
X64696475Y-45943124D01*
X64697865Y-45944329D01*
X64705548Y-45946000D01*
X65727885Y-45946000D01*
X65743124Y-45941525D01*
X65744329Y-45940135D01*
X65746000Y-45932452D01*
X65746000Y-44410116D01*
X65741525Y-44394877D01*
X65740135Y-44393672D01*
X65732452Y-44392001D01*
X65402905Y-44392001D01*
X65396386Y-44392338D01*
X65300794Y-44402257D01*
X65287400Y-44405149D01*
X65133216Y-44456588D01*
X65120038Y-44462761D01*
X64982193Y-44548063D01*
X64970792Y-44557099D01*
X64856261Y-44671829D01*
X64847249Y-44683240D01*
X64762184Y-44821243D01*
X64756037Y-44834424D01*
X64704862Y-44988710D01*
X64701995Y-45002086D01*
X64692328Y-45096438D01*
X64692000Y-45102855D01*
X64692000Y-45927885D01*
X49674085Y-45927885D01*
X52980520Y-42621450D01*
X52986785Y-42615596D01*
X52987238Y-42615201D01*
X53030385Y-42577561D01*
X53067129Y-42525280D01*
X53071061Y-42519986D01*
X53105791Y-42475693D01*
X53110476Y-42469718D01*
X53113599Y-42462802D01*
X53114983Y-42460516D01*
X53123357Y-42445835D01*
X53124622Y-42443475D01*
X53128990Y-42437261D01*
X53152203Y-42377723D01*
X53154759Y-42371642D01*
X53159905Y-42360247D01*
X53181045Y-42313427D01*
X53182429Y-42305960D01*
X53183230Y-42303405D01*
X53187859Y-42287152D01*
X53188522Y-42284572D01*
X53188836Y-42283766D01*
X55792000Y-42283766D01*
X55792337Y-42290282D01*
X55802075Y-42384132D01*
X55804968Y-42397528D01*
X55855488Y-42548953D01*
X55861653Y-42562115D01*
X55945426Y-42697492D01*
X55954460Y-42708890D01*
X56067129Y-42821363D01*
X56078540Y-42830375D01*
X56214063Y-42913912D01*
X56227241Y-42920056D01*
X56378766Y-42970315D01*
X56392132Y-42973181D01*
X56484770Y-42982672D01*
X56491185Y-42983000D01*
X56515385Y-42983000D01*
X56530624Y-42978525D01*
X56531829Y-42977135D01*
X56533500Y-42969452D01*
X56533500Y-42272115D01*
X56529025Y-42256876D01*
X56527635Y-42255671D01*
X56519952Y-42254000D01*
X55810115Y-42254000D01*
X55794876Y-42258475D01*
X55793671Y-42259865D01*
X55792000Y-42267548D01*
X55792000Y-42283766D01*
X53188836Y-42283766D01*
X53191282Y-42277491D01*
X53193603Y-42259865D01*
X53199621Y-42214148D01*
X53200653Y-42207632D01*
X53203969Y-42189744D01*
X53212296Y-42144814D01*
X53208709Y-42082608D01*
X53208500Y-42075354D01*
X53208500Y-41727885D01*
X55792000Y-41727885D01*
X55796475Y-41743124D01*
X55797865Y-41744329D01*
X55805548Y-41746000D01*
X56515385Y-41746000D01*
X56530624Y-41741525D01*
X56531829Y-41740135D01*
X56533500Y-41732452D01*
X56533500Y-41035115D01*
X56529025Y-41019876D01*
X56527635Y-41018671D01*
X56519952Y-41017000D01*
X56491234Y-41017000D01*
X56484718Y-41017337D01*
X56390868Y-41027075D01*
X56377472Y-41029968D01*
X56226047Y-41080488D01*
X56212885Y-41086653D01*
X56077508Y-41170426D01*
X56066110Y-41179460D01*
X55953637Y-41292129D01*
X55944625Y-41303540D01*
X55861088Y-41439063D01*
X55854944Y-41452241D01*
X55804685Y-41603766D01*
X55801819Y-41617132D01*
X55792328Y-41709770D01*
X55792000Y-41716185D01*
X55792000Y-41727885D01*
X53208500Y-41727885D01*
X53208500Y-31579219D01*
X53228502Y-31511098D01*
X53282158Y-31464605D01*
X53294618Y-31459697D01*
X53423946Y-31416550D01*
X53574348Y-31323478D01*
X53699305Y-31198303D01*
X53717486Y-31168809D01*
X53758240Y-31102693D01*
X53811012Y-31055200D01*
X53881084Y-31043776D01*
X53946208Y-31072050D01*
X53985707Y-31131044D01*
X53991500Y-31168809D01*
X53991500Y-36690127D01*
X53990810Y-36703297D01*
X53986645Y-36742925D01*
X53987204Y-36749065D01*
X53990981Y-36790570D01*
X53991500Y-36801990D01*
X53991500Y-37309631D01*
X53971498Y-37377752D01*
X53931807Y-37416772D01*
X53875652Y-37451522D01*
X53750695Y-37576697D01*
X53657885Y-37727262D01*
X53602203Y-37895139D01*
X53601503Y-37901975D01*
X53601502Y-37901978D01*
X53597091Y-37945031D01*
X53591500Y-37999600D01*
X53591500Y-39200400D01*
X53591837Y-39203646D01*
X53591837Y-39203650D01*
X53600054Y-39282838D01*
X53602474Y-39306166D01*
X53658450Y-39473946D01*
X53751522Y-39624348D01*
X53876697Y-39749305D01*
X53882927Y-39753145D01*
X53882928Y-39753146D01*
X54020090Y-39837694D01*
X54027262Y-39842115D01*
X54107005Y-39868564D01*
X54188611Y-39895632D01*
X54188613Y-39895632D01*
X54195139Y-39897797D01*
X54201975Y-39898497D01*
X54201978Y-39898498D01*
X54245031Y-39902909D01*
X54299600Y-39908500D01*
X56500400Y-39908500D01*
X56503646Y-39908163D01*
X56503650Y-39908163D01*
X56599308Y-39898238D01*
X56599312Y-39898237D01*
X56606166Y-39897526D01*
X56612702Y-39895345D01*
X56612704Y-39895345D01*
X56744806Y-39851272D01*
X56773946Y-39841550D01*
X56924348Y-39748478D01*
X57049305Y-39623303D01*
X57092746Y-39552829D01*
X57145517Y-39505337D01*
X57215589Y-39493913D01*
X57280712Y-39522187D01*
X57307148Y-39552641D01*
X57351522Y-39624348D01*
X57476697Y-39749305D01*
X57482927Y-39753145D01*
X57482928Y-39753146D01*
X57620090Y-39837694D01*
X57627262Y-39842115D01*
X57707005Y-39868564D01*
X57788611Y-39895632D01*
X57788613Y-39895632D01*
X57795139Y-39897797D01*
X57801975Y-39898497D01*
X57801978Y-39898498D01*
X57872598Y-39905733D01*
X57878236Y-39906311D01*
X57878343Y-39906322D01*
X57944070Y-39933163D01*
X57984852Y-39991278D01*
X57991500Y-40031666D01*
X57991500Y-41044564D01*
X57971498Y-41112685D01*
X57931803Y-41151708D01*
X57902195Y-41170030D01*
X57902188Y-41170036D01*
X57895969Y-41173884D01*
X57788899Y-41281141D01*
X57726618Y-41315220D01*
X57655798Y-41310217D01*
X57610709Y-41281296D01*
X57507871Y-41178637D01*
X57496460Y-41169625D01*
X57360937Y-41086088D01*
X57347759Y-41079944D01*
X57196234Y-41029685D01*
X57182868Y-41026819D01*
X57090230Y-41017328D01*
X57083815Y-41017000D01*
X57059615Y-41017000D01*
X57044376Y-41021475D01*
X57043171Y-41022865D01*
X57041500Y-41030548D01*
X57041500Y-42964885D01*
X57045975Y-42980124D01*
X57047365Y-42981329D01*
X57055048Y-42983000D01*
X57083766Y-42983000D01*
X57090282Y-42982663D01*
X57184132Y-42972925D01*
X57197528Y-42970032D01*
X57348953Y-42919512D01*
X57362115Y-42913347D01*
X57497492Y-42829574D01*
X57508890Y-42820540D01*
X57610393Y-42718860D01*
X57672676Y-42684781D01*
X57743496Y-42689784D01*
X57788583Y-42718704D01*
X57896997Y-42826929D01*
X58045080Y-42918209D01*
X58210191Y-42972974D01*
X58217027Y-42973674D01*
X58217030Y-42973675D01*
X58264370Y-42978525D01*
X58312928Y-42983500D01*
X58358976Y-42983500D01*
X58396652Y-42989265D01*
X58405268Y-42991965D01*
X58411391Y-42992630D01*
X58411395Y-42992631D01*
X58595763Y-43012659D01*
X58595767Y-43012659D01*
X58601888Y-43013324D01*
X58798913Y-42996087D01*
X58804830Y-42994368D01*
X58804835Y-42994367D01*
X58820712Y-42989754D01*
X58825018Y-42988503D01*
X58860170Y-42983500D01*
X58912072Y-42983500D01*
X58915318Y-42983163D01*
X58915322Y-42983163D01*
X59009235Y-42973419D01*
X59009239Y-42973418D01*
X59016093Y-42972707D01*
X59022629Y-42970526D01*
X59022631Y-42970526D01*
X59155395Y-42926232D01*
X59181107Y-42917654D01*
X59329031Y-42826116D01*
X59334597Y-42820540D01*
X59446758Y-42708184D01*
X59446762Y-42708179D01*
X59451929Y-42703003D01*
X59543209Y-42554920D01*
X59554797Y-42519986D01*
X59563292Y-42494373D01*
X59593790Y-42444945D01*
X59669387Y-42369348D01*
X59679517Y-42360258D01*
X59709025Y-42336532D01*
X59741292Y-42298078D01*
X59744472Y-42294431D01*
X59746115Y-42292619D01*
X59748309Y-42290425D01*
X59775642Y-42257151D01*
X59776348Y-42256300D01*
X59832195Y-42189744D01*
X59836154Y-42185026D01*
X59838722Y-42180356D01*
X59842103Y-42176239D01*
X59886015Y-42094342D01*
X59886624Y-42093220D01*
X59894451Y-42078984D01*
X59898369Y-42071857D01*
X59928466Y-42017111D01*
X59928468Y-42017106D01*
X59931433Y-42011713D01*
X59933044Y-42006635D01*
X59935563Y-42001937D01*
X59962753Y-41913002D01*
X59963136Y-41911772D01*
X59989371Y-41829070D01*
X59991235Y-41823194D01*
X59991828Y-41817903D01*
X59993388Y-41812802D01*
X60002795Y-41720189D01*
X60002915Y-41719069D01*
X60008500Y-41669273D01*
X60008500Y-41665744D01*
X60008555Y-41664761D01*
X60009004Y-41659056D01*
X60012752Y-41622164D01*
X60012752Y-41622161D01*
X60013374Y-41616037D01*
X60009059Y-41570388D01*
X60008500Y-41558531D01*
X60008500Y-40031638D01*
X60028502Y-39963517D01*
X60082158Y-39917024D01*
X60121497Y-39906311D01*
X60199307Y-39898238D01*
X60199310Y-39898237D01*
X60206166Y-39897526D01*
X60212702Y-39895345D01*
X60212704Y-39895345D01*
X60344806Y-39851272D01*
X60373946Y-39841550D01*
X60524348Y-39748478D01*
X60649305Y-39623303D01*
X60653146Y-39617072D01*
X60738275Y-39478968D01*
X60738276Y-39478966D01*
X60742115Y-39472738D01*
X60797797Y-39304861D01*
X60800054Y-39282838D01*
X60808172Y-39203598D01*
X60808500Y-39200400D01*
X60808500Y-38788925D01*
X60828502Y-38720804D01*
X60882158Y-38674311D01*
X60952432Y-38664207D01*
X61017012Y-38693701D01*
X61023595Y-38699830D01*
X64399120Y-42075354D01*
X66500671Y-44176905D01*
X66534697Y-44239217D01*
X66529632Y-44310032D01*
X66487085Y-44366868D01*
X66420565Y-44391679D01*
X66411576Y-44392000D01*
X66272115Y-44392000D01*
X66256876Y-44396475D01*
X66255671Y-44397865D01*
X66254000Y-44405548D01*
X66254000Y-45927885D01*
X66258475Y-45943124D01*
X66259865Y-45944329D01*
X66267548Y-45946000D01*
X67289884Y-45946000D01*
X67305123Y-45941525D01*
X67306328Y-45940135D01*
X67307999Y-45932452D01*
X67307999Y-45288423D01*
X67328001Y-45220302D01*
X67381657Y-45173809D01*
X67451931Y-45163705D01*
X67516511Y-45193199D01*
X67523094Y-45199328D01*
X67954595Y-45630829D01*
X67988621Y-45693141D01*
X67991500Y-45719924D01*
X67991500Y-48030076D01*
X67971498Y-48098197D01*
X67954595Y-48119171D01*
X67487275Y-48586491D01*
X67424963Y-48620517D01*
X67354148Y-48615452D01*
X67297312Y-48572905D01*
X67278657Y-48537273D01*
X67243870Y-48433007D01*
X67243869Y-48433005D01*
X67241550Y-48426054D01*
X67148478Y-48275652D01*
X67023303Y-48150695D01*
X66952352Y-48106960D01*
X66904860Y-48054189D01*
X66893436Y-47984117D01*
X66921710Y-47918994D01*
X66952166Y-47892557D01*
X67017807Y-47851937D01*
X67029208Y-47842901D01*
X67143739Y-47728171D01*
X67152751Y-47716760D01*
X67237816Y-47578757D01*
X67243963Y-47565576D01*
X67295138Y-47411290D01*
X67298005Y-47397914D01*
X67307672Y-47303562D01*
X67308000Y-47297146D01*
X67308000Y-46472115D01*
X67303525Y-46456876D01*
X67302135Y-46455671D01*
X67294452Y-46454000D01*
X64710116Y-46454000D01*
X64694877Y-46458475D01*
X64693672Y-46459865D01*
X64692001Y-46467548D01*
X64692001Y-47297095D01*
X64692338Y-47303614D01*
X64702257Y-47399206D01*
X64705149Y-47412600D01*
X64756588Y-47566784D01*
X64762761Y-47579962D01*
X64848063Y-47717807D01*
X64857099Y-47729208D01*
X64971829Y-47843739D01*
X64983240Y-47852751D01*
X65047646Y-47892451D01*
X65095139Y-47945223D01*
X65106563Y-48015294D01*
X65078289Y-48080418D01*
X65047834Y-48106854D01*
X64975652Y-48151522D01*
X64850695Y-48276697D01*
X64846855Y-48282927D01*
X64846854Y-48282928D01*
X64788476Y-48377635D01*
X64757885Y-48427262D01*
X64747727Y-48457888D01*
X64705208Y-48586080D01*
X64702203Y-48595139D01*
X64691500Y-48699600D01*
X64691500Y-49228000D01*
X64671498Y-49296121D01*
X64617842Y-49342614D01*
X64565500Y-49354000D01*
X63859360Y-49354000D01*
X63791239Y-49333998D01*
X63744746Y-49280342D01*
X63734642Y-49210068D01*
X63739767Y-49188333D01*
X63770315Y-49096234D01*
X63773181Y-49082868D01*
X63782672Y-48990230D01*
X63783000Y-48983815D01*
X63783000Y-48909615D01*
X63778525Y-48894376D01*
X63777135Y-48893171D01*
X63769452Y-48891500D01*
X61835115Y-48891500D01*
X61819876Y-48895975D01*
X61818671Y-48897365D01*
X61817000Y-48905048D01*
X61817000Y-48983766D01*
X61817337Y-48990282D01*
X61827075Y-49084132D01*
X61829968Y-49097528D01*
X61880488Y-49248953D01*
X61886653Y-49262115D01*
X61970426Y-49397492D01*
X61979464Y-49408894D01*
X61981139Y-49410567D01*
X61981919Y-49411993D01*
X61984007Y-49414627D01*
X61983556Y-49414984D01*
X62015219Y-49472849D01*
X62010216Y-49543669D01*
X61981299Y-49588754D01*
X61978242Y-49591816D01*
X61978238Y-49591821D01*
X61973071Y-49596997D01*
X61969232Y-49603225D01*
X61966967Y-49606093D01*
X61909050Y-49647155D01*
X61868086Y-49654000D01*
X60666427Y-49654000D01*
X60657858Y-49653708D01*
X60607725Y-49650290D01*
X60607721Y-49650290D01*
X60600148Y-49649774D01*
X60592672Y-49651079D01*
X60592668Y-49651079D01*
X60558398Y-49657060D01*
X60487853Y-49649067D01*
X60432828Y-49604203D01*
X60410793Y-49536713D01*
X60411427Y-49519762D01*
X60412814Y-49506569D01*
X60412814Y-49506565D01*
X60413504Y-49500000D01*
X60404531Y-49414627D01*
X60394232Y-49316635D01*
X60394232Y-49316633D01*
X60393542Y-49310072D01*
X60334527Y-49128444D01*
X60239040Y-48963056D01*
X60220268Y-48942207D01*
X60115675Y-48826045D01*
X60115674Y-48826044D01*
X60111253Y-48821134D01*
X59997518Y-48738500D01*
X59962094Y-48712763D01*
X59962093Y-48712762D01*
X59956752Y-48708882D01*
X59950724Y-48706198D01*
X59950722Y-48706197D01*
X59788319Y-48633891D01*
X59788318Y-48633891D01*
X59782288Y-48631206D01*
X59688887Y-48611353D01*
X59601944Y-48592872D01*
X59601939Y-48592872D01*
X59595487Y-48591500D01*
X59404513Y-48591500D01*
X59398061Y-48592872D01*
X59398056Y-48592872D01*
X59311112Y-48611353D01*
X59217712Y-48631206D01*
X59211682Y-48633891D01*
X59211681Y-48633891D01*
X59049278Y-48706197D01*
X59049276Y-48706198D01*
X59043248Y-48708882D01*
X59037907Y-48712762D01*
X59037906Y-48712763D01*
X59002482Y-48738500D01*
X58888747Y-48821134D01*
X58884326Y-48826044D01*
X58884325Y-48826045D01*
X58779733Y-48942207D01*
X58760960Y-48963056D01*
X58665473Y-49128444D01*
X58606458Y-49310072D01*
X58605768Y-49316633D01*
X58605768Y-49316635D01*
X58588929Y-49476851D01*
X58578457Y-49515530D01*
X58568955Y-49536573D01*
X58567571Y-49544040D01*
X58566770Y-49546595D01*
X58562141Y-49562848D01*
X58561478Y-49565428D01*
X58558718Y-49572509D01*
X58557727Y-49580040D01*
X58557726Y-49580042D01*
X58550379Y-49635852D01*
X58549348Y-49642359D01*
X58537704Y-49705186D01*
X58538141Y-49712766D01*
X58538141Y-49712767D01*
X58541291Y-49767392D01*
X58541500Y-49774646D01*
X58541500Y-49941000D01*
X58521498Y-50009121D01*
X58467842Y-50055614D01*
X58415500Y-50067000D01*
X58080615Y-50067000D01*
X58065376Y-50071475D01*
X58064171Y-50072865D01*
X58062500Y-50080548D01*
X58062500Y-51240500D01*
X58042498Y-51308621D01*
X57988842Y-51355114D01*
X57936500Y-51366500D01*
X57819497Y-51366500D01*
X57819494Y-51366501D01*
X57785128Y-51366501D01*
X57717007Y-51346499D01*
X57670514Y-51292843D01*
X57660410Y-51222569D01*
X57662007Y-51213718D01*
X57662500Y-51211452D01*
X57662500Y-50993115D01*
X57658025Y-50977876D01*
X57656635Y-50976671D01*
X57648952Y-50975000D01*
X56643035Y-50975000D01*
X56629264Y-50979044D01*
X56627235Y-50992583D01*
X56631572Y-51025533D01*
X56635809Y-51041345D01*
X56640131Y-51051779D01*
X56647722Y-51122369D01*
X56640131Y-51148221D01*
X56635810Y-51158652D01*
X56631572Y-51174469D01*
X56627284Y-51207040D01*
X56629495Y-51221222D01*
X56642652Y-51225000D01*
X56831663Y-51225000D01*
X56899784Y-51245002D01*
X56946277Y-51298658D01*
X56956381Y-51368932D01*
X56926887Y-51433512D01*
X56908368Y-51450962D01*
X56815068Y-51522555D01*
X56791013Y-51541013D01*
X56785987Y-51547563D01*
X56764393Y-51575705D01*
X56707054Y-51617572D01*
X56664431Y-51625000D01*
X56643035Y-51625000D01*
X56629264Y-51629044D01*
X56627235Y-51642582D01*
X56628491Y-51652124D01*
X56617552Y-51722273D01*
X56570423Y-51775371D01*
X56502069Y-51794561D01*
X56489960Y-51793833D01*
X56476483Y-51792369D01*
X56469672Y-51792000D01*
X56180877Y-51792000D01*
X56165959Y-51791114D01*
X56137670Y-51787741D01*
X56123673Y-51787643D01*
X56088783Y-51791310D01*
X56075613Y-51792000D01*
X55272115Y-51792000D01*
X55256876Y-51796475D01*
X55255671Y-51797865D01*
X55254000Y-51805548D01*
X55254000Y-58189884D01*
X55258475Y-58205123D01*
X55259865Y-58206328D01*
X55267548Y-58207999D01*
X56062610Y-58207999D01*
X56079275Y-58209106D01*
X56100990Y-58212004D01*
X56114986Y-58212297D01*
X56156503Y-58208518D01*
X56167923Y-58207999D01*
X56469669Y-58207999D01*
X56476477Y-58207630D01*
X56489453Y-58206221D01*
X56559335Y-58218752D01*
X56611349Y-58267075D01*
X56628980Y-58335847D01*
X56627978Y-58347930D01*
X56616500Y-58435115D01*
X56616501Y-58522952D01*
X56616501Y-58579720D01*
X56596499Y-58647841D01*
X56561868Y-58683561D01*
X56559279Y-58685340D01*
X56559275Y-58685343D01*
X56553019Y-58689643D01*
X56547968Y-58695313D01*
X56547966Y-58695314D01*
X56511565Y-58736170D01*
X56506584Y-58741446D01*
X56269480Y-58978550D01*
X56263215Y-58984404D01*
X56219615Y-59022439D01*
X56209421Y-59036944D01*
X56182872Y-59074719D01*
X56178939Y-59080014D01*
X56139524Y-59130282D01*
X56136401Y-59137198D01*
X56135017Y-59139484D01*
X56126643Y-59154165D01*
X56125378Y-59156525D01*
X56121010Y-59162739D01*
X56118250Y-59169818D01*
X56118249Y-59169820D01*
X56097798Y-59222275D01*
X56095247Y-59228344D01*
X56068955Y-59286573D01*
X56067571Y-59294040D01*
X56066770Y-59296595D01*
X56062141Y-59312848D01*
X56061478Y-59315428D01*
X56058718Y-59322509D01*
X56057727Y-59330040D01*
X56057726Y-59330042D01*
X56050379Y-59385852D01*
X56049348Y-59392359D01*
X56037704Y-59455186D01*
X56038141Y-59462766D01*
X56038141Y-59462767D01*
X56041291Y-59517392D01*
X56041500Y-59524646D01*
X56041500Y-60221088D01*
X56041208Y-60229658D01*
X56038461Y-60269960D01*
X56037275Y-60287352D01*
X56038580Y-60294829D01*
X56038580Y-60294830D01*
X56048261Y-60350299D01*
X56049221Y-60356800D01*
X56051195Y-60373111D01*
X56039520Y-60443141D01*
X56000170Y-60490180D01*
X55962657Y-60517435D01*
X55895790Y-60541294D01*
X55888595Y-60541500D01*
X52028927Y-60541500D01*
X52020358Y-60541208D01*
X51970225Y-60537790D01*
X51970221Y-60537790D01*
X51962648Y-60537274D01*
X51899681Y-60548264D01*
X51893169Y-60549224D01*
X51829758Y-60556898D01*
X51822657Y-60559581D01*
X51820048Y-60560222D01*
X51803715Y-60564691D01*
X51801195Y-60565452D01*
X51793717Y-60566757D01*
X51786765Y-60569809D01*
X51786764Y-60569809D01*
X51735204Y-60592441D01*
X51729099Y-60594932D01*
X51676456Y-60614825D01*
X51676452Y-60614827D01*
X51669344Y-60617513D01*
X51663083Y-60621816D01*
X51660717Y-60623053D01*
X51645937Y-60631280D01*
X51643652Y-60632631D01*
X51636695Y-60635685D01*
X51630675Y-60640305D01*
X51630669Y-60640308D01*
X51599542Y-60664194D01*
X51585998Y-60674587D01*
X51580668Y-60678459D01*
X51534280Y-60710339D01*
X51534275Y-60710344D01*
X51528019Y-60714643D01*
X51522968Y-60720313D01*
X51522966Y-60720314D01*
X51486565Y-60761170D01*
X51481584Y-60766446D01*
X51433467Y-60814563D01*
X51370569Y-60848715D01*
X51217712Y-60881206D01*
X51211682Y-60883891D01*
X51211681Y-60883891D01*
X51049278Y-60956197D01*
X51049276Y-60956198D01*
X51043248Y-60958882D01*
X51037907Y-60962762D01*
X51037906Y-60962763D01*
X50987843Y-60999136D01*
X50888747Y-61071134D01*
X50884326Y-61076044D01*
X50884325Y-61076045D01*
X50792940Y-61177539D01*
X50760960Y-61213056D01*
X50742136Y-61245660D01*
X50683324Y-61347526D01*
X50665473Y-61378444D01*
X50606458Y-61560072D01*
X50605768Y-61566633D01*
X50605768Y-61566635D01*
X50591228Y-61704975D01*
X50586496Y-61750000D01*
X50587186Y-61756565D01*
X50604361Y-61919972D01*
X50606458Y-61939928D01*
X50665473Y-62121556D01*
X50668776Y-62127277D01*
X50668777Y-62127279D01*
X50686803Y-62158500D01*
X50760960Y-62286944D01*
X50888747Y-62428866D01*
X51043248Y-62541118D01*
X51049276Y-62543802D01*
X51049278Y-62543803D01*
X51211681Y-62616109D01*
X51217712Y-62618794D01*
X51311113Y-62638647D01*
X51398056Y-62657128D01*
X51398061Y-62657128D01*
X51404513Y-62658500D01*
X51595487Y-62658500D01*
X51601939Y-62657128D01*
X51601944Y-62657128D01*
X51688887Y-62638647D01*
X51782288Y-62618794D01*
X51788319Y-62616109D01*
X51950722Y-62543803D01*
X51950724Y-62543802D01*
X51956752Y-62541118D01*
X52111253Y-62428866D01*
X52239040Y-62286944D01*
X52334527Y-62121556D01*
X52359219Y-62045563D01*
X52399293Y-61986958D01*
X52464690Y-61959321D01*
X52479052Y-61958500D01*
X55888595Y-61958500D01*
X55956716Y-61978502D01*
X55962656Y-61982564D01*
X56024220Y-62027293D01*
X56043248Y-62041118D01*
X56049276Y-62043802D01*
X56049278Y-62043803D01*
X56209799Y-62115271D01*
X56217712Y-62118794D01*
X56311112Y-62138647D01*
X56398056Y-62157128D01*
X56398061Y-62157128D01*
X56404513Y-62158500D01*
X56595487Y-62158500D01*
X56601939Y-62157128D01*
X56601944Y-62157128D01*
X56688888Y-62138647D01*
X56782288Y-62118794D01*
X56790201Y-62115271D01*
X56950722Y-62043803D01*
X56950724Y-62043802D01*
X56956752Y-62041118D01*
X56975781Y-62027293D01*
X57023896Y-61992335D01*
X57111253Y-61928866D01*
X57131546Y-61906329D01*
X57194788Y-61836091D01*
X57255234Y-61798851D01*
X57326218Y-61800203D01*
X57366521Y-61821523D01*
X57366811Y-61821752D01*
X57371997Y-61826929D01*
X57390520Y-61838347D01*
X57487589Y-61898181D01*
X57520080Y-61918209D01*
X57685191Y-61972974D01*
X57692027Y-61973674D01*
X57692030Y-61973675D01*
X57739146Y-61978502D01*
X57787928Y-61983500D01*
X58487072Y-61983500D01*
X58490318Y-61983163D01*
X58490322Y-61983163D01*
X58584235Y-61973419D01*
X58584239Y-61973418D01*
X58591093Y-61972707D01*
X58597629Y-61970526D01*
X58597631Y-61970526D01*
X58737221Y-61923955D01*
X58756107Y-61917654D01*
X58872686Y-61845513D01*
X58897805Y-61829969D01*
X58897806Y-61829968D01*
X58904031Y-61826116D01*
X58910923Y-61819212D01*
X58912387Y-61818411D01*
X58914938Y-61816389D01*
X58915284Y-61816826D01*
X58973204Y-61785134D01*
X59044024Y-61790137D01*
X59089110Y-61819056D01*
X59091582Y-61821523D01*
X59096997Y-61826929D01*
X59103227Y-61830769D01*
X59103228Y-61830770D01*
X59212975Y-61898419D01*
X59245080Y-61918209D01*
X59410191Y-61972974D01*
X59417027Y-61973674D01*
X59417030Y-61973675D01*
X59464146Y-61978502D01*
X59512928Y-61983500D01*
X60212072Y-61983500D01*
X60215318Y-61983163D01*
X60215322Y-61983163D01*
X60309235Y-61973419D01*
X60309239Y-61973418D01*
X60316093Y-61972707D01*
X60322629Y-61970526D01*
X60322631Y-61970526D01*
X60462221Y-61923955D01*
X60481107Y-61917654D01*
X60629031Y-61826116D01*
X60634204Y-61820934D01*
X60634209Y-61820930D01*
X60668433Y-61786646D01*
X60730715Y-61752566D01*
X60801535Y-61757569D01*
X60823722Y-61768403D01*
X60938109Y-61838912D01*
X60945080Y-61843209D01*
X61110191Y-61897974D01*
X61117027Y-61898674D01*
X61117030Y-61898675D01*
X61164370Y-61903525D01*
X61212928Y-61908500D01*
X61787072Y-61908500D01*
X61790318Y-61908163D01*
X61790322Y-61908163D01*
X61884235Y-61898419D01*
X61884239Y-61898418D01*
X61891093Y-61897707D01*
X61897629Y-61895526D01*
X61897631Y-61895526D01*
X62030395Y-61851232D01*
X62056107Y-61842654D01*
X62075312Y-61830770D01*
X62126892Y-61798851D01*
X62184068Y-61763469D01*
X62252518Y-61744632D01*
X62316485Y-61763354D01*
X62439063Y-61838912D01*
X62452241Y-61845056D01*
X62603766Y-61895315D01*
X62617132Y-61898181D01*
X62709770Y-61907672D01*
X62716185Y-61908000D01*
X62727885Y-61908000D01*
X62743124Y-61903525D01*
X62744329Y-61902135D01*
X62746000Y-61894452D01*
X62746000Y-61889885D01*
X63254000Y-61889885D01*
X63258475Y-61905124D01*
X63259865Y-61906329D01*
X63267548Y-61908000D01*
X63283766Y-61908000D01*
X63290282Y-61907663D01*
X63384132Y-61897925D01*
X63397528Y-61895032D01*
X63548953Y-61844512D01*
X63562115Y-61838347D01*
X63697492Y-61754574D01*
X63708890Y-61745540D01*
X63821363Y-61632871D01*
X63830375Y-61621460D01*
X63913912Y-61485937D01*
X63920056Y-61472759D01*
X63970315Y-61321234D01*
X63973181Y-61307868D01*
X63982672Y-61215230D01*
X63983000Y-61208815D01*
X63983000Y-61134615D01*
X63978525Y-61119376D01*
X63977135Y-61118171D01*
X63969452Y-61116500D01*
X63272115Y-61116500D01*
X63256876Y-61120975D01*
X63255671Y-61122365D01*
X63254000Y-61130048D01*
X63254000Y-61889885D01*
X62746000Y-61889885D01*
X62746000Y-60734500D01*
X62766002Y-60666379D01*
X62819658Y-60619886D01*
X62872000Y-60608500D01*
X63964885Y-60608500D01*
X63980124Y-60604025D01*
X63981329Y-60602635D01*
X63983000Y-60594952D01*
X63983000Y-60516234D01*
X63982663Y-60509718D01*
X63972925Y-60415868D01*
X63970032Y-60402471D01*
X63939807Y-60311876D01*
X63937223Y-60240926D01*
X63973407Y-60179842D01*
X64036871Y-60148018D01*
X64059331Y-60146000D01*
X64858292Y-60146000D01*
X64926413Y-60166002D01*
X64972906Y-60219658D01*
X64977814Y-60232118D01*
X65008450Y-60323946D01*
X65101522Y-60474348D01*
X65226697Y-60599305D01*
X65297648Y-60643040D01*
X65345140Y-60695811D01*
X65356564Y-60765883D01*
X65328290Y-60831006D01*
X65297834Y-60857443D01*
X65232193Y-60898063D01*
X65220792Y-60907099D01*
X65106261Y-61021829D01*
X65097249Y-61033240D01*
X65012184Y-61171243D01*
X65006037Y-61184424D01*
X64954862Y-61338710D01*
X64951995Y-61352086D01*
X64942328Y-61446438D01*
X64942000Y-61452855D01*
X64942000Y-62277885D01*
X64946475Y-62293124D01*
X64947865Y-62294329D01*
X64955548Y-62296000D01*
X67539884Y-62296000D01*
X67555123Y-62291525D01*
X67556328Y-62290135D01*
X67557999Y-62282452D01*
X67557999Y-61452905D01*
X67557662Y-61446386D01*
X67547743Y-61350794D01*
X67544851Y-61337400D01*
X67493412Y-61183216D01*
X67487239Y-61170038D01*
X67401937Y-61032193D01*
X67392901Y-61020792D01*
X67278171Y-60906261D01*
X67266760Y-60897249D01*
X67202354Y-60857549D01*
X67154861Y-60804777D01*
X67143437Y-60734706D01*
X67171711Y-60669582D01*
X67202167Y-60643145D01*
X67202339Y-60643039D01*
X67274348Y-60598478D01*
X67280375Y-60592441D01*
X67394134Y-60478483D01*
X67399305Y-60473303D01*
X67408194Y-60458882D01*
X67488275Y-60328968D01*
X67488276Y-60328966D01*
X67492115Y-60322738D01*
X67534134Y-60196054D01*
X67545632Y-60161389D01*
X67545632Y-60161387D01*
X67547797Y-60154861D01*
X67549528Y-60137973D01*
X67556322Y-60071657D01*
X67583163Y-60005930D01*
X67641278Y-59965148D01*
X67681666Y-59958500D01*
X68738157Y-59958500D01*
X68751764Y-59959237D01*
X68783262Y-59962659D01*
X68783267Y-59962659D01*
X68789388Y-59963324D01*
X68815638Y-59961027D01*
X68839388Y-59958950D01*
X68844214Y-59958621D01*
X68846686Y-59958500D01*
X68849769Y-59958500D01*
X68861738Y-59957326D01*
X68892506Y-59954310D01*
X68893819Y-59954188D01*
X68938084Y-59950315D01*
X68986413Y-59946087D01*
X68991532Y-59944600D01*
X68996833Y-59944080D01*
X69085834Y-59917209D01*
X69086967Y-59916874D01*
X69170414Y-59892630D01*
X69170418Y-59892628D01*
X69176336Y-59890909D01*
X69181068Y-59888456D01*
X69186169Y-59886916D01*
X69218515Y-59869718D01*
X69268260Y-59843269D01*
X69269426Y-59842657D01*
X69346453Y-59802729D01*
X69351926Y-59799892D01*
X69356089Y-59796569D01*
X69360796Y-59794066D01*
X69432918Y-59735245D01*
X69433774Y-59734554D01*
X69472973Y-59703262D01*
X69475477Y-59700758D01*
X69476195Y-59700116D01*
X69480528Y-59696415D01*
X69514062Y-59669065D01*
X69543288Y-59633737D01*
X69551277Y-59624958D01*
X70669379Y-58506855D01*
X70679522Y-58497753D01*
X70704218Y-58477897D01*
X70709025Y-58474032D01*
X70741320Y-58435544D01*
X70744478Y-58431925D01*
X70746124Y-58430110D01*
X70748309Y-58427925D01*
X70750264Y-58425545D01*
X70750273Y-58425535D01*
X70775549Y-58394764D01*
X70776391Y-58393749D01*
X70824976Y-58335847D01*
X70836154Y-58322526D01*
X70838723Y-58317852D01*
X70842102Y-58313739D01*
X70845530Y-58307347D01*
X70872350Y-58257326D01*
X70885988Y-58231892D01*
X70886600Y-58230765D01*
X70928460Y-58154622D01*
X70928462Y-58154617D01*
X70931433Y-58149213D01*
X70933045Y-58144131D01*
X70935562Y-58139437D01*
X70937050Y-58134571D01*
X70981450Y-58079654D01*
X71048849Y-58057341D01*
X71117612Y-58075009D01*
X71160864Y-58117902D01*
X71215851Y-58208518D01*
X71273377Y-58303317D01*
X71276874Y-58307347D01*
X71404133Y-58454000D01*
X71424477Y-58477445D01*
X71460120Y-58506670D01*
X71500114Y-58565329D01*
X71502046Y-58636299D01*
X71465302Y-58697048D01*
X71446532Y-58711248D01*
X71346694Y-58773030D01*
X71300652Y-58801522D01*
X71175695Y-58926697D01*
X71171855Y-58932927D01*
X71171854Y-58932928D01*
X71108678Y-59035419D01*
X71082885Y-59077262D01*
X71077699Y-59092897D01*
X71034787Y-59222275D01*
X71027203Y-59245139D01*
X71026503Y-59251975D01*
X71026502Y-59251978D01*
X71023102Y-59285167D01*
X71016500Y-59349600D01*
X71016500Y-60650400D01*
X71016837Y-60653646D01*
X71016837Y-60653650D01*
X71026606Y-60747797D01*
X71027474Y-60756166D01*
X71029655Y-60762702D01*
X71029655Y-60762704D01*
X71043205Y-60803317D01*
X71083450Y-60923946D01*
X71176522Y-61074348D01*
X71301697Y-61199305D01*
X71307927Y-61203145D01*
X71307928Y-61203146D01*
X71445090Y-61287694D01*
X71452262Y-61292115D01*
X71532005Y-61318564D01*
X71613611Y-61345632D01*
X71613613Y-61345632D01*
X71620139Y-61347797D01*
X71626975Y-61348497D01*
X71626978Y-61348498D01*
X71670031Y-61352909D01*
X71724600Y-61358500D01*
X73275400Y-61358500D01*
X73278646Y-61358163D01*
X73278650Y-61358163D01*
X73374308Y-61348238D01*
X73374312Y-61348237D01*
X73381166Y-61347526D01*
X73387702Y-61345345D01*
X73387704Y-61345345D01*
X73519806Y-61301272D01*
X73548946Y-61291550D01*
X73699348Y-61198478D01*
X73824305Y-61073303D01*
X73833197Y-61058878D01*
X73913275Y-60928968D01*
X73913276Y-60928966D01*
X73917115Y-60922738D01*
X73956725Y-60803317D01*
X73970632Y-60761389D01*
X73970632Y-60761387D01*
X73972797Y-60754861D01*
X73983500Y-60650400D01*
X73983500Y-59349600D01*
X73978717Y-59303501D01*
X73973238Y-59250692D01*
X73973237Y-59250688D01*
X73972526Y-59243834D01*
X73965334Y-59222275D01*
X73921703Y-59091500D01*
X73916550Y-59076054D01*
X73823478Y-58925652D01*
X73698303Y-58800695D01*
X73552660Y-58710919D01*
X73505168Y-58658148D01*
X73493744Y-58588076D01*
X73522018Y-58522952D01*
X73531805Y-58512490D01*
X73616572Y-58431626D01*
X73646135Y-58403424D01*
X73783754Y-58218458D01*
X73786887Y-58212297D01*
X73885822Y-58017704D01*
X73888240Y-58012949D01*
X73893771Y-57995139D01*
X73955024Y-57797871D01*
X73956607Y-57792773D01*
X73971166Y-57682928D01*
X73986198Y-57569511D01*
X73986198Y-57569506D01*
X73986898Y-57564226D01*
X73986277Y-57547668D01*
X73980815Y-57402203D01*
X73978249Y-57333842D01*
X73930907Y-57108209D01*
X73883059Y-56987051D01*
X73848185Y-56898744D01*
X73848184Y-56898742D01*
X73846224Y-56893779D01*
X73841869Y-56886601D01*
X73729390Y-56701243D01*
X73726623Y-56696683D01*
X73723126Y-56692653D01*
X73579023Y-56526588D01*
X73579021Y-56526586D01*
X73575523Y-56522555D01*
X73529862Y-56485115D01*
X73401373Y-56379760D01*
X73401367Y-56379756D01*
X73397245Y-56376376D01*
X73365750Y-56358448D01*
X73316445Y-56307368D01*
X73302583Y-56237738D01*
X73323018Y-56185774D01*
X78513102Y-56185774D01*
X78521751Y-56416158D01*
X78569093Y-56641791D01*
X78571051Y-56646750D01*
X78571052Y-56646752D01*
X78647520Y-56840379D01*
X78653776Y-56856221D01*
X78656543Y-56860780D01*
X78656544Y-56860783D01*
X78714803Y-56956791D01*
X78773377Y-57053317D01*
X78776874Y-57057347D01*
X78920503Y-57222865D01*
X78924477Y-57227445D01*
X78960120Y-57256670D01*
X79000114Y-57315329D01*
X79002046Y-57386299D01*
X78965302Y-57447048D01*
X78946532Y-57461248D01*
X78815579Y-57542285D01*
X78800652Y-57551522D01*
X78675695Y-57676697D01*
X78671855Y-57682927D01*
X78671854Y-57682928D01*
X78595515Y-57806773D01*
X78582885Y-57827262D01*
X78580581Y-57834209D01*
X78543502Y-57946000D01*
X78527203Y-57995139D01*
X78516500Y-58099600D01*
X78516500Y-59400400D01*
X78516837Y-59403646D01*
X78516837Y-59403650D01*
X78526020Y-59492148D01*
X78527474Y-59506166D01*
X78529655Y-59512702D01*
X78529655Y-59512704D01*
X78571516Y-59638176D01*
X78583450Y-59673946D01*
X78676522Y-59824348D01*
X78801697Y-59949305D01*
X78807927Y-59953145D01*
X78807928Y-59953146D01*
X78945090Y-60037694D01*
X78952262Y-60042115D01*
X78977241Y-60050400D01*
X79113611Y-60095632D01*
X79113613Y-60095632D01*
X79120139Y-60097797D01*
X79126975Y-60098497D01*
X79126978Y-60098498D01*
X79170031Y-60102909D01*
X79224600Y-60108500D01*
X80775400Y-60108500D01*
X80778646Y-60108163D01*
X80778650Y-60108163D01*
X80874308Y-60098238D01*
X80874312Y-60098237D01*
X80881166Y-60097526D01*
X80887702Y-60095345D01*
X80887704Y-60095345D01*
X81022419Y-60050400D01*
X81048946Y-60041550D01*
X81199348Y-59948478D01*
X81232884Y-59914884D01*
X81319134Y-59828483D01*
X81324305Y-59823303D01*
X81354292Y-59774655D01*
X81413275Y-59678968D01*
X81413276Y-59678966D01*
X81417115Y-59672738D01*
X81467439Y-59521016D01*
X81470632Y-59511389D01*
X81470632Y-59511387D01*
X81472797Y-59504861D01*
X81483500Y-59400400D01*
X81483500Y-58099600D01*
X81483163Y-58096350D01*
X81473238Y-58000692D01*
X81473237Y-58000688D01*
X81472526Y-57993834D01*
X81464166Y-57968774D01*
X81418868Y-57833002D01*
X81416550Y-57826054D01*
X81323478Y-57675652D01*
X81198303Y-57550695D01*
X81170976Y-57533850D01*
X81121804Y-57503540D01*
X81052660Y-57460919D01*
X81005168Y-57408148D01*
X80993744Y-57338076D01*
X81022018Y-57272952D01*
X81031805Y-57262490D01*
X81101445Y-57196056D01*
X81146135Y-57153424D01*
X81283754Y-56968458D01*
X81307282Y-56922183D01*
X81341167Y-56855535D01*
X81388240Y-56762949D01*
X81390540Y-56755544D01*
X81455024Y-56547871D01*
X81456607Y-56542773D01*
X81470080Y-56441122D01*
X81486198Y-56319511D01*
X81486198Y-56319506D01*
X81486898Y-56314226D01*
X81478249Y-56083842D01*
X81430907Y-55858209D01*
X81421787Y-55835115D01*
X81348185Y-55648744D01*
X81348184Y-55648742D01*
X81346224Y-55643779D01*
X81342528Y-55637687D01*
X81229390Y-55451243D01*
X81226623Y-55446683D01*
X81206950Y-55424012D01*
X81079023Y-55276588D01*
X81079021Y-55276586D01*
X81075523Y-55272555D01*
X80987491Y-55200373D01*
X80901373Y-55129760D01*
X80901367Y-55129756D01*
X80897245Y-55126376D01*
X80865750Y-55108448D01*
X80816445Y-55057368D01*
X80802583Y-54987738D01*
X80828566Y-54921667D01*
X80857716Y-54894427D01*
X80897953Y-54867338D01*
X80979319Y-54812559D01*
X80992877Y-54799626D01*
X81104150Y-54693476D01*
X81146135Y-54653424D01*
X81151061Y-54646804D01*
X81209105Y-54568790D01*
X81283754Y-54468458D01*
X81319199Y-54398744D01*
X81359319Y-54319833D01*
X81388240Y-54262949D01*
X81390540Y-54255544D01*
X81455024Y-54047871D01*
X81456607Y-54042773D01*
X81461192Y-54008178D01*
X81486198Y-53819511D01*
X81486198Y-53819506D01*
X81486898Y-53814226D01*
X81484238Y-53743357D01*
X81479941Y-53628909D01*
X81478249Y-53583842D01*
X81430907Y-53358209D01*
X81428948Y-53353248D01*
X81348185Y-53148744D01*
X81348184Y-53148742D01*
X81346224Y-53143779D01*
X81331147Y-53118932D01*
X81249177Y-52983850D01*
X81226623Y-52946683D01*
X81173840Y-52885856D01*
X81079023Y-52776588D01*
X81079021Y-52776586D01*
X81075523Y-52772555D01*
X80990363Y-52702728D01*
X80901373Y-52629760D01*
X80901367Y-52629756D01*
X80897245Y-52626376D01*
X80865750Y-52608448D01*
X80816445Y-52557368D01*
X80802583Y-52487738D01*
X80828566Y-52421667D01*
X80857716Y-52394427D01*
X80891387Y-52371758D01*
X80979319Y-52312559D01*
X81146135Y-52153424D01*
X81283754Y-51968458D01*
X81295054Y-51946234D01*
X81355215Y-51827905D01*
X81388240Y-51762949D01*
X81396452Y-51736504D01*
X81455024Y-51547871D01*
X81456607Y-51542773D01*
X81461821Y-51503435D01*
X81486198Y-51319511D01*
X81486198Y-51319506D01*
X81486898Y-51314226D01*
X81483407Y-51221222D01*
X81481339Y-51166150D01*
X81478249Y-51083842D01*
X81430907Y-50858209D01*
X81412969Y-50812787D01*
X81348185Y-50648744D01*
X81348184Y-50648742D01*
X81346224Y-50643779D01*
X81334862Y-50625054D01*
X81229390Y-50451243D01*
X81226623Y-50446683D01*
X81222125Y-50441500D01*
X81079023Y-50276588D01*
X81079021Y-50276586D01*
X81075523Y-50272555D01*
X81031361Y-50236344D01*
X80901373Y-50129760D01*
X80901367Y-50129756D01*
X80897245Y-50126376D01*
X80892609Y-50123737D01*
X80892606Y-50123735D01*
X80701529Y-50014968D01*
X80696886Y-50012325D01*
X80480175Y-49933663D01*
X80474926Y-49932714D01*
X80474923Y-49932713D01*
X80257392Y-49893377D01*
X80257385Y-49893376D01*
X80253308Y-49892639D01*
X80235586Y-49891803D01*
X80230644Y-49891570D01*
X80230637Y-49891570D01*
X80229156Y-49891500D01*
X79817110Y-49891500D01*
X79750191Y-49897178D01*
X79650591Y-49905629D01*
X79650587Y-49905630D01*
X79645280Y-49906080D01*
X79640125Y-49907418D01*
X79640119Y-49907419D01*
X79427297Y-49962657D01*
X79427293Y-49962658D01*
X79422128Y-49963999D01*
X79417262Y-49966191D01*
X79417259Y-49966192D01*
X79275504Y-50030048D01*
X79211925Y-50058688D01*
X79020681Y-50187441D01*
X79016824Y-50191120D01*
X79016822Y-50191122D01*
X78964523Y-50241013D01*
X78853865Y-50346576D01*
X78716246Y-50531542D01*
X78713835Y-50536285D01*
X78713828Y-50536297D01*
X78678277Y-50606221D01*
X78611760Y-50737051D01*
X78610178Y-50742145D01*
X78610177Y-50742148D01*
X78570403Y-50870242D01*
X78543393Y-50957227D01*
X78542692Y-50962516D01*
X78514618Y-51174337D01*
X78513102Y-51185774D01*
X78513302Y-51191103D01*
X78513302Y-51191105D01*
X78515363Y-51246000D01*
X78521751Y-51416158D01*
X78522846Y-51421377D01*
X78530608Y-51458372D01*
X78569093Y-51641791D01*
X78571051Y-51646750D01*
X78571052Y-51646752D01*
X78646214Y-51837072D01*
X78653776Y-51856221D01*
X78656543Y-51860780D01*
X78656544Y-51860783D01*
X78708397Y-51946234D01*
X78773377Y-52053317D01*
X78776874Y-52057347D01*
X78906933Y-52207227D01*
X78924477Y-52227445D01*
X78955647Y-52253003D01*
X79098627Y-52370240D01*
X79098633Y-52370244D01*
X79102755Y-52373624D01*
X79134250Y-52391552D01*
X79183555Y-52442632D01*
X79197417Y-52512262D01*
X79171434Y-52578333D01*
X79142284Y-52605573D01*
X79020681Y-52687441D01*
X79016824Y-52691120D01*
X79016822Y-52691122D01*
X79009800Y-52697821D01*
X78853865Y-52846576D01*
X78716246Y-53031542D01*
X78713830Y-53036293D01*
X78713828Y-53036297D01*
X78678277Y-53106221D01*
X78611760Y-53237051D01*
X78610178Y-53242145D01*
X78610177Y-53242148D01*
X78561428Y-53399146D01*
X78543393Y-53457227D01*
X78542692Y-53462516D01*
X78514972Y-53671667D01*
X78513102Y-53685774D01*
X78513302Y-53691103D01*
X78513302Y-53691105D01*
X78514459Y-53721921D01*
X78521751Y-53916158D01*
X78522846Y-53921377D01*
X78543364Y-54019168D01*
X78569093Y-54141791D01*
X78571051Y-54146750D01*
X78571052Y-54146752D01*
X78641248Y-54324497D01*
X78653776Y-54356221D01*
X78656543Y-54360780D01*
X78656544Y-54360783D01*
X78706110Y-54442465D01*
X78773377Y-54553317D01*
X78776874Y-54557347D01*
X78906933Y-54707227D01*
X78924477Y-54727445D01*
X78954591Y-54752137D01*
X79098627Y-54870240D01*
X79098633Y-54870244D01*
X79102755Y-54873624D01*
X79134250Y-54891552D01*
X79183555Y-54942632D01*
X79197417Y-55012262D01*
X79171434Y-55078333D01*
X79142284Y-55105573D01*
X79020681Y-55187441D01*
X79016824Y-55191120D01*
X79016822Y-55191122D01*
X78960877Y-55244491D01*
X78853865Y-55346576D01*
X78850682Y-55350854D01*
X78824107Y-55386572D01*
X78716246Y-55531542D01*
X78713830Y-55536293D01*
X78713828Y-55536297D01*
X78678277Y-55606221D01*
X78611760Y-55737051D01*
X78610178Y-55742145D01*
X78610177Y-55742148D01*
X78567593Y-55879292D01*
X78543393Y-55957227D01*
X78542692Y-55962516D01*
X78514972Y-56171667D01*
X78513102Y-56185774D01*
X73323018Y-56185774D01*
X73328566Y-56171667D01*
X73357716Y-56144427D01*
X73393642Y-56120240D01*
X73479319Y-56062559D01*
X73646135Y-55903424D01*
X73783754Y-55718458D01*
X73799214Y-55688052D01*
X73852874Y-55582509D01*
X73888240Y-55512949D01*
X73893560Y-55495818D01*
X73955024Y-55297871D01*
X73956607Y-55292773D01*
X73963006Y-55244491D01*
X73986198Y-55069511D01*
X73986198Y-55069506D01*
X73986898Y-55064226D01*
X73985452Y-55025695D01*
X73979860Y-54876762D01*
X73978249Y-54833842D01*
X73930907Y-54608209D01*
X73928833Y-54602957D01*
X73848185Y-54398744D01*
X73848184Y-54398742D01*
X73846224Y-54393779D01*
X73820421Y-54351256D01*
X73729390Y-54201243D01*
X73726623Y-54196683D01*
X73711668Y-54179449D01*
X73579023Y-54026588D01*
X73579021Y-54026586D01*
X73575523Y-54022555D01*
X73499473Y-53960198D01*
X73401373Y-53879760D01*
X73401367Y-53879756D01*
X73397245Y-53876376D01*
X73365750Y-53858448D01*
X73316445Y-53807368D01*
X73302583Y-53737738D01*
X73328566Y-53671667D01*
X73357716Y-53644427D01*
X73418532Y-53603483D01*
X73479319Y-53562559D01*
X73646135Y-53403424D01*
X73783754Y-53218458D01*
X73788417Y-53209288D01*
X73843342Y-53101256D01*
X73888240Y-53012949D01*
X73901755Y-52969426D01*
X73955024Y-52797871D01*
X73956607Y-52792773D01*
X73961746Y-52754000D01*
X73986198Y-52569511D01*
X73986198Y-52569506D01*
X73986898Y-52564226D01*
X73986471Y-52552837D01*
X73979966Y-52379571D01*
X73978249Y-52333842D01*
X73930907Y-52108209D01*
X73881181Y-51982296D01*
X73848185Y-51898744D01*
X73848184Y-51898742D01*
X73846224Y-51893779D01*
X73820421Y-51851256D01*
X73729390Y-51701243D01*
X73726623Y-51696683D01*
X73648289Y-51606411D01*
X73579023Y-51526588D01*
X73579021Y-51526586D01*
X73575523Y-51522555D01*
X73523965Y-51480280D01*
X73401373Y-51379760D01*
X73401367Y-51379756D01*
X73397245Y-51376376D01*
X73365750Y-51358448D01*
X73316445Y-51307368D01*
X73302583Y-51237738D01*
X73328566Y-51171667D01*
X73357716Y-51144427D01*
X73394991Y-51119332D01*
X73479319Y-51062559D01*
X73488190Y-51054097D01*
X73568541Y-50977445D01*
X73646135Y-50903424D01*
X73783754Y-50718458D01*
X73794120Y-50698071D01*
X73845075Y-50597849D01*
X73888240Y-50512949D01*
X73891329Y-50503003D01*
X73955024Y-50297871D01*
X73956607Y-50292773D01*
X73970254Y-50189809D01*
X73986198Y-50069511D01*
X73986198Y-50069506D01*
X73986898Y-50064226D01*
X73986233Y-50046498D01*
X73978449Y-49839173D01*
X73978249Y-49833842D01*
X73930907Y-49608209D01*
X73919783Y-49580042D01*
X73848185Y-49398744D01*
X73848184Y-49398742D01*
X73846224Y-49393779D01*
X73839287Y-49382346D01*
X73729390Y-49201243D01*
X73726623Y-49196683D01*
X73688058Y-49152241D01*
X73579023Y-49026588D01*
X73579021Y-49026586D01*
X73575523Y-49022555D01*
X73511379Y-48969960D01*
X73401373Y-48879760D01*
X73401367Y-48879756D01*
X73397245Y-48876376D01*
X73392609Y-48873737D01*
X73392606Y-48873735D01*
X73201529Y-48764968D01*
X73196886Y-48762325D01*
X72980175Y-48683663D01*
X72974926Y-48682714D01*
X72974923Y-48682713D01*
X72757392Y-48643377D01*
X72757385Y-48643376D01*
X72753308Y-48642639D01*
X72735586Y-48641803D01*
X72730644Y-48641570D01*
X72730637Y-48641570D01*
X72729156Y-48641500D01*
X72317110Y-48641500D01*
X72250191Y-48647178D01*
X72150591Y-48655629D01*
X72150587Y-48655630D01*
X72145280Y-48656080D01*
X72140125Y-48657418D01*
X72140119Y-48657419D01*
X71927297Y-48712657D01*
X71927293Y-48712658D01*
X71922128Y-48713999D01*
X71917262Y-48716191D01*
X71917259Y-48716192D01*
X71804079Y-48767176D01*
X71711925Y-48808688D01*
X71520681Y-48937441D01*
X71516824Y-48941120D01*
X71516822Y-48941122D01*
X71464751Y-48990796D01*
X71353865Y-49096576D01*
X71350682Y-49100854D01*
X71330154Y-49128444D01*
X71216246Y-49281542D01*
X71213830Y-49286293D01*
X71213828Y-49286297D01*
X71164995Y-49382346D01*
X71111760Y-49487051D01*
X71110178Y-49492145D01*
X71110177Y-49492148D01*
X71058970Y-49657060D01*
X71043393Y-49707227D01*
X71042692Y-49712516D01*
X71017038Y-49906080D01*
X71013102Y-49935774D01*
X71021751Y-50166158D01*
X71069093Y-50391791D01*
X71071051Y-50396750D01*
X71071052Y-50396752D01*
X71127618Y-50539984D01*
X71153776Y-50606221D01*
X71156543Y-50610780D01*
X71156544Y-50610783D01*
X71236259Y-50742148D01*
X71273377Y-50803317D01*
X71276874Y-50807347D01*
X71406933Y-50957227D01*
X71424477Y-50977445D01*
X71457913Y-51004861D01*
X71598627Y-51120240D01*
X71598633Y-51120244D01*
X71602755Y-51123624D01*
X71634250Y-51141552D01*
X71683555Y-51192632D01*
X71697417Y-51262262D01*
X71671434Y-51328333D01*
X71642284Y-51355573D01*
X71520681Y-51437441D01*
X71516824Y-51441120D01*
X71516822Y-51441122D01*
X71475774Y-51480280D01*
X71353865Y-51596576D01*
X71350682Y-51600854D01*
X71344993Y-51608500D01*
X71216246Y-51781542D01*
X71213830Y-51786293D01*
X71213828Y-51786297D01*
X71178277Y-51856221D01*
X71111760Y-51987051D01*
X71110178Y-51992145D01*
X71110177Y-51992148D01*
X71070735Y-52119171D01*
X71043393Y-52207227D01*
X71042692Y-52212516D01*
X71014972Y-52421667D01*
X71013102Y-52435774D01*
X71013302Y-52441103D01*
X71013302Y-52441105D01*
X71014242Y-52466150D01*
X71021751Y-52666158D01*
X71022845Y-52671374D01*
X71022846Y-52671379D01*
X71054090Y-52820289D01*
X71048502Y-52891065D01*
X71005537Y-52947585D01*
X70938836Y-52971904D01*
X70869575Y-52956301D01*
X70833132Y-52925798D01*
X70800557Y-52885856D01*
X70785264Y-52867106D01*
X70784458Y-52866106D01*
X70755464Y-52829786D01*
X70755461Y-52829783D01*
X70753262Y-52827028D01*
X70750766Y-52824532D01*
X70750124Y-52823814D01*
X70746404Y-52819459D01*
X70722954Y-52790706D01*
X70722952Y-52790704D01*
X70719065Y-52785938D01*
X70714323Y-52782015D01*
X70714321Y-52782013D01*
X70683727Y-52756703D01*
X70674947Y-52748713D01*
X70045405Y-52119171D01*
X70011379Y-52056859D01*
X70008500Y-52030076D01*
X70008500Y-48557905D01*
X70009145Y-48545172D01*
X70012752Y-48509665D01*
X70012752Y-48509660D01*
X70013374Y-48503537D01*
X70009059Y-48457888D01*
X70008500Y-48446031D01*
X70008500Y-45311842D01*
X70009237Y-45298235D01*
X70012659Y-45266737D01*
X70012659Y-45266732D01*
X70013324Y-45260611D01*
X70008950Y-45210609D01*
X70008621Y-45205784D01*
X70008500Y-45203313D01*
X70008500Y-45200231D01*
X70004309Y-45157489D01*
X70004187Y-45156174D01*
X69996623Y-45069719D01*
X69996087Y-45063587D01*
X69994600Y-45058468D01*
X69994080Y-45053167D01*
X69967218Y-44964194D01*
X69966862Y-44962994D01*
X69940909Y-44873663D01*
X69938455Y-44868929D01*
X69936916Y-44863831D01*
X69893316Y-44781831D01*
X69892702Y-44780663D01*
X69852726Y-44703541D01*
X69852725Y-44703540D01*
X69849892Y-44698074D01*
X69846569Y-44693911D01*
X69844066Y-44689204D01*
X69785245Y-44617082D01*
X69784554Y-44616226D01*
X69753262Y-44577027D01*
X69750758Y-44574523D01*
X69750116Y-44573805D01*
X69746415Y-44569472D01*
X69719065Y-44535938D01*
X69683737Y-44506712D01*
X69674958Y-44498723D01*
X61256855Y-36080621D01*
X61247753Y-36070478D01*
X61227897Y-36045782D01*
X61224032Y-36040975D01*
X61185544Y-36008680D01*
X61181926Y-36005523D01*
X61180111Y-36003877D01*
X61177925Y-36001691D01*
X61175543Y-35999735D01*
X61175536Y-35999728D01*
X61144754Y-35974443D01*
X61143739Y-35973600D01*
X61077251Y-35917810D01*
X61077246Y-35917807D01*
X61072526Y-35913846D01*
X61067856Y-35911278D01*
X61063739Y-35907897D01*
X60981914Y-35864023D01*
X60980755Y-35863394D01*
X60904619Y-35821538D01*
X60904611Y-35821535D01*
X60899213Y-35818567D01*
X60894131Y-35816955D01*
X60889437Y-35814438D01*
X60800469Y-35787238D01*
X60799441Y-35786918D01*
X60710694Y-35758765D01*
X60705398Y-35758171D01*
X60700302Y-35756613D01*
X60607743Y-35747210D01*
X60606607Y-35747089D01*
X60572992Y-35743319D01*
X60560270Y-35741892D01*
X60560266Y-35741892D01*
X60556773Y-35741500D01*
X60553246Y-35741500D01*
X60552261Y-35741445D01*
X60546581Y-35740998D01*
X60517175Y-35738011D01*
X60509663Y-35737248D01*
X60509661Y-35737248D01*
X60503538Y-35736626D01*
X60461259Y-35740623D01*
X60457891Y-35740941D01*
X60446033Y-35741500D01*
X56134500Y-35741500D01*
X56066379Y-35721498D01*
X56019886Y-35667842D01*
X56008500Y-35615500D01*
X56008500Y-32797386D01*
X77567759Y-32797386D01*
X77575216Y-32807753D01*
X77814935Y-33001874D01*
X77820272Y-33005751D01*
X78140685Y-33213830D01*
X78146394Y-33217127D01*
X78486811Y-33390578D01*
X78492836Y-33393260D01*
X78849502Y-33530171D01*
X78855784Y-33532212D01*
X79224816Y-33631094D01*
X79231266Y-33632465D01*
X79608629Y-33692234D01*
X79615167Y-33692920D01*
X79996699Y-33712916D01*
X80003301Y-33712916D01*
X80384833Y-33692920D01*
X80391371Y-33692234D01*
X80768734Y-33632465D01*
X80775184Y-33631094D01*
X81144216Y-33532212D01*
X81150498Y-33530171D01*
X81507164Y-33393260D01*
X81513189Y-33390578D01*
X81853606Y-33217127D01*
X81859315Y-33213830D01*
X82179728Y-33005751D01*
X82185065Y-33001874D01*
X82423835Y-32808522D01*
X82432300Y-32796267D01*
X82425966Y-32785176D01*
X80012812Y-30372022D01*
X79998868Y-30364408D01*
X79997035Y-30364539D01*
X79990420Y-30368790D01*
X77574900Y-32784310D01*
X77567759Y-32797386D01*
X56008500Y-32797386D01*
X56008500Y-31082701D01*
X56028502Y-31014580D01*
X56037066Y-31002810D01*
X56120240Y-30901373D01*
X56120244Y-30901367D01*
X56123624Y-30897245D01*
X56136681Y-30874308D01*
X56141829Y-30865265D01*
X56192912Y-30815959D01*
X56262542Y-30802098D01*
X56328613Y-30828082D01*
X56355851Y-30857232D01*
X56434852Y-30974578D01*
X56441519Y-30982870D01*
X56593228Y-31141900D01*
X56601186Y-31148941D01*
X56777525Y-31280141D01*
X56786562Y-31285745D01*
X56982484Y-31385357D01*
X56992335Y-31389357D01*
X57202240Y-31454534D01*
X57212624Y-31456817D01*
X57228043Y-31458861D01*
X57242207Y-31456665D01*
X57246000Y-31443478D01*
X57246000Y-31441192D01*
X57754000Y-31441192D01*
X57757973Y-31454723D01*
X57768580Y-31456248D01*
X57886421Y-31431523D01*
X57896617Y-31428463D01*
X58101029Y-31347737D01*
X58110561Y-31343006D01*
X58298462Y-31228984D01*
X58307052Y-31222720D01*
X58473052Y-31078673D01*
X58480472Y-31071042D01*
X58619826Y-30901089D01*
X58625850Y-30892322D01*
X58734576Y-30701318D01*
X58739041Y-30691654D01*
X58814031Y-30485059D01*
X58816802Y-30474792D01*
X58853504Y-30271826D01*
X58852085Y-30258586D01*
X58837450Y-30254000D01*
X57772115Y-30254000D01*
X57756876Y-30258475D01*
X57755671Y-30259865D01*
X57754000Y-30267548D01*
X57754000Y-31441192D01*
X57246000Y-31441192D01*
X57246000Y-30003301D01*
X76287084Y-30003301D01*
X76307080Y-30384833D01*
X76307766Y-30391371D01*
X76367535Y-30768734D01*
X76368906Y-30775184D01*
X76467788Y-31144216D01*
X76469829Y-31150498D01*
X76606740Y-31507164D01*
X76609422Y-31513189D01*
X76782872Y-31853603D01*
X76786169Y-31859313D01*
X76994253Y-32179735D01*
X76998123Y-32185061D01*
X77191478Y-32423835D01*
X77203733Y-32432300D01*
X77214824Y-32425966D01*
X79627978Y-30012812D01*
X79634356Y-30001132D01*
X80364408Y-30001132D01*
X80364539Y-30002965D01*
X80368790Y-30009580D01*
X82784310Y-32425100D01*
X82797386Y-32432241D01*
X82807753Y-32424784D01*
X83001877Y-32185061D01*
X83005747Y-32179735D01*
X83213831Y-31859313D01*
X83217128Y-31853603D01*
X83390578Y-31513189D01*
X83393260Y-31507164D01*
X83530171Y-31150498D01*
X83532212Y-31144216D01*
X83631094Y-30775184D01*
X83632465Y-30768734D01*
X83692234Y-30391371D01*
X83692920Y-30384833D01*
X83712916Y-30003301D01*
X83712916Y-29996699D01*
X83692920Y-29615167D01*
X83692234Y-29608629D01*
X83632465Y-29231266D01*
X83631094Y-29224816D01*
X83532212Y-28855784D01*
X83530171Y-28849502D01*
X83393260Y-28492836D01*
X83390578Y-28486811D01*
X83217128Y-28146397D01*
X83213831Y-28140687D01*
X83005747Y-27820265D01*
X83001877Y-27814939D01*
X82808522Y-27576165D01*
X82796267Y-27567700D01*
X82785176Y-27574034D01*
X80372022Y-29987188D01*
X80364408Y-30001132D01*
X79634356Y-30001132D01*
X79635592Y-29998868D01*
X79635461Y-29997035D01*
X79631210Y-29990420D01*
X77215690Y-27574900D01*
X77202614Y-27567759D01*
X77192247Y-27575216D01*
X76998123Y-27814939D01*
X76994253Y-27820265D01*
X76786169Y-28140687D01*
X76782872Y-28146397D01*
X76609422Y-28486811D01*
X76606740Y-28492836D01*
X76469829Y-28849502D01*
X76467788Y-28855784D01*
X76368906Y-29224816D01*
X76367535Y-29231266D01*
X76307766Y-29608629D01*
X76307080Y-29615167D01*
X76287084Y-29996699D01*
X76287084Y-30003301D01*
X57246000Y-30003301D01*
X57246000Y-29727885D01*
X57754000Y-29727885D01*
X57758475Y-29743124D01*
X57759865Y-29744329D01*
X57767548Y-29746000D01*
X58833849Y-29746000D01*
X58848527Y-29741690D01*
X58850590Y-29729807D01*
X58843876Y-29650675D01*
X58842086Y-29640203D01*
X58786870Y-29427465D01*
X58783335Y-29417425D01*
X58693063Y-29217030D01*
X58687894Y-29207744D01*
X58565150Y-29025425D01*
X58558481Y-29017130D01*
X58406772Y-28858100D01*
X58398814Y-28851059D01*
X58222475Y-28719859D01*
X58213438Y-28714255D01*
X58017516Y-28614643D01*
X58007665Y-28610643D01*
X57797760Y-28545466D01*
X57787376Y-28543183D01*
X57771957Y-28541139D01*
X57757793Y-28543335D01*
X57754000Y-28556522D01*
X57754000Y-29727885D01*
X57246000Y-29727885D01*
X57246000Y-28558808D01*
X57242027Y-28545277D01*
X57231420Y-28543752D01*
X57113579Y-28568477D01*
X57103383Y-28571537D01*
X56898971Y-28652263D01*
X56889439Y-28656994D01*
X56701538Y-28771016D01*
X56692948Y-28777280D01*
X56526948Y-28921327D01*
X56519528Y-28928958D01*
X56380174Y-29098911D01*
X56374152Y-29107674D01*
X56358762Y-29134711D01*
X56307680Y-29184018D01*
X56238049Y-29197880D01*
X56171978Y-29171897D01*
X56144739Y-29142747D01*
X56068348Y-29029280D01*
X56062559Y-29020681D01*
X56003918Y-28959209D01*
X55975059Y-28928958D01*
X55903424Y-28853865D01*
X55718458Y-28716246D01*
X55713707Y-28713830D01*
X55713703Y-28713828D01*
X55595588Y-28653776D01*
X55512949Y-28611760D01*
X55507855Y-28610178D01*
X55507852Y-28610177D01*
X55297871Y-28544976D01*
X55292773Y-28543393D01*
X55287484Y-28542692D01*
X55069511Y-28513802D01*
X55069506Y-28513802D01*
X55064226Y-28513102D01*
X55058897Y-28513302D01*
X55058895Y-28513302D01*
X54949034Y-28517426D01*
X54833842Y-28521751D01*
X54828623Y-28522846D01*
X54806566Y-28527474D01*
X54608209Y-28569093D01*
X54603250Y-28571051D01*
X54603248Y-28571052D01*
X54398744Y-28651815D01*
X54398742Y-28651816D01*
X54393779Y-28653776D01*
X54389220Y-28656543D01*
X54389217Y-28656544D01*
X54294113Y-28714255D01*
X54196683Y-28773377D01*
X54192653Y-28776874D01*
X54099484Y-28857722D01*
X54022555Y-28924477D01*
X53993330Y-28960120D01*
X53934671Y-29000114D01*
X53863701Y-29002046D01*
X53802952Y-28965302D01*
X53788752Y-28946532D01*
X53702332Y-28806880D01*
X53698478Y-28800652D01*
X53573303Y-28675695D01*
X53542965Y-28656994D01*
X53428968Y-28586725D01*
X53428966Y-28586724D01*
X53422738Y-28582885D01*
X53309353Y-28545277D01*
X53261389Y-28529368D01*
X53261387Y-28529368D01*
X53254861Y-28527203D01*
X53248025Y-28526503D01*
X53248022Y-28526502D01*
X53204969Y-28522091D01*
X53150400Y-28516500D01*
X51849600Y-28516500D01*
X51846354Y-28516837D01*
X51846350Y-28516837D01*
X51750692Y-28526762D01*
X51750688Y-28526763D01*
X51743834Y-28527474D01*
X51737298Y-28529655D01*
X51737296Y-28529655D01*
X51605194Y-28573728D01*
X51576054Y-28583450D01*
X51425652Y-28676522D01*
X51300695Y-28801697D01*
X51296855Y-28807927D01*
X51296854Y-28807928D01*
X51226954Y-28921327D01*
X51207885Y-28952262D01*
X51152203Y-29120139D01*
X51151503Y-29126975D01*
X51151502Y-29126978D01*
X51149338Y-29148102D01*
X51141500Y-29224600D01*
X51141500Y-30775400D01*
X51141837Y-30778646D01*
X51141837Y-30778650D01*
X51149991Y-30857232D01*
X51152474Y-30881166D01*
X51154655Y-30887702D01*
X51154655Y-30887704D01*
X51186405Y-30982870D01*
X51208450Y-31048946D01*
X51301522Y-31199348D01*
X51426697Y-31324305D01*
X51432927Y-31328145D01*
X51432928Y-31328146D01*
X51570090Y-31412694D01*
X51577262Y-31417115D01*
X51683109Y-31452223D01*
X51705167Y-31459539D01*
X51763527Y-31499969D01*
X51790764Y-31565534D01*
X51791500Y-31579132D01*
X51791500Y-41754340D01*
X51771498Y-41822461D01*
X51754595Y-41843435D01*
X47519480Y-46078550D01*
X47513215Y-46084404D01*
X47469615Y-46122439D01*
X47448506Y-46152474D01*
X47432872Y-46174719D01*
X47428939Y-46180014D01*
X47389524Y-46230282D01*
X47386401Y-46237198D01*
X47385017Y-46239484D01*
X47376643Y-46254165D01*
X47375378Y-46256525D01*
X47371010Y-46262739D01*
X47368250Y-46269818D01*
X47368249Y-46269820D01*
X47347798Y-46322275D01*
X47345247Y-46328344D01*
X47318955Y-46386573D01*
X47317571Y-46394040D01*
X47316770Y-46396595D01*
X47312141Y-46412848D01*
X47311478Y-46415428D01*
X47308718Y-46422509D01*
X47307727Y-46430040D01*
X47307726Y-46430042D01*
X47303983Y-46458475D01*
X47302269Y-46471498D01*
X47300379Y-46485852D01*
X47299348Y-46492359D01*
X47287704Y-46555186D01*
X47288141Y-46562766D01*
X47288141Y-46562767D01*
X47291291Y-46617392D01*
X47291500Y-46624646D01*
X47291500Y-50671088D01*
X47291208Y-50679658D01*
X47288322Y-50721997D01*
X47287275Y-50737352D01*
X47288580Y-50744829D01*
X47288580Y-50744830D01*
X47298261Y-50800299D01*
X47299223Y-50806821D01*
X47306898Y-50870242D01*
X47309581Y-50877343D01*
X47310222Y-50879952D01*
X47314685Y-50896262D01*
X47315450Y-50898798D01*
X47316757Y-50906284D01*
X47341442Y-50962516D01*
X47342442Y-50964795D01*
X47344933Y-50970899D01*
X47367513Y-51030656D01*
X47371817Y-51036919D01*
X47373054Y-51039285D01*
X47381299Y-51054097D01*
X47382632Y-51056351D01*
X47385685Y-51063305D01*
X47396678Y-51077630D01*
X47424579Y-51113991D01*
X47428459Y-51119332D01*
X47460339Y-51165720D01*
X47460344Y-51165725D01*
X47464643Y-51171981D01*
X47470313Y-51177032D01*
X47470314Y-51177034D01*
X47511170Y-51213435D01*
X47516446Y-51218416D01*
X47623275Y-51325245D01*
X47657301Y-51387557D01*
X47652236Y-51458372D01*
X47623275Y-51503435D01*
X46497115Y-52629595D01*
X46434803Y-52663621D01*
X46408020Y-52666500D01*
X44676884Y-52666500D01*
X44608763Y-52646498D01*
X44562270Y-52592842D01*
X44552166Y-52522568D01*
X44581660Y-52457988D01*
X44610581Y-52433355D01*
X44697496Y-52379571D01*
X44708890Y-52370540D01*
X44821363Y-52257871D01*
X44830375Y-52246460D01*
X44913912Y-52110937D01*
X44920056Y-52097759D01*
X44970315Y-51946234D01*
X44973181Y-51932868D01*
X44982672Y-51840230D01*
X44983000Y-51833815D01*
X44983000Y-51772115D01*
X44978525Y-51756876D01*
X44977135Y-51755671D01*
X44969452Y-51754000D01*
X43872000Y-51754000D01*
X43803879Y-51733998D01*
X43757386Y-51680342D01*
X43746000Y-51628000D01*
X43746000Y-51372000D01*
X43766002Y-51303879D01*
X43819658Y-51257386D01*
X43872000Y-51246000D01*
X44964885Y-51246000D01*
X44980124Y-51241525D01*
X44981329Y-51240135D01*
X44983000Y-51232452D01*
X44983000Y-51166234D01*
X44982663Y-51159718D01*
X44972925Y-51065868D01*
X44970032Y-51052472D01*
X44919512Y-50901047D01*
X44913347Y-50887885D01*
X44829574Y-50752508D01*
X44820536Y-50741105D01*
X44793860Y-50714475D01*
X44759781Y-50652193D01*
X44764784Y-50581373D01*
X44793705Y-50536285D01*
X44821758Y-50508183D01*
X44826929Y-50503003D01*
X44858352Y-50452026D01*
X44914369Y-50361150D01*
X44914370Y-50361148D01*
X44918209Y-50354920D01*
X44972974Y-50189809D01*
X44974863Y-50171377D01*
X44983172Y-50090271D01*
X44983500Y-50087072D01*
X44983500Y-49412928D01*
X44983163Y-49409678D01*
X44973419Y-49315765D01*
X44973418Y-49315761D01*
X44972707Y-49308907D01*
X44963578Y-49281542D01*
X44919972Y-49150841D01*
X44917654Y-49143893D01*
X44826116Y-48995969D01*
X44807162Y-48977048D01*
X44708184Y-48878242D01*
X44708179Y-48878238D01*
X44703003Y-48873071D01*
X44691084Y-48865724D01*
X44561150Y-48785631D01*
X44561148Y-48785630D01*
X44554920Y-48781791D01*
X44389809Y-48727026D01*
X44382973Y-48726326D01*
X44382970Y-48726325D01*
X44331474Y-48721049D01*
X44287072Y-48716500D01*
X43712928Y-48716500D01*
X43709682Y-48716837D01*
X43709678Y-48716837D01*
X43615765Y-48726581D01*
X43615761Y-48726582D01*
X43608907Y-48727293D01*
X43602371Y-48729474D01*
X43602369Y-48729474D01*
X43533430Y-48752474D01*
X43443893Y-48782346D01*
X43410594Y-48802952D01*
X43303490Y-48869230D01*
X43295969Y-48873884D01*
X43289077Y-48880788D01*
X43287613Y-48881589D01*
X43285062Y-48883611D01*
X43284716Y-48883174D01*
X43226796Y-48914866D01*
X43155976Y-48909863D01*
X43110890Y-48880944D01*
X43108184Y-48878243D01*
X43108183Y-48878242D01*
X43103003Y-48873071D01*
X43091084Y-48865724D01*
X42961150Y-48785631D01*
X42961148Y-48785630D01*
X42954920Y-48781791D01*
X42789809Y-48727026D01*
X42782973Y-48726326D01*
X42782970Y-48726325D01*
X42731474Y-48721049D01*
X42687072Y-48716500D01*
X42112928Y-48716500D01*
X42109682Y-48716837D01*
X42109678Y-48716837D01*
X42015765Y-48726581D01*
X42015761Y-48726582D01*
X42008907Y-48727293D01*
X42002371Y-48729474D01*
X42002369Y-48729474D01*
X41933430Y-48752474D01*
X41843893Y-48782346D01*
X41695969Y-48873884D01*
X41688922Y-48880944D01*
X41688727Y-48881139D01*
X41686962Y-48882105D01*
X41685059Y-48883613D01*
X41684801Y-48883287D01*
X41626446Y-48915219D01*
X41555625Y-48910218D01*
X41510530Y-48881292D01*
X41507869Y-48878636D01*
X41496460Y-48869625D01*
X41360937Y-48786088D01*
X41347759Y-48779944D01*
X41196234Y-48729685D01*
X41182868Y-48726819D01*
X41090230Y-48717328D01*
X41083815Y-48717000D01*
X41072115Y-48717000D01*
X41056876Y-48721475D01*
X41055671Y-48722865D01*
X41054000Y-48730548D01*
X41054000Y-49890500D01*
X41033998Y-49958621D01*
X40980342Y-50005114D01*
X40928000Y-50016500D01*
X39835115Y-50016500D01*
X39819876Y-50020975D01*
X39818671Y-50022365D01*
X39817000Y-50030048D01*
X39817000Y-50108766D01*
X39817337Y-50115282D01*
X39827075Y-50209132D01*
X39829968Y-50222528D01*
X39880488Y-50373953D01*
X39886653Y-50387115D01*
X39970426Y-50522492D01*
X39979464Y-50533894D01*
X39981139Y-50535567D01*
X39981919Y-50536993D01*
X39984007Y-50539627D01*
X39983556Y-50539984D01*
X40015219Y-50597849D01*
X40010216Y-50668669D01*
X39981299Y-50713754D01*
X39978242Y-50716816D01*
X39978238Y-50716821D01*
X39973071Y-50721997D01*
X39969232Y-50728225D01*
X39966967Y-50731093D01*
X39909050Y-50772155D01*
X39868086Y-50779000D01*
X37671636Y-50779000D01*
X37603515Y-50758998D01*
X37582541Y-50742095D01*
X37495405Y-50654959D01*
X37461379Y-50592647D01*
X37458500Y-50565864D01*
X37458500Y-49490385D01*
X39817000Y-49490385D01*
X39821475Y-49505624D01*
X39822865Y-49506829D01*
X39830548Y-49508500D01*
X40527885Y-49508500D01*
X40543124Y-49504025D01*
X40544329Y-49502635D01*
X40546000Y-49494952D01*
X40546000Y-48735115D01*
X40541525Y-48719876D01*
X40540135Y-48718671D01*
X40532452Y-48717000D01*
X40516234Y-48717000D01*
X40509718Y-48717337D01*
X40415868Y-48727075D01*
X40402472Y-48729968D01*
X40251047Y-48780488D01*
X40237885Y-48786653D01*
X40102508Y-48870426D01*
X40091110Y-48879460D01*
X39978637Y-48992129D01*
X39969625Y-49003540D01*
X39886088Y-49139063D01*
X39879944Y-49152241D01*
X39829685Y-49303766D01*
X39826819Y-49317132D01*
X39817328Y-49409770D01*
X39817000Y-49416185D01*
X39817000Y-49490385D01*
X37458500Y-49490385D01*
X37458500Y-49158927D01*
X37458792Y-49150358D01*
X37462210Y-49100225D01*
X37462210Y-49100221D01*
X37462726Y-49092648D01*
X37451736Y-49029681D01*
X37450775Y-49023165D01*
X37448400Y-49003540D01*
X37443102Y-48959758D01*
X37440419Y-48952657D01*
X37439778Y-48950048D01*
X37435309Y-48933715D01*
X37434548Y-48931195D01*
X37433243Y-48923717D01*
X37429358Y-48914866D01*
X37407559Y-48865204D01*
X37405068Y-48859099D01*
X37385175Y-48806456D01*
X37385173Y-48806452D01*
X37382487Y-48799344D01*
X37378184Y-48793083D01*
X37376947Y-48790717D01*
X37368720Y-48775937D01*
X37367369Y-48773652D01*
X37364315Y-48766695D01*
X37359695Y-48760675D01*
X37359692Y-48760669D01*
X37330682Y-48722865D01*
X37325413Y-48715998D01*
X37321541Y-48710668D01*
X37289661Y-48664280D01*
X37289656Y-48664275D01*
X37285357Y-48658019D01*
X37266817Y-48641500D01*
X37238830Y-48616565D01*
X37233554Y-48611584D01*
X36395405Y-47773435D01*
X36361379Y-47711123D01*
X36358500Y-47684340D01*
X36358500Y-46481866D01*
X36351745Y-46419684D01*
X36300615Y-46283295D01*
X36213261Y-46166739D01*
X36096705Y-46079385D01*
X35960316Y-46028255D01*
X35898134Y-46021500D01*
X34101866Y-46021500D01*
X34039684Y-46028255D01*
X33903295Y-46079385D01*
X33786739Y-46166739D01*
X33699385Y-46283295D01*
X33696233Y-46291703D01*
X33696232Y-46291705D01*
X33651987Y-46409729D01*
X33609346Y-46466494D01*
X33542784Y-46491194D01*
X33534005Y-46491500D01*
X31434428Y-46491500D01*
X31366307Y-46471498D01*
X31332505Y-46437112D01*
X31331875Y-46437612D01*
X31327332Y-46431880D01*
X31323478Y-46425652D01*
X31198303Y-46300695D01*
X31183719Y-46291705D01*
X31053968Y-46211725D01*
X31053966Y-46211724D01*
X31047738Y-46207885D01*
X30887254Y-46154655D01*
X30886389Y-46154368D01*
X30886387Y-46154368D01*
X30879861Y-46152203D01*
X30873025Y-46151503D01*
X30873022Y-46151502D01*
X30829969Y-46147091D01*
X30775400Y-46141500D01*
X29224600Y-46141500D01*
X29221354Y-46141837D01*
X29221350Y-46141837D01*
X29125692Y-46151762D01*
X29125688Y-46151763D01*
X29118834Y-46152474D01*
X29112298Y-46154655D01*
X29112296Y-46154655D01*
X28980194Y-46198728D01*
X28951054Y-46208450D01*
X28800652Y-46301522D01*
X28675695Y-46426697D01*
X28671855Y-46432927D01*
X28671854Y-46432928D01*
X28635215Y-46492368D01*
X28582885Y-46577262D01*
X28580581Y-46584209D01*
X28529842Y-46737184D01*
X28527203Y-46745139D01*
X28516500Y-46849600D01*
X28516500Y-48150400D01*
X28516837Y-48153646D01*
X28516837Y-48153650D01*
X28526618Y-48247914D01*
X28527474Y-48256166D01*
X28529655Y-48262702D01*
X28529655Y-48262704D01*
X28563912Y-48365385D01*
X28583450Y-48423946D01*
X28676522Y-48574348D01*
X28801697Y-48699305D01*
X28807927Y-48703145D01*
X28807928Y-48703146D01*
X28817234Y-48708882D01*
X28947340Y-48789081D01*
X28994832Y-48841852D01*
X29006256Y-48911924D01*
X28977982Y-48977048D01*
X28968195Y-48987510D01*
X28935009Y-49019168D01*
X28853865Y-49096576D01*
X28850682Y-49100854D01*
X28830154Y-49128444D01*
X28716246Y-49281542D01*
X28713830Y-49286293D01*
X28713828Y-49286297D01*
X28664995Y-49382346D01*
X28611760Y-49487051D01*
X28610178Y-49492145D01*
X28610177Y-49492148D01*
X28558970Y-49657060D01*
X28543393Y-49707227D01*
X28542692Y-49712516D01*
X28517038Y-49906080D01*
X28513102Y-49935774D01*
X28521751Y-50166158D01*
X28569093Y-50391791D01*
X28571051Y-50396750D01*
X28571052Y-50396752D01*
X28627618Y-50539984D01*
X28653776Y-50606221D01*
X28656543Y-50610780D01*
X28656544Y-50610783D01*
X28736259Y-50742148D01*
X28773377Y-50803317D01*
X28776874Y-50807347D01*
X28906933Y-50957227D01*
X28924477Y-50977445D01*
X28957913Y-51004861D01*
X29098627Y-51120240D01*
X29098633Y-51120244D01*
X29102755Y-51123624D01*
X29134250Y-51141552D01*
X29183555Y-51192632D01*
X29197417Y-51262262D01*
X29171434Y-51328333D01*
X29142284Y-51355573D01*
X29020681Y-51437441D01*
X29016824Y-51441120D01*
X29016822Y-51441122D01*
X28975774Y-51480280D01*
X28853865Y-51596576D01*
X28850682Y-51600854D01*
X28844993Y-51608500D01*
X28716246Y-51781542D01*
X28713830Y-51786293D01*
X28713828Y-51786297D01*
X28678277Y-51856221D01*
X28611760Y-51987051D01*
X28610178Y-51992145D01*
X28610177Y-51992148D01*
X28570735Y-52119171D01*
X28543393Y-52207227D01*
X28542692Y-52212516D01*
X28514972Y-52421667D01*
X28513102Y-52435774D01*
X28513302Y-52441103D01*
X28513302Y-52441105D01*
X28514242Y-52466150D01*
X28521751Y-52666158D01*
X28569093Y-52891791D01*
X28571051Y-52896750D01*
X28571052Y-52896752D01*
X28635837Y-53060796D01*
X28653776Y-53106221D01*
X28656543Y-53110780D01*
X28656544Y-53110783D01*
X28733166Y-53237051D01*
X28773377Y-53303317D01*
X28776874Y-53307347D01*
X28909538Y-53460229D01*
X28924477Y-53477445D01*
X28928608Y-53480832D01*
X29098627Y-53620240D01*
X29098633Y-53620244D01*
X29102755Y-53623624D01*
X29134250Y-53641552D01*
X29183555Y-53692632D01*
X29197417Y-53762262D01*
X29171434Y-53828333D01*
X29142284Y-53855573D01*
X29020681Y-53937441D01*
X29016824Y-53941120D01*
X29016822Y-53941122D01*
X28990219Y-53966500D01*
X28853865Y-54096576D01*
X28716246Y-54281542D01*
X28713830Y-54286293D01*
X28713828Y-54286297D01*
X28678277Y-54356221D01*
X28611760Y-54487051D01*
X28610178Y-54492145D01*
X28610177Y-54492148D01*
X28565536Y-54635915D01*
X28543393Y-54707227D01*
X28542692Y-54712516D01*
X28514972Y-54921667D01*
X28513102Y-54935774D01*
X28521751Y-55166158D01*
X28522846Y-55171377D01*
X28525729Y-55185116D01*
X28569093Y-55391791D01*
X28571051Y-55396750D01*
X28571052Y-55396752D01*
X28644412Y-55582509D01*
X28653776Y-55606221D01*
X28656543Y-55610780D01*
X28656544Y-55610783D01*
X28724482Y-55722740D01*
X28773377Y-55803317D01*
X28776874Y-55807347D01*
X28906933Y-55957227D01*
X28924477Y-55977445D01*
X28966030Y-56011516D01*
X29098627Y-56120240D01*
X29098633Y-56120244D01*
X29102755Y-56123624D01*
X29134250Y-56141552D01*
X29183555Y-56192632D01*
X29197417Y-56262262D01*
X29171434Y-56328333D01*
X29142284Y-56355573D01*
X29020681Y-56437441D01*
X29016824Y-56441120D01*
X29016822Y-56441122D01*
X29003935Y-56453416D01*
X28853865Y-56596576D01*
X28716246Y-56781542D01*
X28713830Y-56786293D01*
X28713828Y-56786297D01*
X28680352Y-56852141D01*
X28611760Y-56987051D01*
X28610178Y-56992145D01*
X28610177Y-56992148D01*
X28560099Y-57153424D01*
X28543393Y-57207227D01*
X28542692Y-57212516D01*
X28514444Y-57425652D01*
X28513102Y-57435774D01*
X28513302Y-57441103D01*
X28513302Y-57441105D01*
X28516784Y-57533850D01*
X28521751Y-57666158D01*
X28569093Y-57891791D01*
X28571051Y-57896750D01*
X28571052Y-57896752D01*
X28641450Y-58075009D01*
X28653776Y-58106221D01*
X28656543Y-58110780D01*
X28656544Y-58110783D01*
X28715851Y-58208518D01*
X28773377Y-58303317D01*
X28776874Y-58307347D01*
X28904133Y-58454000D01*
X28924477Y-58477445D01*
X28928608Y-58480832D01*
X29098627Y-58620240D01*
X29098633Y-58620244D01*
X29102755Y-58623624D01*
X29134250Y-58641552D01*
X29183555Y-58692632D01*
X29197417Y-58762262D01*
X29171434Y-58828333D01*
X29142284Y-58855573D01*
X29020681Y-58937441D01*
X29016824Y-58941120D01*
X29016822Y-58941122D01*
X28951719Y-59003228D01*
X28853865Y-59096576D01*
X28716246Y-59281542D01*
X28713830Y-59286293D01*
X28713828Y-59286297D01*
X28680008Y-59352817D01*
X28611760Y-59487051D01*
X28610178Y-59492145D01*
X28610177Y-59492148D01*
X28555243Y-59669065D01*
X28543393Y-59707227D01*
X28542692Y-59712516D01*
X28514063Y-59928525D01*
X28513102Y-59935774D01*
X24508500Y-59935774D01*
X24508500Y-32797386D01*
X27567759Y-32797386D01*
X27575216Y-32807753D01*
X27814935Y-33001874D01*
X27820272Y-33005751D01*
X28140685Y-33213830D01*
X28146394Y-33217127D01*
X28486811Y-33390578D01*
X28492836Y-33393260D01*
X28849502Y-33530171D01*
X28855784Y-33532212D01*
X29224816Y-33631094D01*
X29231266Y-33632465D01*
X29608629Y-33692234D01*
X29615167Y-33692920D01*
X29996699Y-33712916D01*
X30003301Y-33712916D01*
X30384833Y-33692920D01*
X30391371Y-33692234D01*
X30768734Y-33632465D01*
X30775184Y-33631094D01*
X31144216Y-33532212D01*
X31150498Y-33530171D01*
X31507164Y-33393260D01*
X31513189Y-33390578D01*
X31853606Y-33217127D01*
X31859315Y-33213830D01*
X32179728Y-33005751D01*
X32185065Y-33001874D01*
X32423835Y-32808522D01*
X32432300Y-32796267D01*
X32425966Y-32785176D01*
X30012812Y-30372022D01*
X29998868Y-30364408D01*
X29997035Y-30364539D01*
X29990420Y-30368790D01*
X27574900Y-32784310D01*
X27567759Y-32797386D01*
X24508500Y-32797386D01*
X24508500Y-30053250D01*
X24510246Y-30032345D01*
X24512770Y-30017344D01*
X24512770Y-30017341D01*
X24513576Y-30012552D01*
X24513689Y-30003301D01*
X26287084Y-30003301D01*
X26307080Y-30384833D01*
X26307766Y-30391371D01*
X26367535Y-30768734D01*
X26368906Y-30775184D01*
X26467788Y-31144216D01*
X26469829Y-31150498D01*
X26606740Y-31507164D01*
X26609422Y-31513189D01*
X26782872Y-31853603D01*
X26786169Y-31859313D01*
X26994253Y-32179735D01*
X26998123Y-32185061D01*
X27191478Y-32423835D01*
X27203733Y-32432300D01*
X27214824Y-32425966D01*
X29627978Y-30012812D01*
X29634356Y-30001132D01*
X30364408Y-30001132D01*
X30364539Y-30002965D01*
X30368790Y-30009580D01*
X32784310Y-32425100D01*
X32797386Y-32432241D01*
X32807753Y-32424784D01*
X33001877Y-32185061D01*
X33005747Y-32179735D01*
X33213831Y-31859313D01*
X33217128Y-31853603D01*
X33390578Y-31513189D01*
X33393260Y-31507164D01*
X33530171Y-31150498D01*
X33532212Y-31144216D01*
X33631094Y-30775184D01*
X33632465Y-30768734D01*
X33692234Y-30391371D01*
X33692920Y-30384833D01*
X33712916Y-30003301D01*
X33712916Y-29996699D01*
X33692920Y-29615167D01*
X33692234Y-29608629D01*
X33632465Y-29231266D01*
X33631094Y-29224816D01*
X33532212Y-28855784D01*
X33530171Y-28849502D01*
X33393260Y-28492836D01*
X33390578Y-28486811D01*
X33217128Y-28146397D01*
X33213831Y-28140687D01*
X33005747Y-27820265D01*
X33001877Y-27814939D01*
X32808522Y-27576165D01*
X32796267Y-27567700D01*
X32785176Y-27574034D01*
X30372022Y-29987188D01*
X30364408Y-30001132D01*
X29634356Y-30001132D01*
X29635592Y-29998868D01*
X29635461Y-29997035D01*
X29631210Y-29990420D01*
X27215690Y-27574900D01*
X27202614Y-27567759D01*
X27192247Y-27575216D01*
X26998123Y-27814939D01*
X26994253Y-27820265D01*
X26786169Y-28140687D01*
X26782872Y-28146397D01*
X26609422Y-28486811D01*
X26606740Y-28492836D01*
X26469829Y-28849502D01*
X26467788Y-28855784D01*
X26368906Y-29224816D01*
X26367535Y-29231266D01*
X26307766Y-29608629D01*
X26307080Y-29615167D01*
X26287084Y-29996699D01*
X26287084Y-30003301D01*
X24513689Y-30003301D01*
X24513729Y-30000000D01*
X24513039Y-29995185D01*
X24513039Y-29995178D01*
X24511316Y-29983148D01*
X24510151Y-29960077D01*
X24527041Y-29551722D01*
X24527901Y-29541344D01*
X24570714Y-29197880D01*
X24582753Y-29101298D01*
X24584466Y-29091030D01*
X24613563Y-28952262D01*
X24675467Y-28657024D01*
X24678023Y-28646928D01*
X24804561Y-28221899D01*
X24807938Y-28212062D01*
X24969147Y-27798919D01*
X24973318Y-27789411D01*
X25078610Y-27574034D01*
X25168082Y-27391015D01*
X25173037Y-27381859D01*
X25279177Y-27203733D01*
X27567700Y-27203733D01*
X27574034Y-27214824D01*
X29987188Y-29627978D01*
X30001132Y-29635592D01*
X30002965Y-29635461D01*
X30009580Y-29631210D01*
X32425100Y-27215690D01*
X32431630Y-27203733D01*
X77567700Y-27203733D01*
X77574034Y-27214824D01*
X79987188Y-29627978D01*
X80001132Y-29635592D01*
X80002965Y-29635461D01*
X80009580Y-29631210D01*
X82425100Y-27215690D01*
X82432241Y-27202614D01*
X82424784Y-27192247D01*
X82185065Y-26998126D01*
X82179728Y-26994249D01*
X81859315Y-26786170D01*
X81853606Y-26782873D01*
X81513189Y-26609422D01*
X81507164Y-26606740D01*
X81150498Y-26469829D01*
X81144216Y-26467788D01*
X80775184Y-26368906D01*
X80768734Y-26367535D01*
X80391371Y-26307766D01*
X80384833Y-26307080D01*
X80003301Y-26287084D01*
X79996699Y-26287084D01*
X79615167Y-26307080D01*
X79608629Y-26307766D01*
X79231266Y-26367535D01*
X79224816Y-26368906D01*
X78855784Y-26467788D01*
X78849502Y-26469829D01*
X78492836Y-26606740D01*
X78486811Y-26609422D01*
X78146397Y-26782872D01*
X78140687Y-26786169D01*
X77820265Y-26994253D01*
X77814939Y-26998123D01*
X77576165Y-27191478D01*
X77567700Y-27203733D01*
X32431630Y-27203733D01*
X32432241Y-27202614D01*
X32424784Y-27192247D01*
X32185065Y-26998126D01*
X32179728Y-26994249D01*
X31859315Y-26786170D01*
X31853606Y-26782873D01*
X31513189Y-26609422D01*
X31507164Y-26606740D01*
X31150498Y-26469829D01*
X31144216Y-26467788D01*
X30775184Y-26368906D01*
X30768734Y-26367535D01*
X30391371Y-26307766D01*
X30384833Y-26307080D01*
X30003301Y-26287084D01*
X29996699Y-26287084D01*
X29615167Y-26307080D01*
X29608629Y-26307766D01*
X29231266Y-26367535D01*
X29224816Y-26368906D01*
X28855784Y-26467788D01*
X28849502Y-26469829D01*
X28492836Y-26606740D01*
X28486811Y-26609422D01*
X28146397Y-26782872D01*
X28140687Y-26786169D01*
X27820265Y-26994253D01*
X27814939Y-26998123D01*
X27576165Y-27191478D01*
X27567700Y-27203733D01*
X25279177Y-27203733D01*
X25400030Y-27000915D01*
X25405726Y-26992196D01*
X25663405Y-26631295D01*
X25669801Y-26623077D01*
X25956413Y-26284674D01*
X25963467Y-26277013D01*
X26277013Y-25963467D01*
X26284674Y-25956413D01*
X26623077Y-25669801D01*
X26631295Y-25663405D01*
X26992196Y-25405726D01*
X27000915Y-25400030D01*
X27381859Y-25173037D01*
X27391017Y-25168081D01*
X27789419Y-24973314D01*
X27798919Y-24969147D01*
X28212062Y-24807938D01*
X28221899Y-24804561D01*
X28646928Y-24678023D01*
X28657024Y-24675467D01*
X28927946Y-24618661D01*
X29091033Y-24584465D01*
X29101298Y-24582753D01*
X29265326Y-24562307D01*
X29541344Y-24527901D01*
X29551722Y-24527041D01*
X29729324Y-24519695D01*
X29956339Y-24510306D01*
X29980920Y-24511698D01*
X29993724Y-24513691D01*
X30002626Y-24512527D01*
X30002628Y-24512527D01*
X30019610Y-24510306D01*
X30025286Y-24509564D01*
X30041621Y-24508500D01*
X79950633Y-24508500D01*
X79970018Y-24510000D01*
G37*
%TD.AperFunction*%
%TA.AperFunction,Conductor*%
G36*
X43207289Y-60528502D02*
G01*
X43253782Y-60582158D01*
X43263886Y-60652432D01*
X43246428Y-60700616D01*
X43161088Y-60839063D01*
X43154944Y-60852241D01*
X43104685Y-61003766D01*
X43101819Y-61017132D01*
X43092328Y-61109770D01*
X43092000Y-61116185D01*
X43092000Y-61127885D01*
X43096475Y-61143124D01*
X43097865Y-61144329D01*
X43105548Y-61146000D01*
X44215500Y-61146000D01*
X44283621Y-61166002D01*
X44330114Y-61219658D01*
X44341500Y-61272000D01*
X44341500Y-61528000D01*
X44321498Y-61596121D01*
X44267842Y-61642614D01*
X44215500Y-61654000D01*
X43110115Y-61654000D01*
X43094876Y-61658475D01*
X43093671Y-61659865D01*
X43092000Y-61667548D01*
X43092000Y-61683766D01*
X43092337Y-61690282D01*
X43102075Y-61784132D01*
X43104968Y-61797528D01*
X43155488Y-61948953D01*
X43161651Y-61962111D01*
X43246482Y-62099197D01*
X43265319Y-62167650D01*
X43244157Y-62235419D01*
X43189716Y-62280990D01*
X43139337Y-62291500D01*
X42834500Y-62291500D01*
X42766379Y-62271498D01*
X42719886Y-62217842D01*
X42708500Y-62165500D01*
X42708500Y-60634500D01*
X42728502Y-60566379D01*
X42782158Y-60519886D01*
X42834500Y-60508500D01*
X43139168Y-60508500D01*
X43207289Y-60528502D01*
G37*
%TD.AperFunction*%
%TA.AperFunction,Conductor*%
G36*
X67924122Y-50812866D02*
G01*
X67975115Y-50862265D01*
X67991500Y-50924398D01*
X67991500Y-52438157D01*
X67990763Y-52451764D01*
X67988977Y-52468209D01*
X67986676Y-52489388D01*
X67987213Y-52495523D01*
X67991050Y-52539388D01*
X67991379Y-52544214D01*
X67991500Y-52546686D01*
X67991500Y-52549769D01*
X67991801Y-52552837D01*
X67995690Y-52592506D01*
X67995812Y-52593819D01*
X67998661Y-52626376D01*
X68003913Y-52686413D01*
X68005400Y-52691532D01*
X68005920Y-52696833D01*
X68032791Y-52785834D01*
X68033126Y-52786967D01*
X68056418Y-52867134D01*
X68059091Y-52876336D01*
X68061544Y-52881068D01*
X68063084Y-52886169D01*
X68065978Y-52891612D01*
X68106731Y-52968260D01*
X68107343Y-52969426D01*
X68143026Y-53038263D01*
X68150108Y-53051926D01*
X68153431Y-53056089D01*
X68155934Y-53060796D01*
X68214755Y-53132918D01*
X68215446Y-53133774D01*
X68246738Y-53172973D01*
X68249242Y-53175477D01*
X68249884Y-53176195D01*
X68253585Y-53180528D01*
X68280935Y-53214062D01*
X68316267Y-53243291D01*
X68325037Y-53251272D01*
X68653008Y-53579242D01*
X68954595Y-53880829D01*
X68988620Y-53943142D01*
X68991500Y-53969925D01*
X68991500Y-54752137D01*
X68971498Y-54820258D01*
X68917842Y-54866751D01*
X68852657Y-54877481D01*
X68753560Y-54867328D01*
X68747145Y-54867000D01*
X68572115Y-54867000D01*
X68556876Y-54871475D01*
X68555671Y-54872865D01*
X68554000Y-54880548D01*
X68554000Y-57614884D01*
X68568093Y-57662880D01*
X68568093Y-57733876D01*
X68536292Y-57787473D01*
X68419170Y-57904595D01*
X68356858Y-57938621D01*
X68330075Y-57941500D01*
X67681638Y-57941500D01*
X67613517Y-57921498D01*
X67567024Y-57867842D01*
X67556311Y-57828503D01*
X67547549Y-57744055D01*
X67560414Y-57674234D01*
X67608985Y-57622452D01*
X67677841Y-57605150D01*
X67712543Y-57611459D01*
X67738707Y-57620137D01*
X67752086Y-57623005D01*
X67846438Y-57632672D01*
X67852854Y-57633000D01*
X68027885Y-57633000D01*
X68043124Y-57628525D01*
X68044329Y-57627135D01*
X68046000Y-57619452D01*
X68046000Y-56522115D01*
X68041525Y-56506876D01*
X68040135Y-56505671D01*
X68032452Y-56504000D01*
X67160116Y-56504000D01*
X67144877Y-56508475D01*
X67143672Y-56509865D01*
X67142001Y-56517548D01*
X67142001Y-56922095D01*
X67142338Y-56928614D01*
X67152917Y-57030573D01*
X67140052Y-57100394D01*
X67091481Y-57152176D01*
X67022625Y-57169478D01*
X66987923Y-57163169D01*
X66961389Y-57154368D01*
X66961387Y-57154368D01*
X66954861Y-57152203D01*
X66948025Y-57151503D01*
X66948022Y-57151502D01*
X66904969Y-57147091D01*
X66850400Y-57141500D01*
X66475928Y-57141500D01*
X66407807Y-57121498D01*
X66361314Y-57067842D01*
X66350584Y-57002657D01*
X66352183Y-56987051D01*
X66358500Y-56925400D01*
X66358500Y-55977885D01*
X67142000Y-55977885D01*
X67146475Y-55993124D01*
X67147865Y-55994329D01*
X67155548Y-55996000D01*
X68027885Y-55996000D01*
X68043124Y-55991525D01*
X68044329Y-55990135D01*
X68046000Y-55982452D01*
X68046000Y-54885116D01*
X68041525Y-54869877D01*
X68040135Y-54868672D01*
X68032452Y-54867001D01*
X67852905Y-54867001D01*
X67846386Y-54867338D01*
X67750794Y-54877257D01*
X67737400Y-54880149D01*
X67583216Y-54931588D01*
X67570038Y-54937761D01*
X67432193Y-55023063D01*
X67420792Y-55032099D01*
X67306261Y-55146829D01*
X67297249Y-55158240D01*
X67212184Y-55296243D01*
X67206037Y-55309424D01*
X67154862Y-55463710D01*
X67151995Y-55477086D01*
X67142328Y-55571438D01*
X67142000Y-55577855D01*
X67142000Y-55977885D01*
X66358500Y-55977885D01*
X66358500Y-55574600D01*
X66356131Y-55551765D01*
X66348238Y-55475692D01*
X66348237Y-55475688D01*
X66347526Y-55468834D01*
X66344834Y-55460763D01*
X66293868Y-55308002D01*
X66291550Y-55301054D01*
X66198478Y-55150652D01*
X66073303Y-55025695D01*
X66051511Y-55012262D01*
X65928968Y-54936725D01*
X65928966Y-54936724D01*
X65922738Y-54932885D01*
X65793853Y-54890136D01*
X65761389Y-54879368D01*
X65761387Y-54879368D01*
X65754861Y-54877203D01*
X65748025Y-54876503D01*
X65748022Y-54876502D01*
X65704969Y-54872091D01*
X65650400Y-54866500D01*
X64749600Y-54866500D01*
X64746354Y-54866837D01*
X64746350Y-54866837D01*
X64650692Y-54876762D01*
X64650688Y-54876763D01*
X64643834Y-54877474D01*
X64637298Y-54879655D01*
X64637296Y-54879655D01*
X64523745Y-54917539D01*
X64476054Y-54933450D01*
X64325652Y-55026522D01*
X64200695Y-55151697D01*
X64196855Y-55157927D01*
X64196854Y-55157928D01*
X64114899Y-55290884D01*
X64107885Y-55302262D01*
X64096712Y-55335947D01*
X64055314Y-55460761D01*
X64052203Y-55470139D01*
X64051503Y-55476975D01*
X64051502Y-55476978D01*
X64049675Y-55494809D01*
X64041500Y-55574600D01*
X64041500Y-55815933D01*
X64021498Y-55884054D01*
X63967842Y-55930547D01*
X63897568Y-55940651D01*
X63832988Y-55911157D01*
X63817857Y-55895569D01*
X63722960Y-55779213D01*
X63722957Y-55779210D01*
X63719065Y-55774438D01*
X63712087Y-55768665D01*
X63571425Y-55652299D01*
X63571421Y-55652297D01*
X63566675Y-55648370D01*
X63392701Y-55554302D01*
X63203768Y-55495818D01*
X63197643Y-55495174D01*
X63197642Y-55495174D01*
X63013204Y-55475789D01*
X63013202Y-55475789D01*
X63007075Y-55475145D01*
X62924576Y-55482653D01*
X62816251Y-55492511D01*
X62816248Y-55492512D01*
X62810112Y-55493070D01*
X62804206Y-55494808D01*
X62804202Y-55494809D01*
X62699076Y-55525749D01*
X62620381Y-55548910D01*
X62614923Y-55551763D01*
X62614919Y-55551765D01*
X62553547Y-55583850D01*
X62445110Y-55640540D01*
X62306236Y-55752198D01*
X62240616Y-55779293D01*
X62227286Y-55780000D01*
X61930355Y-55780000D01*
X61862234Y-55759998D01*
X61841259Y-55743095D01*
X61104799Y-55006634D01*
X61070774Y-54944322D01*
X61075839Y-54873506D01*
X61104799Y-54828444D01*
X61297327Y-54635915D01*
X61359639Y-54601890D01*
X61376753Y-54599381D01*
X61421211Y-54595961D01*
X61510466Y-54589093D01*
X61510470Y-54589092D01*
X61516608Y-54588620D01*
X61707099Y-54535434D01*
X61712603Y-54532654D01*
X61712605Y-54532653D01*
X61878131Y-54449040D01*
X61878133Y-54449039D01*
X61883632Y-54446261D01*
X62039483Y-54324497D01*
X62149809Y-54196683D01*
X62164685Y-54179449D01*
X62164686Y-54179447D01*
X62168714Y-54174781D01*
X62266405Y-54002815D01*
X62277346Y-53969925D01*
X62280582Y-53960198D01*
X62321063Y-53901873D01*
X62386651Y-53874693D01*
X62412980Y-53874625D01*
X62499600Y-53883500D01*
X63400400Y-53883500D01*
X63403646Y-53883163D01*
X63403650Y-53883163D01*
X63499308Y-53873238D01*
X63499312Y-53873237D01*
X63506166Y-53872526D01*
X63512702Y-53870345D01*
X63512704Y-53870345D01*
X63666998Y-53818868D01*
X63673946Y-53816550D01*
X63824348Y-53723478D01*
X63949305Y-53598303D01*
X63958219Y-53583842D01*
X64038275Y-53453968D01*
X64038276Y-53453966D01*
X64042115Y-53447738D01*
X64088309Y-53308468D01*
X64095632Y-53286389D01*
X64095632Y-53286387D01*
X64097797Y-53279861D01*
X64098623Y-53271806D01*
X64104539Y-53214062D01*
X64108500Y-53175400D01*
X64108500Y-53172095D01*
X64892001Y-53172095D01*
X64892338Y-53178614D01*
X64902257Y-53274206D01*
X64905149Y-53287600D01*
X64956588Y-53441784D01*
X64962761Y-53454962D01*
X65048063Y-53592807D01*
X65057099Y-53604208D01*
X65171829Y-53718739D01*
X65183240Y-53727751D01*
X65321243Y-53812816D01*
X65334424Y-53818963D01*
X65488710Y-53870138D01*
X65502086Y-53873005D01*
X65596438Y-53882672D01*
X65602854Y-53883000D01*
X65777885Y-53883000D01*
X65793124Y-53878525D01*
X65794329Y-53877135D01*
X65796000Y-53869452D01*
X65796000Y-53864884D01*
X66304000Y-53864884D01*
X66308475Y-53880123D01*
X66309865Y-53881328D01*
X66317548Y-53882999D01*
X66497095Y-53882999D01*
X66503614Y-53882662D01*
X66599206Y-53872743D01*
X66612600Y-53869851D01*
X66766784Y-53818412D01*
X66779962Y-53812239D01*
X66917807Y-53726937D01*
X66929208Y-53717901D01*
X67043739Y-53603171D01*
X67052751Y-53591760D01*
X67137816Y-53453757D01*
X67143963Y-53440576D01*
X67195138Y-53286290D01*
X67198005Y-53272914D01*
X67207672Y-53178562D01*
X67208000Y-53172146D01*
X67208000Y-52772115D01*
X67203525Y-52756876D01*
X67202135Y-52755671D01*
X67194452Y-52754000D01*
X66322115Y-52754000D01*
X66306876Y-52758475D01*
X66305671Y-52759865D01*
X66304000Y-52767548D01*
X66304000Y-53864884D01*
X65796000Y-53864884D01*
X65796000Y-52772115D01*
X65791525Y-52756876D01*
X65790135Y-52755671D01*
X65782452Y-52754000D01*
X64910116Y-52754000D01*
X64894877Y-52758475D01*
X64893672Y-52759865D01*
X64892001Y-52767548D01*
X64892001Y-53172095D01*
X64108500Y-53172095D01*
X64108500Y-51824600D01*
X64105416Y-51794877D01*
X64098238Y-51725692D01*
X64098237Y-51725688D01*
X64097526Y-51718834D01*
X64088792Y-51692653D01*
X64043867Y-51557999D01*
X64041550Y-51551054D01*
X64040052Y-51548634D01*
X64029546Y-51480280D01*
X64058411Y-51415416D01*
X64117762Y-51376454D01*
X64154432Y-51371000D01*
X64846120Y-51371000D01*
X64914241Y-51391002D01*
X64960734Y-51444658D01*
X64970838Y-51514932D01*
X64960315Y-51550250D01*
X64956037Y-51559424D01*
X64904862Y-51713710D01*
X64901995Y-51727086D01*
X64892328Y-51821438D01*
X64892000Y-51827855D01*
X64892000Y-52227885D01*
X64896475Y-52243124D01*
X64897865Y-52244329D01*
X64905548Y-52246000D01*
X67189884Y-52246000D01*
X67205123Y-52241525D01*
X67206328Y-52240135D01*
X67207999Y-52232452D01*
X67207999Y-51827905D01*
X67207662Y-51821386D01*
X67197743Y-51725794D01*
X67194851Y-51712400D01*
X67143412Y-51558216D01*
X67137241Y-51545042D01*
X67109608Y-51500389D01*
X67090770Y-51431937D01*
X67111931Y-51364167D01*
X67127579Y-51345067D01*
X67144134Y-51328484D01*
X67144138Y-51328479D01*
X67149305Y-51323303D01*
X67163653Y-51300027D01*
X67238275Y-51178968D01*
X67238276Y-51178966D01*
X67242115Y-51172738D01*
X67278660Y-51062559D01*
X67295632Y-51011389D01*
X67295632Y-51011387D01*
X67297797Y-51004861D01*
X67299001Y-50993115D01*
X67306322Y-50921657D01*
X67333163Y-50855930D01*
X67391278Y-50815148D01*
X67431666Y-50808500D01*
X67638157Y-50808500D01*
X67651764Y-50809237D01*
X67683262Y-50812659D01*
X67683267Y-50812659D01*
X67689388Y-50813324D01*
X67715638Y-50811027D01*
X67739388Y-50808950D01*
X67744214Y-50808621D01*
X67746686Y-50808500D01*
X67749769Y-50808500D01*
X67761738Y-50807326D01*
X67792506Y-50804310D01*
X67793818Y-50804189D01*
X67854517Y-50798878D01*
X67924122Y-50812866D01*
G37*
%TD.AperFunction*%
%TA.AperFunction,Conductor*%
G36*
X37803222Y-55728502D02*
G01*
X37824197Y-55745405D01*
X38399079Y-56320288D01*
X38433104Y-56382600D01*
X38428117Y-56452320D01*
X38427757Y-56452944D01*
X38425918Y-56458605D01*
X38425916Y-56458609D01*
X38398479Y-56543051D01*
X38368742Y-56634572D01*
X38353299Y-56781507D01*
X38353257Y-56781904D01*
X38342785Y-56820581D01*
X38324576Y-56860909D01*
X38278312Y-56914762D01*
X38210277Y-56935055D01*
X38170077Y-56928650D01*
X38089809Y-56902026D01*
X38082973Y-56901326D01*
X38082970Y-56901325D01*
X38031474Y-56896049D01*
X37987072Y-56891500D01*
X37665132Y-56891500D01*
X37613283Y-56880337D01*
X37565927Y-56858955D01*
X37558460Y-56857571D01*
X37555905Y-56856770D01*
X37539652Y-56852141D01*
X37537072Y-56851478D01*
X37529991Y-56848718D01*
X37522460Y-56847727D01*
X37522458Y-56847726D01*
X37492839Y-56843827D01*
X37466639Y-56840378D01*
X37460141Y-56839348D01*
X37397314Y-56827704D01*
X37389734Y-56828141D01*
X37389733Y-56828141D01*
X37335108Y-56831291D01*
X37327854Y-56831500D01*
X36228286Y-56831500D01*
X36160165Y-56811498D01*
X36122494Y-56773941D01*
X36118459Y-56767704D01*
X36080014Y-56708277D01*
X35929670Y-56543051D01*
X35925619Y-56539852D01*
X35925615Y-56539848D01*
X35758414Y-56407800D01*
X35758410Y-56407798D01*
X35754359Y-56404598D01*
X35713053Y-56381796D01*
X35663084Y-56331364D01*
X35648312Y-56261921D01*
X35673428Y-56195516D01*
X35700780Y-56168909D01*
X35764267Y-56123624D01*
X35879860Y-56041173D01*
X36038096Y-55883489D01*
X36052511Y-55863428D01*
X36126132Y-55760974D01*
X36182127Y-55717326D01*
X36228455Y-55708500D01*
X37735101Y-55708500D01*
X37803222Y-55728502D01*
G37*
%TD.AperFunction*%
%TA.AperFunction,Conductor*%
G36*
X55749011Y-55080903D02*
G01*
X55794075Y-55109864D01*
X56112189Y-55427979D01*
X56126132Y-55435592D01*
X56127966Y-55435461D01*
X56134579Y-55431210D01*
X56401404Y-55164385D01*
X56463717Y-55130360D01*
X56534532Y-55135424D01*
X56591368Y-55177971D01*
X56616179Y-55244491D01*
X56616500Y-55253479D01*
X56616501Y-55386572D01*
X56616501Y-55464884D01*
X56617039Y-55468969D01*
X56617039Y-55468973D01*
X56618093Y-55476978D01*
X56631986Y-55582509D01*
X56631986Y-55582511D01*
X56621046Y-55652659D01*
X56596159Y-55688052D01*
X56484210Y-55800000D01*
X56214095Y-56070116D01*
X56151783Y-56104141D01*
X56080967Y-56099075D01*
X56035905Y-56070115D01*
X55765790Y-55800000D01*
X55434863Y-55469074D01*
X55400837Y-55406762D01*
X55405902Y-55335947D01*
X55434863Y-55290884D01*
X55525374Y-55200373D01*
X55615884Y-55109864D01*
X55678196Y-55075838D01*
X55749011Y-55080903D01*
G37*
%TD.AperFunction*%
%TA.AperFunction,Conductor*%
G36*
X54339053Y-55080903D02*
G01*
X54384116Y-55109863D01*
X54474627Y-55200373D01*
X54474628Y-55200374D01*
X54565137Y-55290884D01*
X54599162Y-55353196D01*
X54594096Y-55424012D01*
X54565136Y-55469075D01*
X53964095Y-56070115D01*
X53901783Y-56104140D01*
X53830967Y-56099075D01*
X53785905Y-56070115D01*
X53403841Y-55688052D01*
X53369816Y-55625739D01*
X53368014Y-55582511D01*
X53383500Y-55464885D01*
X53383499Y-55253480D01*
X53403501Y-55185360D01*
X53457156Y-55138867D01*
X53527430Y-55128762D01*
X53592011Y-55158255D01*
X53598594Y-55164385D01*
X53862187Y-55427978D01*
X53876132Y-55435592D01*
X53877966Y-55435461D01*
X53884579Y-55431210D01*
X54205925Y-55109864D01*
X54268238Y-55075839D01*
X54339053Y-55080903D01*
G37*
%TD.AperFunction*%
%TA.AperFunction,Conductor*%
G36*
X53919033Y-53900925D02*
G01*
X53964095Y-53929885D01*
X54565136Y-54530925D01*
X54599161Y-54593238D01*
X54594097Y-54664053D01*
X54565137Y-54709116D01*
X54474627Y-54799627D01*
X54474626Y-54799628D01*
X54384116Y-54890137D01*
X54321804Y-54924162D01*
X54250988Y-54919096D01*
X54205925Y-54890136D01*
X53887811Y-54572021D01*
X53873868Y-54564408D01*
X53872034Y-54564539D01*
X53865418Y-54568791D01*
X53544073Y-54890136D01*
X53481761Y-54924162D01*
X53410946Y-54919097D01*
X53365883Y-54890136D01*
X53363556Y-54887809D01*
X53340098Y-54875000D01*
X53335569Y-54875000D01*
X53267448Y-54854998D01*
X53235607Y-54825705D01*
X53208987Y-54791013D01*
X53188068Y-54774961D01*
X53146202Y-54717622D01*
X53141982Y-54646751D01*
X53176747Y-54584848D01*
X53188070Y-54575038D01*
X53202433Y-54564017D01*
X53202437Y-54564013D01*
X53208987Y-54558987D01*
X53214013Y-54552437D01*
X53214016Y-54552434D01*
X53301496Y-54438428D01*
X53301497Y-54438426D01*
X53306524Y-54431875D01*
X53312920Y-54416435D01*
X53340233Y-54375556D01*
X53785905Y-53929885D01*
X53848217Y-53895860D01*
X53919033Y-53900925D01*
G37*
%TD.AperFunction*%
%TA.AperFunction,Conductor*%
G36*
X56169033Y-53900925D02*
G01*
X56214095Y-53929885D01*
X56596159Y-54311948D01*
X56630184Y-54374261D01*
X56631986Y-54417488D01*
X56616500Y-54535115D01*
X56616501Y-54664053D01*
X56616501Y-54746519D01*
X56596499Y-54814640D01*
X56542844Y-54861133D01*
X56472570Y-54871238D01*
X56407989Y-54841745D01*
X56401406Y-54835615D01*
X56137813Y-54572022D01*
X56123868Y-54564408D01*
X56122034Y-54564539D01*
X56115421Y-54568790D01*
X55794075Y-54890136D01*
X55731762Y-54924161D01*
X55660947Y-54919097D01*
X55615884Y-54890137D01*
X55525373Y-54799627D01*
X55525372Y-54799626D01*
X55434863Y-54709116D01*
X55400838Y-54646804D01*
X55405904Y-54575988D01*
X55434864Y-54530925D01*
X56035905Y-53929885D01*
X56098217Y-53895860D01*
X56169033Y-53900925D01*
G37*
%TD.AperFunction*%
%TA.AperFunction,Conductor*%
G36*
X39936181Y-52216002D02*
G01*
X39966806Y-52243736D01*
X39970032Y-52247806D01*
X39973884Y-52254031D01*
X39979064Y-52259202D01*
X40091816Y-52371758D01*
X40091821Y-52371762D01*
X40096997Y-52376929D01*
X40103227Y-52380769D01*
X40103228Y-52380770D01*
X40228499Y-52457988D01*
X40245080Y-52468209D01*
X40410191Y-52522974D01*
X40417027Y-52523674D01*
X40417030Y-52523675D01*
X40468526Y-52528951D01*
X40512928Y-52533500D01*
X41087072Y-52533500D01*
X41090318Y-52533163D01*
X41090322Y-52533163D01*
X41184235Y-52523419D01*
X41184239Y-52523418D01*
X41191093Y-52522707D01*
X41197629Y-52520526D01*
X41197631Y-52520526D01*
X41330395Y-52476232D01*
X41356107Y-52467654D01*
X41430421Y-52421667D01*
X41497800Y-52379972D01*
X41497801Y-52379971D01*
X41504031Y-52376116D01*
X41509209Y-52370929D01*
X41512734Y-52368135D01*
X41578544Y-52341497D01*
X41648309Y-52354667D01*
X41699878Y-52403464D01*
X41717000Y-52466880D01*
X41717000Y-52556756D01*
X41696998Y-52624877D01*
X41692936Y-52630817D01*
X41690879Y-52633648D01*
X41686460Y-52638556D01*
X41683159Y-52644274D01*
X41683158Y-52644275D01*
X41597423Y-52792773D01*
X41590973Y-52803944D01*
X41588931Y-52810229D01*
X41588930Y-52810231D01*
X41582395Y-52830344D01*
X41542322Y-52888950D01*
X41476926Y-52916588D01*
X41458675Y-52916673D01*
X41458675Y-52917000D01*
X41267701Y-52917000D01*
X41261249Y-52918372D01*
X41261244Y-52918372D01*
X41178309Y-52936001D01*
X41080900Y-52956706D01*
X41074870Y-52959391D01*
X41074869Y-52959391D01*
X40912466Y-53031697D01*
X40912464Y-53031698D01*
X40906436Y-53034382D01*
X40901095Y-53038262D01*
X40901094Y-53038263D01*
X40882289Y-53051926D01*
X40751935Y-53146634D01*
X40747514Y-53151544D01*
X40747513Y-53151545D01*
X40645279Y-53265088D01*
X40624148Y-53288556D01*
X40592432Y-53343489D01*
X40535682Y-53441784D01*
X40528661Y-53453944D01*
X40514499Y-53497529D01*
X40471811Y-53628909D01*
X40469646Y-53635572D01*
X40468956Y-53642133D01*
X40468956Y-53642135D01*
X40456324Y-53762325D01*
X40449684Y-53825500D01*
X40450374Y-53832065D01*
X40450374Y-53838671D01*
X40447804Y-53838671D01*
X40437097Y-53897182D01*
X40388588Y-53949023D01*
X40324566Y-53966500D01*
X39939899Y-53966500D01*
X39871778Y-53946498D01*
X39850804Y-53929595D01*
X38332304Y-52411095D01*
X38298278Y-52348783D01*
X38303343Y-52277968D01*
X38345890Y-52221132D01*
X38412410Y-52196321D01*
X38421399Y-52196000D01*
X39868060Y-52196000D01*
X39936181Y-52216002D01*
G37*
%TD.AperFunction*%
%TD*%
M02*
