%TF.GenerationSoftware,KiCad,Pcbnew,6.0.11-2627ca5db0~126~ubuntu22.04.1*%
%TF.CreationDate,2023-02-06T22:18:29+01:00*%
%TF.ProjectId,Stepper_Driver_TMC2225-SA-T,53746570-7065-4725-9f44-72697665725f,rev?*%
%TF.SameCoordinates,Original*%
%TF.FileFunction,Paste,Top*%
%TF.FilePolarity,Positive*%
%FSLAX46Y46*%
G04 Gerber Fmt 4.6, Leading zero omitted, Abs format (unit mm)*
G04 Created by KiCad (PCBNEW 6.0.11-2627ca5db0~126~ubuntu22.04.1) date 2023-02-06 22:18:29*
%MOMM*%
%LPD*%
G01*
G04 APERTURE LIST*
G04 Aperture macros list*
%AMRoundRect*
0 Rectangle with rounded corners*
0 $1 Rounding radius*
0 $2 $3 $4 $5 $6 $7 $8 $9 X,Y pos of 4 corners*
0 Add a 4 corners polygon primitive as box body*
4,1,4,$2,$3,$4,$5,$6,$7,$8,$9,$2,$3,0*
0 Add four circle primitives for the rounded corners*
1,1,$1+$1,$2,$3*
1,1,$1+$1,$4,$5*
1,1,$1+$1,$6,$7*
1,1,$1+$1,$8,$9*
0 Add four rect primitives between the rounded corners*
20,1,$1+$1,$2,$3,$4,$5,0*
20,1,$1+$1,$4,$5,$6,$7,0*
20,1,$1+$1,$6,$7,$8,$9,0*
20,1,$1+$1,$8,$9,$2,$3,0*%
G04 Aperture macros list end*
%ADD10RoundRect,0.237500X0.237500X-0.300000X0.237500X0.300000X-0.237500X0.300000X-0.237500X-0.300000X0*%
%ADD11RoundRect,0.237500X0.250000X0.237500X-0.250000X0.237500X-0.250000X-0.237500X0.250000X-0.237500X0*%
%ADD12RoundRect,0.237500X0.237500X-0.250000X0.237500X0.250000X-0.237500X0.250000X-0.237500X-0.250000X0*%
%ADD13RoundRect,0.237500X-0.250000X-0.237500X0.250000X-0.237500X0.250000X0.237500X-0.250000X0.237500X0*%
%ADD14RoundRect,0.237500X0.300000X0.237500X-0.300000X0.237500X-0.300000X-0.237500X0.300000X-0.237500X0*%
%ADD15RoundRect,0.237500X-0.237500X0.300000X-0.237500X-0.300000X0.237500X-0.300000X0.237500X0.300000X0*%
%ADD16RoundRect,0.250000X-1.050000X-0.550000X1.050000X-0.550000X1.050000X0.550000X-1.050000X0.550000X0*%
%ADD17RoundRect,0.250000X0.550000X-1.050000X0.550000X1.050000X-0.550000X1.050000X-0.550000X-1.050000X0*%
%ADD18RoundRect,0.237500X0.237500X-0.287500X0.237500X0.287500X-0.237500X0.287500X-0.237500X-0.287500X0*%
%ADD19RoundRect,0.237500X-0.287500X-0.237500X0.287500X-0.237500X0.287500X0.237500X-0.287500X0.237500X0*%
%ADD20RoundRect,0.250000X-0.400000X-0.625000X0.400000X-0.625000X0.400000X0.625000X-0.400000X0.625000X0*%
%ADD21RoundRect,0.250000X0.900000X0.475000X-0.900000X0.475000X-0.900000X-0.475000X0.900000X-0.475000X0*%
%ADD22RoundRect,0.100000X0.637500X0.100000X-0.637500X0.100000X-0.637500X-0.100000X0.637500X-0.100000X0*%
%ADD23RoundRect,0.250000X-0.475000X0.337500X-0.475000X-0.337500X0.475000X-0.337500X0.475000X0.337500X0*%
%ADD24RoundRect,0.250000X-0.550000X1.050000X-0.550000X-1.050000X0.550000X-1.050000X0.550000X1.050000X0*%
G04 APERTURE END LIST*
D10*
%TO.C,C4*%
X62800000Y-50362500D03*
X62800000Y-48637500D03*
%TD*%
D11*
%TO.C,R1*%
X58612500Y-42000000D03*
X56787500Y-42000000D03*
%TD*%
D12*
%TO.C,R2*%
X42400000Y-51537500D03*
X42400000Y-49712500D03*
%TD*%
D13*
%TO.C,R6*%
X44087500Y-61400000D03*
X45912500Y-61400000D03*
%TD*%
D14*
%TO.C,C8*%
X59862500Y-61000000D03*
X58137500Y-61000000D03*
%TD*%
D11*
%TO.C,R5*%
X45912500Y-63000000D03*
X44087500Y-63000000D03*
%TD*%
D15*
%TO.C,C7*%
X61500000Y-59137500D03*
X61500000Y-60862500D03*
%TD*%
D11*
%TO.C,R3*%
X45912500Y-59800000D03*
X44087500Y-59800000D03*
%TD*%
D16*
%TO.C,C1*%
X55400000Y-38600000D03*
X59000000Y-38600000D03*
%TD*%
D12*
%TO.C,R7*%
X37700000Y-59712500D03*
X37700000Y-57887500D03*
%TD*%
D17*
%TO.C,C6*%
X66000000Y-49800000D03*
X66000000Y-46200000D03*
%TD*%
D18*
%TO.C,D1*%
X44000000Y-51500000D03*
X44000000Y-49750000D03*
%TD*%
D19*
%TO.C,D2*%
X53937500Y-65581250D03*
X55687500Y-65581250D03*
%TD*%
D13*
%TO.C,R4*%
X44087500Y-58200000D03*
X45912500Y-58200000D03*
%TD*%
D20*
%TO.C,R9*%
X62950000Y-52500000D03*
X66050000Y-52500000D03*
%TD*%
D11*
%TO.C,R10*%
X55750000Y-63981250D03*
X53925000Y-63981250D03*
%TD*%
D21*
%TO.C,U1*%
X55000000Y-55000000D03*
X55000000Y-53200000D03*
X55000000Y-56800000D03*
D22*
X57862500Y-59225000D03*
X57862500Y-58575000D03*
X57862500Y-57925000D03*
X57862500Y-57275000D03*
X57862500Y-56625000D03*
X57862500Y-55975000D03*
X57862500Y-55325000D03*
X57862500Y-54675000D03*
X57862500Y-54025000D03*
X57862500Y-53375000D03*
X57862500Y-52725000D03*
X57862500Y-52075000D03*
X57862500Y-51425000D03*
X57862500Y-50775000D03*
X52137500Y-50775000D03*
X52137500Y-51425000D03*
X52137500Y-52075000D03*
X52137500Y-52725000D03*
X52137500Y-53375000D03*
X52137500Y-54025000D03*
X52137500Y-54675000D03*
X52137500Y-55325000D03*
X52137500Y-55975000D03*
X52137500Y-56625000D03*
X52137500Y-57275000D03*
X52137500Y-57925000D03*
X52137500Y-58575000D03*
X52137500Y-59225000D03*
%TD*%
D10*
%TO.C,C2*%
X40800000Y-51487500D03*
X40800000Y-49762500D03*
%TD*%
D15*
%TO.C,C3*%
X63000000Y-59137500D03*
X63000000Y-60862500D03*
%TD*%
D23*
%TO.C,C9*%
X49600000Y-47762500D03*
X49600000Y-49837500D03*
%TD*%
D20*
%TO.C,R8*%
X65200000Y-56250000D03*
X68300000Y-56250000D03*
%TD*%
D24*
%TO.C,C5*%
X66250000Y-58950000D03*
X66250000Y-62550000D03*
%TD*%
M02*
