%TF.GenerationSoftware,KiCad,Pcbnew,6.0.11-2627ca5db0~126~ubuntu22.04.1*%
%TF.CreationDate,2023-03-12T12:19:34+01:00*%
%TF.ProjectId,Stepper_Driver_TMC2225-SA-Tx4,53746570-7065-4725-9f44-72697665725f,rev?*%
%TF.SameCoordinates,Original*%
%TF.FileFunction,Copper,L2,Bot*%
%TF.FilePolarity,Positive*%
%FSLAX46Y46*%
G04 Gerber Fmt 4.6, Leading zero omitted, Abs format (unit mm)*
G04 Created by KiCad (PCBNEW 6.0.11-2627ca5db0~126~ubuntu22.04.1) date 2023-03-12 12:19:34*
%MOMM*%
%LPD*%
G01*
G04 APERTURE LIST*
G04 Aperture macros list*
%AMRoundRect*
0 Rectangle with rounded corners*
0 $1 Rounding radius*
0 $2 $3 $4 $5 $6 $7 $8 $9 X,Y pos of 4 corners*
0 Add a 4 corners polygon primitive as box body*
4,1,4,$2,$3,$4,$5,$6,$7,$8,$9,$2,$3,0*
0 Add four circle primitives for the rounded corners*
1,1,$1+$1,$2,$3*
1,1,$1+$1,$4,$5*
1,1,$1+$1,$6,$7*
1,1,$1+$1,$8,$9*
0 Add four rect primitives between the rounded corners*
20,1,$1+$1,$2,$3,$4,$5,0*
20,1,$1+$1,$4,$5,$6,$7,0*
20,1,$1+$1,$6,$7,$8,$9,0*
20,1,$1+$1,$8,$9,$2,$3,0*%
G04 Aperture macros list end*
%ADD10C,0.300000*%
%TA.AperFunction,NonConductor*%
%ADD11C,0.300000*%
%TD*%
%TA.AperFunction,ComponentPad*%
%ADD12C,0.800000*%
%TD*%
%TA.AperFunction,ComponentPad*%
%ADD13C,6.400000*%
%TD*%
%TA.AperFunction,ComponentPad*%
%ADD14RoundRect,0.250000X-0.600000X-0.725000X0.600000X-0.725000X0.600000X0.725000X-0.600000X0.725000X0*%
%TD*%
%TA.AperFunction,ComponentPad*%
%ADD15O,1.700000X1.950000*%
%TD*%
%TA.AperFunction,ComponentPad*%
%ADD16RoundRect,0.250000X-0.725000X0.600000X-0.725000X-0.600000X0.725000X-0.600000X0.725000X0.600000X0*%
%TD*%
%TA.AperFunction,ComponentPad*%
%ADD17O,1.950000X1.700000*%
%TD*%
%TA.AperFunction,ComponentPad*%
%ADD18RoundRect,0.250000X0.600000X0.725000X-0.600000X0.725000X-0.600000X-0.725000X0.600000X-0.725000X0*%
%TD*%
%TA.AperFunction,ComponentPad*%
%ADD19C,0.600000*%
%TD*%
%TA.AperFunction,SMDPad,CuDef*%
%ADD20R,5.400000X2.850000*%
%TD*%
%TA.AperFunction,ViaPad*%
%ADD21C,0.800000*%
%TD*%
%TA.AperFunction,Conductor*%
%ADD22C,2.000000*%
%TD*%
%TA.AperFunction,Conductor*%
%ADD23C,0.300000*%
%TD*%
%TA.AperFunction,Conductor*%
%ADD24C,0.400000*%
%TD*%
G04 APERTURE END LIST*
D10*
D11*
X30092857Y-23492857D02*
X29878571Y-23564285D01*
X29807142Y-23635714D01*
X29735714Y-23778571D01*
X29735714Y-23992857D01*
X29807142Y-24135714D01*
X29878571Y-24207142D01*
X30021428Y-24278571D01*
X30592857Y-24278571D01*
X30592857Y-22778571D01*
X30092857Y-22778571D01*
X29950000Y-22850000D01*
X29878571Y-22921428D01*
X29807142Y-23064285D01*
X29807142Y-23207142D01*
X29878571Y-23350000D01*
X29950000Y-23421428D01*
X30092857Y-23492857D01*
X30592857Y-23492857D01*
D12*
%TO.P,H2,1,1*%
%TO.N,GND*%
X121000000Y-27400000D03*
X123400000Y-25000000D03*
X119302944Y-23302944D03*
X122697056Y-23302944D03*
X122697056Y-26697056D03*
X118600000Y-25000000D03*
X121000000Y-22600000D03*
X119302944Y-26697056D03*
D13*
X121000000Y-25000000D03*
%TD*%
D14*
%TO.P,J2,1,Pin_1*%
%TO.N,GND*%
X92100000Y-48475000D03*
D15*
%TO.P,J2,2,Pin_2*%
%TO.N,STEP_3*%
X94600000Y-48475000D03*
%TO.P,J2,3,Pin_3*%
%TO.N,DIR_3*%
X97100000Y-48475000D03*
%TO.P,J2,4,Pin_4*%
%TO.N,STEP_4*%
X99600000Y-48475000D03*
%TO.P,J2,5,Pin_5*%
%TO.N,DIR_4*%
X102100000Y-48475000D03*
%TD*%
D12*
%TO.P,H4,1,1*%
%TO.N,GND*%
X23302944Y-46302944D03*
X23302944Y-49697056D03*
D13*
X25000000Y-48000000D03*
D12*
X26697056Y-46302944D03*
X27400000Y-48000000D03*
X22600000Y-48000000D03*
X25000000Y-45600000D03*
X25000000Y-50400000D03*
X26697056Y-49697056D03*
%TD*%
D16*
%TO.P,J3,1,Pin_1*%
%TO.N,VCC*%
X26000000Y-34000000D03*
D17*
%TO.P,J3,2,Pin_2*%
%TO.N,GND*%
X26000000Y-36500000D03*
%TO.P,J3,3,Pin_3*%
%TO.N,+3.3V*%
X26000000Y-39000000D03*
%TD*%
D18*
%TO.P,J4,1,Pin_1*%
%TO.N,/TMC2225-1/OA1*%
X49750000Y-24525000D03*
D15*
%TO.P,J4,2,Pin_2*%
%TO.N,/TMC2225-1/OA2*%
X47250000Y-24525000D03*
%TO.P,J4,3,Pin_3*%
%TO.N,/TMC2225-1/OB1*%
X44750000Y-24525000D03*
%TO.P,J4,4,Pin_4*%
%TO.N,/TMC2225-1/OB2*%
X42250000Y-24525000D03*
%TD*%
D19*
%TO.P,U1,29,PAD*%
%TO.N,GND*%
X46800000Y-34875000D03*
X43600000Y-34875000D03*
D20*
X46000000Y-36000000D03*
D19*
X48400000Y-34875000D03*
X48400000Y-37125000D03*
X43600000Y-37125000D03*
X46800000Y-37125000D03*
X45200000Y-34875000D03*
X45200000Y-37125000D03*
%TD*%
%TO.P,U4,29,PAD*%
%TO.N,GND*%
X111100000Y-34875000D03*
D20*
X108700000Y-36000000D03*
D19*
X106300000Y-34875000D03*
X106300000Y-37125000D03*
X109500000Y-37125000D03*
X111100000Y-37125000D03*
X107900000Y-37125000D03*
X107900000Y-34875000D03*
X109500000Y-34875000D03*
%TD*%
D12*
%TO.P,H1,1,1*%
%TO.N,GND*%
X22600000Y-25000000D03*
X26697056Y-23302944D03*
X25000000Y-22600000D03*
X25000000Y-27400000D03*
X23302944Y-26697056D03*
X26697056Y-26697056D03*
D13*
X25000000Y-25000000D03*
D12*
X27400000Y-25000000D03*
X23302944Y-23302944D03*
%TD*%
D14*
%TO.P,J1,1,Pin_1*%
%TO.N,GND*%
X50100000Y-48475000D03*
D15*
%TO.P,J1,2,Pin_2*%
%TO.N,STEP_1*%
X52600000Y-48475000D03*
%TO.P,J1,3,Pin_3*%
%TO.N,DIR_1*%
X55100000Y-48475000D03*
%TO.P,J1,4,Pin_4*%
%TO.N,STEP_2*%
X57600000Y-48475000D03*
%TO.P,J1,5,Pin_5*%
%TO.N,DIR_2*%
X60100000Y-48475000D03*
%TD*%
D18*
%TO.P,J5,1,Pin_1*%
%TO.N,/TMC2225-2/OA1*%
X70450000Y-24525000D03*
D15*
%TO.P,J5,2,Pin_2*%
%TO.N,/TMC2225-2/OA2*%
X67950000Y-24525000D03*
%TO.P,J5,3,Pin_3*%
%TO.N,/TMC2225-2/OB1*%
X65450000Y-24525000D03*
%TO.P,J5,4,Pin_4*%
%TO.N,/TMC2225-2/OB2*%
X62950000Y-24525000D03*
%TD*%
D19*
%TO.P,U2,29,PAD*%
%TO.N,GND*%
X64300000Y-34875000D03*
X67500000Y-37125000D03*
X69100000Y-34875000D03*
X65900000Y-34875000D03*
X65900000Y-37125000D03*
X67500000Y-34875000D03*
X64300000Y-37125000D03*
D20*
X66700000Y-36000000D03*
D19*
X69100000Y-37125000D03*
%TD*%
D18*
%TO.P,J7,1,Pin_1*%
%TO.N,/TMC2225-4/OA1*%
X112450000Y-24525000D03*
D15*
%TO.P,J7,2,Pin_2*%
%TO.N,/TMC2225-4/OA2*%
X109950000Y-24525000D03*
%TO.P,J7,3,Pin_3*%
%TO.N,/TMC2225-4/OB1*%
X107450000Y-24525000D03*
%TO.P,J7,4,Pin_4*%
%TO.N,/TMC2225-4/OB2*%
X104950000Y-24525000D03*
%TD*%
D12*
%TO.P,H3,1,1*%
%TO.N,GND*%
X121000000Y-45600000D03*
X121000000Y-50400000D03*
X123400000Y-48000000D03*
X122697056Y-46302944D03*
D13*
X121000000Y-48000000D03*
D12*
X118600000Y-48000000D03*
X122697056Y-49697056D03*
X119302944Y-46302944D03*
X119302944Y-49697056D03*
%TD*%
D18*
%TO.P,J6,1,Pin_1*%
%TO.N,/TMC2225-3/OA1*%
X91450000Y-24525000D03*
D15*
%TO.P,J6,2,Pin_2*%
%TO.N,/TMC2225-3/OA2*%
X88950000Y-24525000D03*
%TO.P,J6,3,Pin_3*%
%TO.N,/TMC2225-3/OB1*%
X86450000Y-24525000D03*
%TO.P,J6,4,Pin_4*%
%TO.N,/TMC2225-3/OB2*%
X83950000Y-24525000D03*
%TD*%
D19*
%TO.P,U3,29,PAD*%
%TO.N,GND*%
X88500000Y-37125000D03*
X90100000Y-34875000D03*
D20*
X87700000Y-36000000D03*
D19*
X86900000Y-34875000D03*
X88500000Y-34875000D03*
X85300000Y-37125000D03*
X90100000Y-37125000D03*
X85300000Y-34875000D03*
X86900000Y-37125000D03*
%TD*%
D21*
%TO.N,VCC*%
X32600000Y-30400000D03*
X82312500Y-30400000D03*
X74140000Y-30400000D03*
X116100000Y-30400000D03*
X99650000Y-30400000D03*
X102250000Y-30400000D03*
X84539905Y-30421892D03*
X29600000Y-30400000D03*
X75140000Y-30400000D03*
X52440000Y-30400000D03*
X96140000Y-30400000D03*
X60250000Y-30400000D03*
X42800000Y-30400000D03*
X30600000Y-30400000D03*
X61250000Y-30400000D03*
X95140000Y-30400000D03*
X53440000Y-30400000D03*
X36950000Y-30400000D03*
X78650000Y-30400000D03*
X120680000Y-30400000D03*
X115140000Y-30400000D03*
X94140000Y-30400000D03*
X81312500Y-30400000D03*
X105500000Y-30400000D03*
X73140000Y-30400000D03*
X117100000Y-30400000D03*
X28600000Y-30400000D03*
X63500000Y-30400000D03*
X57650000Y-30400000D03*
X31600000Y-30400000D03*
X54440000Y-30400000D03*
X39550000Y-30400000D03*
X40550000Y-30400000D03*
X103250000Y-30400000D03*
%TO.N,+3.3V*%
X105100000Y-40300000D03*
X50300000Y-40300000D03*
X110100000Y-40300000D03*
X42400000Y-40300000D03*
X89100000Y-40300000D03*
X71000000Y-40300000D03*
X113000000Y-40300000D03*
X92000000Y-40300000D03*
X38000000Y-40300000D03*
X84100000Y-40300000D03*
X63100000Y-40300000D03*
X47400000Y-40300000D03*
X68100000Y-40300000D03*
%TO.N,GND*%
X95000000Y-21000000D03*
X85000000Y-52000000D03*
X41000000Y-45200000D03*
X31000000Y-21000000D03*
X59600000Y-41200000D03*
X124500000Y-23000000D03*
X79000000Y-21000000D03*
X113000000Y-52000000D03*
X41000000Y-52000000D03*
X65000000Y-52000000D03*
X118800000Y-28600000D03*
X73000000Y-21000000D03*
X56200000Y-32200000D03*
X59000000Y-52000000D03*
X75600000Y-32200000D03*
X119000000Y-52000000D03*
X39900000Y-28500000D03*
X97000000Y-52000000D03*
X105800000Y-44800000D03*
X21000000Y-27000000D03*
X98300000Y-47000000D03*
X51000000Y-21000000D03*
X89000000Y-52000000D03*
X55000000Y-21000000D03*
X72800000Y-28500000D03*
X21000000Y-48000000D03*
X95000000Y-52000000D03*
X80400000Y-38700000D03*
X93800000Y-28500000D03*
X123000000Y-51500000D03*
X35000000Y-45200000D03*
X63000000Y-52000000D03*
X52100000Y-28500000D03*
X31000000Y-45200000D03*
X32400000Y-32200000D03*
X75000000Y-21000000D03*
X123000000Y-21500000D03*
X21000000Y-32500000D03*
X51300000Y-38900000D03*
X121000000Y-52000000D03*
X115000000Y-21000000D03*
X39000000Y-52000000D03*
X39000000Y-21000000D03*
X125000000Y-48000000D03*
X80200000Y-32200000D03*
X81000000Y-52000000D03*
X23000000Y-21500000D03*
X87000000Y-21000000D03*
X35200000Y-27800000D03*
X25000000Y-52000000D03*
X115000000Y-52000000D03*
X65000000Y-21000000D03*
X37000000Y-21000000D03*
X93300000Y-38900000D03*
X96000000Y-27200000D03*
X77200000Y-32200000D03*
X111000000Y-21000000D03*
X23000000Y-51500000D03*
X98200000Y-28600000D03*
X105000000Y-21000000D03*
X28400000Y-41200000D03*
X73000000Y-41200000D03*
X59400000Y-38700000D03*
X29000000Y-21000000D03*
X61000000Y-21000000D03*
X56300000Y-43200000D03*
X71000000Y-52000000D03*
X21000000Y-25000000D03*
X125000000Y-35000000D03*
X124500000Y-50000000D03*
X39400000Y-45200000D03*
X103000000Y-32300000D03*
X101400000Y-38700000D03*
X21000000Y-41000000D03*
X125000000Y-40000000D03*
X125000000Y-42000000D03*
X75000000Y-52000000D03*
X38400000Y-32200000D03*
X29000000Y-47000000D03*
X79000000Y-52000000D03*
X37000000Y-52000000D03*
X107000000Y-21000000D03*
X119000000Y-21000000D03*
X33000000Y-52000000D03*
X43000000Y-52000000D03*
X35000000Y-21000000D03*
X31000000Y-52000000D03*
X89000000Y-21000000D03*
X21000000Y-44000000D03*
X55000000Y-52000000D03*
X59200000Y-32200000D03*
X121800000Y-29200000D03*
X25000000Y-21000000D03*
X119200000Y-32200000D03*
X57000000Y-21000000D03*
X53000000Y-52000000D03*
X69000000Y-21000000D03*
X77000000Y-52000000D03*
X83000000Y-21000000D03*
X29000000Y-45200000D03*
X101200000Y-32200000D03*
X81600000Y-28500000D03*
X75000000Y-27200000D03*
X47000000Y-21000000D03*
X38400000Y-28600000D03*
X33000000Y-21000000D03*
X56000000Y-38700000D03*
X21000000Y-29000000D03*
X31400000Y-25400000D03*
X67000000Y-52000000D03*
X98000000Y-41200000D03*
X125000000Y-44000000D03*
X121000000Y-21000000D03*
X21000000Y-46000000D03*
X81000000Y-21000000D03*
X119000000Y-38700000D03*
X21000000Y-39000000D03*
X40300000Y-32300000D03*
X101000000Y-28600000D03*
X101000000Y-21000000D03*
X36800000Y-41200000D03*
X99000000Y-52000000D03*
X36600000Y-32200000D03*
X97000000Y-21000000D03*
X61000000Y-32300000D03*
X47000000Y-52000000D03*
X56000000Y-41200000D03*
X109000000Y-21000000D03*
X125000000Y-25000000D03*
X51000000Y-52000000D03*
X80000000Y-28600000D03*
X117000000Y-52000000D03*
X44000000Y-47400000D03*
X98000000Y-38700000D03*
X99000000Y-21000000D03*
X73000000Y-52000000D03*
X91000000Y-21000000D03*
X91000000Y-52000000D03*
X44000000Y-49600000D03*
X52000000Y-41200000D03*
X61000000Y-52000000D03*
X27000000Y-52000000D03*
X102600000Y-28500000D03*
X125000000Y-29000000D03*
X105000000Y-52000000D03*
X21000000Y-36500000D03*
X49000000Y-52000000D03*
X125000000Y-46000000D03*
X101000000Y-52000000D03*
X83000000Y-52000000D03*
X122400000Y-38700000D03*
X59000000Y-21000000D03*
X125000000Y-27000000D03*
X93600000Y-44800000D03*
X80600000Y-41200000D03*
X87000000Y-52000000D03*
X117600000Y-32200000D03*
X98200000Y-32200000D03*
X29000000Y-52000000D03*
X96600000Y-32200000D03*
X111000000Y-52000000D03*
X53000000Y-21000000D03*
X27000000Y-21000000D03*
X59000000Y-28600000D03*
X82000000Y-32300000D03*
X122200000Y-32000000D03*
X114800000Y-28500000D03*
X57000000Y-52000000D03*
X51900000Y-44800000D03*
X98300000Y-43200000D03*
X56200000Y-28600000D03*
X77200000Y-28600000D03*
X93000000Y-21000000D03*
X56300000Y-47000000D03*
X101600000Y-41200000D03*
X60600000Y-28500000D03*
X93000000Y-52000000D03*
X125000000Y-31000000D03*
X63800000Y-44800000D03*
X125000000Y-38000000D03*
X63000000Y-21000000D03*
X33300000Y-27200000D03*
X33000000Y-45200000D03*
X45000000Y-21000000D03*
X114200000Y-38900000D03*
X72100000Y-38900000D03*
X117000000Y-21000000D03*
X125000000Y-33000000D03*
X21500000Y-50000000D03*
X77000000Y-21000000D03*
X41000000Y-21000000D03*
X54600000Y-32200000D03*
X43000000Y-21000000D03*
X103000000Y-52000000D03*
X113000000Y-21000000D03*
X107000000Y-52000000D03*
X54000000Y-27200000D03*
X45000000Y-52000000D03*
X43000000Y-45200000D03*
X77000000Y-41200000D03*
X94000000Y-41200000D03*
X109000000Y-52000000D03*
X67000000Y-21000000D03*
X49000000Y-21000000D03*
X77000000Y-38700000D03*
X71000000Y-21000000D03*
X29000000Y-49600000D03*
X32400000Y-41200000D03*
X21500000Y-23000000D03*
X69000000Y-52000000D03*
X35000000Y-52000000D03*
X21000000Y-34500000D03*
X85000000Y-21000000D03*
X103000000Y-21000000D03*
%TO.N,/TMC2225-1/OA2*%
X48500000Y-27100000D03*
%TO.N,/TMC2225-2/OA2*%
X69200000Y-27100000D03*
%TO.N,/TMC2225-3/OA2*%
X90200000Y-27100000D03*
%TO.N,/TMC2225-4/OA2*%
X111200000Y-27100000D03*
%TD*%
D22*
%TO.N,VCC*%
X57650000Y-30400000D02*
X52440000Y-30400000D01*
X57650000Y-30400000D02*
X73140000Y-30400000D01*
X99650000Y-30400000D02*
X115140000Y-30400000D01*
X115140000Y-30400000D02*
X120500000Y-30400000D01*
X94140000Y-30400000D02*
X99650000Y-30400000D01*
X36950000Y-30400000D02*
X27850000Y-30400000D01*
X78650000Y-30400000D02*
X73140000Y-30400000D01*
X26000000Y-32250000D02*
X26000000Y-34000000D01*
X27850000Y-30400000D02*
X26000000Y-32250000D01*
X78650000Y-30400000D02*
X94140000Y-30400000D01*
X36950000Y-30400000D02*
X52440000Y-30400000D01*
D23*
%TO.N,+3.3V*%
X68100000Y-40300000D02*
X71000000Y-40300000D01*
X26000000Y-39900000D02*
X26000000Y-39000000D01*
X42400000Y-40300000D02*
X26400000Y-40300000D01*
X110100000Y-40300000D02*
X105100000Y-40300000D01*
X89100000Y-40300000D02*
X84100000Y-40300000D01*
X92000000Y-40300000D02*
X105100000Y-40300000D01*
X89100000Y-40300000D02*
X92000000Y-40300000D01*
X26400000Y-40300000D02*
X26000000Y-39900000D01*
X71000000Y-40300000D02*
X84100000Y-40300000D01*
X68100000Y-40300000D02*
X63100000Y-40300000D01*
X47400000Y-40300000D02*
X42400000Y-40300000D01*
X110100000Y-40300000D02*
X113000000Y-40300000D01*
X47400000Y-40300000D02*
X50300000Y-40300000D01*
X50300000Y-40300000D02*
X63100000Y-40300000D01*
D24*
%TO.N,/TMC2225-1/OA2*%
X47250000Y-24525000D02*
X47250000Y-25850000D01*
X47250000Y-25850000D02*
X48500000Y-27100000D01*
%TO.N,/TMC2225-2/OA2*%
X67950000Y-24525000D02*
X67950000Y-25850000D01*
X67950000Y-25850000D02*
X69200000Y-27100000D01*
%TO.N,/TMC2225-3/OA2*%
X88950000Y-25850000D02*
X88950000Y-24525000D01*
X90200000Y-27100000D02*
X88950000Y-25850000D01*
%TO.N,/TMC2225-4/OA2*%
X109950000Y-25850000D02*
X111200000Y-27100000D01*
X109950000Y-24525000D02*
X109950000Y-25850000D01*
%TD*%
%TA.AperFunction,Conductor*%
%TO.N,GND*%
G36*
X120984563Y-20302414D02*
G01*
X121000000Y-20305136D01*
X121010855Y-20303222D01*
X121016550Y-20303222D01*
X121034862Y-20302022D01*
X121404093Y-20318143D01*
X121415042Y-20319101D01*
X121810606Y-20371178D01*
X121821432Y-20373087D01*
X122210951Y-20459442D01*
X122221568Y-20462287D01*
X122396691Y-20517503D01*
X122602081Y-20582262D01*
X122612395Y-20586015D01*
X122981028Y-20738708D01*
X122990972Y-20743346D01*
X123344867Y-20927572D01*
X123354387Y-20933068D01*
X123690877Y-21147436D01*
X123699881Y-21153740D01*
X123980292Y-21368906D01*
X124016421Y-21396629D01*
X124024838Y-21403693D01*
X124246426Y-21606740D01*
X124318992Y-21673235D01*
X124326761Y-21681004D01*
X124509610Y-21880548D01*
X124596305Y-21975159D01*
X124603371Y-21983579D01*
X124846260Y-22300119D01*
X124852564Y-22309123D01*
X125066932Y-22645613D01*
X125072427Y-22655132D01*
X125158391Y-22820265D01*
X125256650Y-23009019D01*
X125261292Y-23018972D01*
X125408177Y-23373584D01*
X125413982Y-23387598D01*
X125417738Y-23397919D01*
X125456349Y-23520377D01*
X125537713Y-23778432D01*
X125540558Y-23789049D01*
X125626913Y-24178568D01*
X125628822Y-24189394D01*
X125680899Y-24584958D01*
X125681857Y-24595908D01*
X125697978Y-24965138D01*
X125696778Y-24983450D01*
X125696778Y-24989145D01*
X125694864Y-25000000D01*
X125696778Y-25010855D01*
X125697586Y-25015437D01*
X125699500Y-25037317D01*
X125699500Y-47962683D01*
X125697586Y-47984563D01*
X125694864Y-48000000D01*
X125696778Y-48010855D01*
X125696778Y-48016550D01*
X125697978Y-48034862D01*
X125681857Y-48404092D01*
X125680899Y-48415042D01*
X125628822Y-48810606D01*
X125626913Y-48821432D01*
X125540558Y-49210951D01*
X125537713Y-49221568D01*
X125518156Y-49283596D01*
X125438033Y-49537716D01*
X125417741Y-49602073D01*
X125413985Y-49612395D01*
X125270831Y-49958000D01*
X125261296Y-49981019D01*
X125256654Y-49990972D01*
X125155618Y-50185061D01*
X125072428Y-50344867D01*
X125066932Y-50354387D01*
X124852564Y-50690877D01*
X124846260Y-50699881D01*
X124603371Y-51016421D01*
X124596305Y-51024841D01*
X124326765Y-51318992D01*
X124318996Y-51326761D01*
X124094786Y-51532212D01*
X124024841Y-51596305D01*
X124016424Y-51603368D01*
X123978505Y-51632465D01*
X123699881Y-51846260D01*
X123690877Y-51852564D01*
X123354387Y-52066932D01*
X123344868Y-52072427D01*
X122990972Y-52256654D01*
X122981028Y-52261292D01*
X122612395Y-52413985D01*
X122602081Y-52417738D01*
X122396691Y-52482497D01*
X122221568Y-52537713D01*
X122210951Y-52540558D01*
X121821432Y-52626913D01*
X121810606Y-52628822D01*
X121415042Y-52680899D01*
X121404093Y-52681857D01*
X121034862Y-52697978D01*
X121016550Y-52696778D01*
X121010855Y-52696778D01*
X121000000Y-52694864D01*
X120989145Y-52696778D01*
X120984563Y-52697586D01*
X120962683Y-52699500D01*
X25037317Y-52699500D01*
X25015437Y-52697586D01*
X25010855Y-52696778D01*
X25000000Y-52694864D01*
X24989145Y-52696778D01*
X24983450Y-52696778D01*
X24965138Y-52697978D01*
X24595907Y-52681857D01*
X24584958Y-52680899D01*
X24189394Y-52628822D01*
X24178568Y-52626913D01*
X23789049Y-52540558D01*
X23778432Y-52537713D01*
X23603309Y-52482497D01*
X23397919Y-52417738D01*
X23387605Y-52413985D01*
X23018972Y-52261292D01*
X23009028Y-52256654D01*
X22655132Y-52072427D01*
X22645613Y-52066932D01*
X22309123Y-51852564D01*
X22300119Y-51846260D01*
X22021495Y-51632465D01*
X21983576Y-51603368D01*
X21975159Y-51596305D01*
X21905214Y-51532212D01*
X21681004Y-51326761D01*
X21673235Y-51318992D01*
X21403695Y-51024841D01*
X21396629Y-51016421D01*
X21228558Y-50797386D01*
X22567759Y-50797386D01*
X22575216Y-50807753D01*
X22814935Y-51001874D01*
X22820272Y-51005751D01*
X23140685Y-51213830D01*
X23146394Y-51217127D01*
X23486811Y-51390578D01*
X23492836Y-51393260D01*
X23849502Y-51530171D01*
X23855784Y-51532212D01*
X24224816Y-51631094D01*
X24231266Y-51632465D01*
X24608629Y-51692234D01*
X24615167Y-51692920D01*
X24996699Y-51712916D01*
X25003301Y-51712916D01*
X25384833Y-51692920D01*
X25391371Y-51692234D01*
X25768734Y-51632465D01*
X25775184Y-51631094D01*
X26144216Y-51532212D01*
X26150498Y-51530171D01*
X26507164Y-51393260D01*
X26513189Y-51390578D01*
X26853606Y-51217127D01*
X26859315Y-51213830D01*
X27179728Y-51005751D01*
X27185065Y-51001874D01*
X27423835Y-50808522D01*
X27431527Y-50797386D01*
X118567759Y-50797386D01*
X118575216Y-50807753D01*
X118814935Y-51001874D01*
X118820272Y-51005751D01*
X119140685Y-51213830D01*
X119146394Y-51217127D01*
X119486811Y-51390578D01*
X119492836Y-51393260D01*
X119849502Y-51530171D01*
X119855784Y-51532212D01*
X120224816Y-51631094D01*
X120231266Y-51632465D01*
X120608629Y-51692234D01*
X120615167Y-51692920D01*
X120996699Y-51712916D01*
X121003301Y-51712916D01*
X121384833Y-51692920D01*
X121391371Y-51692234D01*
X121768734Y-51632465D01*
X121775184Y-51631094D01*
X122144216Y-51532212D01*
X122150498Y-51530171D01*
X122507164Y-51393260D01*
X122513189Y-51390578D01*
X122853606Y-51217127D01*
X122859315Y-51213830D01*
X123179728Y-51005751D01*
X123185065Y-51001874D01*
X123423835Y-50808522D01*
X123432300Y-50796267D01*
X123425966Y-50785176D01*
X121012812Y-48372022D01*
X120998868Y-48364408D01*
X120997035Y-48364539D01*
X120990420Y-48368790D01*
X118574900Y-50784310D01*
X118567759Y-50797386D01*
X27431527Y-50797386D01*
X27432300Y-50796267D01*
X27425966Y-50785176D01*
X25012812Y-48372022D01*
X24998868Y-48364408D01*
X24997035Y-48364539D01*
X24990420Y-48368790D01*
X22574900Y-50784310D01*
X22567759Y-50797386D01*
X21228558Y-50797386D01*
X21153740Y-50699881D01*
X21147436Y-50690877D01*
X20933068Y-50354387D01*
X20927572Y-50344867D01*
X20844382Y-50185061D01*
X20743346Y-49990972D01*
X20738704Y-49981019D01*
X20729170Y-49958000D01*
X20586015Y-49612395D01*
X20582259Y-49602073D01*
X20561968Y-49537716D01*
X20481844Y-49283596D01*
X20462287Y-49221568D01*
X20459442Y-49210951D01*
X20373087Y-48821432D01*
X20371178Y-48810606D01*
X20319101Y-48415042D01*
X20318143Y-48404092D01*
X20302022Y-48034862D01*
X20303222Y-48016550D01*
X20303222Y-48010855D01*
X20304554Y-48003301D01*
X21287084Y-48003301D01*
X21307080Y-48384833D01*
X21307766Y-48391371D01*
X21367535Y-48768734D01*
X21368906Y-48775184D01*
X21467788Y-49144216D01*
X21469829Y-49150498D01*
X21606740Y-49507164D01*
X21609422Y-49513189D01*
X21782872Y-49853603D01*
X21786169Y-49859313D01*
X21994253Y-50179735D01*
X21998123Y-50185061D01*
X22191478Y-50423835D01*
X22203733Y-50432300D01*
X22214824Y-50425966D01*
X24627978Y-48012812D01*
X24634356Y-48001132D01*
X25364408Y-48001132D01*
X25364539Y-48002965D01*
X25368790Y-48009580D01*
X27784310Y-50425100D01*
X27797386Y-50432241D01*
X27807753Y-50424784D01*
X28001877Y-50185061D01*
X28005747Y-50179735D01*
X28213831Y-49859313D01*
X28217128Y-49853603D01*
X28390578Y-49513189D01*
X28393260Y-49507164D01*
X28493091Y-49247095D01*
X48742001Y-49247095D01*
X48742338Y-49253614D01*
X48752257Y-49349206D01*
X48755149Y-49362600D01*
X48806588Y-49516784D01*
X48812761Y-49529962D01*
X48898063Y-49667807D01*
X48907099Y-49679208D01*
X49021829Y-49793739D01*
X49033240Y-49802751D01*
X49171243Y-49887816D01*
X49184424Y-49893963D01*
X49338710Y-49945138D01*
X49352086Y-49948005D01*
X49446438Y-49957672D01*
X49452854Y-49958000D01*
X49827885Y-49958000D01*
X49843124Y-49953525D01*
X49844329Y-49952135D01*
X49846000Y-49944452D01*
X49846000Y-49939884D01*
X50354000Y-49939884D01*
X50358475Y-49955123D01*
X50359865Y-49956328D01*
X50367548Y-49957999D01*
X50747095Y-49957999D01*
X50753614Y-49957662D01*
X50849206Y-49947743D01*
X50862600Y-49944851D01*
X51016784Y-49893412D01*
X51029962Y-49887239D01*
X51167807Y-49801937D01*
X51179208Y-49792901D01*
X51293739Y-49678171D01*
X51302751Y-49666760D01*
X51387816Y-49528757D01*
X51393963Y-49515576D01*
X51445138Y-49361290D01*
X51448007Y-49347907D01*
X51448188Y-49346139D01*
X51448604Y-49345119D01*
X51449447Y-49341189D01*
X51450148Y-49341339D01*
X51475030Y-49280413D01*
X51533146Y-49239632D01*
X51604084Y-49236745D01*
X51665322Y-49272669D01*
X51674486Y-49283592D01*
X51741349Y-49373133D01*
X51896619Y-49516663D01*
X51901502Y-49519744D01*
X51917697Y-49529962D01*
X52075446Y-49629495D01*
X52271840Y-49707848D01*
X52277497Y-49708973D01*
X52277503Y-49708975D01*
X52473558Y-49747972D01*
X52473560Y-49747972D01*
X52479225Y-49749099D01*
X52485000Y-49749175D01*
X52485004Y-49749175D01*
X52591024Y-49750563D01*
X52690654Y-49751867D01*
X52706321Y-49749175D01*
X52893350Y-49717038D01*
X52893351Y-49717038D01*
X52899047Y-49716059D01*
X53097425Y-49642873D01*
X53116316Y-49631634D01*
X53274179Y-49537716D01*
X53274180Y-49537715D01*
X53279144Y-49534762D01*
X53438119Y-49395345D01*
X53569024Y-49229292D01*
X53580049Y-49208338D01*
X53664785Y-49047280D01*
X53667477Y-49042164D01*
X53730180Y-48840227D01*
X53732056Y-48840809D01*
X53761599Y-48786094D01*
X53823751Y-48751776D01*
X53894590Y-48756508D01*
X53951625Y-48798786D01*
X53972382Y-48840568D01*
X54021314Y-49014069D01*
X54023867Y-49019247D01*
X54023869Y-49019251D01*
X54035169Y-49042164D01*
X54114835Y-49203710D01*
X54241349Y-49373133D01*
X54396619Y-49516663D01*
X54401502Y-49519744D01*
X54417697Y-49529962D01*
X54575446Y-49629495D01*
X54771840Y-49707848D01*
X54777497Y-49708973D01*
X54777503Y-49708975D01*
X54973558Y-49747972D01*
X54973560Y-49747972D01*
X54979225Y-49749099D01*
X54985000Y-49749175D01*
X54985004Y-49749175D01*
X55091024Y-49750563D01*
X55190654Y-49751867D01*
X55206321Y-49749175D01*
X55393350Y-49717038D01*
X55393351Y-49717038D01*
X55399047Y-49716059D01*
X55597425Y-49642873D01*
X55616316Y-49631634D01*
X55774179Y-49537716D01*
X55774180Y-49537715D01*
X55779144Y-49534762D01*
X55938119Y-49395345D01*
X56069024Y-49229292D01*
X56080049Y-49208338D01*
X56164785Y-49047280D01*
X56167477Y-49042164D01*
X56230180Y-48840227D01*
X56232056Y-48840809D01*
X56261599Y-48786094D01*
X56323751Y-48751776D01*
X56394590Y-48756508D01*
X56451625Y-48798786D01*
X56472382Y-48840568D01*
X56521314Y-49014069D01*
X56523867Y-49019247D01*
X56523869Y-49019251D01*
X56535169Y-49042164D01*
X56614835Y-49203710D01*
X56741349Y-49373133D01*
X56896619Y-49516663D01*
X56901502Y-49519744D01*
X56917697Y-49529962D01*
X57075446Y-49629495D01*
X57271840Y-49707848D01*
X57277497Y-49708973D01*
X57277503Y-49708975D01*
X57473558Y-49747972D01*
X57473560Y-49747972D01*
X57479225Y-49749099D01*
X57485000Y-49749175D01*
X57485004Y-49749175D01*
X57591024Y-49750563D01*
X57690654Y-49751867D01*
X57706321Y-49749175D01*
X57893350Y-49717038D01*
X57893351Y-49717038D01*
X57899047Y-49716059D01*
X58097425Y-49642873D01*
X58116316Y-49631634D01*
X58274179Y-49537716D01*
X58274180Y-49537715D01*
X58279144Y-49534762D01*
X58438119Y-49395345D01*
X58569024Y-49229292D01*
X58580049Y-49208338D01*
X58664785Y-49047280D01*
X58667477Y-49042164D01*
X58730180Y-48840227D01*
X58732056Y-48840809D01*
X58761599Y-48786094D01*
X58823751Y-48751776D01*
X58894590Y-48756508D01*
X58951625Y-48798786D01*
X58972382Y-48840568D01*
X59021314Y-49014069D01*
X59023867Y-49019247D01*
X59023869Y-49019251D01*
X59035169Y-49042164D01*
X59114835Y-49203710D01*
X59241349Y-49373133D01*
X59396619Y-49516663D01*
X59401502Y-49519744D01*
X59417697Y-49529962D01*
X59575446Y-49629495D01*
X59771840Y-49707848D01*
X59777497Y-49708973D01*
X59777503Y-49708975D01*
X59973558Y-49747972D01*
X59973560Y-49747972D01*
X59979225Y-49749099D01*
X59985000Y-49749175D01*
X59985004Y-49749175D01*
X60091024Y-49750563D01*
X60190654Y-49751867D01*
X60206321Y-49749175D01*
X60393350Y-49717038D01*
X60393351Y-49717038D01*
X60399047Y-49716059D01*
X60597425Y-49642873D01*
X60616316Y-49631634D01*
X60774179Y-49537716D01*
X60774180Y-49537715D01*
X60779144Y-49534762D01*
X60938119Y-49395345D01*
X61054989Y-49247095D01*
X90742001Y-49247095D01*
X90742338Y-49253614D01*
X90752257Y-49349206D01*
X90755149Y-49362600D01*
X90806588Y-49516784D01*
X90812761Y-49529962D01*
X90898063Y-49667807D01*
X90907099Y-49679208D01*
X91021829Y-49793739D01*
X91033240Y-49802751D01*
X91171243Y-49887816D01*
X91184424Y-49893963D01*
X91338710Y-49945138D01*
X91352086Y-49948005D01*
X91446438Y-49957672D01*
X91452854Y-49958000D01*
X91827885Y-49958000D01*
X91843124Y-49953525D01*
X91844329Y-49952135D01*
X91846000Y-49944452D01*
X91846000Y-49939884D01*
X92354000Y-49939884D01*
X92358475Y-49955123D01*
X92359865Y-49956328D01*
X92367548Y-49957999D01*
X92747095Y-49957999D01*
X92753614Y-49957662D01*
X92849206Y-49947743D01*
X92862600Y-49944851D01*
X93016784Y-49893412D01*
X93029962Y-49887239D01*
X93167807Y-49801937D01*
X93179208Y-49792901D01*
X93293739Y-49678171D01*
X93302751Y-49666760D01*
X93387816Y-49528757D01*
X93393963Y-49515576D01*
X93445138Y-49361290D01*
X93448007Y-49347907D01*
X93448188Y-49346139D01*
X93448604Y-49345119D01*
X93449447Y-49341189D01*
X93450148Y-49341339D01*
X93475030Y-49280413D01*
X93533146Y-49239632D01*
X93604084Y-49236745D01*
X93665322Y-49272669D01*
X93674486Y-49283592D01*
X93741349Y-49373133D01*
X93896619Y-49516663D01*
X93901502Y-49519744D01*
X93917697Y-49529962D01*
X94075446Y-49629495D01*
X94271840Y-49707848D01*
X94277497Y-49708973D01*
X94277503Y-49708975D01*
X94473558Y-49747972D01*
X94473560Y-49747972D01*
X94479225Y-49749099D01*
X94485000Y-49749175D01*
X94485004Y-49749175D01*
X94591024Y-49750563D01*
X94690654Y-49751867D01*
X94706321Y-49749175D01*
X94893350Y-49717038D01*
X94893351Y-49717038D01*
X94899047Y-49716059D01*
X95097425Y-49642873D01*
X95116316Y-49631634D01*
X95274179Y-49537716D01*
X95274180Y-49537715D01*
X95279144Y-49534762D01*
X95438119Y-49395345D01*
X95569024Y-49229292D01*
X95580049Y-49208338D01*
X95664785Y-49047280D01*
X95667477Y-49042164D01*
X95730180Y-48840227D01*
X95732056Y-48840809D01*
X95761599Y-48786094D01*
X95823751Y-48751776D01*
X95894590Y-48756508D01*
X95951625Y-48798786D01*
X95972382Y-48840568D01*
X96021314Y-49014069D01*
X96023867Y-49019247D01*
X96023869Y-49019251D01*
X96035169Y-49042164D01*
X96114835Y-49203710D01*
X96241349Y-49373133D01*
X96396619Y-49516663D01*
X96401502Y-49519744D01*
X96417697Y-49529962D01*
X96575446Y-49629495D01*
X96771840Y-49707848D01*
X96777497Y-49708973D01*
X96777503Y-49708975D01*
X96973558Y-49747972D01*
X96973560Y-49747972D01*
X96979225Y-49749099D01*
X96985000Y-49749175D01*
X96985004Y-49749175D01*
X97091024Y-49750563D01*
X97190654Y-49751867D01*
X97206321Y-49749175D01*
X97393350Y-49717038D01*
X97393351Y-49717038D01*
X97399047Y-49716059D01*
X97597425Y-49642873D01*
X97616316Y-49631634D01*
X97774179Y-49537716D01*
X97774180Y-49537715D01*
X97779144Y-49534762D01*
X97938119Y-49395345D01*
X98069024Y-49229292D01*
X98080049Y-49208338D01*
X98164785Y-49047280D01*
X98167477Y-49042164D01*
X98230180Y-48840227D01*
X98232056Y-48840809D01*
X98261599Y-48786094D01*
X98323751Y-48751776D01*
X98394590Y-48756508D01*
X98451625Y-48798786D01*
X98472382Y-48840568D01*
X98521314Y-49014069D01*
X98523867Y-49019247D01*
X98523869Y-49019251D01*
X98535169Y-49042164D01*
X98614835Y-49203710D01*
X98741349Y-49373133D01*
X98896619Y-49516663D01*
X98901502Y-49519744D01*
X98917697Y-49529962D01*
X99075446Y-49629495D01*
X99271840Y-49707848D01*
X99277497Y-49708973D01*
X99277503Y-49708975D01*
X99473558Y-49747972D01*
X99473560Y-49747972D01*
X99479225Y-49749099D01*
X99485000Y-49749175D01*
X99485004Y-49749175D01*
X99591024Y-49750563D01*
X99690654Y-49751867D01*
X99706321Y-49749175D01*
X99893350Y-49717038D01*
X99893351Y-49717038D01*
X99899047Y-49716059D01*
X100097425Y-49642873D01*
X100116316Y-49631634D01*
X100274179Y-49537716D01*
X100274180Y-49537715D01*
X100279144Y-49534762D01*
X100438119Y-49395345D01*
X100569024Y-49229292D01*
X100580049Y-49208338D01*
X100664785Y-49047280D01*
X100667477Y-49042164D01*
X100730180Y-48840227D01*
X100732056Y-48840809D01*
X100761599Y-48786094D01*
X100823751Y-48751776D01*
X100894590Y-48756508D01*
X100951625Y-48798786D01*
X100972382Y-48840568D01*
X101021314Y-49014069D01*
X101023867Y-49019247D01*
X101023869Y-49019251D01*
X101035169Y-49042164D01*
X101114835Y-49203710D01*
X101241349Y-49373133D01*
X101396619Y-49516663D01*
X101401502Y-49519744D01*
X101417697Y-49529962D01*
X101575446Y-49629495D01*
X101771840Y-49707848D01*
X101777497Y-49708973D01*
X101777503Y-49708975D01*
X101973558Y-49747972D01*
X101973560Y-49747972D01*
X101979225Y-49749099D01*
X101985000Y-49749175D01*
X101985004Y-49749175D01*
X102091024Y-49750563D01*
X102190654Y-49751867D01*
X102206321Y-49749175D01*
X102393350Y-49717038D01*
X102393351Y-49717038D01*
X102399047Y-49716059D01*
X102597425Y-49642873D01*
X102616316Y-49631634D01*
X102774179Y-49537716D01*
X102774180Y-49537715D01*
X102779144Y-49534762D01*
X102938119Y-49395345D01*
X103069024Y-49229292D01*
X103080049Y-49208338D01*
X103164785Y-49047280D01*
X103167477Y-49042164D01*
X103230180Y-48840227D01*
X103236587Y-48786094D01*
X103250064Y-48672232D01*
X103250064Y-48672225D01*
X103250500Y-48668545D01*
X103250500Y-48296359D01*
X103236081Y-48139440D01*
X103197686Y-48003301D01*
X117287084Y-48003301D01*
X117307080Y-48384833D01*
X117307766Y-48391371D01*
X117367535Y-48768734D01*
X117368906Y-48775184D01*
X117467788Y-49144216D01*
X117469829Y-49150498D01*
X117606740Y-49507164D01*
X117609422Y-49513189D01*
X117782872Y-49853603D01*
X117786169Y-49859313D01*
X117994253Y-50179735D01*
X117998123Y-50185061D01*
X118191478Y-50423835D01*
X118203733Y-50432300D01*
X118214824Y-50425966D01*
X120627978Y-48012812D01*
X120634356Y-48001132D01*
X121364408Y-48001132D01*
X121364539Y-48002965D01*
X121368790Y-48009580D01*
X123784310Y-50425100D01*
X123797386Y-50432241D01*
X123807753Y-50424784D01*
X124001877Y-50185061D01*
X124005747Y-50179735D01*
X124213831Y-49859313D01*
X124217128Y-49853603D01*
X124390578Y-49513189D01*
X124393260Y-49507164D01*
X124530171Y-49150498D01*
X124532212Y-49144216D01*
X124631094Y-48775184D01*
X124632465Y-48768734D01*
X124692234Y-48391371D01*
X124692920Y-48384833D01*
X124712916Y-48003301D01*
X124712916Y-47996699D01*
X124692920Y-47615167D01*
X124692234Y-47608629D01*
X124632465Y-47231266D01*
X124631094Y-47224816D01*
X124532212Y-46855784D01*
X124530171Y-46849502D01*
X124393260Y-46492836D01*
X124390578Y-46486811D01*
X124217128Y-46146397D01*
X124213831Y-46140687D01*
X124005747Y-45820265D01*
X124001877Y-45814939D01*
X123808522Y-45576165D01*
X123796267Y-45567700D01*
X123785176Y-45574034D01*
X121372022Y-47987188D01*
X121364408Y-48001132D01*
X120634356Y-48001132D01*
X120635592Y-47998868D01*
X120635461Y-47997035D01*
X120631210Y-47990420D01*
X118215690Y-45574900D01*
X118202614Y-45567759D01*
X118192247Y-45575216D01*
X117998123Y-45814939D01*
X117994253Y-45820265D01*
X117786169Y-46140687D01*
X117782872Y-46146397D01*
X117609422Y-46486811D01*
X117606740Y-46492836D01*
X117469829Y-46849502D01*
X117467788Y-46855784D01*
X117368906Y-47224816D01*
X117367535Y-47231266D01*
X117307766Y-47608629D01*
X117307080Y-47615167D01*
X117287084Y-47996699D01*
X117287084Y-48003301D01*
X103197686Y-48003301D01*
X103178686Y-47935931D01*
X103167553Y-47913354D01*
X103087719Y-47751469D01*
X103085165Y-47746290D01*
X102987251Y-47615167D01*
X102962104Y-47581491D01*
X102962103Y-47581490D01*
X102958651Y-47576867D01*
X102803381Y-47433337D01*
X102784213Y-47421243D01*
X102629434Y-47323584D01*
X102629433Y-47323584D01*
X102624554Y-47320505D01*
X102428160Y-47242152D01*
X102422503Y-47241027D01*
X102422497Y-47241025D01*
X102226442Y-47202028D01*
X102226440Y-47202028D01*
X102220775Y-47200901D01*
X102215000Y-47200825D01*
X102214996Y-47200825D01*
X102108976Y-47199437D01*
X102009346Y-47198133D01*
X102003649Y-47199112D01*
X102003648Y-47199112D01*
X101806650Y-47232962D01*
X101806649Y-47232962D01*
X101800953Y-47233941D01*
X101602575Y-47307127D01*
X101597614Y-47310079D01*
X101597613Y-47310079D01*
X101580089Y-47320505D01*
X101420856Y-47415238D01*
X101261881Y-47554655D01*
X101130976Y-47720708D01*
X101128287Y-47725819D01*
X101128285Y-47725822D01*
X101114792Y-47751469D01*
X101032523Y-47907836D01*
X100969820Y-48109773D01*
X100967944Y-48109191D01*
X100938401Y-48163906D01*
X100876249Y-48198224D01*
X100805410Y-48193492D01*
X100748375Y-48151214D01*
X100727618Y-48109432D01*
X100706587Y-48034862D01*
X100678686Y-47935931D01*
X100667553Y-47913354D01*
X100587719Y-47751469D01*
X100585165Y-47746290D01*
X100487251Y-47615167D01*
X100462104Y-47581491D01*
X100462103Y-47581490D01*
X100458651Y-47576867D01*
X100303381Y-47433337D01*
X100284213Y-47421243D01*
X100129434Y-47323584D01*
X100129433Y-47323584D01*
X100124554Y-47320505D01*
X99928160Y-47242152D01*
X99922503Y-47241027D01*
X99922497Y-47241025D01*
X99726442Y-47202028D01*
X99726440Y-47202028D01*
X99720775Y-47200901D01*
X99715000Y-47200825D01*
X99714996Y-47200825D01*
X99608976Y-47199437D01*
X99509346Y-47198133D01*
X99503649Y-47199112D01*
X99503648Y-47199112D01*
X99306650Y-47232962D01*
X99306649Y-47232962D01*
X99300953Y-47233941D01*
X99102575Y-47307127D01*
X99097614Y-47310079D01*
X99097613Y-47310079D01*
X99080089Y-47320505D01*
X98920856Y-47415238D01*
X98761881Y-47554655D01*
X98630976Y-47720708D01*
X98628287Y-47725819D01*
X98628285Y-47725822D01*
X98614792Y-47751469D01*
X98532523Y-47907836D01*
X98469820Y-48109773D01*
X98467944Y-48109191D01*
X98438401Y-48163906D01*
X98376249Y-48198224D01*
X98305410Y-48193492D01*
X98248375Y-48151214D01*
X98227618Y-48109432D01*
X98206587Y-48034862D01*
X98178686Y-47935931D01*
X98167553Y-47913354D01*
X98087719Y-47751469D01*
X98085165Y-47746290D01*
X97987251Y-47615167D01*
X97962104Y-47581491D01*
X97962103Y-47581490D01*
X97958651Y-47576867D01*
X97803381Y-47433337D01*
X97784213Y-47421243D01*
X97629434Y-47323584D01*
X97629433Y-47323584D01*
X97624554Y-47320505D01*
X97428160Y-47242152D01*
X97422503Y-47241027D01*
X97422497Y-47241025D01*
X97226442Y-47202028D01*
X97226440Y-47202028D01*
X97220775Y-47200901D01*
X97215000Y-47200825D01*
X97214996Y-47200825D01*
X97108976Y-47199437D01*
X97009346Y-47198133D01*
X97003649Y-47199112D01*
X97003648Y-47199112D01*
X96806650Y-47232962D01*
X96806649Y-47232962D01*
X96800953Y-47233941D01*
X96602575Y-47307127D01*
X96597614Y-47310079D01*
X96597613Y-47310079D01*
X96580089Y-47320505D01*
X96420856Y-47415238D01*
X96261881Y-47554655D01*
X96130976Y-47720708D01*
X96128287Y-47725819D01*
X96128285Y-47725822D01*
X96114792Y-47751469D01*
X96032523Y-47907836D01*
X95969820Y-48109773D01*
X95967944Y-48109191D01*
X95938401Y-48163906D01*
X95876249Y-48198224D01*
X95805410Y-48193492D01*
X95748375Y-48151214D01*
X95727618Y-48109432D01*
X95706587Y-48034862D01*
X95678686Y-47935931D01*
X95667553Y-47913354D01*
X95587719Y-47751469D01*
X95585165Y-47746290D01*
X95487251Y-47615167D01*
X95462104Y-47581491D01*
X95462103Y-47581490D01*
X95458651Y-47576867D01*
X95303381Y-47433337D01*
X95284213Y-47421243D01*
X95129434Y-47323584D01*
X95129433Y-47323584D01*
X95124554Y-47320505D01*
X94928160Y-47242152D01*
X94922503Y-47241027D01*
X94922497Y-47241025D01*
X94726442Y-47202028D01*
X94726440Y-47202028D01*
X94720775Y-47200901D01*
X94715000Y-47200825D01*
X94714996Y-47200825D01*
X94608976Y-47199437D01*
X94509346Y-47198133D01*
X94503649Y-47199112D01*
X94503648Y-47199112D01*
X94306650Y-47232962D01*
X94306649Y-47232962D01*
X94300953Y-47233941D01*
X94102575Y-47307127D01*
X94097614Y-47310079D01*
X94097613Y-47310079D01*
X94080089Y-47320505D01*
X93920856Y-47415238D01*
X93761881Y-47554655D01*
X93758314Y-47559180D01*
X93758309Y-47559185D01*
X93672281Y-47668312D01*
X93614400Y-47709425D01*
X93543480Y-47712719D01*
X93482037Y-47677147D01*
X93449580Y-47614004D01*
X93448003Y-47603304D01*
X93447742Y-47600787D01*
X93444851Y-47587400D01*
X93393412Y-47433216D01*
X93387239Y-47420038D01*
X93301937Y-47282193D01*
X93292901Y-47270792D01*
X93178171Y-47156261D01*
X93166760Y-47147249D01*
X93028757Y-47062184D01*
X93015576Y-47056037D01*
X92861290Y-47004862D01*
X92847914Y-47001995D01*
X92753562Y-46992328D01*
X92747145Y-46992000D01*
X92372115Y-46992000D01*
X92356876Y-46996475D01*
X92355671Y-46997865D01*
X92354000Y-47005548D01*
X92354000Y-49939884D01*
X91846000Y-49939884D01*
X91846000Y-48747115D01*
X91841525Y-48731876D01*
X91840135Y-48730671D01*
X91832452Y-48729000D01*
X90760116Y-48729000D01*
X90744877Y-48733475D01*
X90743672Y-48734865D01*
X90742001Y-48742548D01*
X90742001Y-49247095D01*
X61054989Y-49247095D01*
X61069024Y-49229292D01*
X61080049Y-49208338D01*
X61164785Y-49047280D01*
X61167477Y-49042164D01*
X61230180Y-48840227D01*
X61236587Y-48786094D01*
X61250064Y-48672232D01*
X61250064Y-48672225D01*
X61250500Y-48668545D01*
X61250500Y-48296359D01*
X61241911Y-48202885D01*
X90742000Y-48202885D01*
X90746475Y-48218124D01*
X90747865Y-48219329D01*
X90755548Y-48221000D01*
X91827885Y-48221000D01*
X91843124Y-48216525D01*
X91844329Y-48215135D01*
X91846000Y-48207452D01*
X91846000Y-47010116D01*
X91841525Y-46994877D01*
X91840135Y-46993672D01*
X91832452Y-46992001D01*
X91452905Y-46992001D01*
X91446386Y-46992338D01*
X91350794Y-47002257D01*
X91337400Y-47005149D01*
X91183216Y-47056588D01*
X91170038Y-47062761D01*
X91032193Y-47148063D01*
X91020792Y-47157099D01*
X90906261Y-47271829D01*
X90897249Y-47283240D01*
X90812184Y-47421243D01*
X90806037Y-47434424D01*
X90754862Y-47588710D01*
X90751995Y-47602086D01*
X90742328Y-47696438D01*
X90742000Y-47702855D01*
X90742000Y-48202885D01*
X61241911Y-48202885D01*
X61236081Y-48139440D01*
X61178686Y-47935931D01*
X61167553Y-47913354D01*
X61087719Y-47751469D01*
X61085165Y-47746290D01*
X60987251Y-47615167D01*
X60962104Y-47581491D01*
X60962103Y-47581490D01*
X60958651Y-47576867D01*
X60803381Y-47433337D01*
X60784213Y-47421243D01*
X60629434Y-47323584D01*
X60629433Y-47323584D01*
X60624554Y-47320505D01*
X60428160Y-47242152D01*
X60422503Y-47241027D01*
X60422497Y-47241025D01*
X60226442Y-47202028D01*
X60226440Y-47202028D01*
X60220775Y-47200901D01*
X60215000Y-47200825D01*
X60214996Y-47200825D01*
X60108976Y-47199437D01*
X60009346Y-47198133D01*
X60003649Y-47199112D01*
X60003648Y-47199112D01*
X59806650Y-47232962D01*
X59806649Y-47232962D01*
X59800953Y-47233941D01*
X59602575Y-47307127D01*
X59597614Y-47310079D01*
X59597613Y-47310079D01*
X59580089Y-47320505D01*
X59420856Y-47415238D01*
X59261881Y-47554655D01*
X59130976Y-47720708D01*
X59128287Y-47725819D01*
X59128285Y-47725822D01*
X59114792Y-47751469D01*
X59032523Y-47907836D01*
X58969820Y-48109773D01*
X58967944Y-48109191D01*
X58938401Y-48163906D01*
X58876249Y-48198224D01*
X58805410Y-48193492D01*
X58748375Y-48151214D01*
X58727618Y-48109432D01*
X58706587Y-48034862D01*
X58678686Y-47935931D01*
X58667553Y-47913354D01*
X58587719Y-47751469D01*
X58585165Y-47746290D01*
X58487251Y-47615167D01*
X58462104Y-47581491D01*
X58462103Y-47581490D01*
X58458651Y-47576867D01*
X58303381Y-47433337D01*
X58284213Y-47421243D01*
X58129434Y-47323584D01*
X58129433Y-47323584D01*
X58124554Y-47320505D01*
X57928160Y-47242152D01*
X57922503Y-47241027D01*
X57922497Y-47241025D01*
X57726442Y-47202028D01*
X57726440Y-47202028D01*
X57720775Y-47200901D01*
X57715000Y-47200825D01*
X57714996Y-47200825D01*
X57608976Y-47199437D01*
X57509346Y-47198133D01*
X57503649Y-47199112D01*
X57503648Y-47199112D01*
X57306650Y-47232962D01*
X57306649Y-47232962D01*
X57300953Y-47233941D01*
X57102575Y-47307127D01*
X57097614Y-47310079D01*
X57097613Y-47310079D01*
X57080089Y-47320505D01*
X56920856Y-47415238D01*
X56761881Y-47554655D01*
X56630976Y-47720708D01*
X56628287Y-47725819D01*
X56628285Y-47725822D01*
X56614792Y-47751469D01*
X56532523Y-47907836D01*
X56469820Y-48109773D01*
X56467944Y-48109191D01*
X56438401Y-48163906D01*
X56376249Y-48198224D01*
X56305410Y-48193492D01*
X56248375Y-48151214D01*
X56227618Y-48109432D01*
X56206587Y-48034862D01*
X56178686Y-47935931D01*
X56167553Y-47913354D01*
X56087719Y-47751469D01*
X56085165Y-47746290D01*
X55987251Y-47615167D01*
X55962104Y-47581491D01*
X55962103Y-47581490D01*
X55958651Y-47576867D01*
X55803381Y-47433337D01*
X55784213Y-47421243D01*
X55629434Y-47323584D01*
X55629433Y-47323584D01*
X55624554Y-47320505D01*
X55428160Y-47242152D01*
X55422503Y-47241027D01*
X55422497Y-47241025D01*
X55226442Y-47202028D01*
X55226440Y-47202028D01*
X55220775Y-47200901D01*
X55215000Y-47200825D01*
X55214996Y-47200825D01*
X55108976Y-47199437D01*
X55009346Y-47198133D01*
X55003649Y-47199112D01*
X55003648Y-47199112D01*
X54806650Y-47232962D01*
X54806649Y-47232962D01*
X54800953Y-47233941D01*
X54602575Y-47307127D01*
X54597614Y-47310079D01*
X54597613Y-47310079D01*
X54580089Y-47320505D01*
X54420856Y-47415238D01*
X54261881Y-47554655D01*
X54130976Y-47720708D01*
X54128287Y-47725819D01*
X54128285Y-47725822D01*
X54114792Y-47751469D01*
X54032523Y-47907836D01*
X53969820Y-48109773D01*
X53967944Y-48109191D01*
X53938401Y-48163906D01*
X53876249Y-48198224D01*
X53805410Y-48193492D01*
X53748375Y-48151214D01*
X53727618Y-48109432D01*
X53706587Y-48034862D01*
X53678686Y-47935931D01*
X53667553Y-47913354D01*
X53587719Y-47751469D01*
X53585165Y-47746290D01*
X53487251Y-47615167D01*
X53462104Y-47581491D01*
X53462103Y-47581490D01*
X53458651Y-47576867D01*
X53303381Y-47433337D01*
X53284213Y-47421243D01*
X53129434Y-47323584D01*
X53129433Y-47323584D01*
X53124554Y-47320505D01*
X52928160Y-47242152D01*
X52922503Y-47241027D01*
X52922497Y-47241025D01*
X52726442Y-47202028D01*
X52726440Y-47202028D01*
X52720775Y-47200901D01*
X52715000Y-47200825D01*
X52714996Y-47200825D01*
X52608976Y-47199437D01*
X52509346Y-47198133D01*
X52503649Y-47199112D01*
X52503648Y-47199112D01*
X52306650Y-47232962D01*
X52306649Y-47232962D01*
X52300953Y-47233941D01*
X52102575Y-47307127D01*
X52097614Y-47310079D01*
X52097613Y-47310079D01*
X52080089Y-47320505D01*
X51920856Y-47415238D01*
X51761881Y-47554655D01*
X51758314Y-47559180D01*
X51758309Y-47559185D01*
X51672281Y-47668312D01*
X51614400Y-47709425D01*
X51543480Y-47712719D01*
X51482037Y-47677147D01*
X51449580Y-47614004D01*
X51448003Y-47603304D01*
X51447742Y-47600787D01*
X51444851Y-47587400D01*
X51393412Y-47433216D01*
X51387239Y-47420038D01*
X51301937Y-47282193D01*
X51292901Y-47270792D01*
X51178171Y-47156261D01*
X51166760Y-47147249D01*
X51028757Y-47062184D01*
X51015576Y-47056037D01*
X50861290Y-47004862D01*
X50847914Y-47001995D01*
X50753562Y-46992328D01*
X50747145Y-46992000D01*
X50372115Y-46992000D01*
X50356876Y-46996475D01*
X50355671Y-46997865D01*
X50354000Y-47005548D01*
X50354000Y-49939884D01*
X49846000Y-49939884D01*
X49846000Y-48747115D01*
X49841525Y-48731876D01*
X49840135Y-48730671D01*
X49832452Y-48729000D01*
X48760116Y-48729000D01*
X48744877Y-48733475D01*
X48743672Y-48734865D01*
X48742001Y-48742548D01*
X48742001Y-49247095D01*
X28493091Y-49247095D01*
X28530171Y-49150498D01*
X28532212Y-49144216D01*
X28631094Y-48775184D01*
X28632465Y-48768734D01*
X28692234Y-48391371D01*
X28692920Y-48384833D01*
X28702456Y-48202885D01*
X48742000Y-48202885D01*
X48746475Y-48218124D01*
X48747865Y-48219329D01*
X48755548Y-48221000D01*
X49827885Y-48221000D01*
X49843124Y-48216525D01*
X49844329Y-48215135D01*
X49846000Y-48207452D01*
X49846000Y-47010116D01*
X49841525Y-46994877D01*
X49840135Y-46993672D01*
X49832452Y-46992001D01*
X49452905Y-46992001D01*
X49446386Y-46992338D01*
X49350794Y-47002257D01*
X49337400Y-47005149D01*
X49183216Y-47056588D01*
X49170038Y-47062761D01*
X49032193Y-47148063D01*
X49020792Y-47157099D01*
X48906261Y-47271829D01*
X48897249Y-47283240D01*
X48812184Y-47421243D01*
X48806037Y-47434424D01*
X48754862Y-47588710D01*
X48751995Y-47602086D01*
X48742328Y-47696438D01*
X48742000Y-47702855D01*
X48742000Y-48202885D01*
X28702456Y-48202885D01*
X28712916Y-48003301D01*
X28712916Y-47996699D01*
X28692920Y-47615167D01*
X28692234Y-47608629D01*
X28632465Y-47231266D01*
X28631094Y-47224816D01*
X28532212Y-46855784D01*
X28530171Y-46849502D01*
X28393260Y-46492836D01*
X28390578Y-46486811D01*
X28217128Y-46146397D01*
X28213831Y-46140687D01*
X28005747Y-45820265D01*
X28001877Y-45814939D01*
X27808522Y-45576165D01*
X27796267Y-45567700D01*
X27785176Y-45574034D01*
X25372022Y-47987188D01*
X25364408Y-48001132D01*
X24634356Y-48001132D01*
X24635592Y-47998868D01*
X24635461Y-47997035D01*
X24631210Y-47990420D01*
X22215690Y-45574900D01*
X22202614Y-45567759D01*
X22192247Y-45575216D01*
X21998123Y-45814939D01*
X21994253Y-45820265D01*
X21786169Y-46140687D01*
X21782872Y-46146397D01*
X21609422Y-46486811D01*
X21606740Y-46492836D01*
X21469829Y-46849502D01*
X21467788Y-46855784D01*
X21368906Y-47224816D01*
X21367535Y-47231266D01*
X21307766Y-47608629D01*
X21307080Y-47615167D01*
X21287084Y-47996699D01*
X21287084Y-48003301D01*
X20304554Y-48003301D01*
X20305136Y-48000000D01*
X20302414Y-47984563D01*
X20300500Y-47962683D01*
X20300500Y-45203733D01*
X22567700Y-45203733D01*
X22574034Y-45214824D01*
X24987188Y-47627978D01*
X25001132Y-47635592D01*
X25002965Y-47635461D01*
X25009580Y-47631210D01*
X27425100Y-45215690D01*
X27431630Y-45203733D01*
X118567700Y-45203733D01*
X118574034Y-45214824D01*
X120987188Y-47627978D01*
X121001132Y-47635592D01*
X121002965Y-47635461D01*
X121009580Y-47631210D01*
X123425100Y-45215690D01*
X123432241Y-45202614D01*
X123424784Y-45192247D01*
X123185065Y-44998126D01*
X123179728Y-44994249D01*
X122859315Y-44786170D01*
X122853606Y-44782873D01*
X122513189Y-44609422D01*
X122507164Y-44606740D01*
X122150498Y-44469829D01*
X122144216Y-44467788D01*
X121775184Y-44368906D01*
X121768734Y-44367535D01*
X121391371Y-44307766D01*
X121384833Y-44307080D01*
X121003301Y-44287084D01*
X120996699Y-44287084D01*
X120615167Y-44307080D01*
X120608629Y-44307766D01*
X120231266Y-44367535D01*
X120224816Y-44368906D01*
X119855784Y-44467788D01*
X119849502Y-44469829D01*
X119492836Y-44606740D01*
X119486811Y-44609422D01*
X119146397Y-44782872D01*
X119140687Y-44786169D01*
X118820265Y-44994253D01*
X118814939Y-44998123D01*
X118576165Y-45191478D01*
X118567700Y-45203733D01*
X27431630Y-45203733D01*
X27432241Y-45202614D01*
X27424784Y-45192247D01*
X27185065Y-44998126D01*
X27179728Y-44994249D01*
X26859315Y-44786170D01*
X26853606Y-44782873D01*
X26513189Y-44609422D01*
X26507164Y-44606740D01*
X26150498Y-44469829D01*
X26144216Y-44467788D01*
X25775184Y-44368906D01*
X25768734Y-44367535D01*
X25391371Y-44307766D01*
X25384833Y-44307080D01*
X25003301Y-44287084D01*
X24996699Y-44287084D01*
X24615167Y-44307080D01*
X24608629Y-44307766D01*
X24231266Y-44367535D01*
X24224816Y-44368906D01*
X23855784Y-44467788D01*
X23849502Y-44469829D01*
X23492836Y-44606740D01*
X23486811Y-44609422D01*
X23146397Y-44782872D01*
X23140687Y-44786169D01*
X22820265Y-44994253D01*
X22814939Y-44998123D01*
X22576165Y-45191478D01*
X22567700Y-45203733D01*
X20300500Y-45203733D01*
X20300500Y-36768580D01*
X24543752Y-36768580D01*
X24568477Y-36886421D01*
X24571537Y-36896617D01*
X24652263Y-37101029D01*
X24656994Y-37110561D01*
X24771016Y-37298462D01*
X24777280Y-37307052D01*
X24921327Y-37473052D01*
X24928958Y-37480472D01*
X25098911Y-37619826D01*
X25107678Y-37625850D01*
X25298682Y-37734576D01*
X25308349Y-37739043D01*
X25331464Y-37747433D01*
X25388673Y-37789477D01*
X25414069Y-37855776D01*
X25399590Y-37925280D01*
X25344203Y-37978878D01*
X25271290Y-38014835D01*
X25101867Y-38141349D01*
X24958337Y-38296619D01*
X24955256Y-38301502D01*
X24943045Y-38320856D01*
X24845505Y-38475446D01*
X24767152Y-38671840D01*
X24766027Y-38677497D01*
X24766025Y-38677503D01*
X24727028Y-38873558D01*
X24725901Y-38879225D01*
X24725825Y-38885000D01*
X24725825Y-38885004D01*
X24725431Y-38915128D01*
X24723133Y-39090654D01*
X24758941Y-39299047D01*
X24832127Y-39497425D01*
X24940238Y-39679144D01*
X25079655Y-39838119D01*
X25245708Y-39969024D01*
X25250819Y-39971713D01*
X25250822Y-39971715D01*
X25345638Y-40021600D01*
X25432836Y-40067477D01*
X25532827Y-40098525D01*
X25557384Y-40106150D01*
X25616509Y-40145453D01*
X25620863Y-40151231D01*
X25623191Y-40156079D01*
X25628080Y-40161367D01*
X25628107Y-40161408D01*
X25631421Y-40167788D01*
X25635725Y-40172828D01*
X25672952Y-40210055D01*
X25676381Y-40213620D01*
X25715146Y-40255556D01*
X25721505Y-40259249D01*
X25727663Y-40264766D01*
X26057247Y-40594350D01*
X26067101Y-40605439D01*
X26082293Y-40624709D01*
X26088128Y-40632110D01*
X26095875Y-40637465D01*
X26095877Y-40637466D01*
X26136375Y-40665455D01*
X26139587Y-40667750D01*
X26186816Y-40702634D01*
X26193632Y-40705027D01*
X26199569Y-40709131D01*
X26208549Y-40711971D01*
X26208551Y-40711972D01*
X26228717Y-40718350D01*
X26255519Y-40726826D01*
X26259250Y-40728071D01*
X26305737Y-40744396D01*
X26305739Y-40744396D01*
X26314631Y-40747519D01*
X26321819Y-40747801D01*
X26321878Y-40747812D01*
X26328730Y-40749980D01*
X26335337Y-40750500D01*
X26388016Y-40750500D01*
X26392962Y-40750597D01*
X26449994Y-40752838D01*
X26457100Y-40750954D01*
X26465344Y-40750500D01*
X37405454Y-40750500D01*
X37473575Y-40770502D01*
X37490254Y-40783307D01*
X37585612Y-40870077D01*
X37585616Y-40870080D01*
X37591233Y-40875191D01*
X37597906Y-40878814D01*
X37597910Y-40878817D01*
X37733558Y-40952467D01*
X37733560Y-40952468D01*
X37740235Y-40956092D01*
X37747584Y-40958020D01*
X37896883Y-40997188D01*
X37896885Y-40997188D01*
X37904233Y-40999116D01*
X37990609Y-41000473D01*
X38066161Y-41001660D01*
X38066164Y-41001660D01*
X38073760Y-41001779D01*
X38081165Y-41000083D01*
X38081166Y-41000083D01*
X38141586Y-40986245D01*
X38239029Y-40963928D01*
X38390498Y-40887747D01*
X38515846Y-40780689D01*
X38580636Y-40751658D01*
X38597677Y-40750500D01*
X41805454Y-40750500D01*
X41873575Y-40770502D01*
X41890254Y-40783307D01*
X41985612Y-40870077D01*
X41985616Y-40870080D01*
X41991233Y-40875191D01*
X41997906Y-40878814D01*
X41997910Y-40878817D01*
X42133558Y-40952467D01*
X42133560Y-40952468D01*
X42140235Y-40956092D01*
X42147584Y-40958020D01*
X42296883Y-40997188D01*
X42296885Y-40997188D01*
X42304233Y-40999116D01*
X42390609Y-41000473D01*
X42466161Y-41001660D01*
X42466164Y-41001660D01*
X42473760Y-41001779D01*
X42481165Y-41000083D01*
X42481166Y-41000083D01*
X42541586Y-40986245D01*
X42639029Y-40963928D01*
X42790498Y-40887747D01*
X42915846Y-40780689D01*
X42980636Y-40751658D01*
X42997677Y-40750500D01*
X46805454Y-40750500D01*
X46873575Y-40770502D01*
X46890254Y-40783307D01*
X46985612Y-40870077D01*
X46985616Y-40870080D01*
X46991233Y-40875191D01*
X46997906Y-40878814D01*
X46997910Y-40878817D01*
X47133558Y-40952467D01*
X47133560Y-40952468D01*
X47140235Y-40956092D01*
X47147584Y-40958020D01*
X47296883Y-40997188D01*
X47296885Y-40997188D01*
X47304233Y-40999116D01*
X47390609Y-41000473D01*
X47466161Y-41001660D01*
X47466164Y-41001660D01*
X47473760Y-41001779D01*
X47481165Y-41000083D01*
X47481166Y-41000083D01*
X47541586Y-40986245D01*
X47639029Y-40963928D01*
X47790498Y-40887747D01*
X47915846Y-40780689D01*
X47980636Y-40751658D01*
X47997677Y-40750500D01*
X49705454Y-40750500D01*
X49773575Y-40770502D01*
X49790254Y-40783307D01*
X49885612Y-40870077D01*
X49885616Y-40870080D01*
X49891233Y-40875191D01*
X49897906Y-40878814D01*
X49897910Y-40878817D01*
X50033558Y-40952467D01*
X50033560Y-40952468D01*
X50040235Y-40956092D01*
X50047584Y-40958020D01*
X50196883Y-40997188D01*
X50196885Y-40997188D01*
X50204233Y-40999116D01*
X50290609Y-41000473D01*
X50366161Y-41001660D01*
X50366164Y-41001660D01*
X50373760Y-41001779D01*
X50381165Y-41000083D01*
X50381166Y-41000083D01*
X50441586Y-40986245D01*
X50539029Y-40963928D01*
X50690498Y-40887747D01*
X50815846Y-40780689D01*
X50880636Y-40751658D01*
X50897677Y-40750500D01*
X62505454Y-40750500D01*
X62573575Y-40770502D01*
X62590254Y-40783307D01*
X62685612Y-40870077D01*
X62685616Y-40870080D01*
X62691233Y-40875191D01*
X62697906Y-40878814D01*
X62697910Y-40878817D01*
X62833558Y-40952467D01*
X62833560Y-40952468D01*
X62840235Y-40956092D01*
X62847584Y-40958020D01*
X62996883Y-40997188D01*
X62996885Y-40997188D01*
X63004233Y-40999116D01*
X63090609Y-41000473D01*
X63166161Y-41001660D01*
X63166164Y-41001660D01*
X63173760Y-41001779D01*
X63181165Y-41000083D01*
X63181166Y-41000083D01*
X63241586Y-40986245D01*
X63339029Y-40963928D01*
X63490498Y-40887747D01*
X63615846Y-40780689D01*
X63680636Y-40751658D01*
X63697677Y-40750500D01*
X67505454Y-40750500D01*
X67573575Y-40770502D01*
X67590254Y-40783307D01*
X67685612Y-40870077D01*
X67685616Y-40870080D01*
X67691233Y-40875191D01*
X67697906Y-40878814D01*
X67697910Y-40878817D01*
X67833558Y-40952467D01*
X67833560Y-40952468D01*
X67840235Y-40956092D01*
X67847584Y-40958020D01*
X67996883Y-40997188D01*
X67996885Y-40997188D01*
X68004233Y-40999116D01*
X68090609Y-41000473D01*
X68166161Y-41001660D01*
X68166164Y-41001660D01*
X68173760Y-41001779D01*
X68181165Y-41000083D01*
X68181166Y-41000083D01*
X68241586Y-40986245D01*
X68339029Y-40963928D01*
X68490498Y-40887747D01*
X68615846Y-40780689D01*
X68680636Y-40751658D01*
X68697677Y-40750500D01*
X70405454Y-40750500D01*
X70473575Y-40770502D01*
X70490254Y-40783307D01*
X70585612Y-40870077D01*
X70585616Y-40870080D01*
X70591233Y-40875191D01*
X70597906Y-40878814D01*
X70597910Y-40878817D01*
X70733558Y-40952467D01*
X70733560Y-40952468D01*
X70740235Y-40956092D01*
X70747584Y-40958020D01*
X70896883Y-40997188D01*
X70896885Y-40997188D01*
X70904233Y-40999116D01*
X70990609Y-41000473D01*
X71066161Y-41001660D01*
X71066164Y-41001660D01*
X71073760Y-41001779D01*
X71081165Y-41000083D01*
X71081166Y-41000083D01*
X71141586Y-40986245D01*
X71239029Y-40963928D01*
X71390498Y-40887747D01*
X71515846Y-40780689D01*
X71580636Y-40751658D01*
X71597677Y-40750500D01*
X83505454Y-40750500D01*
X83573575Y-40770502D01*
X83590254Y-40783307D01*
X83685612Y-40870077D01*
X83685616Y-40870080D01*
X83691233Y-40875191D01*
X83697906Y-40878814D01*
X83697910Y-40878817D01*
X83833558Y-40952467D01*
X83833560Y-40952468D01*
X83840235Y-40956092D01*
X83847584Y-40958020D01*
X83996883Y-40997188D01*
X83996885Y-40997188D01*
X84004233Y-40999116D01*
X84090609Y-41000473D01*
X84166161Y-41001660D01*
X84166164Y-41001660D01*
X84173760Y-41001779D01*
X84181165Y-41000083D01*
X84181166Y-41000083D01*
X84241586Y-40986245D01*
X84339029Y-40963928D01*
X84490498Y-40887747D01*
X84615846Y-40780689D01*
X84680636Y-40751658D01*
X84697677Y-40750500D01*
X88505454Y-40750500D01*
X88573575Y-40770502D01*
X88590254Y-40783307D01*
X88685612Y-40870077D01*
X88685616Y-40870080D01*
X88691233Y-40875191D01*
X88697906Y-40878814D01*
X88697910Y-40878817D01*
X88833558Y-40952467D01*
X88833560Y-40952468D01*
X88840235Y-40956092D01*
X88847584Y-40958020D01*
X88996883Y-40997188D01*
X88996885Y-40997188D01*
X89004233Y-40999116D01*
X89090609Y-41000473D01*
X89166161Y-41001660D01*
X89166164Y-41001660D01*
X89173760Y-41001779D01*
X89181165Y-41000083D01*
X89181166Y-41000083D01*
X89241586Y-40986245D01*
X89339029Y-40963928D01*
X89490498Y-40887747D01*
X89615846Y-40780689D01*
X89680636Y-40751658D01*
X89697677Y-40750500D01*
X91405454Y-40750500D01*
X91473575Y-40770502D01*
X91490254Y-40783307D01*
X91585612Y-40870077D01*
X91585616Y-40870080D01*
X91591233Y-40875191D01*
X91597906Y-40878814D01*
X91597910Y-40878817D01*
X91733558Y-40952467D01*
X91733560Y-40952468D01*
X91740235Y-40956092D01*
X91747584Y-40958020D01*
X91896883Y-40997188D01*
X91896885Y-40997188D01*
X91904233Y-40999116D01*
X91990609Y-41000473D01*
X92066161Y-41001660D01*
X92066164Y-41001660D01*
X92073760Y-41001779D01*
X92081165Y-41000083D01*
X92081166Y-41000083D01*
X92141586Y-40986245D01*
X92239029Y-40963928D01*
X92390498Y-40887747D01*
X92515846Y-40780689D01*
X92580636Y-40751658D01*
X92597677Y-40750500D01*
X104505454Y-40750500D01*
X104573575Y-40770502D01*
X104590254Y-40783307D01*
X104685612Y-40870077D01*
X104685616Y-40870080D01*
X104691233Y-40875191D01*
X104697906Y-40878814D01*
X104697910Y-40878817D01*
X104833558Y-40952467D01*
X104833560Y-40952468D01*
X104840235Y-40956092D01*
X104847584Y-40958020D01*
X104996883Y-40997188D01*
X104996885Y-40997188D01*
X105004233Y-40999116D01*
X105090609Y-41000473D01*
X105166161Y-41001660D01*
X105166164Y-41001660D01*
X105173760Y-41001779D01*
X105181165Y-41000083D01*
X105181166Y-41000083D01*
X105241586Y-40986245D01*
X105339029Y-40963928D01*
X105490498Y-40887747D01*
X105615846Y-40780689D01*
X105680636Y-40751658D01*
X105697677Y-40750500D01*
X109505454Y-40750500D01*
X109573575Y-40770502D01*
X109590254Y-40783307D01*
X109685612Y-40870077D01*
X109685616Y-40870080D01*
X109691233Y-40875191D01*
X109697906Y-40878814D01*
X109697910Y-40878817D01*
X109833558Y-40952467D01*
X109833560Y-40952468D01*
X109840235Y-40956092D01*
X109847584Y-40958020D01*
X109996883Y-40997188D01*
X109996885Y-40997188D01*
X110004233Y-40999116D01*
X110090609Y-41000473D01*
X110166161Y-41001660D01*
X110166164Y-41001660D01*
X110173760Y-41001779D01*
X110181165Y-41000083D01*
X110181166Y-41000083D01*
X110241586Y-40986245D01*
X110339029Y-40963928D01*
X110490498Y-40887747D01*
X110615846Y-40780689D01*
X110680636Y-40751658D01*
X110697677Y-40750500D01*
X112405454Y-40750500D01*
X112473575Y-40770502D01*
X112490254Y-40783307D01*
X112585612Y-40870077D01*
X112585616Y-40870080D01*
X112591233Y-40875191D01*
X112597906Y-40878814D01*
X112597910Y-40878817D01*
X112733558Y-40952467D01*
X112733560Y-40952468D01*
X112740235Y-40956092D01*
X112747584Y-40958020D01*
X112896883Y-40997188D01*
X112896885Y-40997188D01*
X112904233Y-40999116D01*
X112990609Y-41000473D01*
X113066161Y-41001660D01*
X113066164Y-41001660D01*
X113073760Y-41001779D01*
X113081165Y-41000083D01*
X113081166Y-41000083D01*
X113141586Y-40986245D01*
X113239029Y-40963928D01*
X113390498Y-40887747D01*
X113519423Y-40777634D01*
X113618361Y-40639947D01*
X113621194Y-40632900D01*
X113678766Y-40489687D01*
X113678767Y-40489685D01*
X113681601Y-40482634D01*
X113705490Y-40314778D01*
X113705645Y-40300000D01*
X113685276Y-40131680D01*
X113625345Y-39973077D01*
X113620101Y-39965447D01*
X113533614Y-39839608D01*
X113533613Y-39839607D01*
X113529312Y-39833349D01*
X113464768Y-39775842D01*
X113408392Y-39725612D01*
X113408388Y-39725610D01*
X113402721Y-39720560D01*
X113370276Y-39703381D01*
X113315122Y-39674179D01*
X113252881Y-39641224D01*
X113088441Y-39599919D01*
X113080843Y-39599879D01*
X113080841Y-39599879D01*
X113003668Y-39599475D01*
X112918895Y-39599031D01*
X112911508Y-39600805D01*
X112911504Y-39600805D01*
X112768162Y-39635220D01*
X112754032Y-39638612D01*
X112747288Y-39642093D01*
X112747285Y-39642094D01*
X112667086Y-39683488D01*
X112603369Y-39716375D01*
X112597647Y-39721367D01*
X112597645Y-39721368D01*
X112486359Y-39818449D01*
X112421877Y-39848157D01*
X112403530Y-39849500D01*
X110695428Y-39849500D01*
X110627307Y-39829498D01*
X110611609Y-39817576D01*
X110508392Y-39725613D01*
X110508391Y-39725612D01*
X110502721Y-39720560D01*
X110470276Y-39703381D01*
X110415122Y-39674179D01*
X110352881Y-39641224D01*
X110188441Y-39599919D01*
X110180843Y-39599879D01*
X110180841Y-39599879D01*
X110103668Y-39599475D01*
X110018895Y-39599031D01*
X110011508Y-39600805D01*
X110011504Y-39600805D01*
X109868162Y-39635220D01*
X109854032Y-39638612D01*
X109847288Y-39642093D01*
X109847285Y-39642094D01*
X109767086Y-39683488D01*
X109703369Y-39716375D01*
X109697647Y-39721367D01*
X109697645Y-39721368D01*
X109586359Y-39818449D01*
X109521877Y-39848157D01*
X109503530Y-39849500D01*
X105695428Y-39849500D01*
X105627307Y-39829498D01*
X105611609Y-39817576D01*
X105508392Y-39725613D01*
X105508391Y-39725612D01*
X105502721Y-39720560D01*
X105470276Y-39703381D01*
X105415122Y-39674179D01*
X105352881Y-39641224D01*
X105188441Y-39599919D01*
X105180843Y-39599879D01*
X105180841Y-39599879D01*
X105103668Y-39599475D01*
X105018895Y-39599031D01*
X105011508Y-39600805D01*
X105011504Y-39600805D01*
X104868162Y-39635220D01*
X104854032Y-39638612D01*
X104847288Y-39642093D01*
X104847285Y-39642094D01*
X104767086Y-39683488D01*
X104703369Y-39716375D01*
X104697647Y-39721367D01*
X104697645Y-39721368D01*
X104586359Y-39818449D01*
X104521877Y-39848157D01*
X104503530Y-39849500D01*
X92595428Y-39849500D01*
X92527307Y-39829498D01*
X92511609Y-39817576D01*
X92408392Y-39725613D01*
X92408391Y-39725612D01*
X92402721Y-39720560D01*
X92370276Y-39703381D01*
X92315122Y-39674179D01*
X92252881Y-39641224D01*
X92088441Y-39599919D01*
X92080843Y-39599879D01*
X92080841Y-39599879D01*
X92003668Y-39599475D01*
X91918895Y-39599031D01*
X91911508Y-39600805D01*
X91911504Y-39600805D01*
X91768162Y-39635220D01*
X91754032Y-39638612D01*
X91747288Y-39642093D01*
X91747285Y-39642094D01*
X91667086Y-39683488D01*
X91603369Y-39716375D01*
X91597647Y-39721367D01*
X91597645Y-39721368D01*
X91486359Y-39818449D01*
X91421877Y-39848157D01*
X91403530Y-39849500D01*
X89695428Y-39849500D01*
X89627307Y-39829498D01*
X89611609Y-39817576D01*
X89508392Y-39725613D01*
X89508391Y-39725612D01*
X89502721Y-39720560D01*
X89470276Y-39703381D01*
X89415122Y-39674179D01*
X89352881Y-39641224D01*
X89188441Y-39599919D01*
X89180843Y-39599879D01*
X89180841Y-39599879D01*
X89103668Y-39599475D01*
X89018895Y-39599031D01*
X89011508Y-39600805D01*
X89011504Y-39600805D01*
X88868162Y-39635220D01*
X88854032Y-39638612D01*
X88847288Y-39642093D01*
X88847285Y-39642094D01*
X88767086Y-39683488D01*
X88703369Y-39716375D01*
X88697647Y-39721367D01*
X88697645Y-39721368D01*
X88586359Y-39818449D01*
X88521877Y-39848157D01*
X88503530Y-39849500D01*
X84695428Y-39849500D01*
X84627307Y-39829498D01*
X84611609Y-39817576D01*
X84508392Y-39725613D01*
X84508391Y-39725612D01*
X84502721Y-39720560D01*
X84470276Y-39703381D01*
X84415122Y-39674179D01*
X84352881Y-39641224D01*
X84188441Y-39599919D01*
X84180843Y-39599879D01*
X84180841Y-39599879D01*
X84103668Y-39599475D01*
X84018895Y-39599031D01*
X84011508Y-39600805D01*
X84011504Y-39600805D01*
X83868162Y-39635220D01*
X83854032Y-39638612D01*
X83847288Y-39642093D01*
X83847285Y-39642094D01*
X83767086Y-39683488D01*
X83703369Y-39716375D01*
X83697647Y-39721367D01*
X83697645Y-39721368D01*
X83586359Y-39818449D01*
X83521877Y-39848157D01*
X83503530Y-39849500D01*
X71595428Y-39849500D01*
X71527307Y-39829498D01*
X71511609Y-39817576D01*
X71408392Y-39725613D01*
X71408391Y-39725612D01*
X71402721Y-39720560D01*
X71370276Y-39703381D01*
X71315122Y-39674179D01*
X71252881Y-39641224D01*
X71088441Y-39599919D01*
X71080843Y-39599879D01*
X71080841Y-39599879D01*
X71003668Y-39599475D01*
X70918895Y-39599031D01*
X70911508Y-39600805D01*
X70911504Y-39600805D01*
X70768162Y-39635220D01*
X70754032Y-39638612D01*
X70747288Y-39642093D01*
X70747285Y-39642094D01*
X70667086Y-39683488D01*
X70603369Y-39716375D01*
X70597647Y-39721367D01*
X70597645Y-39721368D01*
X70486359Y-39818449D01*
X70421877Y-39848157D01*
X70403530Y-39849500D01*
X68695428Y-39849500D01*
X68627307Y-39829498D01*
X68611609Y-39817576D01*
X68508392Y-39725613D01*
X68508391Y-39725612D01*
X68502721Y-39720560D01*
X68470276Y-39703381D01*
X68415122Y-39674179D01*
X68352881Y-39641224D01*
X68188441Y-39599919D01*
X68180843Y-39599879D01*
X68180841Y-39599879D01*
X68103668Y-39599475D01*
X68018895Y-39599031D01*
X68011508Y-39600805D01*
X68011504Y-39600805D01*
X67868162Y-39635220D01*
X67854032Y-39638612D01*
X67847288Y-39642093D01*
X67847285Y-39642094D01*
X67767086Y-39683488D01*
X67703369Y-39716375D01*
X67697647Y-39721367D01*
X67697645Y-39721368D01*
X67586359Y-39818449D01*
X67521877Y-39848157D01*
X67503530Y-39849500D01*
X63695428Y-39849500D01*
X63627307Y-39829498D01*
X63611609Y-39817576D01*
X63508392Y-39725613D01*
X63508391Y-39725612D01*
X63502721Y-39720560D01*
X63470276Y-39703381D01*
X63415122Y-39674179D01*
X63352881Y-39641224D01*
X63188441Y-39599919D01*
X63180843Y-39599879D01*
X63180841Y-39599879D01*
X63103668Y-39599475D01*
X63018895Y-39599031D01*
X63011508Y-39600805D01*
X63011504Y-39600805D01*
X62868162Y-39635220D01*
X62854032Y-39638612D01*
X62847288Y-39642093D01*
X62847285Y-39642094D01*
X62767086Y-39683488D01*
X62703369Y-39716375D01*
X62697647Y-39721367D01*
X62697645Y-39721368D01*
X62586359Y-39818449D01*
X62521877Y-39848157D01*
X62503530Y-39849500D01*
X50895428Y-39849500D01*
X50827307Y-39829498D01*
X50811609Y-39817576D01*
X50708392Y-39725613D01*
X50708391Y-39725612D01*
X50702721Y-39720560D01*
X50670276Y-39703381D01*
X50615122Y-39674179D01*
X50552881Y-39641224D01*
X50388441Y-39599919D01*
X50380843Y-39599879D01*
X50380841Y-39599879D01*
X50303668Y-39599475D01*
X50218895Y-39599031D01*
X50211508Y-39600805D01*
X50211504Y-39600805D01*
X50068162Y-39635220D01*
X50054032Y-39638612D01*
X50047288Y-39642093D01*
X50047285Y-39642094D01*
X49967086Y-39683488D01*
X49903369Y-39716375D01*
X49897647Y-39721367D01*
X49897645Y-39721368D01*
X49786359Y-39818449D01*
X49721877Y-39848157D01*
X49703530Y-39849500D01*
X47995428Y-39849500D01*
X47927307Y-39829498D01*
X47911609Y-39817576D01*
X47808392Y-39725613D01*
X47808391Y-39725612D01*
X47802721Y-39720560D01*
X47770276Y-39703381D01*
X47715122Y-39674179D01*
X47652881Y-39641224D01*
X47488441Y-39599919D01*
X47480843Y-39599879D01*
X47480841Y-39599879D01*
X47403668Y-39599475D01*
X47318895Y-39599031D01*
X47311508Y-39600805D01*
X47311504Y-39600805D01*
X47168162Y-39635220D01*
X47154032Y-39638612D01*
X47147288Y-39642093D01*
X47147285Y-39642094D01*
X47067086Y-39683488D01*
X47003369Y-39716375D01*
X46997647Y-39721367D01*
X46997645Y-39721368D01*
X46886359Y-39818449D01*
X46821877Y-39848157D01*
X46803530Y-39849500D01*
X42995428Y-39849500D01*
X42927307Y-39829498D01*
X42911609Y-39817576D01*
X42808392Y-39725613D01*
X42808391Y-39725612D01*
X42802721Y-39720560D01*
X42770276Y-39703381D01*
X42715122Y-39674179D01*
X42652881Y-39641224D01*
X42488441Y-39599919D01*
X42480843Y-39599879D01*
X42480841Y-39599879D01*
X42403668Y-39599475D01*
X42318895Y-39599031D01*
X42311508Y-39600805D01*
X42311504Y-39600805D01*
X42168162Y-39635220D01*
X42154032Y-39638612D01*
X42147288Y-39642093D01*
X42147285Y-39642094D01*
X42067086Y-39683488D01*
X42003369Y-39716375D01*
X41997647Y-39721367D01*
X41997645Y-39721368D01*
X41886359Y-39818449D01*
X41821877Y-39848157D01*
X41803530Y-39849500D01*
X38595428Y-39849500D01*
X38527307Y-39829498D01*
X38511609Y-39817576D01*
X38408392Y-39725613D01*
X38408391Y-39725612D01*
X38402721Y-39720560D01*
X38370276Y-39703381D01*
X38315122Y-39674179D01*
X38252881Y-39641224D01*
X38088441Y-39599919D01*
X38080843Y-39599879D01*
X38080841Y-39599879D01*
X38003668Y-39599475D01*
X37918895Y-39599031D01*
X37911508Y-39600805D01*
X37911504Y-39600805D01*
X37768162Y-39635220D01*
X37754032Y-39638612D01*
X37747288Y-39642093D01*
X37747285Y-39642094D01*
X37667086Y-39683488D01*
X37603369Y-39716375D01*
X37597647Y-39721367D01*
X37597645Y-39721368D01*
X37486359Y-39818449D01*
X37421877Y-39848157D01*
X37403530Y-39849500D01*
X27177954Y-39849500D01*
X27109833Y-39829498D01*
X27063340Y-39775842D01*
X27053236Y-39705568D01*
X27071392Y-39656264D01*
X27151416Y-39529434D01*
X27151416Y-39529433D01*
X27154495Y-39524554D01*
X27232848Y-39328160D01*
X27233973Y-39322503D01*
X27233975Y-39322497D01*
X27272972Y-39126442D01*
X27272972Y-39126440D01*
X27274099Y-39120775D01*
X27274494Y-39090654D01*
X27276791Y-38915128D01*
X27276867Y-38909346D01*
X27241059Y-38700953D01*
X27167873Y-38502575D01*
X27059762Y-38320856D01*
X26920345Y-38161881D01*
X26754292Y-38030976D01*
X26650133Y-37976175D01*
X26599162Y-37926757D01*
X26582999Y-37857625D01*
X26606778Y-37790729D01*
X26657051Y-37749786D01*
X26782970Y-37693063D01*
X26792256Y-37687894D01*
X26974575Y-37565150D01*
X26982870Y-37558481D01*
X27141900Y-37406772D01*
X27148941Y-37398814D01*
X27280141Y-37222475D01*
X27285745Y-37213438D01*
X27332916Y-37120660D01*
X42787654Y-37120660D01*
X42791400Y-37158869D01*
X42792001Y-37171164D01*
X42792001Y-37469669D01*
X42792371Y-37476490D01*
X42797895Y-37527352D01*
X42801521Y-37542604D01*
X42846676Y-37663054D01*
X42855214Y-37678649D01*
X42931715Y-37780724D01*
X42944276Y-37793285D01*
X43046351Y-37869786D01*
X43061946Y-37878324D01*
X43182394Y-37923478D01*
X43197649Y-37927105D01*
X43248514Y-37932631D01*
X43255328Y-37933000D01*
X43537618Y-37933000D01*
X43554283Y-37934107D01*
X43575991Y-37937004D01*
X43589986Y-37937297D01*
X43631493Y-37933519D01*
X43642913Y-37933000D01*
X45137617Y-37933000D01*
X45154280Y-37934107D01*
X45175989Y-37937003D01*
X45189986Y-37937297D01*
X45231496Y-37933519D01*
X45242915Y-37933000D01*
X45727885Y-37933000D01*
X45743124Y-37928525D01*
X45744329Y-37927135D01*
X45746000Y-37919452D01*
X45746000Y-37914884D01*
X46254000Y-37914884D01*
X46258475Y-37930123D01*
X46259865Y-37931328D01*
X46267548Y-37932999D01*
X46737611Y-37932999D01*
X46754277Y-37934106D01*
X46775991Y-37937004D01*
X46789986Y-37937297D01*
X46831500Y-37933518D01*
X46842921Y-37932999D01*
X48337610Y-37932999D01*
X48354275Y-37934106D01*
X48375990Y-37937004D01*
X48389986Y-37937297D01*
X48431503Y-37933518D01*
X48442923Y-37932999D01*
X48744669Y-37932999D01*
X48751490Y-37932629D01*
X48802352Y-37927105D01*
X48817604Y-37923479D01*
X48938054Y-37878324D01*
X48953649Y-37869786D01*
X49055724Y-37793285D01*
X49068285Y-37780724D01*
X49144786Y-37678649D01*
X49153324Y-37663054D01*
X49198478Y-37542606D01*
X49202105Y-37527351D01*
X49207631Y-37476486D01*
X49208000Y-37469672D01*
X49208000Y-37190641D01*
X49209226Y-37173106D01*
X49212244Y-37151628D01*
X49212851Y-37143741D01*
X49213058Y-37128962D01*
X49212671Y-37121061D01*
X49212626Y-37120660D01*
X63487654Y-37120660D01*
X63491400Y-37158869D01*
X63492001Y-37171164D01*
X63492001Y-37469669D01*
X63492371Y-37476490D01*
X63497895Y-37527352D01*
X63501521Y-37542604D01*
X63546676Y-37663054D01*
X63555214Y-37678649D01*
X63631715Y-37780724D01*
X63644276Y-37793285D01*
X63746351Y-37869786D01*
X63761946Y-37878324D01*
X63882394Y-37923478D01*
X63897649Y-37927105D01*
X63948514Y-37932631D01*
X63955328Y-37933000D01*
X64237618Y-37933000D01*
X64254283Y-37934107D01*
X64275991Y-37937004D01*
X64289986Y-37937297D01*
X64331493Y-37933519D01*
X64342913Y-37933000D01*
X65837617Y-37933000D01*
X65854280Y-37934107D01*
X65875989Y-37937003D01*
X65889986Y-37937297D01*
X65931496Y-37933519D01*
X65942915Y-37933000D01*
X66427885Y-37933000D01*
X66443124Y-37928525D01*
X66444329Y-37927135D01*
X66446000Y-37919452D01*
X66446000Y-37914884D01*
X66954000Y-37914884D01*
X66958475Y-37930123D01*
X66959865Y-37931328D01*
X66967548Y-37932999D01*
X67437611Y-37932999D01*
X67454277Y-37934106D01*
X67475991Y-37937004D01*
X67489986Y-37937297D01*
X67531500Y-37933518D01*
X67542921Y-37932999D01*
X69037610Y-37932999D01*
X69054275Y-37934106D01*
X69075990Y-37937004D01*
X69089986Y-37937297D01*
X69131503Y-37933518D01*
X69142923Y-37932999D01*
X69444669Y-37932999D01*
X69451490Y-37932629D01*
X69502352Y-37927105D01*
X69517604Y-37923479D01*
X69638054Y-37878324D01*
X69653649Y-37869786D01*
X69755724Y-37793285D01*
X69768285Y-37780724D01*
X69844786Y-37678649D01*
X69853324Y-37663054D01*
X69898478Y-37542606D01*
X69902105Y-37527351D01*
X69907631Y-37476486D01*
X69908000Y-37469672D01*
X69908000Y-37190641D01*
X69909226Y-37173106D01*
X69912244Y-37151628D01*
X69912851Y-37143741D01*
X69913058Y-37128962D01*
X69912671Y-37121061D01*
X69912626Y-37120660D01*
X84487654Y-37120660D01*
X84491400Y-37158869D01*
X84492001Y-37171164D01*
X84492001Y-37469669D01*
X84492371Y-37476490D01*
X84497895Y-37527352D01*
X84501521Y-37542604D01*
X84546676Y-37663054D01*
X84555214Y-37678649D01*
X84631715Y-37780724D01*
X84644276Y-37793285D01*
X84746351Y-37869786D01*
X84761946Y-37878324D01*
X84882394Y-37923478D01*
X84897649Y-37927105D01*
X84948514Y-37932631D01*
X84955328Y-37933000D01*
X85237618Y-37933000D01*
X85254283Y-37934107D01*
X85275991Y-37937004D01*
X85289986Y-37937297D01*
X85331493Y-37933519D01*
X85342913Y-37933000D01*
X86837617Y-37933000D01*
X86854280Y-37934107D01*
X86875989Y-37937003D01*
X86889986Y-37937297D01*
X86931496Y-37933519D01*
X86942915Y-37933000D01*
X87427885Y-37933000D01*
X87443124Y-37928525D01*
X87444329Y-37927135D01*
X87446000Y-37919452D01*
X87446000Y-37914884D01*
X87954000Y-37914884D01*
X87958475Y-37930123D01*
X87959865Y-37931328D01*
X87967548Y-37932999D01*
X88437611Y-37932999D01*
X88454277Y-37934106D01*
X88475991Y-37937004D01*
X88489986Y-37937297D01*
X88531500Y-37933518D01*
X88542921Y-37932999D01*
X90037610Y-37932999D01*
X90054275Y-37934106D01*
X90075990Y-37937004D01*
X90089986Y-37937297D01*
X90131503Y-37933518D01*
X90142923Y-37932999D01*
X90444669Y-37932999D01*
X90451490Y-37932629D01*
X90502352Y-37927105D01*
X90517604Y-37923479D01*
X90638054Y-37878324D01*
X90653649Y-37869786D01*
X90755724Y-37793285D01*
X90768285Y-37780724D01*
X90844786Y-37678649D01*
X90853324Y-37663054D01*
X90898478Y-37542606D01*
X90902105Y-37527351D01*
X90907631Y-37476486D01*
X90908000Y-37469672D01*
X90908000Y-37190641D01*
X90909226Y-37173106D01*
X90912244Y-37151628D01*
X90912851Y-37143741D01*
X90913058Y-37128962D01*
X90912671Y-37121061D01*
X90912626Y-37120660D01*
X105487654Y-37120660D01*
X105491400Y-37158869D01*
X105492001Y-37171164D01*
X105492001Y-37469669D01*
X105492371Y-37476490D01*
X105497895Y-37527352D01*
X105501521Y-37542604D01*
X105546676Y-37663054D01*
X105555214Y-37678649D01*
X105631715Y-37780724D01*
X105644276Y-37793285D01*
X105746351Y-37869786D01*
X105761946Y-37878324D01*
X105882394Y-37923478D01*
X105897649Y-37927105D01*
X105948514Y-37932631D01*
X105955328Y-37933000D01*
X106237618Y-37933000D01*
X106254283Y-37934107D01*
X106275991Y-37937004D01*
X106289986Y-37937297D01*
X106331493Y-37933519D01*
X106342913Y-37933000D01*
X107837617Y-37933000D01*
X107854280Y-37934107D01*
X107875989Y-37937003D01*
X107889986Y-37937297D01*
X107931496Y-37933519D01*
X107942915Y-37933000D01*
X108427885Y-37933000D01*
X108443124Y-37928525D01*
X108444329Y-37927135D01*
X108446000Y-37919452D01*
X108446000Y-37914884D01*
X108954000Y-37914884D01*
X108958475Y-37930123D01*
X108959865Y-37931328D01*
X108967548Y-37932999D01*
X109437611Y-37932999D01*
X109454277Y-37934106D01*
X109475991Y-37937004D01*
X109489986Y-37937297D01*
X109531500Y-37933518D01*
X109542921Y-37932999D01*
X111037610Y-37932999D01*
X111054275Y-37934106D01*
X111075990Y-37937004D01*
X111089986Y-37937297D01*
X111131503Y-37933518D01*
X111142923Y-37932999D01*
X111444669Y-37932999D01*
X111451490Y-37932629D01*
X111502352Y-37927105D01*
X111517604Y-37923479D01*
X111638054Y-37878324D01*
X111653649Y-37869786D01*
X111755724Y-37793285D01*
X111768285Y-37780724D01*
X111844786Y-37678649D01*
X111853324Y-37663054D01*
X111898478Y-37542606D01*
X111902105Y-37527351D01*
X111907631Y-37476486D01*
X111908000Y-37469672D01*
X111908000Y-37190641D01*
X111909226Y-37173106D01*
X111912244Y-37151628D01*
X111912851Y-37143741D01*
X111913058Y-37128962D01*
X111912671Y-37121061D01*
X111908785Y-37086414D01*
X111908000Y-37072369D01*
X111908000Y-36272115D01*
X111903525Y-36256876D01*
X111902135Y-36255671D01*
X111894452Y-36254000D01*
X108972115Y-36254000D01*
X108956876Y-36258475D01*
X108955671Y-36259865D01*
X108954000Y-36267548D01*
X108954000Y-36453631D01*
X108957237Y-36464656D01*
X108964328Y-36461418D01*
X108990885Y-36434862D01*
X109053197Y-36400838D01*
X109124013Y-36405904D01*
X109169074Y-36434864D01*
X109770115Y-37035905D01*
X109804141Y-37098217D01*
X109799076Y-37169032D01*
X109770115Y-37214095D01*
X109500000Y-37484210D01*
X109169074Y-37815137D01*
X109106762Y-37849163D01*
X109035947Y-37844098D01*
X108990884Y-37815137D01*
X108966810Y-37791063D01*
X108956724Y-37785556D01*
X108954000Y-37792860D01*
X108954000Y-37914884D01*
X108446000Y-37914884D01*
X108446000Y-37796369D01*
X108442763Y-37785344D01*
X108435672Y-37788582D01*
X108409115Y-37815138D01*
X108346803Y-37849162D01*
X108275987Y-37844096D01*
X108230926Y-37815136D01*
X107629885Y-37214095D01*
X107595859Y-37151783D01*
X107597694Y-37126130D01*
X108264408Y-37126130D01*
X108264539Y-37127966D01*
X108268789Y-37134579D01*
X108433192Y-37298981D01*
X108443276Y-37304487D01*
X108446000Y-37297183D01*
X108446000Y-37293674D01*
X108954000Y-37293674D01*
X108957237Y-37304699D01*
X108964328Y-37301461D01*
X109127981Y-37137808D01*
X109135592Y-37123870D01*
X109135461Y-37122034D01*
X109131211Y-37115421D01*
X108966808Y-36951019D01*
X108956724Y-36945513D01*
X108954000Y-36952817D01*
X108954000Y-37293674D01*
X108446000Y-37293674D01*
X108446000Y-36956326D01*
X108442763Y-36945301D01*
X108435672Y-36948539D01*
X108272019Y-37112192D01*
X108264408Y-37126130D01*
X107597694Y-37126130D01*
X107600924Y-37080968D01*
X107629885Y-37035905D01*
X107900000Y-36765790D01*
X108230926Y-36434863D01*
X108293238Y-36400837D01*
X108364053Y-36405902D01*
X108409116Y-36434863D01*
X108433190Y-36458937D01*
X108443276Y-36464444D01*
X108446000Y-36457140D01*
X108446000Y-36272115D01*
X108441525Y-36256876D01*
X108440135Y-36255671D01*
X108432452Y-36254000D01*
X105510116Y-36254000D01*
X105494877Y-36258475D01*
X105493672Y-36259865D01*
X105492001Y-36267548D01*
X105492001Y-37065868D01*
X105491007Y-37081661D01*
X105487850Y-37106653D01*
X105487654Y-37120660D01*
X90912626Y-37120660D01*
X90908785Y-37086414D01*
X90908000Y-37072369D01*
X90908000Y-36272115D01*
X90903525Y-36256876D01*
X90902135Y-36255671D01*
X90894452Y-36254000D01*
X87972115Y-36254000D01*
X87956876Y-36258475D01*
X87955671Y-36259865D01*
X87954000Y-36267548D01*
X87954000Y-36453631D01*
X87957237Y-36464656D01*
X87964328Y-36461418D01*
X87990885Y-36434862D01*
X88053197Y-36400838D01*
X88124013Y-36405904D01*
X88169074Y-36434864D01*
X88770115Y-37035905D01*
X88804141Y-37098217D01*
X88799076Y-37169032D01*
X88770115Y-37214095D01*
X88500000Y-37484210D01*
X88169074Y-37815137D01*
X88106762Y-37849163D01*
X88035947Y-37844098D01*
X87990884Y-37815137D01*
X87966810Y-37791063D01*
X87956724Y-37785556D01*
X87954000Y-37792860D01*
X87954000Y-37914884D01*
X87446000Y-37914884D01*
X87446000Y-37796369D01*
X87442763Y-37785344D01*
X87435672Y-37788582D01*
X87409115Y-37815138D01*
X87346803Y-37849162D01*
X87275987Y-37844096D01*
X87230926Y-37815136D01*
X86629885Y-37214095D01*
X86595859Y-37151783D01*
X86597694Y-37126130D01*
X87264408Y-37126130D01*
X87264539Y-37127966D01*
X87268789Y-37134579D01*
X87433192Y-37298981D01*
X87443276Y-37304487D01*
X87446000Y-37297183D01*
X87446000Y-37293674D01*
X87954000Y-37293674D01*
X87957237Y-37304699D01*
X87964328Y-37301461D01*
X88127981Y-37137808D01*
X88135592Y-37123870D01*
X88135461Y-37122034D01*
X88131211Y-37115421D01*
X87966808Y-36951019D01*
X87956724Y-36945513D01*
X87954000Y-36952817D01*
X87954000Y-37293674D01*
X87446000Y-37293674D01*
X87446000Y-36956326D01*
X87442763Y-36945301D01*
X87435672Y-36948539D01*
X87272019Y-37112192D01*
X87264408Y-37126130D01*
X86597694Y-37126130D01*
X86600924Y-37080968D01*
X86629885Y-37035905D01*
X86900000Y-36765790D01*
X87230926Y-36434863D01*
X87293238Y-36400837D01*
X87364053Y-36405902D01*
X87409116Y-36434863D01*
X87433190Y-36458937D01*
X87443276Y-36464444D01*
X87446000Y-36457140D01*
X87446000Y-36272115D01*
X87441525Y-36256876D01*
X87440135Y-36255671D01*
X87432452Y-36254000D01*
X84510116Y-36254000D01*
X84494877Y-36258475D01*
X84493672Y-36259865D01*
X84492001Y-36267548D01*
X84492001Y-37065868D01*
X84491007Y-37081661D01*
X84487850Y-37106653D01*
X84487654Y-37120660D01*
X69912626Y-37120660D01*
X69908785Y-37086414D01*
X69908000Y-37072369D01*
X69908000Y-36272115D01*
X69903525Y-36256876D01*
X69902135Y-36255671D01*
X69894452Y-36254000D01*
X66972115Y-36254000D01*
X66956876Y-36258475D01*
X66955671Y-36259865D01*
X66954000Y-36267548D01*
X66954000Y-36453631D01*
X66957237Y-36464656D01*
X66964328Y-36461418D01*
X66990885Y-36434862D01*
X67053197Y-36400838D01*
X67124013Y-36405904D01*
X67169074Y-36434864D01*
X67770115Y-37035905D01*
X67804141Y-37098217D01*
X67799076Y-37169032D01*
X67770115Y-37214095D01*
X67500000Y-37484210D01*
X67169074Y-37815137D01*
X67106762Y-37849163D01*
X67035947Y-37844098D01*
X66990884Y-37815137D01*
X66966810Y-37791063D01*
X66956724Y-37785556D01*
X66954000Y-37792860D01*
X66954000Y-37914884D01*
X66446000Y-37914884D01*
X66446000Y-37796369D01*
X66442763Y-37785344D01*
X66435672Y-37788582D01*
X66409115Y-37815138D01*
X66346803Y-37849162D01*
X66275987Y-37844096D01*
X66230926Y-37815136D01*
X65629885Y-37214095D01*
X65595859Y-37151783D01*
X65597694Y-37126130D01*
X66264408Y-37126130D01*
X66264539Y-37127966D01*
X66268789Y-37134579D01*
X66433192Y-37298981D01*
X66443276Y-37304487D01*
X66446000Y-37297183D01*
X66446000Y-37293674D01*
X66954000Y-37293674D01*
X66957237Y-37304699D01*
X66964328Y-37301461D01*
X67127981Y-37137808D01*
X67135592Y-37123870D01*
X67135461Y-37122034D01*
X67131211Y-37115421D01*
X66966808Y-36951019D01*
X66956724Y-36945513D01*
X66954000Y-36952817D01*
X66954000Y-37293674D01*
X66446000Y-37293674D01*
X66446000Y-36956326D01*
X66442763Y-36945301D01*
X66435672Y-36948539D01*
X66272019Y-37112192D01*
X66264408Y-37126130D01*
X65597694Y-37126130D01*
X65600924Y-37080968D01*
X65629885Y-37035905D01*
X65900000Y-36765790D01*
X66230926Y-36434863D01*
X66293238Y-36400837D01*
X66364053Y-36405902D01*
X66409116Y-36434863D01*
X66433190Y-36458937D01*
X66443276Y-36464444D01*
X66446000Y-36457140D01*
X66446000Y-36272115D01*
X66441525Y-36256876D01*
X66440135Y-36255671D01*
X66432452Y-36254000D01*
X63510116Y-36254000D01*
X63494877Y-36258475D01*
X63493672Y-36259865D01*
X63492001Y-36267548D01*
X63492001Y-37065868D01*
X63491007Y-37081661D01*
X63487850Y-37106653D01*
X63487654Y-37120660D01*
X49212626Y-37120660D01*
X49208785Y-37086414D01*
X49208000Y-37072369D01*
X49208000Y-36272115D01*
X49203525Y-36256876D01*
X49202135Y-36255671D01*
X49194452Y-36254000D01*
X46272115Y-36254000D01*
X46256876Y-36258475D01*
X46255671Y-36259865D01*
X46254000Y-36267548D01*
X46254000Y-36453631D01*
X46257237Y-36464656D01*
X46264328Y-36461418D01*
X46290885Y-36434862D01*
X46353197Y-36400838D01*
X46424013Y-36405904D01*
X46469074Y-36434864D01*
X47070115Y-37035905D01*
X47104141Y-37098217D01*
X47099076Y-37169032D01*
X47070115Y-37214095D01*
X46800000Y-37484210D01*
X46469074Y-37815137D01*
X46406762Y-37849163D01*
X46335947Y-37844098D01*
X46290884Y-37815137D01*
X46266810Y-37791063D01*
X46256724Y-37785556D01*
X46254000Y-37792860D01*
X46254000Y-37914884D01*
X45746000Y-37914884D01*
X45746000Y-37796369D01*
X45742763Y-37785344D01*
X45735672Y-37788582D01*
X45709115Y-37815138D01*
X45646803Y-37849162D01*
X45575987Y-37844096D01*
X45530926Y-37815136D01*
X44929885Y-37214095D01*
X44895859Y-37151783D01*
X44897694Y-37126130D01*
X45564408Y-37126130D01*
X45564539Y-37127966D01*
X45568789Y-37134579D01*
X45733192Y-37298981D01*
X45743276Y-37304487D01*
X45746000Y-37297183D01*
X45746000Y-37293674D01*
X46254000Y-37293674D01*
X46257237Y-37304699D01*
X46264328Y-37301461D01*
X46427981Y-37137808D01*
X46435592Y-37123870D01*
X46435461Y-37122034D01*
X46431211Y-37115421D01*
X46266808Y-36951019D01*
X46256724Y-36945513D01*
X46254000Y-36952817D01*
X46254000Y-37293674D01*
X45746000Y-37293674D01*
X45746000Y-36956326D01*
X45742763Y-36945301D01*
X45735672Y-36948539D01*
X45572019Y-37112192D01*
X45564408Y-37126130D01*
X44897694Y-37126130D01*
X44900924Y-37080968D01*
X44929885Y-37035905D01*
X45200000Y-36765790D01*
X45530926Y-36434863D01*
X45593238Y-36400837D01*
X45664053Y-36405902D01*
X45709116Y-36434863D01*
X45733190Y-36458937D01*
X45743276Y-36464444D01*
X45746000Y-36457140D01*
X45746000Y-36272115D01*
X45741525Y-36256876D01*
X45740135Y-36255671D01*
X45732452Y-36254000D01*
X42810116Y-36254000D01*
X42794877Y-36258475D01*
X42793672Y-36259865D01*
X42792001Y-36267548D01*
X42792001Y-37065868D01*
X42791007Y-37081661D01*
X42787850Y-37106653D01*
X42787654Y-37120660D01*
X27332916Y-37120660D01*
X27385357Y-37017516D01*
X27389357Y-37007665D01*
X27454534Y-36797760D01*
X27456817Y-36787376D01*
X27458861Y-36771957D01*
X27456665Y-36757793D01*
X27443478Y-36754000D01*
X24558808Y-36754000D01*
X24545277Y-36757973D01*
X24543752Y-36768580D01*
X20300500Y-36768580D01*
X20300500Y-36228043D01*
X24541139Y-36228043D01*
X24543335Y-36242207D01*
X24556522Y-36246000D01*
X27441192Y-36246000D01*
X27454723Y-36242027D01*
X27456248Y-36231420D01*
X27431523Y-36113579D01*
X27428463Y-36103383D01*
X27347737Y-35898971D01*
X27343006Y-35889439D01*
X27228984Y-35701538D01*
X27222720Y-35692948D01*
X27078673Y-35526948D01*
X27071042Y-35519528D01*
X26901089Y-35380174D01*
X26892327Y-35374152D01*
X26863372Y-35357671D01*
X26814065Y-35306589D01*
X26800203Y-35236959D01*
X26826185Y-35170888D01*
X26879319Y-35131016D01*
X26897025Y-35124006D01*
X26997783Y-35084113D01*
X27117922Y-34992922D01*
X27209113Y-34872783D01*
X27209954Y-34870660D01*
X42787654Y-34870660D01*
X42791399Y-34908860D01*
X42792000Y-34921155D01*
X42792000Y-35727885D01*
X42796475Y-35743124D01*
X42797865Y-35744329D01*
X42805548Y-35746000D01*
X45727885Y-35746000D01*
X45743124Y-35741525D01*
X45744329Y-35740135D01*
X45746000Y-35732452D01*
X45746000Y-35727885D01*
X46254000Y-35727885D01*
X46258475Y-35743124D01*
X46259865Y-35744329D01*
X46267548Y-35746000D01*
X49189884Y-35746000D01*
X49205123Y-35741525D01*
X49206328Y-35740135D01*
X49207999Y-35732452D01*
X49207999Y-34940648D01*
X49209225Y-34923112D01*
X49212245Y-34901626D01*
X49212851Y-34893742D01*
X49213058Y-34878962D01*
X49212671Y-34871061D01*
X49212626Y-34870660D01*
X63487654Y-34870660D01*
X63491399Y-34908860D01*
X63492000Y-34921155D01*
X63492000Y-35727885D01*
X63496475Y-35743124D01*
X63497865Y-35744329D01*
X63505548Y-35746000D01*
X66427885Y-35746000D01*
X66443124Y-35741525D01*
X66444329Y-35740135D01*
X66446000Y-35732452D01*
X66446000Y-35727885D01*
X66954000Y-35727885D01*
X66958475Y-35743124D01*
X66959865Y-35744329D01*
X66967548Y-35746000D01*
X69889884Y-35746000D01*
X69905123Y-35741525D01*
X69906328Y-35740135D01*
X69907999Y-35732452D01*
X69907999Y-34940648D01*
X69909225Y-34923112D01*
X69912245Y-34901626D01*
X69912851Y-34893742D01*
X69913058Y-34878962D01*
X69912671Y-34871061D01*
X69912626Y-34870660D01*
X84487654Y-34870660D01*
X84491399Y-34908860D01*
X84492000Y-34921155D01*
X84492000Y-35727885D01*
X84496475Y-35743124D01*
X84497865Y-35744329D01*
X84505548Y-35746000D01*
X87427885Y-35746000D01*
X87443124Y-35741525D01*
X87444329Y-35740135D01*
X87446000Y-35732452D01*
X87446000Y-35727885D01*
X87954000Y-35727885D01*
X87958475Y-35743124D01*
X87959865Y-35744329D01*
X87967548Y-35746000D01*
X90889884Y-35746000D01*
X90905123Y-35741525D01*
X90906328Y-35740135D01*
X90907999Y-35732452D01*
X90907999Y-34940648D01*
X90909225Y-34923112D01*
X90912245Y-34901626D01*
X90912851Y-34893742D01*
X90913058Y-34878962D01*
X90912671Y-34871061D01*
X90912626Y-34870660D01*
X105487654Y-34870660D01*
X105491399Y-34908860D01*
X105492000Y-34921155D01*
X105492000Y-35727885D01*
X105496475Y-35743124D01*
X105497865Y-35744329D01*
X105505548Y-35746000D01*
X108427885Y-35746000D01*
X108443124Y-35741525D01*
X108444329Y-35740135D01*
X108446000Y-35732452D01*
X108446000Y-35727885D01*
X108954000Y-35727885D01*
X108958475Y-35743124D01*
X108959865Y-35744329D01*
X108967548Y-35746000D01*
X111889884Y-35746000D01*
X111905123Y-35741525D01*
X111906328Y-35740135D01*
X111907999Y-35732452D01*
X111907999Y-34940648D01*
X111909225Y-34923112D01*
X111912245Y-34901626D01*
X111912851Y-34893742D01*
X111913058Y-34878962D01*
X111912671Y-34871061D01*
X111908784Y-34836406D01*
X111907999Y-34822361D01*
X111907999Y-34530331D01*
X111907629Y-34523510D01*
X111902105Y-34472648D01*
X111898479Y-34457396D01*
X111853324Y-34336946D01*
X111844786Y-34321351D01*
X111768285Y-34219276D01*
X111755724Y-34206715D01*
X111653649Y-34130214D01*
X111638054Y-34121676D01*
X111517606Y-34076522D01*
X111502351Y-34072895D01*
X111451486Y-34067369D01*
X111444672Y-34067000D01*
X111155877Y-34067000D01*
X111140959Y-34066114D01*
X111112670Y-34062741D01*
X111098673Y-34062643D01*
X111063784Y-34066310D01*
X111050614Y-34067000D01*
X109555879Y-34067000D01*
X109540961Y-34066114D01*
X109512670Y-34062741D01*
X109498672Y-34062643D01*
X109463781Y-34066310D01*
X109450612Y-34067000D01*
X108972115Y-34067000D01*
X108956876Y-34071475D01*
X108955671Y-34072865D01*
X108954000Y-34080548D01*
X108954000Y-34203631D01*
X108957237Y-34214656D01*
X108964328Y-34211418D01*
X108990885Y-34184862D01*
X109053197Y-34150838D01*
X109124013Y-34155904D01*
X109169074Y-34184864D01*
X109770115Y-34785905D01*
X109804141Y-34848217D01*
X109799076Y-34919032D01*
X109770115Y-34964095D01*
X109500000Y-35234210D01*
X109169074Y-35565137D01*
X109106762Y-35599163D01*
X109035947Y-35594098D01*
X108990884Y-35565137D01*
X108966810Y-35541063D01*
X108956724Y-35535556D01*
X108954000Y-35542860D01*
X108954000Y-35727885D01*
X108446000Y-35727885D01*
X108446000Y-35546369D01*
X108442763Y-35535344D01*
X108435672Y-35538582D01*
X108409115Y-35565138D01*
X108346803Y-35599162D01*
X108275987Y-35594096D01*
X108230926Y-35565136D01*
X107629885Y-34964095D01*
X107595859Y-34901783D01*
X107597694Y-34876130D01*
X108264408Y-34876130D01*
X108264539Y-34877966D01*
X108268789Y-34884579D01*
X108433192Y-35048981D01*
X108443276Y-35054487D01*
X108446000Y-35047183D01*
X108446000Y-35043674D01*
X108954000Y-35043674D01*
X108957237Y-35054699D01*
X108964328Y-35051461D01*
X109127981Y-34887808D01*
X109135592Y-34873870D01*
X109135461Y-34872034D01*
X109131211Y-34865421D01*
X108966808Y-34701019D01*
X108956724Y-34695513D01*
X108954000Y-34702817D01*
X108954000Y-35043674D01*
X108446000Y-35043674D01*
X108446000Y-34706326D01*
X108442763Y-34695301D01*
X108435672Y-34698539D01*
X108272019Y-34862192D01*
X108264408Y-34876130D01*
X107597694Y-34876130D01*
X107600924Y-34830968D01*
X107629885Y-34785905D01*
X107900000Y-34515790D01*
X108230926Y-34184863D01*
X108293238Y-34150837D01*
X108364053Y-34155902D01*
X108409116Y-34184863D01*
X108433190Y-34208937D01*
X108443276Y-34214444D01*
X108446000Y-34207140D01*
X108446000Y-34085116D01*
X108441525Y-34069877D01*
X108440135Y-34068672D01*
X108432452Y-34067001D01*
X107955884Y-34067001D01*
X107940964Y-34066115D01*
X107912669Y-34062741D01*
X107898673Y-34062643D01*
X107863778Y-34066311D01*
X107850607Y-34067001D01*
X106355886Y-34067001D01*
X106340967Y-34066115D01*
X106312670Y-34062741D01*
X106298673Y-34062643D01*
X106263776Y-34066311D01*
X106250605Y-34067001D01*
X105955331Y-34067001D01*
X105948510Y-34067371D01*
X105897648Y-34072895D01*
X105882396Y-34076521D01*
X105761946Y-34121676D01*
X105746351Y-34130214D01*
X105644276Y-34206715D01*
X105631715Y-34219276D01*
X105555214Y-34321351D01*
X105546676Y-34336946D01*
X105501522Y-34457394D01*
X105497895Y-34472649D01*
X105492369Y-34523514D01*
X105492000Y-34530328D01*
X105492000Y-34815875D01*
X105491006Y-34831667D01*
X105487850Y-34856653D01*
X105487654Y-34870660D01*
X90912626Y-34870660D01*
X90908784Y-34836406D01*
X90907999Y-34822361D01*
X90907999Y-34530331D01*
X90907629Y-34523510D01*
X90902105Y-34472648D01*
X90898479Y-34457396D01*
X90853324Y-34336946D01*
X90844786Y-34321351D01*
X90768285Y-34219276D01*
X90755724Y-34206715D01*
X90653649Y-34130214D01*
X90638054Y-34121676D01*
X90517606Y-34076522D01*
X90502351Y-34072895D01*
X90451486Y-34067369D01*
X90444672Y-34067000D01*
X90155877Y-34067000D01*
X90140959Y-34066114D01*
X90112670Y-34062741D01*
X90098673Y-34062643D01*
X90063784Y-34066310D01*
X90050614Y-34067000D01*
X88555879Y-34067000D01*
X88540961Y-34066114D01*
X88512670Y-34062741D01*
X88498672Y-34062643D01*
X88463781Y-34066310D01*
X88450612Y-34067000D01*
X87972115Y-34067000D01*
X87956876Y-34071475D01*
X87955671Y-34072865D01*
X87954000Y-34080548D01*
X87954000Y-34203631D01*
X87957237Y-34214656D01*
X87964328Y-34211418D01*
X87990885Y-34184862D01*
X88053197Y-34150838D01*
X88124013Y-34155904D01*
X88169074Y-34184864D01*
X88770115Y-34785905D01*
X88804141Y-34848217D01*
X88799076Y-34919032D01*
X88770115Y-34964095D01*
X88500000Y-35234210D01*
X88169074Y-35565137D01*
X88106762Y-35599163D01*
X88035947Y-35594098D01*
X87990884Y-35565137D01*
X87966810Y-35541063D01*
X87956724Y-35535556D01*
X87954000Y-35542860D01*
X87954000Y-35727885D01*
X87446000Y-35727885D01*
X87446000Y-35546369D01*
X87442763Y-35535344D01*
X87435672Y-35538582D01*
X87409115Y-35565138D01*
X87346803Y-35599162D01*
X87275987Y-35594096D01*
X87230926Y-35565136D01*
X86629885Y-34964095D01*
X86595859Y-34901783D01*
X86597694Y-34876130D01*
X87264408Y-34876130D01*
X87264539Y-34877966D01*
X87268789Y-34884579D01*
X87433192Y-35048981D01*
X87443276Y-35054487D01*
X87446000Y-35047183D01*
X87446000Y-35043674D01*
X87954000Y-35043674D01*
X87957237Y-35054699D01*
X87964328Y-35051461D01*
X88127981Y-34887808D01*
X88135592Y-34873870D01*
X88135461Y-34872034D01*
X88131211Y-34865421D01*
X87966808Y-34701019D01*
X87956724Y-34695513D01*
X87954000Y-34702817D01*
X87954000Y-35043674D01*
X87446000Y-35043674D01*
X87446000Y-34706326D01*
X87442763Y-34695301D01*
X87435672Y-34698539D01*
X87272019Y-34862192D01*
X87264408Y-34876130D01*
X86597694Y-34876130D01*
X86600924Y-34830968D01*
X86629885Y-34785905D01*
X86900000Y-34515790D01*
X87230926Y-34184863D01*
X87293238Y-34150837D01*
X87364053Y-34155902D01*
X87409116Y-34184863D01*
X87433190Y-34208937D01*
X87443276Y-34214444D01*
X87446000Y-34207140D01*
X87446000Y-34085116D01*
X87441525Y-34069877D01*
X87440135Y-34068672D01*
X87432452Y-34067001D01*
X86955884Y-34067001D01*
X86940964Y-34066115D01*
X86912669Y-34062741D01*
X86898673Y-34062643D01*
X86863778Y-34066311D01*
X86850607Y-34067001D01*
X85355886Y-34067001D01*
X85340967Y-34066115D01*
X85312670Y-34062741D01*
X85298673Y-34062643D01*
X85263776Y-34066311D01*
X85250605Y-34067001D01*
X84955331Y-34067001D01*
X84948510Y-34067371D01*
X84897648Y-34072895D01*
X84882396Y-34076521D01*
X84761946Y-34121676D01*
X84746351Y-34130214D01*
X84644276Y-34206715D01*
X84631715Y-34219276D01*
X84555214Y-34321351D01*
X84546676Y-34336946D01*
X84501522Y-34457394D01*
X84497895Y-34472649D01*
X84492369Y-34523514D01*
X84492000Y-34530328D01*
X84492000Y-34815875D01*
X84491006Y-34831667D01*
X84487850Y-34856653D01*
X84487654Y-34870660D01*
X69912626Y-34870660D01*
X69908784Y-34836406D01*
X69907999Y-34822361D01*
X69907999Y-34530331D01*
X69907629Y-34523510D01*
X69902105Y-34472648D01*
X69898479Y-34457396D01*
X69853324Y-34336946D01*
X69844786Y-34321351D01*
X69768285Y-34219276D01*
X69755724Y-34206715D01*
X69653649Y-34130214D01*
X69638054Y-34121676D01*
X69517606Y-34076522D01*
X69502351Y-34072895D01*
X69451486Y-34067369D01*
X69444672Y-34067000D01*
X69155877Y-34067000D01*
X69140959Y-34066114D01*
X69112670Y-34062741D01*
X69098673Y-34062643D01*
X69063784Y-34066310D01*
X69050614Y-34067000D01*
X67555879Y-34067000D01*
X67540961Y-34066114D01*
X67512670Y-34062741D01*
X67498672Y-34062643D01*
X67463781Y-34066310D01*
X67450612Y-34067000D01*
X66972115Y-34067000D01*
X66956876Y-34071475D01*
X66955671Y-34072865D01*
X66954000Y-34080548D01*
X66954000Y-34203631D01*
X66957237Y-34214656D01*
X66964328Y-34211418D01*
X66990885Y-34184862D01*
X67053197Y-34150838D01*
X67124013Y-34155904D01*
X67169074Y-34184864D01*
X67770115Y-34785905D01*
X67804141Y-34848217D01*
X67799076Y-34919032D01*
X67770115Y-34964095D01*
X67500000Y-35234210D01*
X67169074Y-35565137D01*
X67106762Y-35599163D01*
X67035947Y-35594098D01*
X66990884Y-35565137D01*
X66966810Y-35541063D01*
X66956724Y-35535556D01*
X66954000Y-35542860D01*
X66954000Y-35727885D01*
X66446000Y-35727885D01*
X66446000Y-35546369D01*
X66442763Y-35535344D01*
X66435672Y-35538582D01*
X66409115Y-35565138D01*
X66346803Y-35599162D01*
X66275987Y-35594096D01*
X66230926Y-35565136D01*
X65629885Y-34964095D01*
X65595859Y-34901783D01*
X65597694Y-34876130D01*
X66264408Y-34876130D01*
X66264539Y-34877966D01*
X66268789Y-34884579D01*
X66433192Y-35048981D01*
X66443276Y-35054487D01*
X66446000Y-35047183D01*
X66446000Y-35043674D01*
X66954000Y-35043674D01*
X66957237Y-35054699D01*
X66964328Y-35051461D01*
X67127981Y-34887808D01*
X67135592Y-34873870D01*
X67135461Y-34872034D01*
X67131211Y-34865421D01*
X66966808Y-34701019D01*
X66956724Y-34695513D01*
X66954000Y-34702817D01*
X66954000Y-35043674D01*
X66446000Y-35043674D01*
X66446000Y-34706326D01*
X66442763Y-34695301D01*
X66435672Y-34698539D01*
X66272019Y-34862192D01*
X66264408Y-34876130D01*
X65597694Y-34876130D01*
X65600924Y-34830968D01*
X65629885Y-34785905D01*
X65900000Y-34515790D01*
X66230926Y-34184863D01*
X66293238Y-34150837D01*
X66364053Y-34155902D01*
X66409116Y-34184863D01*
X66433190Y-34208937D01*
X66443276Y-34214444D01*
X66446000Y-34207140D01*
X66446000Y-34085116D01*
X66441525Y-34069877D01*
X66440135Y-34068672D01*
X66432452Y-34067001D01*
X65955884Y-34067001D01*
X65940964Y-34066115D01*
X65912669Y-34062741D01*
X65898673Y-34062643D01*
X65863778Y-34066311D01*
X65850607Y-34067001D01*
X64355886Y-34067001D01*
X64340967Y-34066115D01*
X64312670Y-34062741D01*
X64298673Y-34062643D01*
X64263776Y-34066311D01*
X64250605Y-34067001D01*
X63955331Y-34067001D01*
X63948510Y-34067371D01*
X63897648Y-34072895D01*
X63882396Y-34076521D01*
X63761946Y-34121676D01*
X63746351Y-34130214D01*
X63644276Y-34206715D01*
X63631715Y-34219276D01*
X63555214Y-34321351D01*
X63546676Y-34336946D01*
X63501522Y-34457394D01*
X63497895Y-34472649D01*
X63492369Y-34523514D01*
X63492000Y-34530328D01*
X63492000Y-34815875D01*
X63491006Y-34831667D01*
X63487850Y-34856653D01*
X63487654Y-34870660D01*
X49212626Y-34870660D01*
X49208784Y-34836406D01*
X49207999Y-34822361D01*
X49207999Y-34530331D01*
X49207629Y-34523510D01*
X49202105Y-34472648D01*
X49198479Y-34457396D01*
X49153324Y-34336946D01*
X49144786Y-34321351D01*
X49068285Y-34219276D01*
X49055724Y-34206715D01*
X48953649Y-34130214D01*
X48938054Y-34121676D01*
X48817606Y-34076522D01*
X48802351Y-34072895D01*
X48751486Y-34067369D01*
X48744672Y-34067000D01*
X48455877Y-34067000D01*
X48440959Y-34066114D01*
X48412670Y-34062741D01*
X48398673Y-34062643D01*
X48363784Y-34066310D01*
X48350614Y-34067000D01*
X46855879Y-34067000D01*
X46840961Y-34066114D01*
X46812670Y-34062741D01*
X46798672Y-34062643D01*
X46763781Y-34066310D01*
X46750612Y-34067000D01*
X46272115Y-34067000D01*
X46256876Y-34071475D01*
X46255671Y-34072865D01*
X46254000Y-34080548D01*
X46254000Y-34203631D01*
X46257237Y-34214656D01*
X46264328Y-34211418D01*
X46290885Y-34184862D01*
X46353197Y-34150838D01*
X46424013Y-34155904D01*
X46469074Y-34184864D01*
X47070115Y-34785905D01*
X47104141Y-34848217D01*
X47099076Y-34919032D01*
X47070115Y-34964095D01*
X46800000Y-35234210D01*
X46469074Y-35565137D01*
X46406762Y-35599163D01*
X46335947Y-35594098D01*
X46290884Y-35565137D01*
X46266810Y-35541063D01*
X46256724Y-35535556D01*
X46254000Y-35542860D01*
X46254000Y-35727885D01*
X45746000Y-35727885D01*
X45746000Y-35546369D01*
X45742763Y-35535344D01*
X45735672Y-35538582D01*
X45709115Y-35565138D01*
X45646803Y-35599162D01*
X45575987Y-35594096D01*
X45530926Y-35565136D01*
X44929885Y-34964095D01*
X44895859Y-34901783D01*
X44897694Y-34876130D01*
X45564408Y-34876130D01*
X45564539Y-34877966D01*
X45568789Y-34884579D01*
X45733192Y-35048981D01*
X45743276Y-35054487D01*
X45746000Y-35047183D01*
X45746000Y-35043674D01*
X46254000Y-35043674D01*
X46257237Y-35054699D01*
X46264328Y-35051461D01*
X46427981Y-34887808D01*
X46435592Y-34873870D01*
X46435461Y-34872034D01*
X46431211Y-34865421D01*
X46266808Y-34701019D01*
X46256724Y-34695513D01*
X46254000Y-34702817D01*
X46254000Y-35043674D01*
X45746000Y-35043674D01*
X45746000Y-34706326D01*
X45742763Y-34695301D01*
X45735672Y-34698539D01*
X45572019Y-34862192D01*
X45564408Y-34876130D01*
X44897694Y-34876130D01*
X44900924Y-34830968D01*
X44929885Y-34785905D01*
X45200000Y-34515790D01*
X45530926Y-34184863D01*
X45593238Y-34150837D01*
X45664053Y-34155902D01*
X45709116Y-34184863D01*
X45733190Y-34208937D01*
X45743276Y-34214444D01*
X45746000Y-34207140D01*
X45746000Y-34085116D01*
X45741525Y-34069877D01*
X45740135Y-34068672D01*
X45732452Y-34067001D01*
X45255884Y-34067001D01*
X45240964Y-34066115D01*
X45212669Y-34062741D01*
X45198673Y-34062643D01*
X45163778Y-34066311D01*
X45150607Y-34067001D01*
X43655886Y-34067001D01*
X43640967Y-34066115D01*
X43612670Y-34062741D01*
X43598673Y-34062643D01*
X43563776Y-34066311D01*
X43550605Y-34067001D01*
X43255331Y-34067001D01*
X43248510Y-34067371D01*
X43197648Y-34072895D01*
X43182396Y-34076521D01*
X43061946Y-34121676D01*
X43046351Y-34130214D01*
X42944276Y-34206715D01*
X42931715Y-34219276D01*
X42855214Y-34321351D01*
X42846676Y-34336946D01*
X42801522Y-34457394D01*
X42797895Y-34472649D01*
X42792369Y-34523514D01*
X42792000Y-34530328D01*
X42792000Y-34815875D01*
X42791006Y-34831667D01*
X42787850Y-34856653D01*
X42787654Y-34870660D01*
X27209954Y-34870660D01*
X27264636Y-34732547D01*
X27275500Y-34642772D01*
X27275500Y-34281106D01*
X27279793Y-34248495D01*
X27284211Y-34232007D01*
X27284211Y-34232006D01*
X27285635Y-34226692D01*
X27298773Y-34076521D01*
X27300262Y-34059508D01*
X27300262Y-34059501D01*
X27300500Y-34056784D01*
X27300500Y-32840875D01*
X27320502Y-32772754D01*
X27337405Y-32751780D01*
X28351780Y-31737405D01*
X28414092Y-31703379D01*
X28440875Y-31700500D01*
X120556784Y-31700500D01*
X120559501Y-31700262D01*
X120559508Y-31700262D01*
X120627698Y-31694296D01*
X120726692Y-31685635D01*
X120732005Y-31684211D01*
X120732007Y-31684211D01*
X120941186Y-31628162D01*
X120941188Y-31628161D01*
X120946496Y-31626739D01*
X121009701Y-31597266D01*
X121147753Y-31532891D01*
X121147756Y-31532889D01*
X121152734Y-31530568D01*
X121339139Y-31400047D01*
X121500047Y-31239139D01*
X121630568Y-31052734D01*
X121726739Y-30846496D01*
X121785635Y-30626692D01*
X121805468Y-30400000D01*
X121785635Y-30173308D01*
X121726739Y-29953504D01*
X121630568Y-29747266D01*
X121500047Y-29560861D01*
X121339139Y-29399953D01*
X121152734Y-29269432D01*
X121147756Y-29267111D01*
X121147753Y-29267109D01*
X120951478Y-29175584D01*
X120951476Y-29175583D01*
X120946496Y-29173261D01*
X120941188Y-29171839D01*
X120941186Y-29171838D01*
X120732007Y-29115789D01*
X120732005Y-29115789D01*
X120726692Y-29114365D01*
X120627698Y-29105704D01*
X120559508Y-29099738D01*
X120559501Y-29099738D01*
X120556784Y-29099500D01*
X27963783Y-29099500D01*
X27963779Y-29099499D01*
X27736221Y-29099499D01*
X27724720Y-29101527D01*
X27685501Y-29108442D01*
X27674604Y-29109876D01*
X27628798Y-29113884D01*
X27628790Y-29113885D01*
X27623308Y-29114365D01*
X27573567Y-29127693D01*
X27562835Y-29130072D01*
X27512120Y-29139015D01*
X27506955Y-29140895D01*
X27506947Y-29140897D01*
X27463733Y-29156626D01*
X27453248Y-29159932D01*
X27408820Y-29171836D01*
X27408814Y-29171838D01*
X27403504Y-29173261D01*
X27356829Y-29195026D01*
X27346673Y-29199232D01*
X27303461Y-29214960D01*
X27298285Y-29216844D01*
X27293519Y-29219596D01*
X27293516Y-29219597D01*
X27253677Y-29242598D01*
X27243946Y-29247664D01*
X27197266Y-29269432D01*
X27155076Y-29298973D01*
X27145830Y-29304864D01*
X27101214Y-29330623D01*
X27061770Y-29363721D01*
X27053053Y-29370411D01*
X27010861Y-29399953D01*
X26849953Y-29560861D01*
X26849951Y-29560864D01*
X25160864Y-31249951D01*
X25160861Y-31249953D01*
X24999953Y-31410861D01*
X24996800Y-31415364D01*
X24970414Y-31453048D01*
X24963725Y-31461765D01*
X24930623Y-31501214D01*
X24904864Y-31545830D01*
X24898973Y-31555076D01*
X24869432Y-31597266D01*
X24847664Y-31643946D01*
X24842599Y-31653675D01*
X24816844Y-31698285D01*
X24814960Y-31703460D01*
X24814960Y-31703461D01*
X24799232Y-31746673D01*
X24795027Y-31756826D01*
X24773261Y-31803504D01*
X24771838Y-31808814D01*
X24771836Y-31808820D01*
X24759932Y-31853248D01*
X24756626Y-31863733D01*
X24740897Y-31906947D01*
X24740895Y-31906955D01*
X24739015Y-31912120D01*
X24738060Y-31917537D01*
X24730072Y-31962836D01*
X24727694Y-31973564D01*
X24714365Y-32023308D01*
X24713885Y-32028790D01*
X24713884Y-32028798D01*
X24709876Y-32074604D01*
X24708442Y-32085501D01*
X24701527Y-32124720D01*
X24699499Y-32136221D01*
X24699499Y-32363779D01*
X24699500Y-32363785D01*
X24699500Y-34056784D01*
X24699738Y-34059501D01*
X24699738Y-34059508D01*
X24701227Y-34076521D01*
X24714365Y-34226692D01*
X24715789Y-34232006D01*
X24715789Y-34232007D01*
X24720207Y-34248495D01*
X24724500Y-34281106D01*
X24724500Y-34642772D01*
X24735364Y-34732547D01*
X24790887Y-34872783D01*
X24882078Y-34992922D01*
X25002217Y-35084113D01*
X25097808Y-35121960D01*
X25122444Y-35131714D01*
X25178418Y-35175388D01*
X25201895Y-35242391D01*
X25185419Y-35311450D01*
X25146428Y-35353386D01*
X25025425Y-35434850D01*
X25017130Y-35441519D01*
X24858100Y-35593228D01*
X24851059Y-35601186D01*
X24719859Y-35777525D01*
X24714255Y-35786562D01*
X24614643Y-35982484D01*
X24610643Y-35992335D01*
X24545466Y-36202240D01*
X24543183Y-36212624D01*
X24541139Y-36228043D01*
X20300500Y-36228043D01*
X20300500Y-27797386D01*
X22567759Y-27797386D01*
X22575216Y-27807753D01*
X22814935Y-28001874D01*
X22820272Y-28005751D01*
X23140685Y-28213830D01*
X23146394Y-28217127D01*
X23486811Y-28390578D01*
X23492836Y-28393260D01*
X23849502Y-28530171D01*
X23855784Y-28532212D01*
X24224816Y-28631094D01*
X24231266Y-28632465D01*
X24608629Y-28692234D01*
X24615167Y-28692920D01*
X24996699Y-28712916D01*
X25003301Y-28712916D01*
X25384833Y-28692920D01*
X25391371Y-28692234D01*
X25768734Y-28632465D01*
X25775184Y-28631094D01*
X26144216Y-28532212D01*
X26150498Y-28530171D01*
X26507164Y-28393260D01*
X26513189Y-28390578D01*
X26853606Y-28217127D01*
X26859315Y-28213830D01*
X27179728Y-28005751D01*
X27185065Y-28001874D01*
X27423835Y-27808522D01*
X27432300Y-27796267D01*
X27425966Y-27785176D01*
X25012812Y-25372022D01*
X24998868Y-25364408D01*
X24997035Y-25364539D01*
X24990420Y-25368790D01*
X22574900Y-27784310D01*
X22567759Y-27797386D01*
X20300500Y-27797386D01*
X20300500Y-25037317D01*
X20302414Y-25015437D01*
X20303222Y-25010855D01*
X20304554Y-25003301D01*
X21287084Y-25003301D01*
X21307080Y-25384833D01*
X21307766Y-25391371D01*
X21367535Y-25768734D01*
X21368906Y-25775184D01*
X21467788Y-26144216D01*
X21469829Y-26150498D01*
X21606740Y-26507164D01*
X21609422Y-26513189D01*
X21782872Y-26853603D01*
X21786169Y-26859313D01*
X21994253Y-27179735D01*
X21998123Y-27185061D01*
X22191478Y-27423835D01*
X22203733Y-27432300D01*
X22214824Y-27425966D01*
X24627978Y-25012812D01*
X24634356Y-25001132D01*
X25364408Y-25001132D01*
X25364539Y-25002965D01*
X25368790Y-25009580D01*
X27784310Y-27425100D01*
X27797386Y-27432241D01*
X27807753Y-27424784D01*
X28001877Y-27185061D01*
X28005747Y-27179735D01*
X28213831Y-26859313D01*
X28217128Y-26853603D01*
X28390578Y-26513189D01*
X28393260Y-26507164D01*
X28530171Y-26150498D01*
X28532212Y-26144216D01*
X28631094Y-25775184D01*
X28632465Y-25768734D01*
X28692234Y-25391371D01*
X28692920Y-25384833D01*
X28695637Y-25333000D01*
X28999500Y-25333000D01*
X31400500Y-25333000D01*
X31400500Y-24703641D01*
X41099500Y-24703641D01*
X41113919Y-24860560D01*
X41171314Y-25064069D01*
X41173867Y-25069247D01*
X41173869Y-25069251D01*
X41185169Y-25092164D01*
X41264835Y-25253710D01*
X41313927Y-25319452D01*
X41355038Y-25374506D01*
X41391349Y-25423133D01*
X41546619Y-25566663D01*
X41551502Y-25569744D01*
X41685721Y-25654430D01*
X41725446Y-25679495D01*
X41921840Y-25757848D01*
X41927497Y-25758973D01*
X41927503Y-25758975D01*
X42123558Y-25797972D01*
X42123560Y-25797972D01*
X42129225Y-25799099D01*
X42135000Y-25799175D01*
X42135004Y-25799175D01*
X42241024Y-25800563D01*
X42340654Y-25801867D01*
X42348610Y-25800500D01*
X42543350Y-25767038D01*
X42543351Y-25767038D01*
X42549047Y-25766059D01*
X42747425Y-25692873D01*
X42766316Y-25681634D01*
X42924179Y-25587716D01*
X42924180Y-25587715D01*
X42929144Y-25584762D01*
X43088119Y-25445345D01*
X43219024Y-25279292D01*
X43230049Y-25258338D01*
X43314785Y-25097280D01*
X43317477Y-25092164D01*
X43380180Y-24890227D01*
X43382056Y-24890809D01*
X43411599Y-24836094D01*
X43473751Y-24801776D01*
X43544590Y-24806508D01*
X43601625Y-24848786D01*
X43622382Y-24890568D01*
X43671314Y-25064069D01*
X43673867Y-25069247D01*
X43673869Y-25069251D01*
X43685169Y-25092164D01*
X43764835Y-25253710D01*
X43813927Y-25319452D01*
X43855038Y-25374506D01*
X43891349Y-25423133D01*
X44046619Y-25566663D01*
X44051502Y-25569744D01*
X44185721Y-25654430D01*
X44225446Y-25679495D01*
X44421840Y-25757848D01*
X44427497Y-25758973D01*
X44427503Y-25758975D01*
X44623558Y-25797972D01*
X44623560Y-25797972D01*
X44629225Y-25799099D01*
X44635000Y-25799175D01*
X44635004Y-25799175D01*
X44741024Y-25800563D01*
X44840654Y-25801867D01*
X44848610Y-25800500D01*
X45043350Y-25767038D01*
X45043351Y-25767038D01*
X45049047Y-25766059D01*
X45247425Y-25692873D01*
X45266316Y-25681634D01*
X45424179Y-25587716D01*
X45424180Y-25587715D01*
X45429144Y-25584762D01*
X45588119Y-25445345D01*
X45719024Y-25279292D01*
X45730049Y-25258338D01*
X45814785Y-25097280D01*
X45817477Y-25092164D01*
X45880180Y-24890227D01*
X45882056Y-24890809D01*
X45911599Y-24836094D01*
X45973751Y-24801776D01*
X46044590Y-24806508D01*
X46101625Y-24848786D01*
X46122382Y-24890568D01*
X46171314Y-25064069D01*
X46173867Y-25069247D01*
X46173869Y-25069251D01*
X46185169Y-25092164D01*
X46264835Y-25253710D01*
X46313927Y-25319452D01*
X46355038Y-25374506D01*
X46391349Y-25423133D01*
X46546619Y-25566663D01*
X46551497Y-25569741D01*
X46551509Y-25569750D01*
X46690736Y-25657596D01*
X46737674Y-25710862D01*
X46749500Y-25764157D01*
X46749500Y-25779819D01*
X46748172Y-25791704D01*
X46748682Y-25791745D01*
X46747962Y-25800691D01*
X46745981Y-25809447D01*
X46746537Y-25818407D01*
X46749258Y-25862264D01*
X46749500Y-25870067D01*
X46749500Y-25885940D01*
X46750135Y-25890374D01*
X46750948Y-25896050D01*
X46751978Y-25906106D01*
X46754859Y-25952538D01*
X46757907Y-25960982D01*
X46758676Y-25964694D01*
X46762343Y-25979399D01*
X46763404Y-25983027D01*
X46764677Y-25991918D01*
X46783939Y-26034282D01*
X46787746Y-26043637D01*
X46800491Y-26078943D01*
X46800493Y-26078947D01*
X46803540Y-26087387D01*
X46808835Y-26094635D01*
X46810611Y-26097975D01*
X46818274Y-26111089D01*
X46820303Y-26114261D01*
X46824016Y-26122428D01*
X46829871Y-26129223D01*
X46829873Y-26129226D01*
X46854387Y-26157675D01*
X46860675Y-26165595D01*
X46868522Y-26176336D01*
X46879265Y-26187079D01*
X46885623Y-26193925D01*
X46917600Y-26231037D01*
X46925134Y-26235920D01*
X46931896Y-26241819D01*
X46931892Y-26241824D01*
X46942983Y-26250797D01*
X47764297Y-27072110D01*
X47798322Y-27134423D01*
X47800440Y-27147372D01*
X47812999Y-27261135D01*
X47871266Y-27420356D01*
X47875502Y-27426659D01*
X47875502Y-27426660D01*
X47888574Y-27446113D01*
X47965830Y-27561083D01*
X47971442Y-27566190D01*
X47971445Y-27566193D01*
X48085612Y-27670077D01*
X48085616Y-27670080D01*
X48091233Y-27675191D01*
X48097906Y-27678814D01*
X48097910Y-27678817D01*
X48233558Y-27752467D01*
X48233560Y-27752468D01*
X48240235Y-27756092D01*
X48247584Y-27758020D01*
X48396883Y-27797188D01*
X48396885Y-27797188D01*
X48404233Y-27799116D01*
X48490609Y-27800473D01*
X48566161Y-27801660D01*
X48566164Y-27801660D01*
X48573760Y-27801779D01*
X48581165Y-27800083D01*
X48581166Y-27800083D01*
X48650035Y-27784310D01*
X48739029Y-27763928D01*
X48890498Y-27687747D01*
X49019423Y-27577634D01*
X49118361Y-27439947D01*
X49126237Y-27420356D01*
X49178766Y-27289687D01*
X49178767Y-27289685D01*
X49181601Y-27282634D01*
X49188877Y-27231511D01*
X49204909Y-27118862D01*
X49204909Y-27118859D01*
X49205490Y-27114778D01*
X49205645Y-27100000D01*
X49185276Y-26931680D01*
X49125345Y-26773077D01*
X49029312Y-26633349D01*
X49023641Y-26628296D01*
X48908392Y-26525612D01*
X48908388Y-26525610D01*
X48902721Y-26520560D01*
X48877421Y-26507164D01*
X48835080Y-26484746D01*
X48752881Y-26441224D01*
X48588441Y-26399919D01*
X48580843Y-26399879D01*
X48580841Y-26399879D01*
X48559109Y-26399765D01*
X48491095Y-26379406D01*
X48470676Y-26362862D01*
X47895371Y-25787557D01*
X47861345Y-25725245D01*
X47866410Y-25654430D01*
X47908957Y-25597594D01*
X47920042Y-25590177D01*
X47924184Y-25587713D01*
X47924185Y-25587712D01*
X47929144Y-25584762D01*
X48088119Y-25445345D01*
X48219024Y-25279292D01*
X48230049Y-25258338D01*
X48314785Y-25097280D01*
X48317477Y-25092164D01*
X48353167Y-24977223D01*
X48392470Y-24918098D01*
X48457500Y-24889607D01*
X48527609Y-24900797D01*
X48580539Y-24948114D01*
X48599500Y-25014587D01*
X48599500Y-25292772D01*
X48610364Y-25382547D01*
X48613344Y-25390075D01*
X48613345Y-25390077D01*
X48624602Y-25418509D01*
X48665887Y-25522783D01*
X48757078Y-25642922D01*
X48877217Y-25734113D01*
X48931760Y-25755708D01*
X49009923Y-25786655D01*
X49009925Y-25786656D01*
X49017453Y-25789636D01*
X49107228Y-25800500D01*
X50392772Y-25800500D01*
X50482547Y-25789636D01*
X50490075Y-25786656D01*
X50490077Y-25786655D01*
X50568240Y-25755708D01*
X50622783Y-25734113D01*
X50742922Y-25642922D01*
X50834113Y-25522783D01*
X50875398Y-25418509D01*
X50886655Y-25390077D01*
X50886656Y-25390075D01*
X50889636Y-25382547D01*
X50900500Y-25292772D01*
X50900500Y-24703641D01*
X61799500Y-24703641D01*
X61813919Y-24860560D01*
X61871314Y-25064069D01*
X61873867Y-25069247D01*
X61873869Y-25069251D01*
X61885169Y-25092164D01*
X61964835Y-25253710D01*
X62013927Y-25319452D01*
X62055038Y-25374506D01*
X62091349Y-25423133D01*
X62246619Y-25566663D01*
X62251502Y-25569744D01*
X62385721Y-25654430D01*
X62425446Y-25679495D01*
X62621840Y-25757848D01*
X62627497Y-25758973D01*
X62627503Y-25758975D01*
X62823558Y-25797972D01*
X62823560Y-25797972D01*
X62829225Y-25799099D01*
X62835000Y-25799175D01*
X62835004Y-25799175D01*
X62941024Y-25800563D01*
X63040654Y-25801867D01*
X63048610Y-25800500D01*
X63243350Y-25767038D01*
X63243351Y-25767038D01*
X63249047Y-25766059D01*
X63447425Y-25692873D01*
X63466316Y-25681634D01*
X63624179Y-25587716D01*
X63624180Y-25587715D01*
X63629144Y-25584762D01*
X63788119Y-25445345D01*
X63919024Y-25279292D01*
X63930049Y-25258338D01*
X64014785Y-25097280D01*
X64017477Y-25092164D01*
X64080180Y-24890227D01*
X64082056Y-24890809D01*
X64111599Y-24836094D01*
X64173751Y-24801776D01*
X64244590Y-24806508D01*
X64301625Y-24848786D01*
X64322382Y-24890568D01*
X64371314Y-25064069D01*
X64373867Y-25069247D01*
X64373869Y-25069251D01*
X64385169Y-25092164D01*
X64464835Y-25253710D01*
X64513927Y-25319452D01*
X64555038Y-25374506D01*
X64591349Y-25423133D01*
X64746619Y-25566663D01*
X64751502Y-25569744D01*
X64885721Y-25654430D01*
X64925446Y-25679495D01*
X65121840Y-25757848D01*
X65127497Y-25758973D01*
X65127503Y-25758975D01*
X65323558Y-25797972D01*
X65323560Y-25797972D01*
X65329225Y-25799099D01*
X65335000Y-25799175D01*
X65335004Y-25799175D01*
X65441024Y-25800563D01*
X65540654Y-25801867D01*
X65548610Y-25800500D01*
X65743350Y-25767038D01*
X65743351Y-25767038D01*
X65749047Y-25766059D01*
X65947425Y-25692873D01*
X65966316Y-25681634D01*
X66124179Y-25587716D01*
X66124180Y-25587715D01*
X66129144Y-25584762D01*
X66288119Y-25445345D01*
X66419024Y-25279292D01*
X66430049Y-25258338D01*
X66514785Y-25097280D01*
X66517477Y-25092164D01*
X66580180Y-24890227D01*
X66582056Y-24890809D01*
X66611599Y-24836094D01*
X66673751Y-24801776D01*
X66744590Y-24806508D01*
X66801625Y-24848786D01*
X66822382Y-24890568D01*
X66871314Y-25064069D01*
X66873867Y-25069247D01*
X66873869Y-25069251D01*
X66885169Y-25092164D01*
X66964835Y-25253710D01*
X67013927Y-25319452D01*
X67055038Y-25374506D01*
X67091349Y-25423133D01*
X67246619Y-25566663D01*
X67251497Y-25569741D01*
X67251509Y-25569750D01*
X67390736Y-25657596D01*
X67437674Y-25710862D01*
X67449500Y-25764157D01*
X67449500Y-25779819D01*
X67448172Y-25791704D01*
X67448682Y-25791745D01*
X67447962Y-25800691D01*
X67445981Y-25809447D01*
X67446537Y-25818407D01*
X67449258Y-25862264D01*
X67449500Y-25870067D01*
X67449500Y-25885940D01*
X67450135Y-25890374D01*
X67450948Y-25896050D01*
X67451978Y-25906106D01*
X67454859Y-25952538D01*
X67457907Y-25960982D01*
X67458676Y-25964694D01*
X67462343Y-25979399D01*
X67463404Y-25983027D01*
X67464677Y-25991918D01*
X67483939Y-26034282D01*
X67487746Y-26043637D01*
X67500491Y-26078943D01*
X67500493Y-26078947D01*
X67503540Y-26087387D01*
X67508835Y-26094635D01*
X67510611Y-26097975D01*
X67518274Y-26111089D01*
X67520303Y-26114261D01*
X67524016Y-26122428D01*
X67529871Y-26129223D01*
X67529873Y-26129226D01*
X67554387Y-26157675D01*
X67560675Y-26165595D01*
X67568522Y-26176336D01*
X67579265Y-26187079D01*
X67585623Y-26193925D01*
X67617600Y-26231037D01*
X67625134Y-26235920D01*
X67631896Y-26241819D01*
X67631892Y-26241824D01*
X67642983Y-26250797D01*
X68464297Y-27072110D01*
X68498322Y-27134423D01*
X68500440Y-27147372D01*
X68512999Y-27261135D01*
X68571266Y-27420356D01*
X68575502Y-27426659D01*
X68575502Y-27426660D01*
X68588574Y-27446113D01*
X68665830Y-27561083D01*
X68671442Y-27566190D01*
X68671445Y-27566193D01*
X68785612Y-27670077D01*
X68785616Y-27670080D01*
X68791233Y-27675191D01*
X68797906Y-27678814D01*
X68797910Y-27678817D01*
X68933558Y-27752467D01*
X68933560Y-27752468D01*
X68940235Y-27756092D01*
X68947584Y-27758020D01*
X69096883Y-27797188D01*
X69096885Y-27797188D01*
X69104233Y-27799116D01*
X69190609Y-27800473D01*
X69266161Y-27801660D01*
X69266164Y-27801660D01*
X69273760Y-27801779D01*
X69281165Y-27800083D01*
X69281166Y-27800083D01*
X69350035Y-27784310D01*
X69439029Y-27763928D01*
X69590498Y-27687747D01*
X69719423Y-27577634D01*
X69818361Y-27439947D01*
X69826237Y-27420356D01*
X69878766Y-27289687D01*
X69878767Y-27289685D01*
X69881601Y-27282634D01*
X69888877Y-27231511D01*
X69904909Y-27118862D01*
X69904909Y-27118859D01*
X69905490Y-27114778D01*
X69905645Y-27100000D01*
X69885276Y-26931680D01*
X69825345Y-26773077D01*
X69729312Y-26633349D01*
X69723641Y-26628296D01*
X69608392Y-26525612D01*
X69608388Y-26525610D01*
X69602721Y-26520560D01*
X69577421Y-26507164D01*
X69535080Y-26484746D01*
X69452881Y-26441224D01*
X69288441Y-26399919D01*
X69280843Y-26399879D01*
X69280841Y-26399879D01*
X69259109Y-26399765D01*
X69191095Y-26379406D01*
X69170676Y-26362862D01*
X68595371Y-25787557D01*
X68561345Y-25725245D01*
X68566410Y-25654430D01*
X68608957Y-25597594D01*
X68620042Y-25590177D01*
X68624184Y-25587713D01*
X68624185Y-25587712D01*
X68629144Y-25584762D01*
X68788119Y-25445345D01*
X68919024Y-25279292D01*
X68930049Y-25258338D01*
X69014785Y-25097280D01*
X69017477Y-25092164D01*
X69053167Y-24977223D01*
X69092470Y-24918098D01*
X69157500Y-24889607D01*
X69227609Y-24900797D01*
X69280539Y-24948114D01*
X69299500Y-25014587D01*
X69299500Y-25292772D01*
X69310364Y-25382547D01*
X69313344Y-25390075D01*
X69313345Y-25390077D01*
X69324602Y-25418509D01*
X69365887Y-25522783D01*
X69457078Y-25642922D01*
X69577217Y-25734113D01*
X69631760Y-25755708D01*
X69709923Y-25786655D01*
X69709925Y-25786656D01*
X69717453Y-25789636D01*
X69807228Y-25800500D01*
X71092772Y-25800500D01*
X71182547Y-25789636D01*
X71190075Y-25786656D01*
X71190077Y-25786655D01*
X71268240Y-25755708D01*
X71322783Y-25734113D01*
X71442922Y-25642922D01*
X71534113Y-25522783D01*
X71575398Y-25418509D01*
X71586655Y-25390077D01*
X71586656Y-25390075D01*
X71589636Y-25382547D01*
X71600500Y-25292772D01*
X71600500Y-24703641D01*
X82799500Y-24703641D01*
X82813919Y-24860560D01*
X82871314Y-25064069D01*
X82873867Y-25069247D01*
X82873869Y-25069251D01*
X82885169Y-25092164D01*
X82964835Y-25253710D01*
X83013927Y-25319452D01*
X83055038Y-25374506D01*
X83091349Y-25423133D01*
X83246619Y-25566663D01*
X83251502Y-25569744D01*
X83385721Y-25654430D01*
X83425446Y-25679495D01*
X83621840Y-25757848D01*
X83627497Y-25758973D01*
X83627503Y-25758975D01*
X83823558Y-25797972D01*
X83823560Y-25797972D01*
X83829225Y-25799099D01*
X83835000Y-25799175D01*
X83835004Y-25799175D01*
X83941024Y-25800563D01*
X84040654Y-25801867D01*
X84048610Y-25800500D01*
X84243350Y-25767038D01*
X84243351Y-25767038D01*
X84249047Y-25766059D01*
X84447425Y-25692873D01*
X84466316Y-25681634D01*
X84624179Y-25587716D01*
X84624180Y-25587715D01*
X84629144Y-25584762D01*
X84788119Y-25445345D01*
X84919024Y-25279292D01*
X84930049Y-25258338D01*
X85014785Y-25097280D01*
X85017477Y-25092164D01*
X85080180Y-24890227D01*
X85082056Y-24890809D01*
X85111599Y-24836094D01*
X85173751Y-24801776D01*
X85244590Y-24806508D01*
X85301625Y-24848786D01*
X85322382Y-24890568D01*
X85371314Y-25064069D01*
X85373867Y-25069247D01*
X85373869Y-25069251D01*
X85385169Y-25092164D01*
X85464835Y-25253710D01*
X85513927Y-25319452D01*
X85555038Y-25374506D01*
X85591349Y-25423133D01*
X85746619Y-25566663D01*
X85751502Y-25569744D01*
X85885721Y-25654430D01*
X85925446Y-25679495D01*
X86121840Y-25757848D01*
X86127497Y-25758973D01*
X86127503Y-25758975D01*
X86323558Y-25797972D01*
X86323560Y-25797972D01*
X86329225Y-25799099D01*
X86335000Y-25799175D01*
X86335004Y-25799175D01*
X86441024Y-25800563D01*
X86540654Y-25801867D01*
X86548610Y-25800500D01*
X86743350Y-25767038D01*
X86743351Y-25767038D01*
X86749047Y-25766059D01*
X86947425Y-25692873D01*
X86966316Y-25681634D01*
X87124179Y-25587716D01*
X87124180Y-25587715D01*
X87129144Y-25584762D01*
X87288119Y-25445345D01*
X87419024Y-25279292D01*
X87430049Y-25258338D01*
X87514785Y-25097280D01*
X87517477Y-25092164D01*
X87580180Y-24890227D01*
X87582056Y-24890809D01*
X87611599Y-24836094D01*
X87673751Y-24801776D01*
X87744590Y-24806508D01*
X87801625Y-24848786D01*
X87822382Y-24890568D01*
X87871314Y-25064069D01*
X87873867Y-25069247D01*
X87873869Y-25069251D01*
X87885169Y-25092164D01*
X87964835Y-25253710D01*
X88013927Y-25319452D01*
X88055038Y-25374506D01*
X88091349Y-25423133D01*
X88246619Y-25566663D01*
X88251497Y-25569741D01*
X88251509Y-25569750D01*
X88390736Y-25657596D01*
X88437674Y-25710862D01*
X88449500Y-25764157D01*
X88449500Y-25779819D01*
X88448172Y-25791704D01*
X88448682Y-25791745D01*
X88447962Y-25800691D01*
X88445981Y-25809447D01*
X88446537Y-25818407D01*
X88449258Y-25862264D01*
X88449500Y-25870067D01*
X88449500Y-25885940D01*
X88450135Y-25890374D01*
X88450948Y-25896050D01*
X88451978Y-25906106D01*
X88454859Y-25952538D01*
X88457907Y-25960982D01*
X88458676Y-25964694D01*
X88462343Y-25979399D01*
X88463404Y-25983027D01*
X88464677Y-25991918D01*
X88483939Y-26034282D01*
X88487746Y-26043637D01*
X88500491Y-26078943D01*
X88500493Y-26078947D01*
X88503540Y-26087387D01*
X88508835Y-26094635D01*
X88510611Y-26097975D01*
X88518274Y-26111089D01*
X88520303Y-26114261D01*
X88524016Y-26122428D01*
X88529871Y-26129223D01*
X88529873Y-26129226D01*
X88554387Y-26157675D01*
X88560675Y-26165595D01*
X88568522Y-26176336D01*
X88579265Y-26187079D01*
X88585623Y-26193925D01*
X88617600Y-26231037D01*
X88625134Y-26235920D01*
X88631896Y-26241819D01*
X88631892Y-26241824D01*
X88642983Y-26250797D01*
X89464297Y-27072110D01*
X89498322Y-27134423D01*
X89500440Y-27147372D01*
X89512999Y-27261135D01*
X89571266Y-27420356D01*
X89575502Y-27426659D01*
X89575502Y-27426660D01*
X89588574Y-27446113D01*
X89665830Y-27561083D01*
X89671442Y-27566190D01*
X89671445Y-27566193D01*
X89785612Y-27670077D01*
X89785616Y-27670080D01*
X89791233Y-27675191D01*
X89797906Y-27678814D01*
X89797910Y-27678817D01*
X89933558Y-27752467D01*
X89933560Y-27752468D01*
X89940235Y-27756092D01*
X89947584Y-27758020D01*
X90096883Y-27797188D01*
X90096885Y-27797188D01*
X90104233Y-27799116D01*
X90190609Y-27800473D01*
X90266161Y-27801660D01*
X90266164Y-27801660D01*
X90273760Y-27801779D01*
X90281165Y-27800083D01*
X90281166Y-27800083D01*
X90350035Y-27784310D01*
X90439029Y-27763928D01*
X90590498Y-27687747D01*
X90719423Y-27577634D01*
X90818361Y-27439947D01*
X90826237Y-27420356D01*
X90878766Y-27289687D01*
X90878767Y-27289685D01*
X90881601Y-27282634D01*
X90888877Y-27231511D01*
X90904909Y-27118862D01*
X90904909Y-27118859D01*
X90905490Y-27114778D01*
X90905645Y-27100000D01*
X90885276Y-26931680D01*
X90825345Y-26773077D01*
X90729312Y-26633349D01*
X90723641Y-26628296D01*
X90608392Y-26525612D01*
X90608388Y-26525610D01*
X90602721Y-26520560D01*
X90577421Y-26507164D01*
X90535080Y-26484746D01*
X90452881Y-26441224D01*
X90288441Y-26399919D01*
X90280843Y-26399879D01*
X90280841Y-26399879D01*
X90259109Y-26399765D01*
X90191095Y-26379406D01*
X90170676Y-26362862D01*
X89595371Y-25787557D01*
X89561345Y-25725245D01*
X89566410Y-25654430D01*
X89608957Y-25597594D01*
X89620042Y-25590177D01*
X89624184Y-25587713D01*
X89624185Y-25587712D01*
X89629144Y-25584762D01*
X89788119Y-25445345D01*
X89919024Y-25279292D01*
X89930049Y-25258338D01*
X90014785Y-25097280D01*
X90017477Y-25092164D01*
X90053167Y-24977223D01*
X90092470Y-24918098D01*
X90157500Y-24889607D01*
X90227609Y-24900797D01*
X90280539Y-24948114D01*
X90299500Y-25014587D01*
X90299500Y-25292772D01*
X90310364Y-25382547D01*
X90313344Y-25390075D01*
X90313345Y-25390077D01*
X90324602Y-25418509D01*
X90365887Y-25522783D01*
X90457078Y-25642922D01*
X90577217Y-25734113D01*
X90631760Y-25755708D01*
X90709923Y-25786655D01*
X90709925Y-25786656D01*
X90717453Y-25789636D01*
X90807228Y-25800500D01*
X92092772Y-25800500D01*
X92182547Y-25789636D01*
X92190075Y-25786656D01*
X92190077Y-25786655D01*
X92268240Y-25755708D01*
X92322783Y-25734113D01*
X92442922Y-25642922D01*
X92534113Y-25522783D01*
X92575398Y-25418509D01*
X92586655Y-25390077D01*
X92586656Y-25390075D01*
X92589636Y-25382547D01*
X92600500Y-25292772D01*
X92600500Y-24703641D01*
X103799500Y-24703641D01*
X103813919Y-24860560D01*
X103871314Y-25064069D01*
X103873867Y-25069247D01*
X103873869Y-25069251D01*
X103885169Y-25092164D01*
X103964835Y-25253710D01*
X104013927Y-25319452D01*
X104055038Y-25374506D01*
X104091349Y-25423133D01*
X104246619Y-25566663D01*
X104251502Y-25569744D01*
X104385721Y-25654430D01*
X104425446Y-25679495D01*
X104621840Y-25757848D01*
X104627497Y-25758973D01*
X104627503Y-25758975D01*
X104823558Y-25797972D01*
X104823560Y-25797972D01*
X104829225Y-25799099D01*
X104835000Y-25799175D01*
X104835004Y-25799175D01*
X104941024Y-25800563D01*
X105040654Y-25801867D01*
X105048610Y-25800500D01*
X105243350Y-25767038D01*
X105243351Y-25767038D01*
X105249047Y-25766059D01*
X105447425Y-25692873D01*
X105466316Y-25681634D01*
X105624179Y-25587716D01*
X105624180Y-25587715D01*
X105629144Y-25584762D01*
X105788119Y-25445345D01*
X105919024Y-25279292D01*
X105930049Y-25258338D01*
X106014785Y-25097280D01*
X106017477Y-25092164D01*
X106080180Y-24890227D01*
X106082056Y-24890809D01*
X106111599Y-24836094D01*
X106173751Y-24801776D01*
X106244590Y-24806508D01*
X106301625Y-24848786D01*
X106322382Y-24890568D01*
X106371314Y-25064069D01*
X106373867Y-25069247D01*
X106373869Y-25069251D01*
X106385169Y-25092164D01*
X106464835Y-25253710D01*
X106513927Y-25319452D01*
X106555038Y-25374506D01*
X106591349Y-25423133D01*
X106746619Y-25566663D01*
X106751502Y-25569744D01*
X106885721Y-25654430D01*
X106925446Y-25679495D01*
X107121840Y-25757848D01*
X107127497Y-25758973D01*
X107127503Y-25758975D01*
X107323558Y-25797972D01*
X107323560Y-25797972D01*
X107329225Y-25799099D01*
X107335000Y-25799175D01*
X107335004Y-25799175D01*
X107441024Y-25800563D01*
X107540654Y-25801867D01*
X107548610Y-25800500D01*
X107743350Y-25767038D01*
X107743351Y-25767038D01*
X107749047Y-25766059D01*
X107947425Y-25692873D01*
X107966316Y-25681634D01*
X108124179Y-25587716D01*
X108124180Y-25587715D01*
X108129144Y-25584762D01*
X108288119Y-25445345D01*
X108419024Y-25279292D01*
X108430049Y-25258338D01*
X108514785Y-25097280D01*
X108517477Y-25092164D01*
X108580180Y-24890227D01*
X108582056Y-24890809D01*
X108611599Y-24836094D01*
X108673751Y-24801776D01*
X108744590Y-24806508D01*
X108801625Y-24848786D01*
X108822382Y-24890568D01*
X108871314Y-25064069D01*
X108873867Y-25069247D01*
X108873869Y-25069251D01*
X108885169Y-25092164D01*
X108964835Y-25253710D01*
X109013927Y-25319452D01*
X109055038Y-25374506D01*
X109091349Y-25423133D01*
X109246619Y-25566663D01*
X109251497Y-25569741D01*
X109251509Y-25569750D01*
X109390736Y-25657596D01*
X109437674Y-25710862D01*
X109449500Y-25764157D01*
X109449500Y-25779819D01*
X109448172Y-25791704D01*
X109448682Y-25791745D01*
X109447962Y-25800691D01*
X109445981Y-25809447D01*
X109446537Y-25818407D01*
X109449258Y-25862264D01*
X109449500Y-25870067D01*
X109449500Y-25885940D01*
X109450135Y-25890374D01*
X109450948Y-25896050D01*
X109451978Y-25906106D01*
X109454859Y-25952538D01*
X109457907Y-25960982D01*
X109458676Y-25964694D01*
X109462343Y-25979399D01*
X109463404Y-25983027D01*
X109464677Y-25991918D01*
X109483939Y-26034282D01*
X109487746Y-26043637D01*
X109500491Y-26078943D01*
X109500493Y-26078947D01*
X109503540Y-26087387D01*
X109508835Y-26094635D01*
X109510611Y-26097975D01*
X109518274Y-26111089D01*
X109520303Y-26114261D01*
X109524016Y-26122428D01*
X109529871Y-26129223D01*
X109529873Y-26129226D01*
X109554387Y-26157675D01*
X109560675Y-26165595D01*
X109568522Y-26176336D01*
X109579265Y-26187079D01*
X109585623Y-26193925D01*
X109617600Y-26231037D01*
X109625134Y-26235920D01*
X109631896Y-26241819D01*
X109631892Y-26241824D01*
X109642983Y-26250797D01*
X110464297Y-27072110D01*
X110498322Y-27134423D01*
X110500440Y-27147372D01*
X110512999Y-27261135D01*
X110571266Y-27420356D01*
X110575502Y-27426659D01*
X110575502Y-27426660D01*
X110588574Y-27446113D01*
X110665830Y-27561083D01*
X110671442Y-27566190D01*
X110671445Y-27566193D01*
X110785612Y-27670077D01*
X110785616Y-27670080D01*
X110791233Y-27675191D01*
X110797906Y-27678814D01*
X110797910Y-27678817D01*
X110933558Y-27752467D01*
X110933560Y-27752468D01*
X110940235Y-27756092D01*
X110947584Y-27758020D01*
X111096883Y-27797188D01*
X111096885Y-27797188D01*
X111104233Y-27799116D01*
X111190609Y-27800473D01*
X111266161Y-27801660D01*
X111266164Y-27801660D01*
X111273760Y-27801779D01*
X111281165Y-27800083D01*
X111281166Y-27800083D01*
X111292942Y-27797386D01*
X118567759Y-27797386D01*
X118575216Y-27807753D01*
X118814935Y-28001874D01*
X118820272Y-28005751D01*
X119140685Y-28213830D01*
X119146394Y-28217127D01*
X119486811Y-28390578D01*
X119492836Y-28393260D01*
X119849502Y-28530171D01*
X119855784Y-28532212D01*
X120224816Y-28631094D01*
X120231266Y-28632465D01*
X120608629Y-28692234D01*
X120615167Y-28692920D01*
X120996699Y-28712916D01*
X121003301Y-28712916D01*
X121384833Y-28692920D01*
X121391371Y-28692234D01*
X121768734Y-28632465D01*
X121775184Y-28631094D01*
X122144216Y-28532212D01*
X122150498Y-28530171D01*
X122507164Y-28393260D01*
X122513189Y-28390578D01*
X122853606Y-28217127D01*
X122859315Y-28213830D01*
X123179728Y-28005751D01*
X123185065Y-28001874D01*
X123423835Y-27808522D01*
X123432300Y-27796267D01*
X123425966Y-27785176D01*
X121012812Y-25372022D01*
X120998868Y-25364408D01*
X120997035Y-25364539D01*
X120990420Y-25368790D01*
X118574900Y-27784310D01*
X118567759Y-27797386D01*
X111292942Y-27797386D01*
X111350035Y-27784310D01*
X111439029Y-27763928D01*
X111590498Y-27687747D01*
X111719423Y-27577634D01*
X111818361Y-27439947D01*
X111826237Y-27420356D01*
X111878766Y-27289687D01*
X111878767Y-27289685D01*
X111881601Y-27282634D01*
X111888877Y-27231511D01*
X111904909Y-27118862D01*
X111904909Y-27118859D01*
X111905490Y-27114778D01*
X111905645Y-27100000D01*
X111885276Y-26931680D01*
X111825345Y-26773077D01*
X111729312Y-26633349D01*
X111723641Y-26628296D01*
X111608392Y-26525612D01*
X111608388Y-26525610D01*
X111602721Y-26520560D01*
X111577421Y-26507164D01*
X111535080Y-26484746D01*
X111452881Y-26441224D01*
X111288441Y-26399919D01*
X111280843Y-26399879D01*
X111280841Y-26399879D01*
X111259109Y-26399765D01*
X111191095Y-26379406D01*
X111170676Y-26362862D01*
X110595371Y-25787557D01*
X110561345Y-25725245D01*
X110566410Y-25654430D01*
X110608957Y-25597594D01*
X110620042Y-25590177D01*
X110624184Y-25587713D01*
X110624185Y-25587712D01*
X110629144Y-25584762D01*
X110788119Y-25445345D01*
X110919024Y-25279292D01*
X110930049Y-25258338D01*
X111014785Y-25097280D01*
X111017477Y-25092164D01*
X111053167Y-24977223D01*
X111092470Y-24918098D01*
X111157500Y-24889607D01*
X111227609Y-24900797D01*
X111280539Y-24948114D01*
X111299500Y-25014587D01*
X111299500Y-25292772D01*
X111310364Y-25382547D01*
X111313344Y-25390075D01*
X111313345Y-25390077D01*
X111324602Y-25418509D01*
X111365887Y-25522783D01*
X111457078Y-25642922D01*
X111577217Y-25734113D01*
X111631760Y-25755708D01*
X111709923Y-25786655D01*
X111709925Y-25786656D01*
X111717453Y-25789636D01*
X111807228Y-25800500D01*
X113092772Y-25800500D01*
X113182547Y-25789636D01*
X113190075Y-25786656D01*
X113190077Y-25786655D01*
X113268240Y-25755708D01*
X113322783Y-25734113D01*
X113442922Y-25642922D01*
X113534113Y-25522783D01*
X113575398Y-25418509D01*
X113586655Y-25390077D01*
X113586656Y-25390075D01*
X113589636Y-25382547D01*
X113600500Y-25292772D01*
X113600500Y-25003301D01*
X117287084Y-25003301D01*
X117307080Y-25384833D01*
X117307766Y-25391371D01*
X117367535Y-25768734D01*
X117368906Y-25775184D01*
X117467788Y-26144216D01*
X117469829Y-26150498D01*
X117606740Y-26507164D01*
X117609422Y-26513189D01*
X117782872Y-26853603D01*
X117786169Y-26859313D01*
X117994253Y-27179735D01*
X117998123Y-27185061D01*
X118191478Y-27423835D01*
X118203733Y-27432300D01*
X118214824Y-27425966D01*
X120627978Y-25012812D01*
X120634356Y-25001132D01*
X121364408Y-25001132D01*
X121364539Y-25002965D01*
X121368790Y-25009580D01*
X123784310Y-27425100D01*
X123797386Y-27432241D01*
X123807753Y-27424784D01*
X124001877Y-27185061D01*
X124005747Y-27179735D01*
X124213831Y-26859313D01*
X124217128Y-26853603D01*
X124390578Y-26513189D01*
X124393260Y-26507164D01*
X124530171Y-26150498D01*
X124532212Y-26144216D01*
X124631094Y-25775184D01*
X124632465Y-25768734D01*
X124692234Y-25391371D01*
X124692920Y-25384833D01*
X124712916Y-25003301D01*
X124712916Y-24996699D01*
X124692920Y-24615167D01*
X124692234Y-24608629D01*
X124632465Y-24231266D01*
X124631094Y-24224816D01*
X124532212Y-23855784D01*
X124530171Y-23849502D01*
X124393260Y-23492836D01*
X124390578Y-23486811D01*
X124217128Y-23146397D01*
X124213831Y-23140687D01*
X124005747Y-22820265D01*
X124001877Y-22814939D01*
X123808522Y-22576165D01*
X123796267Y-22567700D01*
X123785176Y-22574034D01*
X121372022Y-24987188D01*
X121364408Y-25001132D01*
X120634356Y-25001132D01*
X120635592Y-24998868D01*
X120635461Y-24997035D01*
X120631210Y-24990420D01*
X118215690Y-22574900D01*
X118202614Y-22567759D01*
X118192247Y-22575216D01*
X117998123Y-22814939D01*
X117994253Y-22820265D01*
X117786169Y-23140687D01*
X117782872Y-23146397D01*
X117609422Y-23486811D01*
X117606740Y-23492836D01*
X117469829Y-23849502D01*
X117467788Y-23855784D01*
X117368906Y-24224816D01*
X117367535Y-24231266D01*
X117307766Y-24608629D01*
X117307080Y-24615167D01*
X117287084Y-24996699D01*
X117287084Y-25003301D01*
X113600500Y-25003301D01*
X113600500Y-23757228D01*
X113589636Y-23667453D01*
X113534113Y-23527217D01*
X113442922Y-23407078D01*
X113322783Y-23315887D01*
X113242096Y-23283941D01*
X113190077Y-23263345D01*
X113190075Y-23263344D01*
X113182547Y-23260364D01*
X113092772Y-23249500D01*
X111807228Y-23249500D01*
X111717453Y-23260364D01*
X111709925Y-23263344D01*
X111709923Y-23263345D01*
X111657904Y-23283941D01*
X111577217Y-23315887D01*
X111457078Y-23407078D01*
X111365887Y-23527217D01*
X111310364Y-23667453D01*
X111299500Y-23757228D01*
X111299500Y-24035215D01*
X111279498Y-24103336D01*
X111225842Y-24149829D01*
X111155568Y-24159933D01*
X111090988Y-24130439D01*
X111052231Y-24069416D01*
X111030255Y-23991496D01*
X111028686Y-23985931D01*
X111017553Y-23963354D01*
X110937719Y-23801469D01*
X110935165Y-23796290D01*
X110861538Y-23697692D01*
X110812104Y-23631491D01*
X110812103Y-23631490D01*
X110808651Y-23626867D01*
X110653381Y-23483337D01*
X110474554Y-23370505D01*
X110278160Y-23292152D01*
X110272503Y-23291027D01*
X110272497Y-23291025D01*
X110076442Y-23252028D01*
X110076440Y-23252028D01*
X110070775Y-23250901D01*
X110065000Y-23250825D01*
X110064996Y-23250825D01*
X109958976Y-23249437D01*
X109859346Y-23248133D01*
X109853649Y-23249112D01*
X109853648Y-23249112D01*
X109656650Y-23282962D01*
X109656649Y-23282962D01*
X109650953Y-23283941D01*
X109452575Y-23357127D01*
X109447614Y-23360079D01*
X109447613Y-23360079D01*
X109368615Y-23407078D01*
X109270856Y-23465238D01*
X109111881Y-23604655D01*
X108980976Y-23770708D01*
X108978287Y-23775819D01*
X108978285Y-23775822D01*
X108964792Y-23801469D01*
X108882523Y-23957836D01*
X108819820Y-24159773D01*
X108817944Y-24159191D01*
X108788401Y-24213906D01*
X108726249Y-24248224D01*
X108655410Y-24243492D01*
X108598375Y-24201214D01*
X108577618Y-24159432D01*
X108530255Y-23991496D01*
X108528686Y-23985931D01*
X108517553Y-23963354D01*
X108437719Y-23801469D01*
X108435165Y-23796290D01*
X108361538Y-23697692D01*
X108312104Y-23631491D01*
X108312103Y-23631490D01*
X108308651Y-23626867D01*
X108153381Y-23483337D01*
X107974554Y-23370505D01*
X107778160Y-23292152D01*
X107772503Y-23291027D01*
X107772497Y-23291025D01*
X107576442Y-23252028D01*
X107576440Y-23252028D01*
X107570775Y-23250901D01*
X107565000Y-23250825D01*
X107564996Y-23250825D01*
X107458976Y-23249437D01*
X107359346Y-23248133D01*
X107353649Y-23249112D01*
X107353648Y-23249112D01*
X107156650Y-23282962D01*
X107156649Y-23282962D01*
X107150953Y-23283941D01*
X106952575Y-23357127D01*
X106947614Y-23360079D01*
X106947613Y-23360079D01*
X106868615Y-23407078D01*
X106770856Y-23465238D01*
X106611881Y-23604655D01*
X106480976Y-23770708D01*
X106478287Y-23775819D01*
X106478285Y-23775822D01*
X106464792Y-23801469D01*
X106382523Y-23957836D01*
X106319820Y-24159773D01*
X106317944Y-24159191D01*
X106288401Y-24213906D01*
X106226249Y-24248224D01*
X106155410Y-24243492D01*
X106098375Y-24201214D01*
X106077618Y-24159432D01*
X106030255Y-23991496D01*
X106028686Y-23985931D01*
X106017553Y-23963354D01*
X105937719Y-23801469D01*
X105935165Y-23796290D01*
X105861538Y-23697692D01*
X105812104Y-23631491D01*
X105812103Y-23631490D01*
X105808651Y-23626867D01*
X105653381Y-23483337D01*
X105474554Y-23370505D01*
X105278160Y-23292152D01*
X105272503Y-23291027D01*
X105272497Y-23291025D01*
X105076442Y-23252028D01*
X105076440Y-23252028D01*
X105070775Y-23250901D01*
X105065000Y-23250825D01*
X105064996Y-23250825D01*
X104958976Y-23249437D01*
X104859346Y-23248133D01*
X104853649Y-23249112D01*
X104853648Y-23249112D01*
X104656650Y-23282962D01*
X104656649Y-23282962D01*
X104650953Y-23283941D01*
X104452575Y-23357127D01*
X104447614Y-23360079D01*
X104447613Y-23360079D01*
X104368615Y-23407078D01*
X104270856Y-23465238D01*
X104111881Y-23604655D01*
X103980976Y-23770708D01*
X103978287Y-23775819D01*
X103978285Y-23775822D01*
X103964792Y-23801469D01*
X103882523Y-23957836D01*
X103819820Y-24159773D01*
X103819141Y-24165510D01*
X103812122Y-24224816D01*
X103799500Y-24331455D01*
X103799500Y-24703641D01*
X92600500Y-24703641D01*
X92600500Y-23757228D01*
X92589636Y-23667453D01*
X92534113Y-23527217D01*
X92442922Y-23407078D01*
X92322783Y-23315887D01*
X92242096Y-23283941D01*
X92190077Y-23263345D01*
X92190075Y-23263344D01*
X92182547Y-23260364D01*
X92092772Y-23249500D01*
X90807228Y-23249500D01*
X90717453Y-23260364D01*
X90709925Y-23263344D01*
X90709923Y-23263345D01*
X90657904Y-23283941D01*
X90577217Y-23315887D01*
X90457078Y-23407078D01*
X90365887Y-23527217D01*
X90310364Y-23667453D01*
X90299500Y-23757228D01*
X90299500Y-24035215D01*
X90279498Y-24103336D01*
X90225842Y-24149829D01*
X90155568Y-24159933D01*
X90090988Y-24130439D01*
X90052231Y-24069416D01*
X90030255Y-23991496D01*
X90028686Y-23985931D01*
X90017553Y-23963354D01*
X89937719Y-23801469D01*
X89935165Y-23796290D01*
X89861538Y-23697692D01*
X89812104Y-23631491D01*
X89812103Y-23631490D01*
X89808651Y-23626867D01*
X89653381Y-23483337D01*
X89474554Y-23370505D01*
X89278160Y-23292152D01*
X89272503Y-23291027D01*
X89272497Y-23291025D01*
X89076442Y-23252028D01*
X89076440Y-23252028D01*
X89070775Y-23250901D01*
X89065000Y-23250825D01*
X89064996Y-23250825D01*
X88958976Y-23249437D01*
X88859346Y-23248133D01*
X88853649Y-23249112D01*
X88853648Y-23249112D01*
X88656650Y-23282962D01*
X88656649Y-23282962D01*
X88650953Y-23283941D01*
X88452575Y-23357127D01*
X88447614Y-23360079D01*
X88447613Y-23360079D01*
X88368615Y-23407078D01*
X88270856Y-23465238D01*
X88111881Y-23604655D01*
X87980976Y-23770708D01*
X87978287Y-23775819D01*
X87978285Y-23775822D01*
X87964792Y-23801469D01*
X87882523Y-23957836D01*
X87819820Y-24159773D01*
X87817944Y-24159191D01*
X87788401Y-24213906D01*
X87726249Y-24248224D01*
X87655410Y-24243492D01*
X87598375Y-24201214D01*
X87577618Y-24159432D01*
X87530255Y-23991496D01*
X87528686Y-23985931D01*
X87517553Y-23963354D01*
X87437719Y-23801469D01*
X87435165Y-23796290D01*
X87361538Y-23697692D01*
X87312104Y-23631491D01*
X87312103Y-23631490D01*
X87308651Y-23626867D01*
X87153381Y-23483337D01*
X86974554Y-23370505D01*
X86778160Y-23292152D01*
X86772503Y-23291027D01*
X86772497Y-23291025D01*
X86576442Y-23252028D01*
X86576440Y-23252028D01*
X86570775Y-23250901D01*
X86565000Y-23250825D01*
X86564996Y-23250825D01*
X86458976Y-23249437D01*
X86359346Y-23248133D01*
X86353649Y-23249112D01*
X86353648Y-23249112D01*
X86156650Y-23282962D01*
X86156649Y-23282962D01*
X86150953Y-23283941D01*
X85952575Y-23357127D01*
X85947614Y-23360079D01*
X85947613Y-23360079D01*
X85868615Y-23407078D01*
X85770856Y-23465238D01*
X85611881Y-23604655D01*
X85480976Y-23770708D01*
X85478287Y-23775819D01*
X85478285Y-23775822D01*
X85464792Y-23801469D01*
X85382523Y-23957836D01*
X85319820Y-24159773D01*
X85317944Y-24159191D01*
X85288401Y-24213906D01*
X85226249Y-24248224D01*
X85155410Y-24243492D01*
X85098375Y-24201214D01*
X85077618Y-24159432D01*
X85030255Y-23991496D01*
X85028686Y-23985931D01*
X85017553Y-23963354D01*
X84937719Y-23801469D01*
X84935165Y-23796290D01*
X84861538Y-23697692D01*
X84812104Y-23631491D01*
X84812103Y-23631490D01*
X84808651Y-23626867D01*
X84653381Y-23483337D01*
X84474554Y-23370505D01*
X84278160Y-23292152D01*
X84272503Y-23291027D01*
X84272497Y-23291025D01*
X84076442Y-23252028D01*
X84076440Y-23252028D01*
X84070775Y-23250901D01*
X84065000Y-23250825D01*
X84064996Y-23250825D01*
X83958976Y-23249437D01*
X83859346Y-23248133D01*
X83853649Y-23249112D01*
X83853648Y-23249112D01*
X83656650Y-23282962D01*
X83656649Y-23282962D01*
X83650953Y-23283941D01*
X83452575Y-23357127D01*
X83447614Y-23360079D01*
X83447613Y-23360079D01*
X83368615Y-23407078D01*
X83270856Y-23465238D01*
X83111881Y-23604655D01*
X82980976Y-23770708D01*
X82978287Y-23775819D01*
X82978285Y-23775822D01*
X82964792Y-23801469D01*
X82882523Y-23957836D01*
X82819820Y-24159773D01*
X82819141Y-24165510D01*
X82812122Y-24224816D01*
X82799500Y-24331455D01*
X82799500Y-24703641D01*
X71600500Y-24703641D01*
X71600500Y-23757228D01*
X71589636Y-23667453D01*
X71534113Y-23527217D01*
X71442922Y-23407078D01*
X71322783Y-23315887D01*
X71242096Y-23283941D01*
X71190077Y-23263345D01*
X71190075Y-23263344D01*
X71182547Y-23260364D01*
X71092772Y-23249500D01*
X69807228Y-23249500D01*
X69717453Y-23260364D01*
X69709925Y-23263344D01*
X69709923Y-23263345D01*
X69657904Y-23283941D01*
X69577217Y-23315887D01*
X69457078Y-23407078D01*
X69365887Y-23527217D01*
X69310364Y-23667453D01*
X69299500Y-23757228D01*
X69299500Y-24035215D01*
X69279498Y-24103336D01*
X69225842Y-24149829D01*
X69155568Y-24159933D01*
X69090988Y-24130439D01*
X69052231Y-24069416D01*
X69030255Y-23991496D01*
X69028686Y-23985931D01*
X69017553Y-23963354D01*
X68937719Y-23801469D01*
X68935165Y-23796290D01*
X68861538Y-23697692D01*
X68812104Y-23631491D01*
X68812103Y-23631490D01*
X68808651Y-23626867D01*
X68653381Y-23483337D01*
X68474554Y-23370505D01*
X68278160Y-23292152D01*
X68272503Y-23291027D01*
X68272497Y-23291025D01*
X68076442Y-23252028D01*
X68076440Y-23252028D01*
X68070775Y-23250901D01*
X68065000Y-23250825D01*
X68064996Y-23250825D01*
X67958976Y-23249437D01*
X67859346Y-23248133D01*
X67853649Y-23249112D01*
X67853648Y-23249112D01*
X67656650Y-23282962D01*
X67656649Y-23282962D01*
X67650953Y-23283941D01*
X67452575Y-23357127D01*
X67447614Y-23360079D01*
X67447613Y-23360079D01*
X67368615Y-23407078D01*
X67270856Y-23465238D01*
X67111881Y-23604655D01*
X66980976Y-23770708D01*
X66978287Y-23775819D01*
X66978285Y-23775822D01*
X66964792Y-23801469D01*
X66882523Y-23957836D01*
X66819820Y-24159773D01*
X66817944Y-24159191D01*
X66788401Y-24213906D01*
X66726249Y-24248224D01*
X66655410Y-24243492D01*
X66598375Y-24201214D01*
X66577618Y-24159432D01*
X66530255Y-23991496D01*
X66528686Y-23985931D01*
X66517553Y-23963354D01*
X66437719Y-23801469D01*
X66435165Y-23796290D01*
X66361538Y-23697692D01*
X66312104Y-23631491D01*
X66312103Y-23631490D01*
X66308651Y-23626867D01*
X66153381Y-23483337D01*
X65974554Y-23370505D01*
X65778160Y-23292152D01*
X65772503Y-23291027D01*
X65772497Y-23291025D01*
X65576442Y-23252028D01*
X65576440Y-23252028D01*
X65570775Y-23250901D01*
X65565000Y-23250825D01*
X65564996Y-23250825D01*
X65458976Y-23249437D01*
X65359346Y-23248133D01*
X65353649Y-23249112D01*
X65353648Y-23249112D01*
X65156650Y-23282962D01*
X65156649Y-23282962D01*
X65150953Y-23283941D01*
X64952575Y-23357127D01*
X64947614Y-23360079D01*
X64947613Y-23360079D01*
X64868615Y-23407078D01*
X64770856Y-23465238D01*
X64611881Y-23604655D01*
X64480976Y-23770708D01*
X64478287Y-23775819D01*
X64478285Y-23775822D01*
X64464792Y-23801469D01*
X64382523Y-23957836D01*
X64319820Y-24159773D01*
X64317944Y-24159191D01*
X64288401Y-24213906D01*
X64226249Y-24248224D01*
X64155410Y-24243492D01*
X64098375Y-24201214D01*
X64077618Y-24159432D01*
X64030255Y-23991496D01*
X64028686Y-23985931D01*
X64017553Y-23963354D01*
X63937719Y-23801469D01*
X63935165Y-23796290D01*
X63861538Y-23697692D01*
X63812104Y-23631491D01*
X63812103Y-23631490D01*
X63808651Y-23626867D01*
X63653381Y-23483337D01*
X63474554Y-23370505D01*
X63278160Y-23292152D01*
X63272503Y-23291027D01*
X63272497Y-23291025D01*
X63076442Y-23252028D01*
X63076440Y-23252028D01*
X63070775Y-23250901D01*
X63065000Y-23250825D01*
X63064996Y-23250825D01*
X62958976Y-23249437D01*
X62859346Y-23248133D01*
X62853649Y-23249112D01*
X62853648Y-23249112D01*
X62656650Y-23282962D01*
X62656649Y-23282962D01*
X62650953Y-23283941D01*
X62452575Y-23357127D01*
X62447614Y-23360079D01*
X62447613Y-23360079D01*
X62368615Y-23407078D01*
X62270856Y-23465238D01*
X62111881Y-23604655D01*
X61980976Y-23770708D01*
X61978287Y-23775819D01*
X61978285Y-23775822D01*
X61964792Y-23801469D01*
X61882523Y-23957836D01*
X61819820Y-24159773D01*
X61819141Y-24165510D01*
X61812122Y-24224816D01*
X61799500Y-24331455D01*
X61799500Y-24703641D01*
X50900500Y-24703641D01*
X50900500Y-23757228D01*
X50889636Y-23667453D01*
X50834113Y-23527217D01*
X50742922Y-23407078D01*
X50622783Y-23315887D01*
X50542096Y-23283941D01*
X50490077Y-23263345D01*
X50490075Y-23263344D01*
X50482547Y-23260364D01*
X50392772Y-23249500D01*
X49107228Y-23249500D01*
X49017453Y-23260364D01*
X49009925Y-23263344D01*
X49009923Y-23263345D01*
X48957904Y-23283941D01*
X48877217Y-23315887D01*
X48757078Y-23407078D01*
X48665887Y-23527217D01*
X48610364Y-23667453D01*
X48599500Y-23757228D01*
X48599500Y-24035215D01*
X48579498Y-24103336D01*
X48525842Y-24149829D01*
X48455568Y-24159933D01*
X48390988Y-24130439D01*
X48352231Y-24069416D01*
X48330255Y-23991496D01*
X48328686Y-23985931D01*
X48317553Y-23963354D01*
X48237719Y-23801469D01*
X48235165Y-23796290D01*
X48161538Y-23697692D01*
X48112104Y-23631491D01*
X48112103Y-23631490D01*
X48108651Y-23626867D01*
X47953381Y-23483337D01*
X47774554Y-23370505D01*
X47578160Y-23292152D01*
X47572503Y-23291027D01*
X47572497Y-23291025D01*
X47376442Y-23252028D01*
X47376440Y-23252028D01*
X47370775Y-23250901D01*
X47365000Y-23250825D01*
X47364996Y-23250825D01*
X47258976Y-23249437D01*
X47159346Y-23248133D01*
X47153649Y-23249112D01*
X47153648Y-23249112D01*
X46956650Y-23282962D01*
X46956649Y-23282962D01*
X46950953Y-23283941D01*
X46752575Y-23357127D01*
X46747614Y-23360079D01*
X46747613Y-23360079D01*
X46668615Y-23407078D01*
X46570856Y-23465238D01*
X46411881Y-23604655D01*
X46280976Y-23770708D01*
X46278287Y-23775819D01*
X46278285Y-23775822D01*
X46264792Y-23801469D01*
X46182523Y-23957836D01*
X46119820Y-24159773D01*
X46117944Y-24159191D01*
X46088401Y-24213906D01*
X46026249Y-24248224D01*
X45955410Y-24243492D01*
X45898375Y-24201214D01*
X45877618Y-24159432D01*
X45830255Y-23991496D01*
X45828686Y-23985931D01*
X45817553Y-23963354D01*
X45737719Y-23801469D01*
X45735165Y-23796290D01*
X45661538Y-23697692D01*
X45612104Y-23631491D01*
X45612103Y-23631490D01*
X45608651Y-23626867D01*
X45453381Y-23483337D01*
X45274554Y-23370505D01*
X45078160Y-23292152D01*
X45072503Y-23291027D01*
X45072497Y-23291025D01*
X44876442Y-23252028D01*
X44876440Y-23252028D01*
X44870775Y-23250901D01*
X44865000Y-23250825D01*
X44864996Y-23250825D01*
X44758976Y-23249437D01*
X44659346Y-23248133D01*
X44653649Y-23249112D01*
X44653648Y-23249112D01*
X44456650Y-23282962D01*
X44456649Y-23282962D01*
X44450953Y-23283941D01*
X44252575Y-23357127D01*
X44247614Y-23360079D01*
X44247613Y-23360079D01*
X44168615Y-23407078D01*
X44070856Y-23465238D01*
X43911881Y-23604655D01*
X43780976Y-23770708D01*
X43778287Y-23775819D01*
X43778285Y-23775822D01*
X43764792Y-23801469D01*
X43682523Y-23957836D01*
X43619820Y-24159773D01*
X43617944Y-24159191D01*
X43588401Y-24213906D01*
X43526249Y-24248224D01*
X43455410Y-24243492D01*
X43398375Y-24201214D01*
X43377618Y-24159432D01*
X43330255Y-23991496D01*
X43328686Y-23985931D01*
X43317553Y-23963354D01*
X43237719Y-23801469D01*
X43235165Y-23796290D01*
X43161538Y-23697692D01*
X43112104Y-23631491D01*
X43112103Y-23631490D01*
X43108651Y-23626867D01*
X42953381Y-23483337D01*
X42774554Y-23370505D01*
X42578160Y-23292152D01*
X42572503Y-23291027D01*
X42572497Y-23291025D01*
X42376442Y-23252028D01*
X42376440Y-23252028D01*
X42370775Y-23250901D01*
X42365000Y-23250825D01*
X42364996Y-23250825D01*
X42258976Y-23249437D01*
X42159346Y-23248133D01*
X42153649Y-23249112D01*
X42153648Y-23249112D01*
X41956650Y-23282962D01*
X41956649Y-23282962D01*
X41950953Y-23283941D01*
X41752575Y-23357127D01*
X41747614Y-23360079D01*
X41747613Y-23360079D01*
X41668615Y-23407078D01*
X41570856Y-23465238D01*
X41411881Y-23604655D01*
X41280976Y-23770708D01*
X41278287Y-23775819D01*
X41278285Y-23775822D01*
X41264792Y-23801469D01*
X41182523Y-23957836D01*
X41119820Y-24159773D01*
X41119141Y-24165510D01*
X41112122Y-24224816D01*
X41099500Y-24331455D01*
X41099500Y-24703641D01*
X31400500Y-24703641D01*
X31400500Y-22203733D01*
X118567700Y-22203733D01*
X118574034Y-22214824D01*
X120987188Y-24627978D01*
X121001132Y-24635592D01*
X121002965Y-24635461D01*
X121009580Y-24631210D01*
X123425100Y-22215690D01*
X123432241Y-22202614D01*
X123424784Y-22192247D01*
X123185065Y-21998126D01*
X123179728Y-21994249D01*
X122859315Y-21786170D01*
X122853606Y-21782873D01*
X122513189Y-21609422D01*
X122507164Y-21606740D01*
X122150498Y-21469829D01*
X122144216Y-21467788D01*
X121775184Y-21368906D01*
X121768734Y-21367535D01*
X121391371Y-21307766D01*
X121384833Y-21307080D01*
X121003301Y-21287084D01*
X120996699Y-21287084D01*
X120615167Y-21307080D01*
X120608629Y-21307766D01*
X120231266Y-21367535D01*
X120224816Y-21368906D01*
X119855784Y-21467788D01*
X119849502Y-21469829D01*
X119492836Y-21606740D01*
X119486811Y-21609422D01*
X119146397Y-21782872D01*
X119140687Y-21786169D01*
X118820265Y-21994253D01*
X118814939Y-21998123D01*
X118576165Y-22191478D01*
X118567700Y-22203733D01*
X31400500Y-22203733D01*
X31400500Y-21867000D01*
X28999500Y-21867000D01*
X28999500Y-25333000D01*
X28695637Y-25333000D01*
X28712916Y-25003301D01*
X28712916Y-24996699D01*
X28692920Y-24615167D01*
X28692234Y-24608629D01*
X28632465Y-24231266D01*
X28631094Y-24224816D01*
X28532212Y-23855784D01*
X28530171Y-23849502D01*
X28393260Y-23492836D01*
X28390578Y-23486811D01*
X28217128Y-23146397D01*
X28213831Y-23140687D01*
X28005747Y-22820265D01*
X28001877Y-22814939D01*
X27808522Y-22576165D01*
X27796267Y-22567700D01*
X27785176Y-22574034D01*
X25372022Y-24987188D01*
X25364408Y-25001132D01*
X24634356Y-25001132D01*
X24635592Y-24998868D01*
X24635461Y-24997035D01*
X24631210Y-24990420D01*
X22215690Y-22574900D01*
X22202614Y-22567759D01*
X22192247Y-22575216D01*
X21998123Y-22814939D01*
X21994253Y-22820265D01*
X21786169Y-23140687D01*
X21782872Y-23146397D01*
X21609422Y-23486811D01*
X21606740Y-23492836D01*
X21469829Y-23849502D01*
X21467788Y-23855784D01*
X21368906Y-24224816D01*
X21367535Y-24231266D01*
X21307766Y-24608629D01*
X21307080Y-24615167D01*
X21287084Y-24996699D01*
X21287084Y-25003301D01*
X20304554Y-25003301D01*
X20305136Y-25000000D01*
X20303222Y-24989145D01*
X20303222Y-24983450D01*
X20302022Y-24965138D01*
X20318143Y-24595908D01*
X20319101Y-24584958D01*
X20371178Y-24189394D01*
X20373087Y-24178568D01*
X20459442Y-23789049D01*
X20462287Y-23778432D01*
X20543651Y-23520377D01*
X20582262Y-23397919D01*
X20586018Y-23387598D01*
X20591823Y-23373584D01*
X20738708Y-23018972D01*
X20743350Y-23009019D01*
X20841610Y-22820265D01*
X20927573Y-22655132D01*
X20933068Y-22645613D01*
X21147436Y-22309123D01*
X21153740Y-22300119D01*
X21227699Y-22203733D01*
X22567700Y-22203733D01*
X22574034Y-22214824D01*
X24987188Y-24627978D01*
X25001132Y-24635592D01*
X25002965Y-24635461D01*
X25009580Y-24631210D01*
X27425100Y-22215690D01*
X27432241Y-22202614D01*
X27424784Y-22192247D01*
X27185065Y-21998126D01*
X27179728Y-21994249D01*
X26859315Y-21786170D01*
X26853606Y-21782873D01*
X26513189Y-21609422D01*
X26507164Y-21606740D01*
X26150498Y-21469829D01*
X26144216Y-21467788D01*
X25775184Y-21368906D01*
X25768734Y-21367535D01*
X25391371Y-21307766D01*
X25384833Y-21307080D01*
X25003301Y-21287084D01*
X24996699Y-21287084D01*
X24615167Y-21307080D01*
X24608629Y-21307766D01*
X24231266Y-21367535D01*
X24224816Y-21368906D01*
X23855784Y-21467788D01*
X23849502Y-21469829D01*
X23492836Y-21606740D01*
X23486811Y-21609422D01*
X23146397Y-21782872D01*
X23140687Y-21786169D01*
X22820265Y-21994253D01*
X22814939Y-21998123D01*
X22576165Y-22191478D01*
X22567700Y-22203733D01*
X21227699Y-22203733D01*
X21396629Y-21983579D01*
X21403695Y-21975159D01*
X21490390Y-21880548D01*
X21673239Y-21681004D01*
X21681008Y-21673235D01*
X21753575Y-21606740D01*
X21975162Y-21403693D01*
X21983579Y-21396629D01*
X22019709Y-21368906D01*
X22300119Y-21153740D01*
X22309123Y-21147436D01*
X22645613Y-20933068D01*
X22655133Y-20927572D01*
X23009028Y-20743346D01*
X23018972Y-20738708D01*
X23387605Y-20586015D01*
X23397919Y-20582262D01*
X23603309Y-20517503D01*
X23778432Y-20462287D01*
X23789049Y-20459442D01*
X24178568Y-20373087D01*
X24189394Y-20371178D01*
X24584958Y-20319101D01*
X24595907Y-20318143D01*
X24965138Y-20302022D01*
X24983450Y-20303222D01*
X24989145Y-20303222D01*
X25000000Y-20305136D01*
X25015437Y-20302414D01*
X25037317Y-20300500D01*
X120962683Y-20300500D01*
X120984563Y-20302414D01*
G37*
%TD.AperFunction*%
%TD*%
M02*
