M48
; DRILL file {KiCad 6.0.11-2627ca5db0~126~ubuntu22.04.1} date dim. 12 mars 2023 12:19:36
; FORMAT={-:-/ absolute / metric / decimal}
; #@! TF.CreationDate,2023-03-12T12:19:36+01:00
; #@! TF.GenerationSoftware,Kicad,Pcbnew,6.0.11-2627ca5db0~126~ubuntu22.04.1
; #@! TF.FileFunction,Plated,1,2,PTH
FMAT,2
METRIC
; #@! TA.AperFunction,Plated,PTH,ComponentDrill
T1C0.300
; #@! TA.AperFunction,Plated,PTH,ViaDrill
T2C0.400
; #@! TA.AperFunction,Plated,PTH,ComponentDrill
T3C0.500
; #@! TA.AperFunction,Plated,PTH,ComponentDrill
T4C0.950
; #@! TA.AperFunction,Plated,PTH,ComponentDrill
T5C3.200
%
G90
G05
T1
X43.6Y-34.875
X43.6Y-37.125
X45.2Y-34.875
X45.2Y-37.125
X46.8Y-34.875
X46.8Y-37.125
X48.4Y-34.875
X48.4Y-37.125
X64.3Y-34.875
X64.3Y-37.125
X65.9Y-34.875
X65.9Y-37.125
X67.5Y-34.875
X67.5Y-37.125
X69.1Y-34.875
X69.1Y-37.125
X85.3Y-34.875
X85.3Y-37.125
X86.9Y-34.875
X86.9Y-37.125
X88.5Y-34.875
X88.5Y-37.125
X90.1Y-34.875
X90.1Y-37.125
X106.3Y-34.875
X106.3Y-37.125
X107.9Y-34.875
X107.9Y-37.125
X109.5Y-34.875
X109.5Y-37.125
X111.1Y-34.875
X111.1Y-37.125
T2
X21.0Y-25.0
X21.0Y-27.0
X21.0Y-29.0
X21.0Y-32.5
X21.0Y-34.5
X21.0Y-36.5
X21.0Y-39.0
X21.0Y-41.0
X21.0Y-44.0
X21.0Y-46.0
X21.0Y-48.0
X21.5Y-23.0
X21.5Y-50.0
X23.0Y-21.5
X23.0Y-51.5
X25.0Y-21.0
X25.0Y-52.0
X27.0Y-21.0
X27.0Y-52.0
X28.4Y-41.2
X28.6Y-30.4
X29.0Y-21.0
X29.0Y-45.2
X29.0Y-47.0
X29.0Y-49.6
X29.0Y-52.0
X29.6Y-30.4
X30.6Y-30.4
X31.0Y-21.0
X31.0Y-45.2
X31.0Y-52.0
X31.4Y-25.4
X31.6Y-30.4
X32.4Y-32.2
X32.4Y-41.2
X32.6Y-30.4
X33.0Y-21.0
X33.0Y-45.2
X33.0Y-52.0
X33.3Y-27.2
X35.0Y-21.0
X35.0Y-45.2
X35.0Y-52.0
X35.2Y-27.8
X36.6Y-32.2
X36.8Y-41.2
X36.95Y-30.4
X37.0Y-21.0
X37.0Y-52.0
X38.0Y-40.3
X38.4Y-28.6
X38.4Y-32.2
X39.0Y-21.0
X39.0Y-52.0
X39.4Y-45.2
X39.55Y-30.4
X39.9Y-28.5
X40.3Y-32.3
X40.55Y-30.4
X41.0Y-21.0
X41.0Y-45.2
X41.0Y-52.0
X42.4Y-40.3
X42.8Y-30.4
X43.0Y-21.0
X43.0Y-45.2
X43.0Y-52.0
X44.0Y-47.4
X44.0Y-49.6
X45.0Y-21.0
X45.0Y-52.0
X47.0Y-21.0
X47.0Y-52.0
X47.4Y-40.3
X48.5Y-27.1
X49.0Y-21.0
X49.0Y-52.0
X50.3Y-40.3
X51.0Y-21.0
X51.0Y-52.0
X51.3Y-38.9
X51.9Y-44.8
X52.0Y-41.2
X52.1Y-28.5
X52.44Y-30.4
X53.0Y-21.0
X53.0Y-52.0
X53.44Y-30.4
X54.0Y-27.2
X54.44Y-30.4
X54.6Y-32.2
X55.0Y-21.0
X55.0Y-52.0
X56.0Y-38.7
X56.0Y-41.2
X56.2Y-28.6
X56.2Y-32.2
X56.3Y-43.2
X56.3Y-47.0
X57.0Y-21.0
X57.0Y-52.0
X57.65Y-30.4
X59.0Y-21.0
X59.0Y-28.6
X59.0Y-52.0
X59.2Y-32.2
X59.4Y-38.7
X59.6Y-41.2
X60.25Y-30.4
X60.6Y-28.5
X61.0Y-21.0
X61.0Y-32.3
X61.0Y-52.0
X61.25Y-30.4
X63.0Y-21.0
X63.0Y-52.0
X63.1Y-40.3
X63.5Y-30.4
X63.8Y-44.8
X65.0Y-21.0
X65.0Y-52.0
X67.0Y-21.0
X67.0Y-52.0
X68.1Y-40.3
X69.0Y-21.0
X69.0Y-52.0
X69.2Y-27.1
X71.0Y-21.0
X71.0Y-40.3
X71.0Y-52.0
X72.1Y-38.9
X72.8Y-28.5
X73.0Y-21.0
X73.0Y-41.2
X73.0Y-52.0
X73.14Y-30.4
X74.14Y-30.4
X75.0Y-21.0
X75.0Y-27.2
X75.0Y-52.0
X75.14Y-30.4
X75.6Y-32.2
X77.0Y-21.0
X77.0Y-38.7
X77.0Y-41.2
X77.0Y-52.0
X77.2Y-28.6
X77.2Y-32.2
X78.65Y-30.4
X79.0Y-21.0
X79.0Y-52.0
X80.0Y-28.6
X80.2Y-32.2
X80.4Y-38.7
X80.6Y-41.2
X81.0Y-21.0
X81.0Y-52.0
X81.312Y-30.4
X81.6Y-28.5
X82.0Y-32.3
X82.312Y-30.4
X83.0Y-21.0
X83.0Y-52.0
X84.1Y-40.3
X84.54Y-30.422
X85.0Y-21.0
X85.0Y-52.0
X87.0Y-21.0
X87.0Y-52.0
X89.0Y-21.0
X89.0Y-52.0
X89.1Y-40.3
X90.2Y-27.1
X91.0Y-21.0
X91.0Y-52.0
X92.0Y-40.3
X93.0Y-21.0
X93.0Y-52.0
X93.3Y-38.9
X93.6Y-44.8
X93.8Y-28.5
X94.0Y-41.2
X94.14Y-30.4
X95.0Y-21.0
X95.0Y-52.0
X95.14Y-30.4
X96.0Y-27.2
X96.14Y-30.4
X96.6Y-32.2
X97.0Y-21.0
X97.0Y-52.0
X98.0Y-38.7
X98.0Y-41.2
X98.2Y-28.6
X98.2Y-32.2
X98.3Y-43.2
X98.3Y-47.0
X99.0Y-21.0
X99.0Y-52.0
X99.65Y-30.4
X101.0Y-21.0
X101.0Y-28.6
X101.0Y-52.0
X101.2Y-32.2
X101.4Y-38.7
X101.6Y-41.2
X102.25Y-30.4
X102.6Y-28.5
X103.0Y-21.0
X103.0Y-32.3
X103.0Y-52.0
X103.25Y-30.4
X105.0Y-21.0
X105.0Y-52.0
X105.1Y-40.3
X105.5Y-30.4
X105.8Y-44.8
X107.0Y-21.0
X107.0Y-52.0
X109.0Y-21.0
X109.0Y-52.0
X110.1Y-40.3
X111.0Y-21.0
X111.0Y-52.0
X111.2Y-27.1
X113.0Y-21.0
X113.0Y-40.3
X113.0Y-52.0
X114.2Y-38.9
X114.8Y-28.5
X115.0Y-21.0
X115.0Y-52.0
X115.14Y-30.4
X116.1Y-30.4
X117.0Y-21.0
X117.0Y-52.0
X117.1Y-30.4
X117.6Y-32.2
X118.8Y-28.6
X119.0Y-21.0
X119.0Y-38.7
X119.0Y-52.0
X119.2Y-32.2
X120.68Y-30.4
X121.0Y-21.0
X121.0Y-52.0
X121.8Y-29.2
X122.2Y-32.0
X122.4Y-38.7
X123.0Y-21.5
X123.0Y-51.5
X124.5Y-23.0
X124.5Y-50.0
X125.0Y-25.0
X125.0Y-27.0
X125.0Y-29.0
X125.0Y-31.0
X125.0Y-33.0
X125.0Y-35.0
X125.0Y-38.0
X125.0Y-40.0
X125.0Y-42.0
X125.0Y-44.0
X125.0Y-46.0
X125.0Y-48.0
T3
X22.6Y-25.0
X22.6Y-48.0
X23.303Y-23.303
X23.303Y-26.697
X23.303Y-46.303
X23.303Y-49.697
X25.0Y-22.6
X25.0Y-27.4
X25.0Y-45.6
X25.0Y-50.4
X26.697Y-23.303
X26.697Y-26.697
X26.697Y-46.303
X26.697Y-49.697
X27.4Y-25.0
X27.4Y-48.0
X118.6Y-25.0
X118.6Y-48.0
X119.303Y-23.303
X119.303Y-26.697
X119.303Y-46.303
X119.303Y-49.697
X121.0Y-22.6
X121.0Y-27.4
X121.0Y-45.6
X121.0Y-50.4
X122.697Y-23.303
X122.697Y-26.697
X122.697Y-46.303
X122.697Y-49.697
X123.4Y-25.0
X123.4Y-48.0
T4
X26.0Y-34.0
X26.0Y-36.5
X26.0Y-39.0
X42.25Y-24.525
X44.75Y-24.525
X47.25Y-24.525
X49.75Y-24.525
X50.1Y-48.475
X52.6Y-48.475
X55.1Y-48.475
X57.6Y-48.475
X60.1Y-48.475
X62.95Y-24.525
X65.45Y-24.525
X67.95Y-24.525
X70.45Y-24.525
X83.95Y-24.525
X86.45Y-24.525
X88.95Y-24.525
X91.45Y-24.525
X92.1Y-48.475
X94.6Y-48.475
X97.1Y-48.475
X99.6Y-48.475
X102.1Y-48.475
X104.95Y-24.525
X107.45Y-24.525
X109.95Y-24.525
X112.45Y-24.525
T5
X25.0Y-25.0
X25.0Y-48.0
X121.0Y-25.0
X121.0Y-48.0
T0
M30
