%TF.GenerationSoftware,KiCad,Pcbnew,6.0.11-2627ca5db0~126~ubuntu22.04.1*%
%TF.CreationDate,2023-03-12T12:19:34+01:00*%
%TF.ProjectId,Stepper_Driver_TMC2225-SA-Tx4,53746570-7065-4725-9f44-72697665725f,rev?*%
%TF.SameCoordinates,Original*%
%TF.FileFunction,Soldermask,Bot*%
%TF.FilePolarity,Negative*%
%FSLAX46Y46*%
G04 Gerber Fmt 4.6, Leading zero omitted, Abs format (unit mm)*
G04 Created by KiCad (PCBNEW 6.0.11-2627ca5db0~126~ubuntu22.04.1) date 2023-03-12 12:19:34*
%MOMM*%
%LPD*%
G01*
G04 APERTURE LIST*
G04 Aperture macros list*
%AMRoundRect*
0 Rectangle with rounded corners*
0 $1 Rounding radius*
0 $2 $3 $4 $5 $6 $7 $8 $9 X,Y pos of 4 corners*
0 Add a 4 corners polygon primitive as box body*
4,1,4,$2,$3,$4,$5,$6,$7,$8,$9,$2,$3,0*
0 Add four circle primitives for the rounded corners*
1,1,$1+$1,$2,$3*
1,1,$1+$1,$4,$5*
1,1,$1+$1,$6,$7*
1,1,$1+$1,$8,$9*
0 Add four rect primitives between the rounded corners*
20,1,$1+$1,$2,$3,$4,$5,0*
20,1,$1+$1,$4,$5,$6,$7,0*
20,1,$1+$1,$6,$7,$8,$9,0*
20,1,$1+$1,$8,$9,$2,$3,0*%
G04 Aperture macros list end*
%ADD10C,0.800000*%
%ADD11C,6.400000*%
%ADD12RoundRect,0.250000X-0.600000X-0.725000X0.600000X-0.725000X0.600000X0.725000X-0.600000X0.725000X0*%
%ADD13O,1.700000X1.950000*%
%ADD14RoundRect,0.250000X-0.725000X0.600000X-0.725000X-0.600000X0.725000X-0.600000X0.725000X0.600000X0*%
%ADD15O,1.950000X1.700000*%
%ADD16RoundRect,0.250000X0.600000X0.725000X-0.600000X0.725000X-0.600000X-0.725000X0.600000X-0.725000X0*%
G04 APERTURE END LIST*
D10*
%TO.C,H2*%
X121000000Y-27400000D03*
X123400000Y-25000000D03*
X119302944Y-23302944D03*
X122697056Y-23302944D03*
X122697056Y-26697056D03*
X118600000Y-25000000D03*
X121000000Y-22600000D03*
X119302944Y-26697056D03*
D11*
X121000000Y-25000000D03*
%TD*%
D12*
%TO.C,J2*%
X92100000Y-48475000D03*
D13*
X94600000Y-48475000D03*
X97100000Y-48475000D03*
X99600000Y-48475000D03*
X102100000Y-48475000D03*
%TD*%
D10*
%TO.C,H4*%
X23302944Y-46302944D03*
X23302944Y-49697056D03*
D11*
X25000000Y-48000000D03*
D10*
X26697056Y-46302944D03*
X27400000Y-48000000D03*
X22600000Y-48000000D03*
X25000000Y-45600000D03*
X25000000Y-50400000D03*
X26697056Y-49697056D03*
%TD*%
D14*
%TO.C,J3*%
X26000000Y-34000000D03*
D15*
X26000000Y-36500000D03*
X26000000Y-39000000D03*
%TD*%
D16*
%TO.C,J4*%
X49750000Y-24525000D03*
D13*
X47250000Y-24525000D03*
X44750000Y-24525000D03*
X42250000Y-24525000D03*
%TD*%
D10*
%TO.C,H1*%
X22600000Y-25000000D03*
X26697056Y-23302944D03*
X25000000Y-22600000D03*
X25000000Y-27400000D03*
X23302944Y-26697056D03*
X26697056Y-26697056D03*
D11*
X25000000Y-25000000D03*
D10*
X27400000Y-25000000D03*
X23302944Y-23302944D03*
%TD*%
D12*
%TO.C,J1*%
X50100000Y-48475000D03*
D13*
X52600000Y-48475000D03*
X55100000Y-48475000D03*
X57600000Y-48475000D03*
X60100000Y-48475000D03*
%TD*%
D16*
%TO.C,J5*%
X70450000Y-24525000D03*
D13*
X67950000Y-24525000D03*
X65450000Y-24525000D03*
X62950000Y-24525000D03*
%TD*%
D16*
%TO.C,J7*%
X112450000Y-24525000D03*
D13*
X109950000Y-24525000D03*
X107450000Y-24525000D03*
X104950000Y-24525000D03*
%TD*%
D10*
%TO.C,H3*%
X121000000Y-45600000D03*
X121000000Y-50400000D03*
X123400000Y-48000000D03*
X122697056Y-46302944D03*
D11*
X121000000Y-48000000D03*
D10*
X118600000Y-48000000D03*
X122697056Y-49697056D03*
X119302944Y-46302944D03*
X119302944Y-49697056D03*
%TD*%
D16*
%TO.C,J6*%
X91450000Y-24525000D03*
D13*
X88950000Y-24525000D03*
X86450000Y-24525000D03*
X83950000Y-24525000D03*
%TD*%
M02*
